<svg xmlns="http://www.w3.org/2000/svg" width="0" height="0"><defs><symbol id="avatar_1" viewBox="0 0 135.39 136.34"><g id="Layer_1"><path d="M135.39 67.7c0 19.19-7.99 36.52-20.82 48.83l-.03.03c-.13.12-.25.24-.38.37l-.14.13-.03.03c-.06.06-.13.12-.19.18a67.419 67.419 0 0 1-5.5 4.61c-1.71 1.29-3.49 2.5-5.33 3.62a68.262 68.262 0 0 1-6.13 3.33l-.45.21a67.05 67.05 0 0 1-25.69 6.3c-.11 0-.23 0-.34.01-.57.03-1.13.04-1.7.05h-.97c-.42 0-.83 0-1.25-.01v-.04l-.03-.05-.03.03v.02l-.05.04c-.45 0-.89-.03-1.34-.04-.1 0-.21 0-.31-.01-9.33-.4-18.17-2.7-26.15-6.52a67.96 67.96 0 0 1-16.85-11.45c-.07-.06-.13-.13-.2-.19l-.03-.03c-.12-.12-.24-.23-.37-.35-.05-.05-.11-.1-.16-.15-.12-.12-.24-.24-.37-.36l-.03-.03C7.87 103.97 0 86.75 0 67.7 0 30.31 30.3 0 67.69 0s67.69 30.31 67.69 67.7Z" style="fill:#efeeee"/><path d="M82.61 71.37c-1.55-.13-2.54.32-2.87 1.47-.27.93-1.13 1.52-2.09 1.44-1.18-.1-1.94.39-2.46 1.21-.6.95-1.92 1.15-2.8.46-1.25-.98-2.64-1.47-4.53-.35-.85.5-1.9.27-2.54-.49-.39-.46-.83-.54-1.3-.35-.83.34-1.77-.04-2.28-.78s-1-1.09-1.52-1.16c-.85-.11-1.44-.84-1.64-1.68-.1-.43-.37-.74-.85-.87-.92-.26-1.58-1.12-1.5-2.07.11-1.32-.43-2.02-1.57-2.13-1.06-.11-1.93-.99-1.85-2.06.03-.45-.1-.8-.42-1.04-.57-.45-.78-1.21-.66-1.93.15-.92-.52-1.61-1.98-2.07-1.93-.91-3.15-.8-3.6.42-.23.62-.73 1.1-1.37 1.26-3.05.76-4.65 1.96-3.04 4.1.4.53.47 1.24.22 1.86-1.04 2.58-1.11 4.82.87 6.38.87.68.96 1.94.26 2.79-1.34 1.62-.55 3.07 1.69 4.42.67.4 1.01 1.18.91 1.95-.3 2.39.83 2.99 2.47 2.95 1.04-.02 1.94.72 2.03 1.75.17 2.02 1.23 3.46 4.75 3.32.8-.03 1.51.45 1.85 1.17.88 1.88 1.96 1.86 3.13.91.93-.75 2.29-.52 2.92.49.82 1.32 1.8 1.06 2.84.14.7-.62 1.73-.69 2.48-.13 2.3 1.74 4.49 2.02 6.51.19.68-.61 1.68-.72 2.44-.21 1.22.82 2.16.7 2.78-.43.49-.9 1.56-1.27 2.51-.89 1.66.68 2.18-.3 2.38-1.72.14-1.01 1.05-1.71 2.07-1.65 1.8.1 2.51-.99 2.76-2.6.15-.97 1-1.7 1.98-1.65 2.55.13 2.77-1.48 2.01-3.82-.32-.97.18-2.04 1.14-2.41 1.91-.74 1.82-2.06.49-3.74-.65-.82-.51-1.98.26-2.68 1.07-.98.86-2.1 0-3.29-.52-.71-.52-1.71.03-2.39 1.19-1.48.66-3.07-1.06-4.73-.42-.4-.59-.98-.54-1.56.08-.96-.76-1.23-2.59-.74-.08.02-.17.05-.24.08-2.63 1.05-3.26 2.22-2.95 3.44.21.84-.25 1.69-1.02 2.09-.59.31-.73.72-.59 1.2.26.9-.02 1.89-.84 2.34-.55.3-.89.89-.96 1.89-.07 1.11-1 1.95-2.11 1.86Z"/><path d="m114.01 117.05-.03.03c-.06.06-.13.12-.19.18a67.419 67.419 0 0 1-5.5 4.61c-1.71 1.29-3.49 2.5-5.33 3.62a68.262 68.262 0 0 1-6.13 3.33l-.45.21a67.05 67.05 0 0 1-25.69 6.3c-.11 0-.23 0-.34.01h-5.36c-.1 0-.21 0-.31-.01-9.33-.4-18.17-2.7-26.15-6.52a67.96 67.96 0 0 1-16.85-11.45c-.07-.06-.13-.13-.2-.19l-.03-.03c2.52-2.95 5.69-5.94 9.67-8.69 2.4-1.65 5.08-3.21 8.1-4.63 2.08-.98 4.32-1.89 6.73-2.7 1.66-.57 3.24-1.35 4.66-2.39l5.96-4.34V77.68h22.84v16.26s4.91 4.67 7.53 6.39c.35.23.65.4.9.51.87.38 3.76 1.21 7.46 2.76 2.45 1.04 5.27 2.38 8.1 4.13 3.37 2.08 6.76 4.72 9.58 8.06.35.42.7.84 1.03 1.26Z" style="fill:#fff;stroke:#000;stroke-linecap:round;stroke-linejoin:round;stroke-width:2px"/><path d="M56.58 78.21s9.05 10.04 16.26 9.07c7.21-.97 6.23-3 6.23-3l.35-6.59-22.84.52Z"/><path d="M48.48 54.99s-1.6-3.38-4.8-1.66c-3.2 1.73-.39 10.37 3.2 12.02s2.96-1.07 2.96-1.07" style="fill:#fff;stroke:#000;stroke-linecap:round;stroke-linejoin:round;stroke-width:2px"/><path d="M44.37 56.73s3.71-.05 4.77 3" style="fill:#fff;stroke:#000;stroke-linecap:round;stroke-linejoin:round;stroke-width:2px"/><path d="M46.56 61.58s-1.45-2.57 1-3.64M88.59 54.99s1.6-3.38 4.8-1.66c3.2 1.73.39 10.37-3.2 12.02s-2.96-1.07-2.96-1.07" style="fill:#fff;stroke:#000;stroke-linecap:round;stroke-linejoin:round;stroke-width:2px"/><path d="M92.7 56.73s-3.71-.05-4.77 3" style="fill:#fff;stroke:#000;stroke-linecap:round;stroke-linejoin:round;stroke-width:2px"/><path d="M90.5 61.58s1.45-2.57-1-3.64" style="fill:#fff;stroke:#000;stroke-linecap:round;stroke-linejoin:round;stroke-width:2px"/><path d="M48.49 51.06s-.52 18.67 4.92 24.15c5.44 5.48 8.14 7.4 12.75 7.86s6.8.52 12.55-3.63 7.72-7.96 8.41-12.08c.69-4.12 2.4-21.42 2.4-21.42l-5.91-14.03-17.26-4.45-5.96.87-6.42 4.99-4.72 8.11-.77 9.64Z" style="fill:#fff;stroke:#000;stroke-miterlimit:10;stroke-width:1.53px"/><circle cx="77.62" cy="52.45" r="1.8"/><circle cx="58.38" cy="52.45" r="1.8"/><path d="M66.47 57.4v3.62c0 1.13.88 2.11 2.01 2.11.54 0 1.13-.23 1.67-.91M61.18 66.67s7.74 4.6 14.1 0" style="fill:none;stroke:#000;stroke-linecap:round;stroke-linejoin:round;stroke-width:2px"/><path d="m72.56 46.73 1.56 1.97 10.5-.19s-3.35-1.66-4.5-1.78-7.56 0-7.56 0ZM63.93 46.73l-1.56 1.97-10.5-.19s3.35-1.66 4.5-1.78 7.56 0 7.56 0Z"/><path d="m48.42 100.36 20.24 6.89 18.29-6.91M68.66 107.25v28.09" style="fill:none;stroke:#000;stroke-miterlimit:10;stroke-width:2px"/><path d="M75.82 63.53s1.56 2.27 1.55 4.7M60.96 63.9s-1.56 2.27-1.55 4.7" style="fill:#fff;stroke:#000;stroke-linecap:round;stroke-linejoin:round"/><path d="M64.84 78.33s3.48-1.7 5.68.45" style="fill:#fff;stroke:#000;stroke-linecap:round;stroke-linejoin:round;stroke-width:.83px"/><path d="M55.87 41.87c1.55.13 2.54-.32 2.87-1.47.27-.93 1.13-1.52 2.09-1.44 1.18.1 1.94-.39 2.46-1.21.6-.95 1.92-1.15 2.8-.46 1.25.98 2.64 1.47 4.53.35.85-.5 1.9-.27 2.54.49.39.46.83.54 1.3.35.83-.34 1.77.04 2.28.78s1 1.09 1.52 1.16c.85.11 1.44.84 1.64 1.68.1.43.37.74.85.87.92.26 1.58 1.12 1.5 2.07-.11 1.32.43 2.02 1.57 2.13 1.06.11 1.93.99 1.85 2.06-.03.45.1.8.42 1.04.57.45.78 1.21.66 1.93-.15.92.52 1.61 1.98 2.07 1.93.91 3.15.8 3.6-.42.23-.62.73-1.1 1.37-1.26 3.05-.76 4.65-1.96 3.04-4.1-.4-.53-.47-1.24-.22-1.86 1.04-2.58 1.11-4.82-.87-6.38-.87-.68-.96-1.94-.26-2.79 1.34-1.62.55-3.07-1.69-4.42-.67-.4-1.01-1.18-.91-1.95.3-2.39-.83-2.99-2.47-2.95-1.04.02-1.94-.72-2.03-1.75-.17-2.02-1.23-3.46-4.75-3.32-.8.03-1.51-.45-1.85-1.17-.88-1.88-1.96-1.86-3.13-.91-.93.75-2.29.52-2.92-.49-.82-1.32-1.8-1.06-2.84-.14-.7.62-1.73.69-2.48.13-2.3-1.74-4.49-2.02-6.51-.19-.68.61-1.68.72-2.44.21-1.22-.82-2.16-.7-2.78.43-.49.9-1.56 1.27-2.51.89-1.66-.68-2.18.3-2.38 1.72-.14 1.01-1.05 1.71-2.07 1.65-1.8-.1-2.51.99-2.76 2.6-.15.97-1 1.7-1.98 1.65-2.55-.13-2.77 1.48-2.01 3.82.32.97-.18 2.04-1.14 2.41-1.91.74-1.82 2.06-.49 3.74.65.82.51 1.98-.26 2.68-1.07.98-.86 2.1 0 3.29.52.71.52 1.71-.03 2.39-1.19 1.48-.66 3.07 1.06 4.73.42.4.59.98.54 1.56-.08.96.76 1.23 2.59.74.08-.02.17-.05.24-.08 2.63-1.05 3.26-2.22 2.95-3.44-.21-.84.25-1.69 1.02-2.09.59-.31.73-.72.59-1.2-.26-.9.02-1.89.84-2.34.55-.3.89-.89.96-1.89.07-1.11 1-1.95 2.11-1.86Z"/><circle cx="73.54" cy="112.76" r="1.94"/><circle cx="73.54" cy="118.43" r="1.94"/><circle cx="73.54" cy="124.09" r="1.94"/><circle cx="73.54" cy="129.76" r="1.94"/><path d="M51.77 44.13h14.7v8c0 3.7-3 6.7-6.7 6.7h-1.29c-3.7 0-6.7-3-6.7-6.7v-8h0ZM71.23 44.13h14.7v8c0 3.7-3 6.7-6.7 6.7h-1.29c-3.7 0-6.7-3-6.7-6.7v-8h0Z" style="fill:none;stroke:#000;stroke-linecap:round;stroke-linejoin:round;stroke-width:2px"/><path d="M66.47 49.06h5.06v1.01h-5.06z"/><path d="m51.77 52.22-3.3 3.15M85.54 53.44 88.48 56" style="fill:none;stroke:#000;stroke-miterlimit:10;stroke-width:2px"/></g></symbol><symbol id="avatar_2" viewBox="0 0 135.39 136.35"><g id="Layer_1"><path d="M135.39 67.7c0 19.2-7.99 36.52-20.83 48.84l-.02.02s-.02.02-.03.02c-.09.09-.18.18-.27.26l-.08.08c-.54.51-1.08 1.01-1.64 1.5-.32.28-.64.57-.97.84-.97.83-1.97 1.63-3 2.41-.08.06-.16.13-.25.19-2.8 2.1-5.78 4-8.89 5.65-.72.38-1.43.75-2.16 1.1l-.3.15c-.03.02-.06.03-.1.05-1.27.61-2.56 1.17-3.87 1.7-3.1 1.26-6.32 2.28-9.64 3.07-.2.05-.41.1-.61.13-.46.11-.92.21-1.38.3-.23.05-.46.1-.69.14-2.86.56-5.79.93-8.78 1.11-.62.04-1.23.07-1.85.09-.78.03-1.55.04-2.33.04s-1.62-.01-2.42-.04c-1.34-.05-2.67-.14-3.99-.26-2.93-.28-5.8-.74-8.61-1.37-.24-.05-.47-.11-.7-.16-.28-.07-.55-.14-.83-.2-4.39-1.1-8.61-2.64-12.61-4.55-.13-.06-.27-.13-.4-.19-.29-.14-.59-.29-.87-.43-.37-.19-.74-.38-1.1-.57-.21-.11-.42-.22-.63-.34a69.413 69.413 0 0 1-8.46-5.42c-.08-.06-.16-.13-.25-.19a59.383 59.383 0 0 1-3.89-3.19l-.78-.69c-.11-.11-.22-.21-.33-.31-.24-.22-.48-.45-.73-.68-.05-.05-.11-.1-.16-.15l-.04-.04s-.03-.03-.05-.04c-.08-.08-.17-.16-.26-.25l-.03-.03-.02-.02C7.88 103.98 0 86.76 0 67.7 0 30.31 30.3 0 67.69 0s67.69 30.31 67.69 67.7Z" style="fill:#efeeee"/><path d="m114.55 116.54-.02.02s-.02.02-.03.02c-.09.09-.18.18-.27.26l-.08.08c-.54.51-1.08 1.01-1.64 1.5-.32.28-.64.57-.97.84-.97.83-1.97 1.63-3 2.41-.08.06-.16.13-.25.19-2.8 2.1-5.78 4-8.89 5.65-.72.38-1.43.75-2.16 1.1l-.3.15c-.03.02-.06.03-.1.05-1.27.61-2.56 1.17-3.87 1.7-3.1 1.26-6.32 2.28-9.64 3.07-.2.05-.41.1-.61.13-.46.11-.92.21-1.38.3-.23.05-.46.1-.69.14-2.86.56-5.79.93-8.78 1.11-.62.04-1.23.07-1.85.09h-4.75c-1.34-.05-2.67-.14-3.99-.26-2.93-.28-5.8-.74-8.61-1.37-.24-.05-.47-.11-.7-.16-.28-.07-.55-.14-.83-.2-4.39-1.1-8.61-2.64-12.61-4.55-.13-.06-.27-.13-.4-.19-.29-.14-.59-.29-.87-.43-.37-.19-.74-.38-1.1-.57-.21-.11-.42-.22-.63-.34a69.413 69.413 0 0 1-8.46-5.42c-.08-.06-.16-.13-.25-.19a59.383 59.383 0 0 1-3.89-3.19l-.78-.69c-.11-.11-.22-.21-.33-.31-.24-.22-.48-.45-.73-.68-.05-.05-.11-.1-.16-.15l-.04-.04s-.03-.03-.05-.04c-.08-.08-.17-.16-.26-.25l-.03-.03-.02-.02c.09-.13.18-.25.27-.37.11-.15.22-.29.32-.43.15-.19.3-.39.45-.57h0c.43-.55.87-1.07 1.31-1.57 1.45-1.64 2.95-3.1 4.41-4.36.24-.21.47-.4.71-.6 3.84-3.19 8.4-5.36 13.23-6.6 3.97-1.02 6.75-2.76 8.47-4.18.2-.16.38-.32.56-.48 1.14-1.01 1.68-1.76 1.68-1.76V77.17h.43l27.9.2h.36v17.98h0c.07.09.67.85 1.88 1.84.2.16.42.33.65.51 1.97 1.47 5.13 3.27 9.67 4.23 4.41.94 8.57 2.83 12.21 5.49.66.48 1.33.99 2.02 1.54 1.45 1.18 2.95 2.51 4.4 4.02.3.32.6.64.9.97h0c.57.63 1.11 1.27 1.65 1.95h0c.16.21.33.42.49.63Z" style="fill:#fff;stroke:#000;stroke-linecap:round;stroke-linejoin:round;stroke-width:2px"/><path d="M51.98 77.17s2.93 9.69 14.97 12.36c12.3 2.73 13.72-4.45 13.72-4.45v-7.71s-14.35 9.1-21.55 4.14c-7.21-4.96-7.14-4.35-7.14-4.35Z"/><path d="M87.31 56.88s7.86-3.73 5.56 4.19-6.85 6.53-6.85 6.53" style="fill:#fff;stroke:#000;stroke-miterlimit:10;stroke-width:1.81px"/><path d="M91.01 59.02s-2.56-1.1-3.7 1.77c0 0 2.66-.83 1.56 3.55" style="fill:#fff;stroke:#000;stroke-linecap:round;stroke-linejoin:round;stroke-width:1.81px"/><path d="M45.42 56.17s-7.86-3.73-5.56 4.19c2.3 7.91 6.85 6.53 6.85 6.53" style="fill:#fff;stroke:#000;stroke-miterlimit:10;stroke-width:1.81px"/><path d="M41.72 58.31s2.56-1.1 3.7 1.77c0 0-2.66-.83-1.56 3.55" style="fill:#fff;stroke:#000;stroke-linecap:round;stroke-linejoin:round;stroke-width:1.81px"/><ellipse cx="66.44" cy="56.32" rx="21" ry="28.03" style="fill:#fff;stroke:#000;stroke-miterlimit:10;stroke-width:2.17px"/><path d="M65.12 56.22v9.06s1.18 3.42 4.85.58" style="fill:none;stroke:#000;stroke-linecap:round;stroke-linejoin:round;stroke-width:2px"/><circle cx="75.79" cy="54.99" r="1.73"/><circle cx="57.79" cy="54.99" r="1.73"/><path d="M51.98 95.35s14.09 15.51 28.69 0" style="fill:#fff;stroke:#000;stroke-miterlimit:10;stroke-width:2.31px"/><path d="M72.69 51.55c1.36.13 2.68-.27 4.04-.28 1.14 0 2.17.42 2.95 1.25.7.74 1.81-.38 1.12-1.12a5.48 5.48 0 0 0-3.66-1.71c-1.5-.1-2.96.41-4.46.27-.43-.04-.79.39-.79.79 0 .46.36.75.79.79ZM61.05 49.97c-1.5.14-2.96-.37-4.46-.27-1.39.09-2.7.68-3.66 1.71-.69.74.42 1.86 1.12 1.12.78-.84 1.81-1.26 2.95-1.25 1.36 0 2.68.41 4.04.28.43-.04.79-.34.79-.79 0-.4-.36-.83-.79-.79Z"/><path d="M61.39 70.26s5.2 6.1 11.3 0" style="fill:none;stroke:#000;stroke-linecap:round;stroke-linejoin:round;stroke-width:2px"/><path d="M37.41 104.7c-.32-.09-.88.88-1.25 2.17-.07.24-.12.46-.16.68-.07-.2-.16-.41-.25-.62-.54-1.23-1.23-2.11-1.54-1.98-.31.14-.12 1.24.43 2.47.54 1.23 1.23 2.11 1.54 1.98.02-.01.04-.03.06-.05.33-.17.78-1.04 1.09-2.14.37-1.29.4-2.41.08-2.5Z"/><path d="M37.41 108.92c-.32-.09-.88.88-1.25 2.17-.07.24-.12.46-.16.68-.07-.2-.16-.41-.25-.62-.54-1.23-1.23-2.11-1.54-1.98-.31.14-.12 1.24.43 2.47.54 1.23 1.23 2.11 1.54 1.98.02-.01.04-.03.06-.05.33-.17.78-1.04 1.09-2.14.37-1.29.4-2.41.08-2.5Z"/><path d="M37.41 112.94c-.32-.09-.88.88-1.25 2.17-.07.24-.12.46-.16.68-.07-.2-.16-.41-.25-.62-.54-1.23-1.23-2.11-1.54-1.98-.31.14-.12 1.24.43 2.47.54 1.23 1.23 2.11 1.54 1.98.02-.01.04-.03.06-.05.33-.17.78-1.04 1.09-2.14.37-1.29.4-2.41.08-2.5Z"/><path d="M37.41 117.12c-.32-.09-.88.88-1.25 2.17-.07.24-.12.46-.16.68-.07-.2-.16-.41-.25-.62-.54-1.23-1.23-2.11-1.54-1.98-.31.14-.12 1.24.43 2.47.54 1.23 1.23 2.11 1.54 1.98.02-.01.04-.03.06-.05.33-.17.78-1.04 1.09-2.14.37-1.29.4-2.41.08-2.5Z"/><path d="M37.41 121.3c-.32-.09-.88.88-1.25 2.17-.07.24-.12.46-.16.68-.07-.2-.16-.41-.25-.62-.54-1.23-1.23-2.11-1.54-1.98-.31.14-.12 1.24.43 2.47.54 1.23 1.23 2.11 1.54 1.98.02-.01.04-.03.06-.05.33-.17.78-1.04 1.09-2.14.37-1.29.4-2.41.08-2.5ZM35.54 127.28c-.48-.26-.97-.53-1.45-.81-.06-.4-.03-.67.11-.74.27-.12.83.55 1.33 1.54ZM37.33 127.98c-.02.07-.04.14-.06.2-.37-.19-.74-.38-1.1-.57.37-1.27.92-2.23 1.24-2.14.32.09.29 1.21-.08 2.5ZM22.67 115.58c-.24.83-.55 1.54-.84 1.9-.24-.22-.48-.45-.73-.68-.05-.05-.11-.1-.16-.15l-.04-.04s-.03-.03-.05-.04c-.08-.08-.17-.16-.26-.25l-.03-.03-.02-.02c.09-.13.18-.25.27-.37.11-.15.22-.29.32-.43.07.16.13.31.18.46.05-.22.1-.45.16-.68.03-.12.07-.24.11-.35.36-1.11.85-1.91 1.14-1.82.08.02.14.11.17.25.11.42.02 1.29-.25 2.26ZM22.94 118.48l-.78-.69c.22-.38.43-.58.59-.54.21.06.27.54.19 1.23ZM111.64 115.45c.31 1.1.76 1.97 1.09 2.14.02.02.04.04.06.05.24.11.71-.4 1.16-1.21-.16-.22-.32-.44-.48-.65-.11-.15-.22-.29-.32-.43-.07.16-.13.31-.18.46-.05-.22-.1-.45-.16-.68a3.58 3.58 0 0 0-.11-.35c-.36-1.11-.85-1.91-1.14-1.82-.08.02-.14.11-.17.25-.11.42-.02 1.29.25 2.26ZM112.52 118.42c-.32.28-.64.57-.97.84-.27-1.13-.28-2.06.02-2.14.24-.07.62.47.95 1.3ZM99.39 104.6c-.32-.09-.88.88-1.25 2.17-.07.24-.12.46-.16.68-.07-.2-.16-.41-.25-.62-.54-1.23-1.23-2.11-1.54-1.98-.31.14-.12 1.24.43 2.47.54 1.23 1.23 2.11 1.54 1.98.02-.01.04-.03.06-.05.33-.17.78-1.04 1.09-2.14.37-1.29.4-2.41.08-2.5Z"/><path d="M99.39 108.82c-.32-.09-.88.88-1.25 2.17-.07.24-.12.46-.16.68-.07-.2-.16-.41-.25-.62-.54-1.23-1.23-2.11-1.54-1.98-.31.14-.12 1.24.43 2.47.54 1.23 1.23 2.11 1.54 1.98.02-.01.04-.03.06-.05.33-.17.78-1.04 1.09-2.14.37-1.29.4-2.41.08-2.5Z"/><path d="M99.39 112.84c-.32-.09-.88.88-1.25 2.17-.07.24-.12.46-.16.68-.07-.2-.16-.41-.25-.62-.54-1.23-1.23-2.11-1.54-1.98-.31.14-.12 1.24.43 2.47.54 1.23 1.23 2.11 1.54 1.98.02-.01.04-.03.06-.05.33-.17.78-1.04 1.09-2.14.37-1.29.4-2.41.08-2.5Z"/><path d="M99.39 117.02c-.32-.09-.88.88-1.25 2.17-.07.24-.12.46-.16.68-.07-.2-.16-.41-.25-.62-.54-1.23-1.23-2.11-1.54-1.98-.31.14-.12 1.24.43 2.47.54 1.23 1.23 2.11 1.54 1.98.02-.01.04-.03.06-.05.33-.17.78-1.04 1.09-2.14.37-1.29.4-2.41.08-2.5Z"/><path d="M99.39 121.2c-.32-.09-.88.88-1.25 2.17-.07.24-.12.46-.16.68-.07-.2-.16-.41-.25-.62-.54-1.23-1.23-2.11-1.54-1.98-.31.14-.12 1.24.43 2.47.54 1.23 1.23 2.11 1.54 1.98.02-.01.04-.03.06-.05.33-.17.78-1.04 1.09-2.14.37-1.29.4-2.41.08-2.5Z"/><path d="M99.41 127.51c-.72.38-1.43.75-2.16 1.1l-.3.15c-.11-.2-.22-.43-.32-.66-.54-1.23-.73-2.33-.43-2.47.3-.13 1 .75 1.53 1.97.1.21.18.43.25.62.04-.22.1-.45.16-.68.36-1.29.92-2.26 1.24-2.17.3.08.29 1.01.02 2.13ZM53.39 104.66c-.32-.09-.88.88-1.25 2.17-.07.24-.12.46-.16.68-.07-.2-.16-.41-.25-.62-.54-1.23-1.23-2.11-1.54-1.98-.31.14-.12 1.24.43 2.47.54 1.23 1.23 2.11 1.54 1.98.02-.01.04-.03.06-.05.33-.17.78-1.04 1.09-2.14.37-1.29.4-2.41.08-2.5Z"/><path d="M53.39 100.51c-.32-.09-.88.88-1.25 2.17-.07.24-.12.46-.16.68-.07-.2-.16-.41-.25-.62-.54-1.23-1.23-2.11-1.54-1.98-.31.14-.12 1.24.43 2.47.54 1.23 1.23 2.11 1.54 1.98.02-.01.04-.03.06-.05.33-.17.78-1.04 1.09-2.14.37-1.29.4-2.41.08-2.5Z"/><path d="M53.07 96.66c-.32-.09-.88.88-1.25 2.17-.07.24-.12.46-.16.68-.07-.2-.16-.41-.25-.62-.54-1.23-1.23-2.11-1.54-1.98-.31.14-.12 1.24.43 2.47.54 1.23 1.23 2.11 1.54 1.98.02-.01.04-.03.06-.05.33-.17.78-1.04 1.09-2.14.37-1.29.4-2.41.08-2.5ZM53.39 108.88c-.32-.09-.88.88-1.25 2.17-.07.24-.12.46-.16.68-.07-.2-.16-.41-.25-.62-.54-1.23-1.23-2.11-1.54-1.98-.31.14-.12 1.24.43 2.47.54 1.23 1.23 2.11 1.54 1.98.02-.01.04-.03.06-.05.33-.17.78-1.04 1.09-2.14.37-1.29.4-2.41.08-2.5Z"/><path d="M53.39 112.9c-.32-.09-.88.88-1.25 2.17-.07.24-.12.46-.16.68-.07-.2-.16-.41-.25-.62-.54-1.23-1.23-2.11-1.54-1.98-.31.14-.12 1.24.43 2.47.54 1.23 1.23 2.11 1.54 1.98.02-.01.04-.03.06-.05.33-.17.78-1.04 1.09-2.14.37-1.29.4-2.41.08-2.5Z"/><path d="M53.39 117.08c-.32-.09-.88.88-1.25 2.17-.07.24-.12.46-.16.68-.07-.2-.16-.41-.25-.62-.54-1.23-1.23-2.11-1.54-1.98-.31.14-.12 1.24.43 2.47.54 1.23 1.23 2.11 1.54 1.98.02-.01.04-.03.06-.05.33-.17.78-1.04 1.09-2.14.37-1.29.4-2.41.08-2.5Z"/><path d="M53.39 121.26c-.32-.09-.88.88-1.25 2.17-.07.24-.12.46-.16.68-.07-.2-.16-.41-.25-.62-.54-1.23-1.23-2.11-1.54-1.98-.31.14-.12 1.24.43 2.47.54 1.23 1.23 2.11 1.54 1.98.02-.01.04-.03.06-.05.33-.17.78-1.04 1.09-2.14.37-1.29.4-2.41.08-2.5Z"/><path d="M53.39 125.44c-.32-.09-.88.88-1.25 2.17-.07.24-.12.46-.16.68-.07-.2-.16-.41-.25-.62-.54-1.23-1.23-2.11-1.54-1.98-.31.14-.12 1.24.43 2.47.54 1.23 1.23 2.11 1.54 1.98.02-.01.04-.03.06-.05.33-.17.78-1.04 1.09-2.14.37-1.29.4-2.41.08-2.5Z"/><path d="M53.32 132.12c-.18.65-.41 1.21-.64 1.6-.24-.05-.47-.11-.7-.16-.28-.07-.55-.14-.83-.2-.18-.29-.36-.64-.53-1.01-.54-1.23-.73-2.33-.43-2.47.3-.14 1 .75 1.54 1.97.1.22.18.43.25.62.04-.22.1-.45.16-.68.37-1.29.92-2.26 1.24-2.17.32.09.29 1.21-.08 2.5ZM83.31 104.89c-.32-.09-.88.88-1.25 2.17-.07.24-.12.46-.16.68-.07-.2-.16-.41-.25-.62-.54-1.23-1.23-2.11-1.54-1.98-.31.14-.12 1.24.43 2.47.54 1.23 1.23 2.11 1.54 1.98.02-.01.04-.03.06-.05.33-.17.78-1.04 1.09-2.14.37-1.29.4-2.41.08-2.5Z"/><path d="M83.31 100.75c-.32-.09-.88.88-1.25 2.17-.07.24-.12.46-.16.68-.07-.2-.16-.41-.25-.62-.54-1.23-1.23-2.11-1.54-1.98-.31.14-.12 1.24.43 2.47.54 1.23 1.23 2.11 1.54 1.98.02-.01.04-.03.06-.05.33-.17.78-1.04 1.09-2.14.37-1.29.4-2.41.08-2.5Z"/><path d="M82.99 96.89c-.32-.09-.88.88-1.25 2.17-.07.24-.12.46-.16.68-.07-.2-.16-.41-.25-.62-.54-1.23-1.23-2.11-1.54-1.98-.31.14-.12 1.24.43 2.47.54 1.23 1.23 2.11 1.54 1.98.02-.01.04-.03.06-.05.33-.17.78-1.04 1.09-2.14.37-1.29.4-2.41.08-2.5ZM83.31 109.12c-.32-.09-.88.88-1.25 2.17-.07.24-.12.46-.16.68-.07-.2-.16-.41-.25-.62-.54-1.23-1.23-2.11-1.54-1.98-.31.14-.12 1.24.43 2.47.54 1.23 1.23 2.11 1.54 1.98.02-.01.04-.03.06-.05.33-.17.78-1.04 1.09-2.14.37-1.29.4-2.41.08-2.5Z"/><path d="M83.31 113.14c-.32-.09-.88.88-1.25 2.17-.07.24-.12.46-.16.68-.07-.2-.16-.41-.25-.62-.54-1.23-1.23-2.11-1.54-1.98-.31.14-.12 1.24.43 2.47.54 1.23 1.23 2.11 1.54 1.98.02-.01.04-.03.06-.05.33-.17.78-1.04 1.09-2.14.37-1.29.4-2.41.08-2.5Z"/><path d="M83.31 117.32c-.32-.09-.88.88-1.25 2.17-.07.24-.12.46-.16.68-.07-.2-.16-.41-.25-.62-.54-1.23-1.23-2.11-1.54-1.98-.31.14-.12 1.24.43 2.47.54 1.23 1.23 2.11 1.54 1.98.02-.01.04-.03.06-.05.33-.17.78-1.04 1.09-2.14.37-1.29.4-2.41.08-2.5Z"/><path d="M83.31 121.49c-.32-.09-.88.88-1.25 2.17-.07.24-.12.46-.16.68-.07-.2-.16-.41-.25-.62-.54-1.23-1.23-2.11-1.54-1.98-.31.14-.12 1.24.43 2.47.54 1.23 1.23 2.11 1.54 1.98.02-.01.04-.03.06-.05.33-.17.78-1.04 1.09-2.14.37-1.29.4-2.41.08-2.5Z"/><path d="M83.31 125.67c-.32-.09-.88.88-1.25 2.17-.07.24-.12.46-.16.68-.07-.2-.16-.41-.25-.62-.54-1.23-1.23-2.11-1.54-1.98-.31.14-.12 1.24.43 2.47.54 1.23 1.23 2.11 1.54 1.98.02-.01.04-.03.06-.05.33-.17.78-1.04 1.09-2.14.37-1.29.4-2.41.08-2.5Z"/><path d="M83.23 132.35c-.15.52-.33.99-.51 1.35-.46.11-.92.21-1.38.3-.26-.36-.55-.86-.81-1.43-.54-1.22-.73-2.33-.43-2.47.31-.13 1 .75 1.54 1.98.09.22.18.42.25.62.04-.22.1-.45.16-.68.37-1.29.92-2.26 1.25-2.17.32.09.29 1.21-.08 2.5ZM68.6 104.89c-.32-.09-.88.88-1.25 2.17-.07.24-.12.46-.16.68-.07-.2-.16-.41-.25-.62-.54-1.23-1.23-2.11-1.54-1.98-.31.14-.12 1.24.43 2.47.54 1.23 1.23 2.11 1.54 1.98.02-.01.04-.03.06-.05.33-.17.78-1.04 1.09-2.14.37-1.29.4-2.41.08-2.5Z"/><path d="M68.77 102.11c-.05.34-.13.73-.24 1.14-.31 1.1-.76 1.97-1.09 2.14-.02.03-.04.04-.06.05-.31.13-1-.75-1.54-1.98-.2-.46-.36-.9-.45-1.28l1.15.05h.05c.13.23.25.48.37.74.09.21.18.42.25.62.05-.22.1-.45.16-.69.07-.24.14-.48.23-.69l1.19-.11ZM68.6 109.12c-.32-.09-.88.88-1.25 2.17-.07.24-.12.46-.16.68-.07-.2-.16-.41-.25-.62-.54-1.23-1.23-2.11-1.54-1.98-.31.14-.12 1.24.43 2.47.54 1.23 1.23 2.11 1.54 1.98.02-.01.04-.03.06-.05.33-.17.78-1.04 1.09-2.14.37-1.29.4-2.41.08-2.5Z"/><path d="M68.6 113.14c-.32-.09-.88.88-1.25 2.17-.07.24-.12.46-.16.68-.07-.2-.16-.41-.25-.62-.54-1.23-1.23-2.11-1.54-1.98-.31.14-.12 1.24.43 2.47.54 1.23 1.23 2.11 1.54 1.98.02-.01.04-.03.06-.05.33-.17.78-1.04 1.09-2.14.37-1.29.4-2.41.08-2.5Z"/><path d="M68.6 117.32c-.32-.09-.88.88-1.25 2.17-.07.24-.12.46-.16.68-.07-.2-.16-.41-.25-.62-.54-1.23-1.23-2.11-1.54-1.98-.31.14-.12 1.24.43 2.47.54 1.23 1.23 2.11 1.54 1.98.02-.01.04-.03.06-.05.33-.17.78-1.04 1.09-2.14.37-1.29.4-2.41.08-2.5Z"/><path d="M68.6 121.49c-.32-.09-.88.88-1.25 2.17-.07.24-.12.46-.16.68-.07-.2-.16-.41-.25-.62-.54-1.23-1.23-2.11-1.54-1.98-.31.14-.12 1.24.43 2.47.54 1.23 1.23 2.11 1.54 1.98.02-.01.04-.03.06-.05.33-.17.78-1.04 1.09-2.14.37-1.29.4-2.41.08-2.5Z"/><path d="M68.6 125.67c-.32-.09-.88.88-1.25 2.17-.07.24-.12.46-.16.68-.07-.2-.16-.41-.25-.62-.54-1.23-1.23-2.11-1.54-1.98-.31.14-.12 1.24.43 2.47.54 1.23 1.23 2.11 1.54 1.98.02-.01.04-.03.06-.05.33-.17.78-1.04 1.09-2.14.37-1.29.4-2.41.08-2.5Z"/><path d="M68.6 129.85c-.32-.09-.88.88-1.25 2.17-.07.24-.12.46-.16.68-.07-.2-.16-.41-.25-.62-.54-1.23-1.23-2.11-1.54-1.98-.31.14-.12 1.24.43 2.47.54 1.23 1.23 2.11 1.54 1.98.02-.01.04-.03.06-.05.33-.17.78-1.04 1.09-2.14.37-1.29.4-2.41.08-2.5ZM45.47 56.72s-4.74-11.19-1.02-20.79 10.13-12.47 11.61-8.57c1.48 3.89 4.19 12.43-10.59 29.37Z"/><path d="M50.15 34.22s27.41 10.53 35.88 2.75c8.47-7.77 1.42-12.95 1.42-12.95s-1.37 2.01-4.12 1.65c-2.75-.36-28.45-9.57-33.17 1.51v7.04Z"/><path d="M82.02 38.43s-3.9 8.26 5.42 19.37c0 0 5.8-15.24-.64-23.14-6.44-7.89-4.78 3.77-4.78 3.77Z"/></g></symbol><symbol id="avatar_3" viewBox="0 0 135.39 136.4"><g id="Layer_1"><path d="M135.39 67.73c.01 9.12-1.83 18.16-5.41 26.55a67.545 67.545 0 0 1-15.41 22.28c-.13.13-.27.27-.42.4l-.14.13-.13.13s-.05.04-.08.07a67.565 67.565 0 0 1-5.51 4.61 71.545 71.545 0 0 1-5.62 3.8 65.063 65.063 0 0 1-5.82 3.14c-.51.24-1.02.48-1.53.71-3 1.34-6.09 2.46-9.25 3.35-5 1.4-10.15 2.23-15.35 2.45l-.53.02c-.84.03-1.65.05-2.48.05s-1.65 0-2.48-.05l-.53-.02a67.368 67.368 0 0 1-25.45-6.19l-.7-.33c-2.55-1.22-5.02-2.6-7.4-4.12a66.753 66.753 0 0 1-9.45-7.33l-.08-.07-.13-.13-.37-.35c-.06-.05-.11-.1-.16-.15l-.4-.38c-8.03-7.78-14-17.43-17.39-28.08a68.005 68.005 0 0 1-2.02-32.97c2.06-10.99 6.8-21.3 13.81-30a67.765 67.765 0 0 1 26.36-19.9A67.706 67.706 0 0 1 73.96.29a67.685 67.685 0 0 1 31.14 10.99 67.696 67.696 0 0 1 30.28 56.45Z" style="fill:#f0eeee"/><path d="M79.81 21.26s23.47 7.5 15.49 53.98c-.36 2.04-.58 4.11-.66 6.18-.2 5.54-2.61 17.86-10.07 21.78l-9.7 5.1 4.94-87.04Z"/><path d="M93.25 46.99s4.55 45.05-7.41 53.67-15.47-.69-15.47-.69l11.86-34.9 11.02-18.08ZM48.81 53.27s-7.33 23.38-.72 35.2c6.61 11.82 20.83 11.5 20.83 11.5s-7.42-20.52-7.5-31.96c-.08-11.44-12.61-14.74-12.61-14.74Z"/><path d="M113.88 117.21s-.05.04-.08.07a67.565 67.565 0 0 1-5.51 4.61 71.545 71.545 0 0 1-5.62 3.8 65.063 65.063 0 0 1-5.82 3.14c-.51.24-1.02.48-1.53.71-3 1.34-6.09 2.46-9.25 3.35-5 1.4-10.15 2.23-15.35 2.45l-.53.02c-.84.03-1.65.05-2.48.05s-1.65 0-2.48-.05l-.53-.02a67.368 67.368 0 0 1-25.45-6.19l-.7-.33c-2.55-1.22-5.02-2.6-7.4-4.12a66.753 66.753 0 0 1-9.45-7.33l-.08-.07c2.8-3.24 6-6.1 9.53-8.52 2.57-1.77 5.27-3.32 8.1-4.64 2.07-.97 4.19-1.83 6.35-2.57.92-.32 1.86-.63 2.83-.92l1.69-1.22 1.54-1.12L54.82 96l.23-.16 1.08-.78.49-.36V75.96l5.77.52 14.24 1.27 1.29.11 1.54.14v16.26l.76.71c.79.73 2.09 1.92 3.43 3.07.36.31.72.61 1.08.9.59.48 1.15.92 1.69 1.29l.39.27.21.14.18.11c.14.09.27.16.39.23l.14.08.19.09c.29.12.8.3 1.48.53 1.39.47 3.5 1.19 5.98 2.23.79.33 1.61.7 2.46 1.1 1.94.9 3.82 1.91 5.63 3.03a39.6 39.6 0 0 1 9.58 8.06c.25.38.55.74.84 1.1Z" style="fill:#fff;stroke:#000;stroke-linecap:round;stroke-linejoin:round;stroke-width:2px"/><path d="M57.8 78.53s9.05 10.04 16.26 9.07c7.2-.97 6.24-3 6.24-3l.35-6.59-22.84.52Z"/><path d="M49.7 55.3s-1.6-3.37-4.8-1.66c-3.2 1.72-.39 10.37 3.2 12.02 3.59 1.65 2.95-1.07 2.95-1.07" style="fill:none;stroke:#000;stroke-linecap:round;stroke-linejoin:round;stroke-width:2px"/><path d="M45.59 57.04s3.71-.05 4.77 3" style="fill:none;stroke:#000;stroke-linecap:round;stroke-linejoin:round;stroke-width:2px"/><path d="M47.79 61.9s-1.45-2.58 1-3.64M89.81 55.3s1.6-3.37 4.8-1.66c3.2 1.72.39 10.37-3.2 12.02-3.59 1.65-2.95-1.07-2.95-1.07" style="fill:none;stroke:#000;stroke-linecap:round;stroke-linejoin:round;stroke-width:2px"/><path d="M93.94 57.04s-3.71-.05-4.77 3" style="fill:none;stroke:#000;stroke-linecap:round;stroke-linejoin:round;stroke-width:2px"/><path d="M91.72 61.9s1.45-2.58-1-3.64" style="fill:none;stroke:#000;stroke-linecap:round;stroke-linejoin:round;stroke-width:2px"/><path d="M49.83 50.35s-1.03 18.28 4.26 23.8 7.93 7.47 12.53 8.05c4.6.57 6.79.69 12.65-3.22 5.87-3.91 7.93-7.59 8.74-11.61.81-4.02 2.99-20.93 2.99-20.93l-5.52-13.92-17.13-4.83-5.98.69-6.56 4.72-4.94 7.82-1.04 9.43Z" style="fill:#fff;stroke:#000;stroke-miterlimit:10;stroke-width:1.51px"/><path d="M49.43 55.13v-2.88s6.49-9.37 6.84-16.73c0 0 13.68 12.3 33.32 8.28v11.32l2.53-1.97s2.75-16.82-7.94-25.45c-10.69-8.62-22.28-5.06-25.63-2.53s-16.3 10.69-9.12 29.95Z"/><path d="M78.84 54.57c.99 0 1.8-.81 1.8-1.8s-.81-1.8-1.8-1.8-1.8.81-1.8 1.8.81 1.8 1.8 1.8ZM59.6 54.57c.99 0 1.8-.81 1.8-1.8s-.81-1.8-1.8-1.8-1.8.81-1.8 1.8.81 1.8 1.8 1.8Z"/><path d="M67.69 57.71v3.62c-.02.44.1.88.35 1.24.25.36.61.64 1.03.77.42.14.87.13 1.29-.01.42-.15.77-.43 1.01-.79M76.51 66.99c-6.36 4.6-14.1 0-14.1 0" style="fill:none;stroke:#000;stroke-linecap:round;stroke-linejoin:round;stroke-width:2px"/><path d="m73.78 47.04 1.56 1.97 10.5-.19s-3.35-1.66-4.5-1.78c-1.15-.13-7.56 0-7.56 0ZM65.15 47.04l-1.56 1.97-10.5-.19s3.34-1.66 4.5-1.78c1.16-.13 7.56 0 7.56 0Z"/><path d="M49.66 100.67s19.15 16.3 38.53 0H49.66Z" style="fill:#fff"/><path d="M49.66 100.67s19.15 16.3 38.53 0" style="fill:none;stroke:#000;stroke-linecap:round;stroke-linejoin:round;stroke-width:2px"/><path d="M102.67 125.69a65.063 65.063 0 0 1-5.82 3.14c-.51.24-1.02.48-1.53.71-3 1.34-6.09 2.46-9.25 3.35.27-4.12.5-12.11-.99-18.6-.84-3.75-2.29-7-4.64-8.72l-.16-.12-.14-.09c-.08-.05-.16-.11-.24-.15a5.89 5.89 0 0 0-1.61-.69c-.34-.1-.7-.17-1.05-.21l-.2-.02c-.58-.05-1.19-.1-1.81-.14h-.15c-3.9-.28-8.5-.48-13.07-1.16-3.15-.43-6.24-1.2-9.21-2.29-.93-.36-1.83-.76-2.72-1.22-3.72-1.94-6.8-4.76-8.63-8.97-.62-1.43-1.07-2.92-1.35-4.45-3.4-18.05-7.51-65.9 27.58-67.11 4.85-.17 8.86.7 12.12 2.34 8.96 4.5 12.53 14.82 13.42 25.72v.15c.16 2.02.23 4.06.22 6.08 0 1.29-.03 2.58-.1 3.85-.13 2.64-.36 5.23-.67 7.67-.91 7.17-2.45 13.15-3.57 15.88 1.06-4.87 1.71-9.83 1.94-14.81.12-2.46.11-4.93-.04-7.38 0-.2-.03-.42-.04-.6-.08-1.17-.21-2.34-.38-3.49 0-.05 0-.09-.02-.14-.11-.7-.23-1.4-.37-2.11l-.03-.13c-.17-.84-.38-1.69-.61-2.53-.51-1.83-1.21-3.6-2.11-5.28a16.459 16.459 0 0 0-6.88-7.04c-.57-.3-1.13-.58-1.69-.84-15.65-7.36-24.27.11-24.27.11s-1.72 5.36-3.4 12.87c-.32 1.43-.64 2.95-.95 4.52-.19.96-.37 1.95-.54 2.95-.11.61-.21 1.23-.31 1.85-.38 2.37-.71 4.81-.95 7.25-.97 9.75-.55 19.6 3.5 25.47 1.04 1.55 2.43 2.84 4.06 3.77a12.9 12.9 0 0 0 5.31 1.56c2.36.2 4.53.37 6.53.5 1.16.08 2.26.15 3.32.21l1.5.08c.94.05 1.84.1 2.7.14 3.26.16 5.9.28 8.15.46.55.04 1.08.09 1.57.14.75.08 1.44.17 2.08.28l.34.05.32.06c.48.09.93.19 1.36.3.59.16 1.16.35 1.72.57 2.26.9 4.07 2.36 6.19 4.82.2.23.39.48.58.74 3.48 4.76 4.62 13.69 4.96 20.68Z"/><path d="M41.46 90.48s3.35 25.6 29.91 22.93c26.56-2.67 22.57 15.16 22.57 15.16s4.64-21.51-5.75-24.29C77.8 101.5 61.42 98.8 61.42 98.8l-19.96-8.32Z"/><path d="M68.21 97.97s15.73-.24 19.02-10.96c3.29-10.72.97 17.83-3.56 18.8-4.53.96-15.46-7.83-15.46-7.83Z"/><path d="M54.04 90.48s16.36 8.33 30.12 0c13.76-8.33-4.35 15.33-4.35 15.33l-16.05-2.11-11.99-5.03-2.11-4.79 1.46-2.18 2.92-1.22Z"/><path d="M96.92 55.13s2.53 42.72-10.45 48.72l10.45-48.72Z"/></g></symbol><symbol id="avatar_4" viewBox="0 0 135.39 136.39"><g id="Layer_1"><path d="M135.39 67.7c0 19.19-7.99 36.52-20.82 48.83l-.03.03s-.08.08-.12.11c-.08.08-.17.17-.26.25l-.16.15c-.06.06-.13.12-.19.18a67.419 67.419 0 0 1-5.5 4.61c-1.71 1.29-3.49 2.5-5.33 3.62a68.262 68.262 0 0 1-6.13 3.33l-.45.21a67.05 67.05 0 0 1-25.69 6.3c-.68.03-1.36.05-2.04.06h-.97c-.42 0-.83 0-1.25-.01l-.03-.09-.03.03-.05.06a67.094 67.094 0 0 1-27.79-6.57 67.96 67.96 0 0 1-16.85-11.45c-.07-.06-.13-.13-.2-.19-.13-.13-.26-.25-.39-.37-.05-.05-.11-.1-.16-.15-.08-.08-.17-.16-.25-.24l-.11-.11-.03-.03C7.87 103.97 0 86.75 0 67.7 0 30.31 30.3 0 67.69 0s67.69 30.31 67.69 67.7Z" style="fill:#efeeee"/><path d="M87.44 54.13s8.69-4.12 6.15 4.63-7.57 7.23-7.57 7.23" style="fill:#fff;stroke:#000;stroke-miterlimit:10;stroke-width:2px"/><path d="M91.54 56.5s-2.83-1.21-4.1 1.96c0 0 2.94-.92 1.73 3.92" style="fill:#fff;stroke:#000;stroke-linecap:round;stroke-linejoin:round;stroke-width:2px"/><path d="M45.32 53.64s-8.69-4.12-6.15 4.63c2.54 8.75 7.57 7.23 7.57 7.23" style="fill:#fff;stroke:#000;stroke-miterlimit:10;stroke-width:2px"/><path d="M41.23 56s2.83-1.21 4.1 1.96c0 0-2.94-.92-1.73 3.92M114.41 116.67c-.08.08-.17.17-.26.25l-.16.15c-.06.06-.13.12-.19.18a67.419 67.419 0 0 1-5.5 4.61c-1.71 1.29-3.49 2.5-5.33 3.62a68.262 68.262 0 0 1-6.13 3.33l-.45.21a67.05 67.05 0 0 1-25.69 6.3c-.68.03-1.36.05-2.04.06h-.97c-.42 0-.83 0-1.25-.01l-.03-.09-.03.03-.05.06h0a67.094 67.094 0 0 1-27.79-6.57 67.96 67.96 0 0 1-16.85-11.45c-.07-.06-.13-.13-.2-.19-.13-.13-.26-.25-.39-.37-.05-.05-.11-.1-.16-.15-.08-.08-.17-.16-.25-.24l.14-.19c2.05-2.74 4.32-5.05 6.5-6.94.24-.2.48-.4.71-.6 3.84-3.19 8.4-5.36 13.23-6.6 7.49-1.91 10.71-6.42 10.71-6.42V77.47l28.69.2v17.98s3.66 4.77 12.2 6.58c4.41.93 8.57 2.83 12.21 5.49.65.48 1.33 1 2.01 1.54 2.34 1.89 4.77 4.2 6.96 6.94h0c.12.15.24.3.35.45Z" style="fill:#fff;stroke:#000;stroke-linecap:round;stroke-linejoin:round;stroke-width:2px"/><ellipse cx="66.44" cy="57.62" rx="21" ry="28.58" style="fill:#fff;stroke:#000;stroke-miterlimit:10;stroke-width:2.19px"/><path d="M65.12 53.38v9.06s1.18 3.42 4.85.58M59.52 67.11s7.44 6.29 14.42.4" style="fill:none;stroke:#000;stroke-linecap:round;stroke-linejoin:round;stroke-width:2px"/><circle cx="75.17" cy="51.33" r="1.73"/><circle cx="57.17" cy="51.33" r="1.73"/><path d="m69.76 45.31 1.56 1.97 10.5-.19s-3.35-1.66-4.5-1.78-7.56 0-7.56 0ZM62.49 45.16l-1.27 2.21-10.5-.19s3.35-1.66 4.5-1.78 7.27-.24 7.27-.24ZM80.54 78.82v4.91c-1.02 6.35-7.85 11-15.08 9.61-7.11-1.37-12.93-13.78-13.11-14.17 3.7 4.7 8.73 7.03 14.09 7.03s10.35-2.47 14.09-7.38Z"/><path d="M51.98 95.67s14.09 15.51 28.69 0" style="fill:#fff;stroke:#000;stroke-miterlimit:10;stroke-width:2.31px"/><circle cx="56.61" cy="50.41" r="7.49" style="fill:none;stroke:#000;stroke-miterlimit:10;stroke-width:1.72px"/><circle cx="75.74" cy="50.41" r="7.49" style="fill:none;stroke:#000;stroke-miterlimit:10;stroke-width:1.72px"/><path d="m83.23 50.41 4.15 2.25M49.12 49.75l-3.61 3.15M64.1 50.41h4.15" style="fill:none;stroke:#000;stroke-miterlimit:10;stroke-width:1.72px"/><path d="M74.67 63.45s3.24 3 3.08 8.46M58.66 63.46s-3.24 3-3.08 8.46" style="fill:none;stroke:#000;stroke-linecap:round;stroke-linejoin:round"/><path d="M91.21 44.26c-1.12-5.83-3.24-9.81-5.94-12.06 5.69-8.15-27.95-14.59-36.53-6.32-1.77 1.7-2.15 4.13-1.41 6.2-2.77 2.23-4.96 6.24-6.1 12.19-1.5 7.79 4.39 9.7 4.39 9.7s1.46-9.25 5.11-11.84c2.26-1.61 2.61-3.98 2.55-5.55 6.11 2.13 16.28 4.25 25.89-.17-.09 1.56.2 4.05 2.54 5.72 3.64 2.59 5.11 11.84 5.11 11.84s5.89-1.92 4.39-9.7Z" style="fill:#fff;stroke:#000;stroke-linecap:round;stroke-linejoin:round;stroke-width:2px"/></g></symbol><symbol id="avatar_5" viewBox="0 0 135.39 136.34"><g id="Layer_1"><path d="M135.39 67.7c.01 9.08-1.81 18.08-5.37 26.44a67.348 67.348 0 0 1-15.3 22.22l-.17.17c-.13.13-.27.27-.42.4l-.34.32a68.117 68.117 0 0 1-10.4 7.96 67.409 67.409 0 0 1-6.57 3.6c-.51.24-1.02.48-1.53.71a67.524 67.524 0 0 1-24.62 5.81l-.53.02c-.82.03-1.64.05-2.47.05s-1.65 0-2.48-.05l-.53-.02c-8.8-.38-17.44-2.48-25.43-6.19l-.7-.33a67.7 67.7 0 0 1-11.46-6.94 67.008 67.008 0 0 1-4.88-4.04l-.51-.47-.58-.55c-.06-.05-.11-.1-.16-.15l-.39-.38A67.63 67.63 0 0 1 3.18 88.2a67.636 67.636 0 0 1-2.02-32.97 67.647 67.647 0 0 1 13.81-29.99A67.668 67.668 0 0 1 41.33 5.35a67.672 67.672 0 0 1 63.76 5.92 67.68 67.68 0 0 1 30.29 56.42Z" style="fill:#f1efef"/><path d="M70.77 105.58c17.28 0 31.28-20.05 31.28-44.79S88.04 16 70.77 16 39.49 36.05 39.49 60.79s14.01 44.79 31.28 44.79Z"/><path d="m54.67 97.17 3.95-2.74V77.98l22.07-.28M49.75 54.99s-1.6-3.37-4.8-1.66c-3.2 1.72-.39 10.37 3.2 12.02 3.59 1.64 2.95-1.07 2.95-1.07" style="fill:none;stroke:#000;stroke-linecap:round;stroke-linejoin:round;stroke-width:2px"/><path d="M45.63 56.73s3.71-.05 4.77 3" style="fill:none;stroke:#000;stroke-linecap:round;stroke-linejoin:round;stroke-width:2px"/><path d="M47.83 61.59s-1.45-2.57 1-3.64M89.84 54.99s1.6-3.37 4.8-1.66c3.21 1.72.39 10.37-3.21 12.02s-2.95-1.07-2.95-1.07" style="fill:none;stroke:#000;stroke-linecap:round;stroke-linejoin:round;stroke-width:2px"/><path d="M93.97 56.73s-3.71-.05-4.77 3" style="fill:none;stroke:#000;stroke-linecap:round;stroke-linejoin:round;stroke-width:2px"/><path d="M91.77 61.59s1.45-2.57-1-3.64" style="fill:none;stroke:#000;stroke-linecap:round;stroke-linejoin:round;stroke-width:2px"/><path d="M49.8 50.15c-.03.31-.04.61-.05.92-.04 2.98-.03 18.33 4.87 23.19 5.42 5.39 8.12 7.27 12.73 7.73 4.61.46 6.8.52 12.56-3.54 5.76-4.06 7.73-7.79 8.43-11.83 1.04-6 2.11-12.04 2.16-18.13.08-3.05-.22-6.1-.87-9.08-.24-.99-.81-4.29-1.9-4.67-1.86-.65-5.14-3.46-9.11-4.47l-8.43-2.14c-1.92-.49-3.92-.54-5.86-.15-1.94.4-3.77 1.22-5.34 2.42l-1.69 1.27a13.126 13.126 0 0 0-3.34 3.74l-1.87 3.14a13.156 13.156 0 0 0-1.82 5.65l-.47 5.98Z" style="fill:#fff;stroke:#000;stroke-miterlimit:10;stroke-width:1.51px"/><path d="M78.89 54.26c.99 0 1.8-.81 1.8-1.8s-.81-1.8-1.8-1.8-1.8.81-1.8 1.8.81 1.8 1.8 1.8ZM59.65 54.26c.99 0 1.8-.81 1.8-1.8s-.81-1.8-1.8-1.8-1.8.81-1.8 1.8.81 1.8 1.8 1.8Z"/><path d="M67.74 57.4v3.63c-.02.44.1.88.35 1.24.25.36.61.63 1.03.77.42.13.87.13 1.29-.02.42-.14.77-.43 1.01-.79M62.45 66.68s7.74 4.6 14.1 0" style="fill:none;stroke:#000;stroke-linecap:round;stroke-linejoin:round;stroke-width:2px"/><path d="M114.72 116.36c-12.23 11.81-27.14 18.03-44.57 18.98H65.2l-.53-.02c-8.8-.38-17.44-2.47-25.44-6.18l-.7-.33a67.7 67.7 0 0 1-11.46-6.94 67.008 67.008 0 0 1-4.88-4.04c1.83-2.23 3.86-4.29 6.06-6.16h0c.97-.84 1.99-1.63 3.07-2.42 1.52-1.1 3.09-2.13 4.71-3.07 1.21-.7 2.5-1.38 3.84-2.03 3.16-1.53 6.43-2.8 9.8-3.8.22-.07.42-.13.65-.2l2.63-1.82.42-.3 1.27-.88s13.39 10.56 29.55 0c.64.65 1.34 1.25 2.07 1.8.14.11.29.22.44.34.42.33.94.67 1.48 1.04.29.19.59.36.9.51.8.34 3.28 1.07 6.53 2.38h.02c3.98 1.57 7.76 3.58 11.29 5.99h0c1.89 1.31 3.66 2.78 5.29 4.39.69.68 1.36 1.4 1.99 2.16l.49.59Z" style="fill:#fff;stroke:#000;stroke-linecap:round;stroke-linejoin:round;stroke-width:2px"/><path d="M58.63 77.98s.84 7.78 8.2 10 12.34-1.17 13.87-5.8V77.7s-10.75 9.59-22.07.28ZM73.82 46.73l1.56 1.97 10.5-.19s-3.34-1.66-4.5-1.78c-1.15-.12-7.56 0-7.56 0ZM65.2 46.73l-1.56 1.97-10.5-.19s3.34-1.66 4.5-1.78c1.16-.12 7.56 0 7.56 0Z"/><path d="M49.69 100.37s16.05 15.43 38.53 0" style="fill:none;stroke:#000;stroke-linecap:round;stroke-linejoin:round;stroke-width:2px"/><path d="M48.83 41.15h47.22L82.73 27.61l-13.24-3.47-7.05 2.31-7.78 3.76-5.83 10.93ZM31.32 109.25s18.02 18.56 36.41 18.7c18.4.14 39.22-18.7 39.22-18.7L84.2 97.17H53.42s-17.63 8.42-22.1 12.08Z"/><path d="M87.67 99.53s16.39-.27 24.59 14.11l-19-9.86-6.97-1.99v-2.88l1.38.61ZM51.52 97.14s-16.38.64-23.76 15.46l18.42-10.9 6.84-2.37-.16-2.88-1.34.69Z"/><path d="M61.68 120.01s20.02 3.08 34.38-12.79M39.48 103.78s4.93 4.42 9.35 6.11" style="fill:none;stroke:#fff;stroke-miterlimit:10"/></g></symbol><symbol id="avatar_6" viewBox="0 0 135.39 136.39"><g id="Layer_1"><path d="M135.39 67.7c0 19.17-7.97 36.48-20.78 48.79-.01.02-.03.03-.04.04-.14.13-.27.27-.41.4l-.16.15c-.06.06-.13.12-.19.18 0 0-.01 0-.02.02a68.618 68.618 0 0 1-5.48 4.59c-1.6 1.2-3.26 2.34-4.96 3.39-.12.08-.24.15-.36.23a68.262 68.262 0 0 1-6.13 3.33l-.45.21a67.326 67.326 0 0 1-25.7 6.31c-.59.03-1.19.05-1.78.05h-1.26c-1 0-1.99-.02-2.98-.07-.78-.03-1.55-.08-2.32-.14-1.56-.12-3.09-.29-4.61-.51-6.79-1-13.24-3-19.22-5.86a67.686 67.686 0 0 1-14.39-9.28c-.83-.7-1.64-1.41-2.44-2.15 0 0-.01 0-.02-.02-.07-.06-.13-.13-.2-.19-.08-.08-.17-.16-.26-.24a.8.8 0 0 1-.13-.13c-.05-.05-.11-.1-.16-.15-.13-.13-.27-.25-.4-.38C7.87 103.97 0 86.75 0 67.7 0 30.31 30.3 0 67.69 0s67.69 30.31 67.69 67.7Z" style="fill:#efefef"/><path d="M62.65 20.16c1.18-.97 3.69-2.39 7.28-1.1.58.21 1.22.18 1.79-.05 1.33-.55 4.12-1.15 7.72 1.1.67.42 1.49.46 2.23.17 1.96-.78 3.86.41 5.75 2.05.32.28.7.47 1.11.55 2.59.55 4.65 2.52 4.54 5.09-.04.94.42 1.85 1.24 2.29 2.1 1.13 3.01 3.32 2.81 6.47-.05.73.25 1.44.78 1.94 2.19 2.12 2.27 4.43.86 6.86-.44.76-.41 1.72.03 2.48 2.22 3.79 2.1 7.15-.16 10.09-.62.81-.66 1.9-.16 2.79.82 1.46 1.09 2.88.17 4.25-.68 1.02-.49 2.37.4 3.22 1.24 1.17 1.92 2.52.72 4.47-.59.96-.45 2.21.31 3.04 1.39 1.54 2.27 3.17 1.11 5.14-.55.94-.42 2.1.3 2.91 1.63 1.84 1.77 4.14.56 6.87-.44.98-.21 2.14.58 2.85 1.64 1.48 2.09 3.27 1.54 5.33-.22.84-.02 1.76.59 2.38 2.28 2.31 2.56 5.23 1.6 8.54a2.52 2.52 0 0 1-2.45 1.83l-69.73-.69a2.515 2.515 0 0 1-2.45-2.07c-.45-2.47-.28-4.78.97-6.83.38-.63.53-1.39.29-2.08-.47-1.37-.08-2.57 1.09-3.6.76-.67 1-1.75.67-2.71-1.03-3.02-.33-5.26 1.18-6.66.8-.74 1.01-1.96.53-2.94-1.1-2.24-1.08-4.07.41-5.33.9-.76 1.18-2.03.64-3.08-1.68-3.29-.92-5.77 1.22-7.8a2.52 2.52 0 0 0 .54-2.92c-2.13-4.35-1.51-7.69.36-10.58.36-.55.5-1.22.38-1.87-.62-3.35-.19-6.2 2.18-8.13.67-.55 1.02-1.41.9-2.26-.19-1.27.04-1.93.46-2.31.64-.59.83-1.5.66-2.36-.21-1.08.12-2.19 1.31-3.35.6-.58.91-1.42.75-2.23-.38-1.92 1.01-3.24 3.87-4.07.85-.25 1.56-.91 1.78-1.77.33-1.28 1.46-1.77 2.92-1.94.91-.1 1.7-.7 2.03-1.55.61-1.56 2.02-2.03 3.89-1.85.68.07 1.35-.14 1.87-.57Z"/><path d="M113.99 117.08c-.06.06-.13.12-.19.18 0 0-.01 0-.02.02a68.618 68.618 0 0 1-5.48 4.59c-1.6 1.2-3.26 2.34-4.96 3.39-.12.08-.24.15-.36.23a68.262 68.262 0 0 1-6.13 3.33l-.45.21a67.326 67.326 0 0 1-25.7 6.31c-.59.03-1.19.05-1.78.05h-1.26c-1 0-1.99-.02-2.98-.07-.78-.03-1.55-.08-2.32-.14-1.56-.12-3.09-.29-4.61-.51-6.79-1-13.24-3-19.22-5.86a67.686 67.686 0 0 1-14.39-9.28c-.83-.7-1.64-1.41-2.44-2.15 0 0-.01 0-.02-.02-.07-.06-.13-.13-.2-.19 2.51-2.94 5.68-5.92 9.64-8.66.16-.11.33-.22.49-.33 2.27-1.53 4.79-2.98 7.6-4.29 1.61-.76 3.33-1.48 5.14-2.14 1.29-.48 2.64-.93 4.04-1.35l8.16-5.95V77.74h22.84V94s4.91 4.67 7.53 6.39c.35.23.65.4.9.51.61.26 2.21.75 4.39 1.55.93.35 1.96.74 3.07 1.21 2.45 1.04 5.27 2.38 8.1 4.13 1 .62 2 1.28 2.99 2 2.34 1.71 4.6 3.71 6.58 6.06.35.41.68.82 1 1.23Z" style="fill:#fff;stroke:#000;stroke-linecap:round;stroke-linejoin:round;stroke-width:2px"/><path d="M56.58 78.27s9.05 10.04 16.26 9.07 6.23-3 6.23-3l.35-6.59-22.84.52Z"/><path d="M48.47 55.04s-1.6-3.38-4.8-1.66-.39 10.37 3.2 12.02c3.59 1.65 2.96-1.07 2.96-1.07" style="fill:#fff;stroke:#000;stroke-linecap:round;stroke-linejoin:round;stroke-width:2px"/><path d="M44.36 56.78s3.71-.05 4.77 3" style="fill:#fff;stroke:#000;stroke-linecap:round;stroke-linejoin:round;stroke-width:2px"/><path d="M46.56 61.63s-1.45-2.57 1-3.64M88.59 55.04s1.6-3.38 4.8-1.66c3.2 1.73.39 10.37-3.2 12.02-3.59 1.65-2.96-1.07-2.96-1.07" style="fill:#fff;stroke:#000;stroke-linecap:round;stroke-linejoin:round;stroke-width:2px"/><path d="M92.7 56.78s-3.71-.05-4.77 3" style="fill:#fff;stroke:#000;stroke-linecap:round;stroke-linejoin:round;stroke-width:2px"/><path d="M90.5 61.63s1.45-2.57-1-3.64" style="fill:#fff;stroke:#000;stroke-linecap:round;stroke-linejoin:round;stroke-width:2px"/><path d="M48.61 50.09s-1.03 18.28 4.25 23.8c5.29 5.52 7.93 7.47 12.53 8.05s6.78.69 12.65-3.22c5.86-3.91 7.93-7.59 8.74-11.61s2.99-20.92 2.99-20.92l-5.52-13.91-17.13-4.83-5.98.69-6.55 4.71-4.94 7.82-1.03 9.43Z" style="fill:#fff;stroke:#000;stroke-miterlimit:10;stroke-width:1.51px"/><circle cx="77.62" cy="52.5" r="1.8"/><circle cx="58.38" cy="52.5" r="1.8"/><path d="M66.47 57.45v3.62c0 1.13.88 2.11 2.01 2.11.54 0 1.13-.23 1.67-.91M61.18 66.72s7.74 4.6 14.1 0" style="fill:none;stroke:#000;stroke-linecap:round;stroke-linejoin:round;stroke-width:2px"/><path d="m72.56 46.78 1.56 1.97 10.5-.19s-3.35-1.66-4.5-1.78-7.56 0-7.56 0ZM63.92 46.78l-1.56 1.97-10.5-.19s3.35-1.66 4.5-1.78 7.56 0 7.56 0Z"/><path d="m82.06 111.52-5.36 9.83.23 13.41c-2.05.28-4.13.47-6.23.56-.59.03-1.19.05-1.78.05h-1.26c-1 0-1.99-.02-2.98-.07-.78-.03-1.55-.08-2.32-.14l-.12-13.83-6.67-10.1-7.16-10.83.02.01c.75.65 17.5 15.05 39.38.48 0 0 .02-.01.03-.02l-5.79 10.61Z" style="stroke:#000;stroke-miterlimit:10"/><path d="M50.16 39.85s3.7 4.74 10.02 1.58c0 0 6.65 3.64 12.37.24 0 0 5.85 3.76 10.83-.19 0 0 1.94 2.17 4.55.08 0 0-1.76 7.18.58 14 0 0 .1 2.2 1.8 7.62 0 0 3.27 7.53 5.82-3.41 2.55-10.94-1.35-12.64-1.35-12.64s-1.32-17.85-8.49-21.86-27.45-3.52-33.28 3.77c-5.83 7.29-6.95 12.39-6.95 12.39s-12.92 27.32-.47 24.28c0 0 5.9-7.54 5.23-13.21s-.96-6.28-.96-6.28 2.34-1.58.28-6.37Z"/><path d="m44.37 101.75 6.23 9.46 7.16 10.86v12.6M92.25 102.45l-5.13 9.11-6.04 10.76v11.75" style="fill:none;stroke:#000;stroke-miterlimit:10"/></g></symbol><symbol id="avatar_7" viewBox="0 0 135.39 136.39"><g id="Layer_1"><path d="M135.39 67.7c0 19.19-7.99 36.52-20.82 48.83l-.03.03s-.08.08-.13.12c-.08.08-.17.16-.25.24l-.16.15c-.06.06-.13.12-.19.18a67.419 67.419 0 0 1-5.5 4.61c-1.71 1.29-3.49 2.5-5.33 3.62a68.262 68.262 0 0 1-6.13 3.33l-.45.21a67.05 67.05 0 0 1-25.69 6.3c-.68.03-1.36.05-2.04.06h-.97c-.42 0-.83 0-1.25-.01l-.03-.09-.03.03-.05.06h-.01c-.27 0-.54-.01-.82-.02-.27 0-.55-.02-.82-.03-9.33-.4-18.17-2.7-26.15-6.52a67.96 67.96 0 0 1-16.85-11.45c-.07-.06-.13-.13-.2-.19-.13-.13-.26-.25-.39-.37-.05-.05-.11-.1-.16-.15l-.24-.24-.12-.12-.03-.03C7.87 103.97 0 86.75 0 67.7 0 30.31 30.3 0 67.69 0s67.69 30.31 67.69 67.7Z" style="fill:#efeeee"/><path d="M87.44 54.15s8.69-4.12 6.15 4.63c-2.54 8.75-7.57 7.23-7.57 7.23" style="fill:#fff;stroke:#000;stroke-miterlimit:10;stroke-width:2px"/><path d="M91.54 56.51s-2.83-1.21-4.1 1.96c0 0 2.94-.92 1.73 3.92" style="fill:#fff;stroke:#000;stroke-linecap:round;stroke-linejoin:round;stroke-width:2px"/><path d="M45.32 53.65s-8.69-4.12-6.15 4.63c2.54 8.75 7.57 7.23 7.57 7.23" style="fill:#fff;stroke:#000;stroke-miterlimit:10;stroke-width:2px"/><path d="M41.23 56.02s2.83-1.21 4.1 1.96c0 0-2.94-.92-1.73 3.92M114.41 116.68c-.08.08-.17.16-.25.24l-.16.15c-.06.06-.13.12-.19.18a67.419 67.419 0 0 1-5.5 4.61c-1.71 1.29-3.49 2.5-5.33 3.62a68.262 68.262 0 0 1-6.13 3.33l-.45.21a67.05 67.05 0 0 1-25.69 6.3c-.68.03-1.36.05-2.04.06h-.97c-.42 0-.83 0-1.25-.01l-.03-.09-.03.03-.05.06h-.01c-.27 0-.54-.01-.82-.02-.27 0-.55-.02-.82-.03-9.33-.4-18.17-2.7-26.15-6.52a67.96 67.96 0 0 1-16.85-11.45c-.07-.06-.13-.13-.2-.19-.13-.13-.26-.25-.39-.37-.05-.05-.11-.1-.16-.15l-.24-.24c.04-.06.09-.12.13-.18 2.05-2.75 4.32-5.05 6.5-6.94.24-.21.48-.4.71-.6 3.84-3.19 8.4-5.36 13.23-6.59 7.49-1.92 10.71-6.42 10.71-6.42V77.49l28.69.2v17.98s3.66 4.77 12.2 6.58c4.41.94 8.57 2.83 12.21 5.49.66.48 1.33.99 2.02 1.54 2.34 1.89 4.77 4.2 6.96 6.94h0l.35.44Z" style="fill:#fff;stroke:#000;stroke-linecap:round;stroke-linejoin:round;stroke-width:2px"/><ellipse cx="66.44" cy="57.64" rx="21" ry="28.58" style="fill:#fff;stroke:#000;stroke-miterlimit:10;stroke-width:2.19px"/><path d="M65.12 53.4v9.06s1.18 3.42 4.85.58M59.52 67.13s7.44 6.29 14.42.4" style="fill:none;stroke:#000;stroke-linecap:round;stroke-linejoin:round;stroke-width:2px"/><circle cx="75.17" cy="51.34" r="1.73"/><circle cx="57.17" cy="51.34" r="1.73"/><path d="m69.76 45.33 1.56 1.97 10.5-.19s-3.35-1.66-4.5-1.78-7.56 0-7.56 0ZM62.49 45.18l-1.27 2.21-10.5-.19s3.35-1.66 4.5-1.78 7.27-.24 7.27-.24ZM80.53 78.84v4.91c-1.02 6.35-7.85 11-15.08 9.61-7.11-1.37-12.93-13.78-13.11-14.17 3.7 4.7 8.73 7.03 14.09 7.03s10.35-2.47 14.09-7.38Z"/><path d="M51.98 95.68s14.09 15.51 28.69 0" style="fill:#fff;stroke:#000;stroke-miterlimit:10;stroke-width:2.31px"/><path d="M74.67 63.46s3.24 3 3.08 8.46M58.65 63.48s-3.24 3-3.08 8.46" style="fill:none;stroke:#000;stroke-linecap:round;stroke-linejoin:round"/><path d="M45.68 53.4s-2.22-8.9 1.64-15.46c3.86-6.56 6.6-1.26 3.41 3 0 0-.16 3.7-5.05 12.46ZM86.98 53.4s2.22-8.9-1.64-15.46c-3.86-6.56-6.6-1.26-3.41 3 0 0 .16 3.7 5.05 12.46Z"/><circle cx="70" cy="109.23" r="1.82"/><circle cx="70" cy="115.91" r="1.82"/><circle cx="70" cy="122.59" r="1.82"/><path d="M66.33 102.57v32.8c-.27 0-.54-.01-.82-.02v-32.78h.82Z"/><ellipse cx="66.09" cy="35.31" rx="25.45" ry="7.26"/><ellipse cx="66.09" cy="35.7" rx="25.45" ry="7.26"/><rect width="35.5" height="12.15" x="48.58" y="23.41" rx="5.54" ry="5.54"/></g></symbol><symbol id="avatar_8" viewBox="0 0 135.39 136.39"><g id="Layer_1"><path d="M135.39 67.7c0 19.21-8 36.54-20.85 48.86s-.02.02-.03.03c-.09.09-.18.18-.27.26l-.08.08a68.525 68.525 0 0 1-5.6 4.75c-.08.06-.16.13-.25.19a67.271 67.271 0 0 1-11.06 6.75c-.13.07-.27.13-.4.19-1.27.61-2.56 1.17-3.87 1.7-3.1 1.26-6.32 2.28-9.64 3.07-.89.21-1.78.4-2.68.57-2.86.56-5.79.93-8.78 1.11-1.38.09-2.78.13-4.18.13-2.16 0-4.29-.1-6.4-.3-3.17-.3-6.28-.81-9.31-1.54a67.202 67.202 0 0 1-13.44-4.75c-.13-.06-.27-.13-.4-.19-3.91-1.9-7.61-4.17-11.06-6.75-.08-.06-.16-.13-.25-.19-2-1.51-3.91-3.14-5.73-4.87-.05-.05-.11-.1-.16-.15l-.04-.04s-.03-.03-.05-.04c-.08-.08-.17-.16-.26-.25l-.03-.03C7.89 104 0 86.77 0 67.7 0 30.31 30.3 0 67.69 0s67.69 30.31 67.69 67.7Z" style="fill:#efeeee"/><path d="M114.54 116.56h0l-.03.03c-.09.09-.18.18-.27.26l-.08.08a68.525 68.525 0 0 1-5.6 4.75c-.08.06-.16.13-.25.19a67.271 67.271 0 0 1-11.06 6.75c-.13.07-.27.13-.4.19-1.27.61-2.56 1.17-3.87 1.7-3.1 1.26-6.32 2.28-9.64 3.07-.89.21-1.78.4-2.68.57-2.86.56-5.79.93-8.78 1.11-1.38.09-2.78.13-4.18.13-2.16 0-4.29-.1-6.4-.3-3.17-.3-6.28-.81-9.31-1.54a67.202 67.202 0 0 1-13.44-4.75c-.13-.06-.27-.13-.4-.19-3.91-1.9-7.61-4.17-11.06-6.75-.08-.06-.16-.13-.25-.19-2-1.51-3.91-3.14-5.73-4.87-.05-.05-.11-.1-.16-.15l-.04-.04s-.03-.03-.05-.04c-.08-.08-.17-.16-.26-.25l-.03-.03.26-.35c2.05-2.75 4.32-5.05 6.5-6.94.24-.21.48-.41.71-.6 3.84-3.19 8.4-5.36 13.23-6.6 1.97-.51 3.65-1.19 5.05-1.92 3.91-2.05 5.66-4.5 5.66-4.5V77.2h.43l27.9.2h.36v17.98s1.63 2.13 5.25 4.08c1.8.97 4.1 1.9 6.94 2.5 4.41.94 8.57 2.83 12.21 5.49.65.48 1.33 1 2.01 1.55 2.34 1.89 4.77 4.2 6.96 6.94h0c.16.2.32.4.48.61Z" style="fill:#fff;stroke:#000;stroke-linecap:round;stroke-linejoin:round;stroke-width:2px"/><path d="M51.98 77.21s2.93 9.69 14.97 12.36c12.3 2.73 13.72-4.45 13.72-4.45v-7.71s-14.35 9.1-21.55 4.14-7.14-4.35-7.14-4.35Z"/><path d="M87.31 56.92s7.86-3.73 5.56 4.19c-2.3 7.91-6.85 6.53-6.85 6.53" style="fill:#fff;stroke:#000;stroke-miterlimit:10;stroke-width:1.81px"/><path d="M91.01 59.06s-2.56-1.1-3.7 1.77c0 0 2.66-.83 1.56 3.55" style="fill:#fff;stroke:#000;stroke-linecap:round;stroke-linejoin:round;stroke-width:1.81px"/><path d="M45.42 56.21s-7.86-3.73-5.56 4.19c2.3 7.91 6.85 6.53 6.85 6.53" style="fill:#fff;stroke:#000;stroke-miterlimit:10;stroke-width:1.81px"/><path d="M41.72 58.35s2.56-1.1 3.7 1.77c0 0-2.66-.83-1.56 3.55" style="fill:#fff;stroke:#000;stroke-linecap:round;stroke-linejoin:round;stroke-width:1.81px"/><ellipse cx="66.44" cy="56.36" rx="21" ry="28.03" style="fill:#fff;stroke:#000;stroke-miterlimit:10;stroke-width:2.17px"/><path d="M65.12 56.27v9.06s1.18 3.42 4.85.58" style="fill:none;stroke:#000;stroke-linecap:round;stroke-linejoin:round;stroke-width:2px"/><circle cx="75.79" cy="55.03" r="1.73"/><circle cx="57.79" cy="55.03" r="1.73"/><path d="M72.69 51.59c1.36.13 2.68-.27 4.04-.28 1.14 0 2.17.42 2.95 1.25.7.74 1.81-.38 1.12-1.12a5.48 5.48 0 0 0-3.66-1.71c-1.5-.1-2.96.41-4.46.27-.43-.04-.79.39-.79.79 0 .46.36.75.79.79ZM61.05 50.01c-1.5.14-2.96-.37-4.46-.27-1.39.09-2.7.68-3.66 1.71-.69.74.42 1.86 1.12 1.12.78-.84 1.81-1.26 2.95-1.25 1.36 0 2.68.41 4.04.28.43-.04.79-.34.79-.79 0-.4-.36-.83-.79-.79Z"/><path d="M61.39 70.31s5.2 6.1 11.3 0" style="fill:none;stroke:#000;stroke-linecap:round;stroke-linejoin:round;stroke-width:2px"/><path d="M47.61 51.32c3.51-.19 5.21-1.61 4.37-4.75 3.17-.24 4.24-1.63 3.4-4.05 3.43-.06 5.48-1.68 6-5.02 2.73.82 4.94.73 5.65-1.94 2.05 3.2 4.45 4.05 7.02 3.72 1.21 3.19 3.03 4.72 5.62 4.16-.53 2.77.89 4.29 3.93 4.75-1.44 1.81-.82 3.79 1.09 5.88-.13 2.32 1.23 2.36 2.75 2.29 3.32.75 4.78-.49 4.54-3.56 3.77-.93 4.48-3.21 3.89-6.08 2.29-3.1 1.37-5.91-1.13-8.56.44-4.47-1.3-7.29-6.09-7.79-.76-4.03-2.45-7.01-7.63-5.99.02-6.2-4.2-7.26-9.28-7.29-4.41-2.84-8.53-3.31-12.22 0-3.89-.19-5.94 2.03-6.8 5.83-5.05.06-8.44 1.81-9.15 6.32-2.88.44-4.59 1.92-4.13 5.34-4.07 2.79-3.06 5.72-.61 9.92-.59 1.41.46 3.54 1.99 4.33-.89 2.9.71 4.21 2.76 5.24-.59 1.49.64 1.95 2.06 2.29 2.71-1.28 3.17-3 1.98-5.04Z"/><path d="m80.67 95.39-14.23 10.59-14.46-10.59-5.66 4.5 20.12 6.09 19.8-6.62-5.57-3.97zM67.81 106.94s1.74 8.93 0 16.22l-1.74 7.29s-4.08-10.58-1.31-23.51h3.05Z" style="fill:#fff;stroke:#000;stroke-linecap:round;stroke-linejoin:round;stroke-width:2px"/><path d="M64.86 106.3s-4.78-1.43-4.78 9.09c0 0 4.29-.62 5.34-8.45v-.97l-.57.32Z" style="fill:#fff;stroke:#000;stroke-linecap:round;stroke-linejoin:round;stroke-width:2px"/><rect width="6.12" height="3.07" x="63.23" y="103.88" rx="1.4" ry="1.4"/></g></symbol></defs></svg>