<?xml version="1.0" standalone="no"?>
<!DOCTYPE svg PUBLIC "-//W3C//DTD SVG 20010904//EN"
 "http://www.w3.org/TR/2001/REC-SVG-20010904/DTD/svg10.dtd">
<svg version="1.0" xmlns="http://www.w3.org/2000/svg"
 width="700.000000pt" height="700.000000pt" viewBox="0 0 700.000000 700.000000"
 preserveAspectRatio="xMidYMid meet">
<metadata>
Created by potrace 1.14, written by Peter Selinger 2001-2017
</metadata>
<g transform="translate(0.000000,700.000000) scale(0.100000,-0.100000)"
fill="#000000" stroke="none">
<path d="M2499 6597 c-20 -15 -39 -51 -39 -74 0 -11 -5 -24 -12 -31 -6 -6 -21
-44 -33 -85 -23 -80 -19 -125 17 -182 37 -60 50 -100 49 -149 -1 -99 106 -358
160 -386 40 -22 174 2 166 29 -1 5 6 16 16 23 10 7 21 29 24 48 3 19 6 42 8
50 1 8 -1 24 -6 36 -4 12 -10 50 -14 85 -3 35 -8 78 -11 94 -3 17 -7 69 -8
117 -5 119 -68 298 -130 366 -51 57 -148 88 -187 59z"/>
<path d="M3940 5767 c-3 -2 -38 -7 -77 -11 -156 -13 -339 -65 -498 -141 -301
-144 -539 -378 -687 -675 -34 -69 -65 -134 -70 -145 -11 -29 -58 -194 -63
-224 -2 -14 -12 -69 -21 -121 -24 -139 -24 -466 1 -590 3 -14 10 -52 16 -85 6
-33 13 -70 15 -83 24 -128 101 -374 168 -537 143 -345 482 -873 833 -1297 40
-48 59 -78 51 -81 -10 -3 -9 -9 3 -23 77 -92 404 -480 409 -484 3 -3 25 -29
49 -58 48 -58 140 -126 199 -146 37 -12 93 -13 143 -3 74 15 171 69 404 224
211 141 380 241 239 141 -234 -165 -351 -319 -361 -477 -6 -87 7 -128 59 -186
76 -87 190 -105 379 -61 63 14 116 26 119 26 3 0 43 14 90 31 109 39 150 46
150 26 0 -8 -23 -64 -51 -123 -66 -139 -79 -200 -56 -250 l17 -36 43 25 c23
13 70 34 105 47 92 33 304 190 423 312 74 76 131 188 137 267 5 73 -13 112
-71 145 -124 73 -319 67 -647 -20 -52 -14 -104 -28 -115 -31 -27 -7 82 67 240
162 191 115 294 187 363 256 164 161 178 264 49 356 -214 154 -529 140 -886
-41 -99 -50 -324 -188 -503 -307 -65 -44 -131 -82 -146 -85 -25 -5 -37 7 -157
152 -71 86 -134 162 -140 168 -68 75 -351 427 -490 611 -255 336 -433 635
-585 980 -38 87 -102 309 -124 435 -9 47 -18 101 -22 120 -12 68 -11 339 2
445 20 162 88 373 154 475 93 143 108 162 206 262 110 112 276 210 449 267
314 102 758 55 1080 -115 220 -116 389 -285 538 -539 93 -157 228 -521 262
-705 3 -14 7 -36 10 -50 17 -76 26 -129 30 -179 3 -31 8 -67 10 -81 3 -14 7
-54 10 -90 13 -178 16 -212 21 -295 3 -49 7 -126 9 -170 4 -101 14 -229 21
-275 2 -19 9 -66 15 -105 32 -228 112 -485 155 -502 21 -8 42 15 48 52 3 17 8
41 11 54 2 13 7 49 10 80 3 31 8 72 10 91 11 93 22 228 31 370 15 229 8 718
-11 830 -2 14 -7 50 -10 80 -32 300 -168 736 -319 1022 -38 72 -138 231 -156
248 -3 3 -30 37 -61 75 -258 321 -598 508 -1054 580 -52 8 -398 19 -405 12z"/>
<path d="M1480 5749 c-20 -4 -48 -22 -67 -43 -28 -30 -32 -42 -28 -69 3 -17
15 -45 26 -60 11 -15 19 -33 16 -40 -4 -14 78 -144 108 -169 11 -10 49 -27 85
-38 73 -23 102 -40 145 -84 26 -27 128 -96 141 -96 2 0 25 -13 51 -29 53 -32
174 -71 221 -71 37 0 67 28 94 89 14 31 17 46 9 54 -6 6 -11 18 -11 27 -1 24
-52 86 -107 127 -28 21 -90 74 -138 118 -47 44 -91 82 -96 83 -5 2 -9 10 -9
17 0 18 -51 56 -112 83 -26 12 -50 28 -55 35 -11 17 -156 69 -202 72 -20 1
-52 -1 -71 -6z"/>
<path d="M1420 4505 c-31 -12 -71 -24 -90 -28 -19 -3 -73 -22 -120 -41 -110
-47 -161 -102 -164 -175 -1 -27 3 -56 9 -65 14 -18 76 -46 103 -46 11 0 25 -6
31 -13 6 -8 49 -22 96 -32 98 -20 151 -15 222 21 44 22 92 37 118 36 6 0 33
-1 60 -2 95 -4 430 96 469 139 31 35 24 161 -9 161 -8 0 -20 8 -27 18 -25 36
-99 45 -378 47 -252 2 -268 1 -320 -20z"/>
<path d="M4815 3659 c-107 -40 -199 -177 -248 -367 -13 -50 -26 -95 -30 -98
-3 -3 -14 11 -25 33 -22 42 -101 127 -160 170 -20 15 -48 38 -61 50 -52 50
-208 77 -304 52 -66 -16 -147 -78 -193 -148 -138 -205 -72 -481 202 -841 185
-243 475 -510 597 -550 73 -23 111 12 123 116 4 36 0 47 -31 89 -20 26 -64 72
-98 103 -169 155 -258 246 -362 373 -38 46 -90 124 -119 179 -26 48 -29 64
-29 137 0 85 11 113 42 113 24 0 138 -113 226 -224 77 -97 173 -176 216 -176
10 0 21 -5 24 -11 10 -15 89 -2 135 21 71 36 118 109 185 285 21 55 43 114 50
130 7 17 20 51 30 77 10 26 21 46 25 43 7 -4 24 -80 35 -155 2 -19 7 -78 9
-130 3 -52 8 -151 11 -220 3 -69 8 -147 10 -175 4 -68 70 -264 101 -301 23
-28 24 -28 39 -10 8 11 15 27 15 35 0 9 12 61 26 116 31 119 40 164 48 230 4
28 9 68 12 90 3 22 7 60 9 85 5 65 6 370 1 400 -3 14 -7 43 -11 65 -44 293
-287 495 -500 414z"/>
</g>
</svg>
