<svg xmlns="http://www.w3.org/2000/svg" width="0" height="0"><defs><symbol id="italic" fill="none" viewBox="0 0 25 25"><path stroke="currentColor" stroke-linecap="round" stroke-linejoin="round" stroke-width="1.5" d="M8.283 3.766h8.435c2.948 0 4.782 2.08 4.782 5.026v7.947c0 2.945-1.834 5.027-4.783 5.027H8.283c-2.948 0-4.783-2.082-4.783-5.027V8.792c0-2.946 1.844-5.026 4.783-5.026ZM11.335 16.846h1.75m-1.75 0h-1.75m1.75 0 2.332-8.162m0 0h1.748m-1.748 0h-1.75"/></symbol><symbol id="accordion" fill="none" viewBox="0 0 25 25"><path stroke="currentColor" stroke-linecap="round" stroke-linejoin="round" stroke-width="1.5" d="m4.5 8.987 2.835-2.835m0 0 2.835 2.835M7.335 6.152v13.23M4.5 16.549l2.835 2.835m0 0 2.835-2.835M14.018 12.861H20.5m-6.483 5.709H20.5M14.018 6.96H20.5"/></symbol><symbol id="archive" fill="none" viewBox="0 0 24 24"><path stroke="currentColor" stroke-linecap="round" stroke-linejoin="round" stroke-width="1.5" d="M13.473 3a2.05 2.05 0 0 1 1.48.63l3.791 3.95c.366.381.571.89.571 1.42v8.28a3.72 3.72 0 0 1-3.72 3.72h-7.19a3.72 3.72 0 0 1-3.72-3.722V6.721A3.72 3.72 0 0 1 8.405 3h5.068ZM10.437 14.42l3.129-3.129m-.001 3.13-3.13-3.13"/></symbol><symbol id="audio" fill="none" viewBox="0 0 24 24"><path stroke="currentColor" stroke-linecap="round" stroke-linejoin="round" stroke-width="1.5" d="M7.782 3h8.435C19.165 3 21 5.081 21 8.026v7.948C21 18.919 19.165 21 16.216 21H7.782C4.834 21 3 18.919 3 15.974V8.026C3 5.081 4.843 3 7.782 3Z"/><path fill-rule="evenodd" stroke="currentColor" stroke-linecap="round" stroke-linejoin="round" stroke-width="1.5" d="M12.84 14.268a2.16 2.16 0 1 1-4.288-.518 2.16 2.16 0 0 1 4.289.518Z" clip-rule="evenodd"/><path stroke="currentColor" stroke-linecap="round" stroke-linejoin="round" stroke-width="1.5" d="m12.842 14.267.775-6.435S14 9.349 15.461 9.833"/></symbol><symbol id="back" fill="none" viewBox="0 0 24 25"><path stroke="currentColor" stroke-linecap="round" stroke-linejoin="round" stroke-width="1.5" d="M8.841 12.9H4V8.059"/><path stroke="currentColor" stroke-linecap="round" stroke-linejoin="round" stroke-width="1.5" d="M4.023 12.9A8.375 8.375 0 0 1 11.62 8.06a8.383 8.383 0 0 1 8.38 8.38"/></symbol><symbol id="beforeafter" fill="none" viewBox="0 0 24 24"><path stroke="currentColor" stroke-linecap="round" stroke-linejoin="round" stroke-width="1.5" d="M10.867 3v18M14.26 4.086h1.445c2.59 0 4.208 1.83 4.208 4.422v6.988c0 2.583-1.617 4.413-4.208 4.413H14.26M10.87 19.91H8.288c-2.592 0-4.2-1.83-4.2-4.414V8.508c0-2.592 1.617-4.422 4.2-4.422h2.582"/></symbol><symbol id="blockdown" fill="none" viewBox="0 0 24 25"><path stroke="currentColor" stroke-linecap="round" stroke-linejoin="round" stroke-width="1.5" d="M16.508 8.598h.908A3.585 3.585 0 0 1 21 12.182v4.753a3.576 3.576 0 0 1-3.576 3.575H6.585A3.585 3.585 0 0 1 3 16.925v-4.753a3.575 3.575 0 0 1 3.575-3.574h.916M12.002 15.707V3.992m0 11.715 2.836-2.848m-2.836 2.848L9.163 12.86"/></symbol><symbol id="blockduplicate" fill="none" viewBox="0 0 24 24"><path stroke="currentColor" stroke-linecap="round" stroke-linejoin="round" stroke-width="1.5" d="M11.546 3.002h6.033c2.108 0 3.422 1.489 3.422 3.596v5.685c0 2.106-1.314 3.595-3.423 3.595h-6.032c-2.11 0-3.421-1.489-3.421-3.595V6.598c0-2.107 1.318-3.596 3.42-3.596Z"/><path stroke="currentColor" stroke-linecap="round" stroke-linejoin="round" stroke-width="1.5" d="M15.876 15.877v1.53c0 2.105-1.305 3.59-3.419 3.59H6.429C4.313 20.997 3 19.512 3 17.407V11.72c0-2.106 1.323-3.6 3.429-3.6h1.69"/></symbol><symbol id="blockup" viewBox="0 0 24 24"><g id="Iconly/Light/Upload" fill="none" fill-rule="evenodd" stroke="currentColor" stroke-linecap="round" stroke-linejoin="round" stroke-width="1.5"><g id="Upload" stroke="currentColor" stroke-width="1.5" transform="rotate(-90 12 10)"><path id="Stroke-1" d="M13.016 5.39v-.933A3.685 3.685 0 0 0 9.331.772H4.456A3.685 3.685 0 0 0 .772 4.455v11.13a3.685 3.685 0 0 0 3.684 3.685h4.885a3.675 3.675 0 0 0 3.675-3.674v-.942"/><path id="Stroke-3" d="M19.809 10.021H7.769"/><path id="Stroke-5" d="m16.881 7.106 2.928 2.915-2.928 2.916"/></g></g></symbol><symbol id="bold" fill="none" viewBox="0 0 25 25"><path stroke="currentColor" stroke-linecap="round" stroke-linejoin="round" stroke-width="1.5" d="M8.282 3.766h8.435c2.948 0 4.783 2.081 4.783 5.026v7.947c0 2.945-1.835 5.027-4.784 5.027H8.282c-2.948 0-4.782-2.082-4.782-5.027V8.792c0-2.945 1.843-5.026 4.782-5.026Z"/><path fill-rule="evenodd" stroke="currentColor" stroke-linecap="round" stroke-linejoin="round" stroke-width="1.5" d="M10.154 8.875h2.508c1.016 0 1.924.743 2.02 1.755a1.946 1.946 0 0 1-1.936 2.137h-2.592V8.875Z" clip-rule="evenodd"/><path fill-rule="evenodd" stroke="currentColor" stroke-linecap="round" stroke-linejoin="round" stroke-width="1.5" d="M10.154 12.766h3.205c1.017 0 1.924.743 2.021 1.755a1.946 1.946 0 0 1-1.936 2.137h-3.29v-3.892Z" clip-rule="evenodd"/></symbol><symbol id="cards" fill="none" viewBox="0 0 25 24"><path stroke="currentColor" stroke-linecap="round" stroke-linejoin="round" stroke-width="1.5" d="m13.335 3.053 4.452.666c2.38.356 3.608 2.258 3.252 4.635l-.96 6.413c-.355 2.377-2.086 3.836-4.467 3.48l-4.45-.667c-2.38-.356-3.61-2.256-3.254-4.634l.96-6.414c.355-2.377 2.094-3.833 4.467-3.48ZM12.838 8.852l4.495.644m-5.01 2.951 2.696.387"/><path stroke="currentColor" stroke-linecap="round" stroke-linejoin="round" stroke-width="1.5" d="m9.018 5.875-2.86.945c-2.289.753-3.188 2.833-2.425 5.121L5.758 18.1c.754 2.28 2.706 3.423 4.985 2.67l4.287-1.408c.718-.226 1.316-.608 1.752-1.09"/></symbol><symbol id="chart" fill="none" viewBox="0 0 25 25"><path stroke="currentColor" stroke-linecap="round" stroke-width="1.5" d="M6.237 5.958a1.557 1.557 0 1 1 3.115 0 1.557 1.557 0 0 1-3.115 0Z"/><path stroke="currentColor" stroke-linecap="round" stroke-linejoin="round" stroke-width="1.5" d="M12.005 16.704a4.016 4.016 0 1 0-8.032 0 4.016 4.016 0 0 0 8.032 0Z"/><path stroke="currentColor" stroke-linecap="round" stroke-linejoin="round" stroke-width="1.5" d="M7.85 12.69v3.705c0 .247.2.447.447.447h3.705M13.481 3.236v7.157c0 .476.386.861.862.861H21.5"/><path stroke="currentColor" stroke-linecap="round" stroke-linejoin="round" stroke-width="1.5" d="m15.72 8.02 2.029-2.506 1.534 1.896 2.05-2.478"/><path stroke="currentColor" stroke-linecap="round" stroke-width="1.5" d="M15.235 21.002v-1.92M18.368 21.002v-6.236M21.5 21.002v-3.667M3.5 7.703v.009M5.922 9.745v.01"/></symbol><symbol id="check" fill="none" viewBox="0 0 24 24"><path stroke="currentColor" stroke-linecap="round" stroke-linejoin="round" stroke-width="1.5" d="m19 7.188-9.625 9.625L5 12.438"/></symbol><symbol id="checkbadge" fill="none" viewBox="0 0 24 24"><path stroke="currentColor" stroke-linecap="round" stroke-linejoin="round" stroke-width="1.5" d="M4.99 7.19a2.2 2.2 0 0 1 2.2-2.2h1c.58 0 1.137-.23 1.55-.639l.698-.7a2.2 2.2 0 0 1 3.112-.01v.001l.01.008.7.7c.41.41.968.64 1.549.64h1.002a2.2 2.2 0 0 1 2.2 2.199v1c0 .581.23 1.138.64 1.55l.7.7a2.2 2.2 0 0 1 .01 3.111l-.71.71c-.41.412-.639.969-.639 1.549v1.003a2.2 2.2 0 0 1-2.2 2.196h-1.005c-.58 0-1.138.23-1.55.64l-.7.7a2.198 2.198 0 0 1-3.109.013l-.003-.002-.708-.708a2.2 2.2 0 0 0-1.55-.64H7.19a2.199 2.199 0 0 1-2.199-2.199v-1.005c0-.58-.23-1.137-.64-1.549l-.699-.7a2.198 2.198 0 0 1-.015-3.108l.004-.004.708-.709c.41-.411.64-.969.64-1.55V7.19"/><path stroke="currentColor" stroke-linecap="round" stroke-linejoin="round" stroke-width="1.5" d="m9.004 12.122 1.977 1.98 4.073-4.075"/></symbol><symbol id="checklist" fill="none" viewBox="0 0 24 24"><path fill-rule="evenodd" stroke="currentColor" stroke-linecap="round" stroke-linejoin="round" stroke-width="1.5" d="M14.323 6.286H9.677c-.75 0-1.357-.608-1.357-1.357v-.573C8.32 3.607 8.927 3 9.677 3h4.646c.75 0 1.357.607 1.357 1.356v.573c0 .75-.607 1.357-1.357 1.357Z" clip-rule="evenodd"/><path stroke="currentColor" stroke-linecap="round" stroke-linejoin="round" stroke-width="1.5" d="M15.68 4.594a3.755 3.755 0 0 1 3.755 3.754v8.898A3.755 3.755 0 0 1 15.68 21H8.321a3.755 3.755 0 0 1-3.755-3.754V8.348a3.755 3.755 0 0 1 3.755-3.754"/><path stroke="currentColor" stroke-linecap="round" stroke-linejoin="round" stroke-width="1.5" d="m8.031 15.635.762.762 1.483-1.483M8.031 10.787l.762.762 1.483-1.483M12.88 16.29h3.088M12.88 11.441h3.088"/></symbol><symbol id="citation" fill="none" viewBox="0 0 24 24"><path stroke="currentColor" stroke-linecap="round" stroke-linejoin="round" stroke-width="1.5" d="m9.96 16.992.753-5.937m2.216 5.937.752-5.937m1.268 1.506h-6.02m5.762 2.924H8.67M13.786 3c.557 0 1.092.227 1.478.63l3.791 3.95c.367.38.571.89.571 1.42v8.163A3.812 3.812 0 0 1 15.97 21l-7.926-.001a3.753 3.753 0 0 1-3.67-3.836V6.657A3.746 3.746 0 0 1 8.134 3h5.652Z"/><path stroke="currentColor" stroke-linecap="round" stroke-linejoin="round" stroke-width="1.5" d="M14.27 3.063v2.892a2.56 2.56 0 0 0 2.553 2.56h2.74"/></symbol><symbol id="close" fill="none" viewBox="0 0 24 24"><path stroke="currentColor" stroke-linecap="round" stroke-linejoin="round" stroke-width="1.5" d="m6 6 12 12M18 6 6 18"/></symbol><symbol id="code" fill="none" viewBox="0 0 24 24"><path stroke="currentColor" stroke-linecap="round" stroke-linejoin="round" stroke-width="1.5" d="M7.783 3h8.435C19.166 3 21 5.081 21 8.026v7.948C21 18.92 19.166 21 16.217 21H7.783C4.835 21 3 18.92 3 15.974V8.026C3 5.081 4.844 3 7.783 3Z"/><path stroke="currentColor" stroke-linecap="round" stroke-linejoin="round" stroke-width="1.5" d="M10.157 11.902 7.79 14.271l2.368 2.368M13.844 11.902l2.368 2.369-2.368 2.368M3.025 7.93h17.952"/></symbol><symbol id="conclusion" fill="none" viewBox="0 0 24 24"><path stroke="currentColor" stroke-linecap="round" stroke-linejoin="round" stroke-width="1.5" d="M19.187 10.299v-1.3c0-.53-.205-1.038-.571-1.42L14.824 3.63A2.048 2.048 0 0 0 13.346 3H7.695a3.747 3.747 0 0 0-3.76 3.657v10.506a3.753 3.753 0 0 0 3.67 3.835h4.002"/><path stroke="currentColor" stroke-linecap="round" stroke-linejoin="round" stroke-width="1.5" d="M13.828 3.063v2.892a2.56 2.56 0 0 0 2.554 2.56h2.739"/><path fill-rule="evenodd" stroke="currentColor" stroke-linecap="round" stroke-linejoin="round" stroke-width="1.5" d="M19.4 13.667c.16.401.061.858-.25 1.158 0 0-.486.366-.563.547-.099.23-.112.776 0 1 .113.227.81.608.81.608.422.316.67.814.67 1.342a.677.677 0 0 1-.676.677h-4.61a.678.678 0 0 1-.678-.677c0-.528.25-1.026.672-1.342 0 0 .696-.381.81-.608.112-.224.097-.77 0-1-.077-.181-.565-.547-.565-.547a1.065 1.065 0 0 1 .74-1.83h2.65c.436.001.828.267.99.672Z" clip-rule="evenodd"/><path stroke="currentColor" stroke-linecap="round" stroke-linejoin="round" stroke-width="1.5" d="M17.086 19v2.001M11.002 14.109H8.235M9.722 9.98H8.234"/></symbol><symbol id="condition" fill="none" viewBox="0 0 24 24"><path stroke="currentColor" stroke-linecap="round" stroke-linejoin="round" stroke-width="1.5" d="M7.782 3h8.435C19.165 3 21 5.081 21 8.026v7.948C21 18.919 19.165 21 16.216 21H7.782C4.834 21 3 18.919 3 15.974V8.026C3 5.081 4.843 3 7.782 3ZM11.738 16.527v.044"/><path stroke="currentColor" stroke-linecap="round" stroke-linejoin="round" stroke-width="1.5" d="M11.738 13.891c-.013-.962.863-1.37 1.514-1.742.793-.438 1.332-1.136 1.332-2.102a2.58 2.58 0 0 0-2.582-2.582 2.574 2.574 0 0 0-2.582 2.582"/></symbol><symbol id="definition" fill="none" viewBox="0 0 24 24"><path stroke="currentColor" stroke-linecap="round" stroke-linejoin="round" stroke-width="1.5" d="M13.786 3c.557 0 1.092.227 1.478.63l3.791 3.95c.367.38.571.89.571 1.42v8.163A3.812 3.812 0 0 1 15.97 21l-7.926-.001a3.753 3.753 0 0 1-3.67-3.836V6.657A3.746 3.746 0 0 1 8.134 3h5.652Z"/><path stroke="currentColor" stroke-linecap="round" stroke-linejoin="round" stroke-width="1.5" d="M14.27 3.063v2.892a2.56 2.56 0 0 0 2.553 2.56h2.74M13.174 14.764a2.621 2.621 0 1 1-3.708-3.707 2.621 2.621 0 0 1 3.708 3.707Zm0 0 1.42 1.42"/></symbol><symbol id="delete" fill="none" viewBox="0 0 25 25"><path stroke="currentColor" stroke-linecap="round" stroke-linejoin="round" stroke-width="1.5" d="m19.667 10.313-.612 8.376a3.317 3.317 0 0 1-3.308 3.076H9.754a3.318 3.318 0 0 1-3.308-3.077l-.612-8.375M21.015 7.168H4.485M16.521 7.167l-.503-2.476a1.248 1.248 0 0 0-1.205-.925h-4.121a1.249 1.249 0 0 0-1.211.925l-.499 2.476M10.852 12.547v4.508m3.38-4.508v4.508"/></symbol><symbol id="drag" fill="none" viewBox="0 0 25 25"><path stroke="currentColor" stroke-linecap="round" stroke-linejoin="round" stroke-width="1.5" d="M12.47 18.801h-.063m.05.26a.26.26 0 1 1 0-.522.26.26 0 0 1 0 .522ZM12.47 12.778h-.063m.05.26a.26.26 0 1 1 0-.523.26.26 0 0 1 0 .522ZM12.47 6.758h-.063m.05.26a.26.26 0 1 1 0-.522.26.26 0 0 1 0 .522ZM18.509 18.801h-.064m.05.26a.26.26 0 1 1 0-.522.26.26 0 0 1 0 .522ZM18.509 12.778h-.064m.05.26a.26.26 0 1 1 0-.523.26.26 0 0 1 0 .522ZM18.509 6.758h-.064m.05.26a.26.26 0 1 1 0-.522.26.26 0 0 1 0 .522ZM6.518 18.801h-.064m.05.26a.26.26 0 1 1 0-.522.26.26 0 0 1 0 .522ZM6.518 12.778h-.064m.05.26a.26.26 0 1 1 0-.523.26.26 0 0 1 0 .522ZM6.518 6.758h-.064m.05.26a.26.26 0 1 1 0-.522.26.26 0 0 1 0 .522Z"/></symbol><symbol id="draganddrop" fill="none" viewBox="0 0 25 24"><path stroke="currentColor" stroke-linecap="round" stroke-linejoin="round" stroke-width="1.5" d="m13.335 3.053 4.452.666c2.38.356 3.608 2.258 3.252 4.635l-.96 6.413c-.355 2.377-2.086 3.836-4.467 3.48l-4.45-.667c-2.38-.356-3.61-2.256-3.254-4.634l.96-6.414c.355-2.377 2.094-3.833 4.467-3.48Z"/><path stroke="currentColor" stroke-linecap="round" stroke-linejoin="round" stroke-width="1.5" d="m9.018 5.875-2.86.945c-2.289.753-3.188 2.833-2.425 5.121L5.758 18.1c.754 2.28 2.706 3.423 4.985 2.67l4.287-1.408c.717-.226 1.316-.608 1.752-1.09"/></symbol><symbol id="dragmultiple" fill="none" viewBox="0 0 24 24"><path stroke="currentColor" stroke-linecap="round" stroke-linejoin="round" stroke-width="1.5" d="M3.758 8.359c.59-1.034 2.185-3.214 5.324-3.032M6.807 8.09c.41-.176 1.082-.227 1.713.255M20.3 13.477c.265 2.698-1.485 5.718-3.5 6.895-2.31 1.35-6.275.636-8.393-1.155-1.353-1.144-2.67-2.726-3.446-3.72a1.84 1.84 0 0 1-.168-1.979 1.93 1.93 0 0 1 3.074-.489l.995.986a.634.634 0 0 0 1.059-.29l2.474-9.436a1.654 1.654 0 0 1 3.206.815L14.58 9.26c2.183.8 5.456 1.536 5.72 4.217Z"/></symbol><symbol id="drawing" viewBox="0 0 24 24"><g id="Iconly/Light/Edit-Square" fill="none" fill-rule="evenodd" stroke="currentColor" stroke-linecap="round" stroke-linejoin="round" stroke-width="1.5"><g id="Edit-Square" stroke="currentColor" stroke-width="1.5" transform="translate(2 2)"><path id="Stroke-1" d="M9.492.789H5.753C2.678.789.75 2.966.75 6.048v8.314c0 3.082 1.92 5.259 5.003 5.259h8.824c3.085 0 5.004-2.177 5.004-5.259v-4.028"/><path id="Stroke-3" d="M6.828 8.92 14.3 1.449c.93-.93 2.44-.93 3.37 0l1.218 1.217a2.383 2.383 0 0 1 0 3.37l-7.51 7.51a2.17 2.17 0 0 1-1.534.636H6.099l.094-3.78a2.17 2.17 0 0 1 .635-1.48Z"/><path id="Stroke-5" d="m13.165 2.603 4.566 4.565"/></g></g></symbol><symbol id="dropdown" fill="none" viewBox="0 0 24 24"><path stroke="currentColor" stroke-linecap="round" stroke-linejoin="round" stroke-width="1.5" d="M21 16.388v2.18c0 1.43-1.01 2.32-2.44 2.32H5.44c-1.43 0-2.44-.89-2.44-2.32v-2.18c0-1.43 1.01-2.32 2.44-2.32h13.12c1.43 0 2.44.893 2.44 2.32ZM21 5.432v2.18c0 1.43-1.01 2.32-2.44 2.32H5.44c-1.43 0-2.44-.89-2.44-2.32v-2.18c0-1.43 1.01-2.32 2.44-2.32h13.12c1.43 0 2.44.893 2.44 2.32ZM11.247 6.522H6.69M6.691 17.477h4.556"/></symbol><symbol id="duplicate" fill="none" viewBox="0 0 25 24"><path stroke="currentColor" stroke-linecap="round" stroke-linejoin="round" stroke-width="1.5" d="m13.335 3.053 4.452.666c2.38.356 3.608 2.258 3.252 4.635l-.96 6.413c-.355 2.377-2.086 3.836-4.467 3.48l-4.45-.667c-2.38-.356-3.61-2.256-3.254-4.634l.96-6.414c.355-2.377 2.094-3.833 4.467-3.48Z"/><path stroke="currentColor" stroke-linecap="round" stroke-linejoin="round" stroke-width="1.5" d="m9.018 5.875-2.86.945c-2.289.753-3.188 2.833-2.425 5.121L5.758 18.1c.754 2.28 2.706 3.423 4.985 2.67l4.287-1.408c.717-.226 1.316-.608 1.752-1.09"/></symbol><symbol id="edit" fill="none" viewBox="0 0 24 24"><path stroke="currentColor" stroke-linecap="round" stroke-linejoin="round" stroke-width="1.5" d="m11.426 6.975 5.496 4.038M8.134 19.923l1.667-.485a4.109 4.109 0 0 0 2.212-1.581l6.389-8.86a2.35 2.35 0 0 0-.516-3.283L16.153 4.45a2.352 2.352 0 0 0-3.284.516L6.41 13.924a4.113 4.113 0 0 0-.746 2.398l.016 1.776a1.919 1.919 0 0 0 2.454 1.825Z"/></symbol><symbol id="embed" fill="none" viewBox="0 0 25 25"><circle cx="12.114" cy="12.613" r="9" stroke="currentColor" stroke-linecap="round" stroke-width="1.5"/><path stroke="currentColor" stroke-linecap="round" stroke-linejoin="round" stroke-width="1.5" d="M3.114 12.509c2.443-.796 1.856 1.25 3.398 1.868.37.16 2.712 1.233 2.829.894.74-2.032 1.775-2.091 0-3.854-.92-1.291-.55-2.485-.55-2.485S10.2 7.341 10.24 6.81c.054-.718-.442-1.466-.9-2.537M21.032 11.999c-2.443.796-1.774-1.227-3.316-1.845-.369-.159-3.179-1.025-3.295-.687-.741 2.032-1.309 1.001.467 2.764 2.028 1.872-.31 2.604-.467 4.277-.147 1.569-1.439 2.973-.217 4.788"/></symbol><symbol id="example" fill="none" viewBox="0 0 24 24"><path stroke="currentColor" stroke-linecap="round" stroke-linejoin="round" stroke-width="1.5" d="M14.07 12.956H9.572m2.25 2.25v-4.499M13.786 3c.557 0 1.092.227 1.478.63l3.791 3.95c.367.38.571.89.571 1.42v8.163A3.812 3.812 0 0 1 15.97 21l-7.926-.001a3.753 3.753 0 0 1-3.67-3.836V6.657A3.746 3.746 0 0 1 8.134 3h5.652Z"/><path stroke="currentColor" stroke-linecap="round" stroke-linejoin="round" stroke-width="1.5" d="M14.27 3.063v2.892a2.56 2.56 0 0 0 2.553 2.56h2.74"/></symbol><symbol id="flashcard" fill="none" viewBox="0 0 24 24"><path fill-rule="evenodd" stroke="currentColor" stroke-linecap="round" stroke-linejoin="round" stroke-width="1.5" d="M16.218 3H7.783C4.843 3 3 5.081 3 8.027v7.947C3 18.919 4.835 21 7.783 21h8.434C19.166 21 21 18.919 21 15.974V8.027C21 5.081 19.166 3 16.218 3Z" clip-rule="evenodd"/><path stroke="currentColor" stroke-linecap="round" stroke-linejoin="round" stroke-width="1.5" d="m11.986 16.214 2.295-4.215H9.718l2.293-4.218"/></symbol><symbol id="help" fill="none" viewBox="0 0 24 24"><path stroke="currentColor" stroke-linecap="round" stroke-linejoin="round" stroke-width="1.5" d="M12 21a9 9 0 1 0 0-18 9 9 0 0 0 0 18Z"/><path fill-rule="evenodd" stroke="currentColor" stroke-linecap="round" stroke-linejoin="round" stroke-width="1.5" d="M16.034 12a4.035 4.035 0 1 1-8.07-.002 4.035 4.035 0 0 1 8.07.002Z" clip-rule="evenodd"/><path stroke="currentColor" stroke-linecap="round" stroke-linejoin="round" stroke-width="1.5" d="m5.794 18.207 3.104-3.104m9.31 3.104-3.104-3.104M8.897 8.896 5.793 5.794m9.31 3.102 3.104-3.102"/></symbol><symbol id="home" fill="none" viewBox="0 0 24 24"><path stroke="currentColor" stroke-linecap="round" stroke-linejoin="round" stroke-width="1.5" d="m14.5 3.895 5.052 4.135a3.949 3.949 0 0 1 1.378 3.797l-1.143 5.964a3.948 3.948 0 0 1-3.877 3.205H8.09a3.948 3.948 0 0 1-3.878-3.205l-1.141-5.964A3.948 3.948 0 0 1 4.447 8.03L9.5 3.895a3.947 3.947 0 0 1 5 0Z"/><path stroke="currentColor" stroke-linecap="round" stroke-linejoin="round" stroke-width="1.5" d="M9.396 20.997v-3.345a2.605 2.605 0 0 1 5.21 0v3.345"/></symbol><symbol id="hotspot" fill="none" viewBox="0 0 24 24"><path fill-rule="evenodd" stroke="currentColor" stroke-linecap="round" stroke-linejoin="round" stroke-width="1.5" d="M16.217 3H7.782C4.842 3 3 5.081 3 8.026v7.948C3 18.919 4.834 21 7.782 21h8.434C19.165 21 21 18.919 21 15.974V8.026C21 5.081 19.165 3 16.217 3Z" clip-rule="evenodd"/><path fill-rule="evenodd" stroke="currentColor" stroke-linecap="round" stroke-linejoin="round" stroke-width="1.5" d="M11.999 16.433c-.593 0-3.705-2.52-3.705-5.157a3.706 3.706 0 1 1 7.41 0c0 2.637-3.112 5.157-3.705 5.157Z" clip-rule="evenodd"/><path stroke="currentColor" stroke-linecap="round" stroke-linejoin="round" stroke-width="1.5" d="M12.001 11.258v.047m.19-.037a.19.19 0 1 1-.382 0 .19.19 0 0 1 .381 0Z"/></symbol><symbol id="image" viewBox="0 0 24 24"><g id="Iconly/Light/Image-2" fill="none" fill-rule="evenodd" stroke="currentColor" stroke-linecap="round" stroke-linejoin="round" stroke-width="1.5"><g id="Image-2" stroke="currentColor" stroke-width="1.5" transform="translate(2 2)"><path id="Stroke-1" d="M14.303.75H5.65C2.639.75.75 2.884.75 5.904v8.146c0 3.02 1.88 5.154 4.9 5.154h8.648c3.025 0 4.905-2.134 4.905-5.154V5.904c.004-3.02-1.877-5.154-4.9-5.154Z"/><path id="Stroke-3" d="M8.703 6.785a1.845 1.845 0 1 1-3.69.001 1.845 1.845 0 0 1 3.69-.001Z"/><path id="Stroke-5" d="M19.207 12.951c-.923-.95-2.698-2.869-4.628-2.869-1.931 0-3.044 4.233-4.901 4.233-1.857 0-3.544-1.914-5.032-.687-1.488 1.226-2.896 3.733-2.896 3.733"/></g></g></symbol><symbol id="imageadd" fill="none" viewBox="0 0 24 24"><path stroke="currentColor" stroke-linecap="round" stroke-linejoin="round" stroke-width="1.5" d="m3.004 15.572 3.949-2.866a3.858 3.858 0 0 1 4.816.224l7.694 6.903"/><path stroke="currentColor" stroke-linecap="round" stroke-linejoin="round" stroke-width="1.5" d="M21 15.474c-.839-.77-2.145-1.999-3.92-1.043a27.786 27.786 0 0 0-2.174 1.316"/><path stroke="currentColor" stroke-linecap="round" stroke-linejoin="round" stroke-width="1.5" d="M21 10.954v5.022c0 2.945-1.843 5.022-4.788 5.022H7.778C4.833 20.998 3 18.92 3 15.976V8.03c0-2.944 1.843-5.021 4.778-5.021h4.2M18.37 3.078v4.875M20.808 5.514h-4.875"/></symbol><symbol id="imageedit" fill="none" viewBox="0 0 24 24"><path stroke="currentColor" stroke-linecap="round" stroke-linejoin="round" stroke-width="1.5" d="m3.006 15.572 3.949-2.866a3.858 3.858 0 0 1 4.816.224l7.693 6.903"/><path stroke="currentColor" stroke-linecap="round" stroke-linejoin="round" stroke-width="1.5" d="M20.999 15.474c-.839-.77-2.145-1.999-3.92-1.043a27.81 27.81 0 0 0-2.174 1.316"/><path stroke="currentColor" stroke-linecap="round" stroke-linejoin="round" stroke-width="1.5" d="M20.999 10.953v5.023c0 2.944-1.843 5.021-4.787 5.021H7.778C4.833 20.997 3 18.92 3 15.976V8.029c0-2.945 1.843-5.021 4.778-5.021h5.509"/><path stroke="currentColor" stroke-linecap="round" stroke-linejoin="round" stroke-width="1.5" d="M18.464 3.427a1.1 1.1 0 0 1 1.554-.058l.687.637a1.1 1.1 0 0 1 .058 1.555l-3.439 3.706a2 2 0 0 1-1.26.63l-.71.073a.8.8 0 0 1-.882-.818l.02-.714a2 2 0 0 1 .533-1.304l3.439-3.707Z"/></symbol><symbol id="imagelib" fill="none" viewBox="0 0 24 24"><path stroke="currentColor" stroke-linecap="round" stroke-linejoin="round" stroke-width="1.5" d="m14.08 8.402 6.108 10.58M9.92 8.4H21M7.842 12l5.197-9M9.922 15.601 3.813 5.023M14.08 15.6H3M16.159 12l-5.197 9"/><path fill-rule="evenodd" stroke="currentColor" stroke-linecap="round" stroke-linejoin="round" stroke-width="1.5" d="M16.217 3H7.782C4.842 3 3 5.081 3 8.026v7.947C3 18.92 4.834 21 7.782 21h8.434C19.165 21 21 18.919 21 15.973V8.026C21 5.081 19.165 3 16.217 3Z" clip-rule="evenodd"/></symbol><symbol id="imageservice" fill="none" viewBox="0 0 24 24"><path stroke="currentColor" stroke-linecap="round" stroke-linejoin="round" stroke-width="1.5" d="m20.996 15.572-3.95-2.866a3.859 3.859 0 0 0-4.816.224l-7.694 6.903"/><path stroke="currentColor" stroke-linecap="round" stroke-linejoin="round" stroke-width="1.5" d="M3 15.474c.839-.77 2.145-1.999 3.92-1.043a27.795 27.795 0 0 1 2.174 1.316"/><path stroke="currentColor" stroke-linecap="round" stroke-linejoin="round" stroke-width="1.5" d="M3 12.903v3.072c0 2.945 1.843 5.022 4.788 5.022h8.434c2.944 0 4.778-2.077 4.778-5.021V8.027c0-2.944-1.843-5.02-4.778-5.02h-3.324"/><path fill-rule="evenodd" stroke="currentColor" stroke-linecap="round" stroke-linejoin="round" stroke-width="1.5" d="M6.063 3.008a3.063 3.063 0 1 1 0 6.125 3.063 3.063 0 0 1 0-6.125Z" clip-rule="evenodd"/><path stroke="currentColor" stroke-linecap="round" stroke-linejoin="round" stroke-width="1.5" d="M8.147 8.313 9.69 9.85"/></symbol><symbol id="imageupload" fill="none" viewBox="0 0 24 24"><path stroke="currentColor" stroke-linecap="round" stroke-linejoin="round" stroke-width="1.5" d="M17.526 3v6.092M15.117 5.418 17.525 3l2.408 2.418M3.006 15.58l3.949-2.867a3.858 3.858 0 0 1 4.816.225l7.694 6.903"/><path stroke="currentColor" stroke-linecap="round" stroke-linejoin="round" stroke-width="1.5" d="M21 15.482c-.839-.77-2.145-1.999-3.92-1.043a27.786 27.786 0 0 0-2.174 1.316"/><path stroke="currentColor" stroke-linecap="round" stroke-linejoin="round" stroke-width="1.5" d="M21 10.958v5.022c0 2.945-1.843 5.022-4.787 5.022H7.778C4.833 21.002 3 18.925 3 15.98V8.033c0-2.945 1.843-5.021 4.778-5.021h3.56"/></symbol><symbol id="jump" fill="none" viewBox="0 0 24 24"><path stroke="currentColor" stroke-linecap="round" stroke-linejoin="round" stroke-width="1.5" d="M8.4 15.6a1.8 1.8 0 0 0-3.6 0v3.6a1.8 1.8 0 0 0 3.6 0v-3.6ZM19.2 4.8a1.8 1.8 0 0 0-3.6 0v3.6a1.8 1.8 0 0 0 3.6 0V4.8Z"/><path stroke="currentColor" stroke-linecap="round" stroke-linejoin="round" stroke-width="1.5" d="M6.6 13.8V8.4a2.7 2.7 0 0 1 2.7-2.7v0A2.7 2.7 0 0 1 12 8.4v7.2a2.7 2.7 0 0 0 5.4 0v-5.4"/></symbol><symbol id="learner" fill="none" viewBox="0 0 25 24"><path stroke="currentColor" stroke-linecap="round" stroke-linejoin="round" stroke-width="1.5" d="m15.038 16.723.92.921 1.897-1.897m-4.684-1.32c0-.566.458-1.024 1.023-1.025h.466c.27 0 .53-.107.722-.297l.325-.326a1.024 1.024 0 0 1 1.448-.005v.001l.004.004.327.325c.191.19.45.298.721.298h.467c.565 0 1.024.458 1.024 1.024v.465c0 .27.107.53.297.722l.326.326c.401.399.404 1.047.005 1.449l-.004.003-.326.327c-.191.192-.297.45-.297.72v.468c-.001.565-.46 1.023-1.025 1.022h-.468c-.27 0-.53.107-.721.298l-.327.326a1.024 1.024 0 0 1-1.447.006l-.001-.002-.004-.003-.326-.326a1.022 1.022 0 0 0-.72-.297h-.466a1.024 1.024 0 0 1-1.023-1.024v-.469c0-.27-.108-.528-.298-.72l-.325-.327a1.023 1.023 0 0 1-.008-1.446l.002-.002.005-.004.325-.326c.19-.191.298-.45.298-.722v-.464ZM3.678 19.028c0-2.093 1.652-4.7 6.41-4.7"/><path fill-rule="evenodd" stroke="currentColor" stroke-linecap="round" stroke-linejoin="round" stroke-width="1.5" d="M14.184 7.243a4.096 4.096 0 1 1-8.191 0 4.096 4.096 0 0 1 8.191 0Z" clip-rule="evenodd"/></symbol><symbol id="link" fill="none" viewBox="0 0 25 25"><path stroke="currentColor" stroke-linecap="round" stroke-linejoin="round" stroke-width="1.5" d="M8.283 3.766h8.435c2.948 0 4.782 2.08 4.782 5.026v7.947c0 2.945-1.834 5.027-4.783 5.027H8.283c-2.948 0-4.783-2.082-4.783-5.027V8.792c0-2.945 1.844-5.026 4.783-5.026Z"/><path stroke="currentColor" stroke-linecap="round" stroke-linejoin="round" stroke-width="1.5" d="M11.396 13.805a2.675 2.675 0 0 0 4.035.289l1.227-1.227a2.676 2.676 0 0 0-3.327-4.138"/><path stroke="currentColor" stroke-linecap="round" stroke-linejoin="round" stroke-width="1.5" d="M13.607 11.726a2.675 2.675 0 0 0-4.035-.29l-1.227 1.228a2.676 2.676 0 0 0 3.368 4.111"/></symbol><symbol id="logout" fill="none" viewBox="0 0 24 25"><path stroke="currentColor" stroke-linecap="round" stroke-linejoin="round" stroke-width="1.5" d="M14.586 4.25H7.898A3.898 3.898 0 0 0 4 8.148v8.203a3.898 3.898 0 0 0 3.898 3.898h6.688M16.138 8.664 20 12.25m0 0-3.862 3.586M20 12.25h-9.379"/></symbol><symbol id="magic" fill="none" viewBox="0 0 24 24"><path fill-rule="evenodd" stroke="currentColor" stroke-linecap="round" stroke-linejoin="round" stroke-width="1.5" d="M21 8.025v7.947c0 2.945-1.843 5.022-4.787 5.022H7.778C4.833 20.994 3 18.917 3 15.973V8.024C3 5.08 4.843 3.004 7.778 3.004h8.435C19.157 3.004 21 5.08 21 8.024Z" clip-rule="evenodd"/><path stroke="currentColor" stroke-linecap="round" stroke-linejoin="round" stroke-width="1.5" d="m7.543 20.985 6.133-6.97a2.042 2.042 0 0 0-.184-2.888l-1.112-.975a2.044 2.044 0 0 0-2.897.176l-1.364 1.55-4.944 5.597M8.117 11.879l4.174 3.676M16.684 10.084v-.04M15.346 16.865v.04M6.827 7.35v-.04M16.227 7.158v-.039"/></symbol><symbol id="magicglow" fill="none" viewBox="0 0 24 25"><path fill-rule="evenodd" stroke="currentColor" stroke-linecap="round" stroke-linejoin="round" stroke-width="1.5" d="m8.617 7.753 2.976 1.107a.953.953 0 0 0 .88-.114l2.637-1.835a.94.94 0 0 1 1.486.817l-.174 3.184a.936.936 0 0 0 .37.799l2.525 1.91a.956.956 0 0 1-.337 1.676l-3.082.861a.972.972 0 0 0-.652.608l-1.072 3.018a.957.957 0 0 1-1.215.59.95.95 0 0 1-.48-.371l-1.73-2.653a.938.938 0 0 0-.774-.423l-3.19-.045a.942.942 0 0 1-.71-1.54l2.012-2.503a.96.96 0 0 0 .175-.87L7.365 8.92a.963.963 0 0 1 1.252-1.167Z" clip-rule="evenodd"/><path stroke="currentColor" stroke-linecap="round" stroke-linejoin="round" stroke-width="1.5" d="m19.686 9.872.901-.295m-8.999-5.661v1.361-1.361ZM4.635 12.23h-1.22 1.22Zm4.686 7.965-.316.965.316-.965ZM18.297 19.53l2.227 2.386"/></symbol><symbol id="marker" fill="none" viewBox="0 0 24 24"><path stroke="currentColor" stroke-linecap="round" stroke-linejoin="round" stroke-width="1.5" d="M7.782 3h8.435C19.165 3 21 5.081 21 8.026v7.948C21 18.919 19.165 21 16.216 21H7.782C4.834 21 3 18.919 3 15.974V8.026C3 5.081 4.843 3 7.782 3Z"/><path stroke="currentColor" stroke-linecap="round" stroke-linejoin="round" stroke-width="1.5" d="M11.937 14.792c1.81-3.512 4.875-3.59 4.875-3.59l1.975-7.53M9.02 13.555c1.274-3.736-.81-5.993-.81-5.993L11.004 3"/><path fill-rule="evenodd" stroke="currentColor" stroke-linecap="round" stroke-linejoin="round" stroke-width="1.5" d="m11.937 14.793-.809 1.814H7.703l1.316-3.05" clip-rule="evenodd"/><path stroke="currentColor" stroke-linecap="round" stroke-linejoin="round" stroke-width="1.5" d="m8.21 7.563 8.6 3.638M20.907 16.607h-6.612"/></symbol><symbol id="match" fill="none" viewBox="0 0 24 24"><circle cx="18.375" cy="5.625" r="2.125" stroke="currentColor" stroke-linecap="round" stroke-linejoin="round" stroke-width="1.5"/><circle cx="5.625" cy="5.625" r="2.125" stroke="currentColor" stroke-linecap="round" stroke-linejoin="round" stroke-width="1.5"/><circle cx="18.375" cy="18.375" r="2.125" stroke="currentColor" stroke-linecap="round" stroke-linejoin="round" stroke-width="1.5"/><circle cx="5.625" cy="18.375" r="2.125" stroke="currentColor" stroke-linecap="round" stroke-linejoin="round" stroke-width="1.5"/><path stroke="currentColor" stroke-linecap="round" stroke-linejoin="round" stroke-width="1.5" d="M16.25 5.625h-2.125A2.125 2.125 0 0 0 12 7.75v8.5a2.125 2.125 0 0 1-2.125 2.125H7.75"/></symbol><symbol id="maths" fill="none" viewBox="0 0 24 24"><path stroke="currentColor" stroke-linecap="round" stroke-linejoin="round" stroke-width="1.5" d="M7.782 3h8.435C19.165 3 21 5.081 21 8.026v7.948C21 18.919 19.165 21 16.216 21H7.782C4.834 21 3 18.919 3 15.974V8.026C3 5.081 4.843 3 7.782 3Z"/><path stroke="currentColor" stroke-linecap="round" stroke-linejoin="round" stroke-width="1.5" d="M16.519 8.054h-2.855a2.13 2.13 0 0 0-2.05 1.553l-1.685 5.972a.503.503 0 0 1-.958.034L7.856 12.52a1.98 1.98 0 0 0-1.447-1.265M13.96 12.478l2.558 3.468M16.518 12.478l-2.558 3.468"/></symbol><symbol id="memorisation" fill="none" viewBox="0 0 24 24"><path fill-rule="evenodd" stroke="currentColor" stroke-linecap="round" stroke-linejoin="round" stroke-width="1.5" d="m12 16.633 3.185-3.538-1.062-1.892H9.877l-1.06 1.892L12 16.633Z" clip-rule="evenodd"/><path stroke="currentColor" stroke-linecap="round" stroke-linejoin="round" stroke-width="1.5" d="M13.786 3c.557 0 1.092.227 1.478.63l3.791 3.95c.367.38.571.89.571 1.42v8.163A3.812 3.812 0 0 1 15.97 21l-7.926-.001a3.753 3.753 0 0 1-3.67-3.836V6.657A3.746 3.746 0 0 1 8.134 3h5.652Z"/><path stroke="currentColor" stroke-linecap="round" stroke-linejoin="round" stroke-width="1.5" d="M14.27 3.063v2.892a2.56 2.56 0 0 0 2.553 2.56h2.74"/></symbol><symbol id="memory" fill="none" viewBox="0 0 24 24"><path stroke="currentColor" stroke-linecap="round" stroke-linejoin="round" stroke-width="1.5" d="M12 5.435c0-1.23.99-2.228 2.213-2.228 1.172 0 2.13.917 2.207 2.078.27-.086.559-.132.857-.132a2.858 2.858 0 0 1 2.848 2.868c0 .718-.262 1.375-.696 1.878 3.567 4.084.407 8.913-3.004 8.7a2.22 2.22 0 0 1-2.212 2.192A2.22 2.22 0 0 1 12 18.564V5.434Z"/><path stroke="currentColor" stroke-linecap="round" stroke-linejoin="round" stroke-width="1.5" d="M12 5.435a2.22 2.22 0 0 0-2.213-2.228A2.219 2.219 0 0 0 7.58 5.285a2.832 2.832 0 0 0-.857-.132A2.858 2.858 0 0 0 3.875 8.02c0 .718.262 1.375.696 1.878-3.567 4.084-.407 8.913 3.004 8.7a2.22 2.22 0 0 0 2.212 2.192A2.22 2.22 0 0 0 12 18.564M17.985 10.776a2.766 2.766 0 0 0 1.445-.878"/><path stroke="currentColor" stroke-linecap="round" stroke-linejoin="round" stroke-width="1.5" d="M6.012 10.776a2.766 2.766 0 0 1-1.445-.878M14.548 7.727c-.473 1.387-4.046 2.005-5.096.067M15.339 15.441c-.62-1.817-5.302-2.628-6.678-.088"/></symbol><symbol id="moon" fill="none" viewBox="0 0 25 24"><path fill-rule="evenodd" stroke="currentColor" stroke-linecap="round" stroke-linejoin="round" stroke-width="1.5" d="M21.026 14.276c.046-.024.1.018.086.068-1.099 3.843-4.64 6.656-8.82 6.656-5.073 0-9.178-4.115-9.178-9.177a9.169 9.169 0 0 1 6.647-8.82c.05-.015.092.04.068.085a8.289 8.289 0 0 0 1.467 9.73 8.272 8.272 0 0 0 9.73 1.458Z" clip-rule="evenodd"/></symbol><symbol id="more" viewBox="0 0 24 24"><g id="Iconly/Light/More-Circle" fill="none" fill-rule="evenodd" stroke="currentColor" stroke-linecap="round" stroke-linejoin="round" stroke-width="1.5"><g id="More-Circle" stroke="currentColor" stroke-width="1.5" transform="translate(2 2)"><path id="Stroke-1" d="M10 .75a9.25 9.25 0 1 1 0 18.5 9.25 9.25 0 0 1 0-18.5Z"/><path id="Stroke-11" d="M13.939 10.013h.009"/><path id="Stroke-13" d="M9.93 10.013h.009"/><path id="Stroke-15" d="M5.921 10.013h.009"/></g></g></symbol><symbol id="movev" fill="none" viewBox="0 0 24 24"><path stroke="currentColor" stroke-linecap="round" stroke-linejoin="round" stroke-miterlimit="10" stroke-width="1.5" d="m5.717 11.006 1.216-1.217m-1.216 1.217L4.5 9.789m1.217 1.217V4m0 0 1.216 1.217M5.717 4 4.5 5.217"/><path stroke="currentColor" stroke-linecap="round" stroke-linejoin="round" stroke-width="1.5" d="M19.138 11.645c.905 2.441.015 5.671-1.57 7.256-1.816 1.817-5.673 2.119-8.076.971-1.535-.733-3.144-1.88-4.107-2.614a1.766 1.766 0 0 1-.638-1.798 1.853 1.853 0 0 1 2.736-1.203l1.164.673a.608.608 0 0 0 .913-.527V5.037a1.588 1.588 0 0 1 3.176-.024l.063 4.108c2.223.213 5.44.098 6.34 2.524Z"/></symbol><symbol id="multiplechoice" fill="none" viewBox="0 0 24 24"><path stroke="currentColor" stroke-linecap="round" stroke-linejoin="round" stroke-width="1.5" d="M7.782 3h8.435C19.165 3 21 5.081 21 8.026v7.948C21 18.919 19.165 21 16.216 21H7.782C4.834 21 3 18.919 3 15.974V8.026C3 5.081 4.843 3 7.782 3Z"/><path stroke="currentColor" stroke-linecap="round" stroke-linejoin="round" stroke-width="1.5" d="m8.535 12 2.31 2.31 4.618-4.619"/></symbol><symbol id="paragraph" fill="none" viewBox="0 0 24 24"><path stroke="currentColor" stroke-linecap="round" stroke-linejoin="round" stroke-width="1.5" d="M18.77 10.298v-1.3c0-.528-.204-1.037-.571-1.42L14.407 3.63A2.047 2.047 0 0 0 12.929 3H7.277a3.746 3.746 0 0 0-3.76 3.656v10.508a3.754 3.754 0 0 0 3.67 3.835l4.002.001"/><path stroke="currentColor" stroke-linecap="round" stroke-linejoin="round" stroke-width="1.5" d="M13.412 3.063v2.892a2.559 2.559 0 0 0 2.554 2.56h2.74M12.546 14.109H7.817m2.468-4.129H7.816M17.437 14.118a1.056 1.056 0 0 1 1.443-.387l.779.45c.505.292.678.938.387 1.444l-2.428 4.205a1.92 1.92 0 0 1-1.046.859l-.65.22a.768.768 0 0 1-1-.578l-.134-.672a1.921 1.921 0 0 1 .22-1.335l2.429-4.206Z"/></symbol><symbol id="preview" viewBox="0 0 24 24"><g id="Iconly/Light/Show" fill="none" fill-rule="evenodd" stroke="currentColor" stroke-linecap="round" stroke-linejoin="round" stroke-width="1.5"><g id="Show" stroke="currentColor" stroke-width="1.5" transform="translate(2 4)"><path id="Stroke-1" d="M13.162 8.053a3.162 3.162 0 1 1-6.324-.001 3.162 3.162 0 0 1 6.324.001Z"/><path id="Stroke-3" d="M9.998 15.355c3.808 0 7.291-2.738 9.252-7.302C17.289 3.489 13.806.75 9.998.75h.004C6.194.75 2.711 3.489.75 8.053c1.961 4.564 5.444 7.302 9.252 7.302h-.004Z"/></g></g></symbol><symbol id="profil" fill="none" viewBox="0 0 25 24"><path stroke="currentColor" stroke-linecap="round" stroke-linejoin="round" stroke-width="1.5" d="M21.15 8.596c0-2.53-1.569-4.315-4.098-4.315H7.256c-2.52 0-4.106 1.786-4.106 4.315v6.819c0 2.521 1.578 4.306 4.106 4.306h9.788c2.537 0 4.106-1.785 4.106-4.306V8.596Z"/><path stroke="currentColor" stroke-linecap="round" stroke-linejoin="round" stroke-width="1.5" d="M6.36 16.017c0-.972.766-2.181 2.976-2.181s2.976 1.2 2.976 2.173"/><path fill-rule="evenodd" stroke="currentColor" stroke-linecap="round" stroke-linejoin="round" stroke-width="1.5" d="M11.237 9.882a1.901 1.901 0 1 1-3.803 0 1.901 1.901 0 0 1 3.803 0Z" clip-rule="evenodd"/><path stroke="currentColor" stroke-linecap="round" stroke-linejoin="round" stroke-width="1.5" d="m14.271 10.348 3.473.047m-2.17 3.655h2.17"/></symbol><symbol id="redirect" fill="none" viewBox="0 0 24 24"><path stroke="currentColor" stroke-linecap="round" stroke-linejoin="round" stroke-width="1.5" d="M7.782 3h8.435C19.165 3 21 5.081 21 8.026v7.948C21 18.919 19.165 21 16.216 21H7.782C4.834 21 3 18.919 3 15.974V8.026C3 5.081 4.843 3 7.782 3Z"/><path stroke="currentColor" stroke-linecap="round" stroke-linejoin="round" stroke-width="1.5" d="M10.18 11.74 8.236 9.796l1.944-1.944"/><path stroke="currentColor" stroke-linecap="round" stroke-linejoin="round" stroke-width="1.5" d="M8.232 9.797h4.616a2.92 2.92 0 1 1 0 5.84H8.565"/></symbol><symbol id="resize" fill="none" viewBox="0 0 24 25"><path stroke="currentColor" stroke-linecap="round" stroke-linejoin="round" stroke-width="1.5" d="m5.002 5.25 4.003 4.003M5.002 5.25l.008 3.677M5.002 5.25l3.677.008M5 19.248l4.003-4.002m-.325 3.995L5 19.248l.008-3.677M18.999 19.248l-4.003-4.002M19 19.248l-.008-3.677m.008 3.677-3.677-.009M19 5.25l-4.002 4.002m.324-3.994L19 5.25l-.008 3.677"/></symbol><symbol id="resizemax" fill="none" viewBox="0 0 24 25"><path stroke="currentColor" stroke-linecap="round" stroke-linejoin="round" stroke-width="1.5" d="m8.677 19.243-2.673.006a1 1 0 0 1-1.002-1.003l.006-2.672M5.498 18.75l3.504-3.504M5.01 8.929l-.006-2.673a1 1 0 0 1 1.002-1.002l2.673.006M18.991 15.574l.006 2.673a1 1 0 0 1-1.002 1.002l-2.673-.006M15.321 5.26l2.674-.006a1 1 0 0 1 1.002 1.002l-.007 2.672M18.5 5.75l-3.504 3.504"/></symbol><symbol id="resizemin" fill="none" viewBox="0 0 24 25"><path stroke="currentColor" stroke-linecap="round" stroke-linejoin="round" stroke-width="1.5" d="m5.325 15.252 2.673-.006a1 1 0 0 1 1.003 1.002l-.007 2.673M18.673 9.243 16 9.25a1 1 0 0 1-1.002-1.002l.006-2.673M5.01 8.925l-.006-2.673A1 1 0 0 1 6.006 5.25l2.673.006M18.991 15.57l.006 2.673a1 1 0 0 1-1.002 1.002l-2.673-.006M15.44 8.81 19 5.25M8.499 15.748 5 19.248"/></symbol><symbol id="scrollist" fill="none" viewBox="0 0 25 25"><path stroke="currentColor" stroke-linecap="round" stroke-linejoin="round" stroke-width="1.5" d="m4.5 8.987 2.835-2.835m0 0 2.835 2.835M7.335 6.152v13.23M4.5 16.549l2.835 2.835m0 0 2.835-2.835M14.018 12.861H20.5m-6.483 5.709H20.5M14.018 6.96H20.5"/></symbol><symbol id="search" viewBox="0 0 24 24"><g id="Iconly/Light/Search" fill="none" fill-rule="evenodd" stroke="currentColor" stroke-linecap="round" stroke-linejoin="round" stroke-width="1.5"><g id="Search" stroke="currentColor" stroke-width="1.5" transform="translate(2 2)"><circle id="Ellipse_739" cx="9.767" cy="9.767" r="8.989"/><path id="Line_181" d="M16.018 16.485 19.542 20"/></g></g></symbol><symbol id="setting" viewBox="0 0 24 24"><g id="Iconly/Light/Setting" fill="none" fill-rule="evenodd" stroke="currentColor" stroke-linecap="round" stroke-linejoin="round" stroke-width="1.5"><g id="Setting" stroke="currentColor" stroke-width="1.5" transform="translate(2.5 1.5)"><path id="Path_33946" d="m18.307 6.124-.623-1.08a1.913 1.913 0 0 0-2.608-.705h0a1.904 1.904 0 0 1-2.61-.678 1.83 1.83 0 0 1-.255-.915h0A1.913 1.913 0 0 0 10.297.778H9.043A1.904 1.904 0 0 0 7.14 2.691h0a1.913 1.913 0 0 1-1.913 1.886 1.83 1.83 0 0 1-.916-.257h0a1.913 1.913 0 0 0-2.608.705l-.669 1.099a1.913 1.913 0 0 0 .696 2.608h0a1.913 1.913 0 0 1 0 3.314h0a1.904 1.904 0 0 0-.696 2.6h0l.632 1.089a1.913 1.913 0 0 0 2.609.741h0a1.895 1.895 0 0 1 2.6.696c.164.277.252.593.255.915h0c0 1.057.857 1.913 1.913 1.913h1.254c1.053 0 1.908-.85 1.914-1.904h0a1.904 1.904 0 0 1 1.913-1.913c.321.009.636.097.915.256h0a1.913 1.913 0 0 0 2.609-.695h0l.659-1.099a1.904 1.904 0 0 0-.696-2.608h0a1.904 1.904 0 0 1-.696-2.61c.166-.289.406-.529.696-.695h0a1.913 1.913 0 0 0 .696-2.6h0v-.008Z"/><circle id="Ellipse_737" cx="9.675" cy="10.389" r="2.636"/></g></g></symbol><symbol id="share" fill="none" viewBox="0 0 25 24"><path fill-rule="evenodd" stroke="currentColor" stroke-linecap="round" stroke-linejoin="round" stroke-width="1.5" d="M18.38 3a2.7 2.7 0 1 1 .001 5.399 2.7 2.7 0 0 1 0-5.399ZM7.58 9.3a2.7 2.7 0 1 1 .002 5.399 2.7 2.7 0 0 1-.001-5.4ZM18.38 15.6A2.7 2.7 0 1 1 18.381 21a2.7 2.7 0 0 1 0-5.399Z" clip-rule="evenodd"/><path stroke="currentColor" stroke-linecap="round" stroke-linejoin="round" stroke-width="1.5" d="m9.911 13.358 6.147 3.583m-.01-9.882L9.91 10.64"/></symbol><symbol id="shortanswer" viewBox="0 0 24 24"><g id="Iconly/Light/Edit-Square" fill="none" fill-rule="evenodd" stroke="currentColor" stroke-linecap="round" stroke-linejoin="round" stroke-width="1.5"><g id="Edit-Square" stroke="currentColor" stroke-width="1.5" transform="translate(2 2)"><path id="Stroke-1" d="M9.492.789H5.753C2.678.789.75 2.966.75 6.048v8.314c0 3.082 1.92 5.259 5.003 5.259h8.824c3.085 0 5.004-2.177 5.004-5.259v-4.028"/><path id="Stroke-3" d="M6.828 8.92 14.3 1.449c.93-.93 2.44-.93 3.37 0l1.218 1.217a2.383 2.383 0 0 1 0 3.37l-7.51 7.51a2.17 2.17 0 0 1-1.534.636H6.099l.094-3.78a2.17 2.17 0 0 1 .635-1.48Z"/><path id="Stroke-5" d="m13.165 2.603 4.566 4.565"/></g></g></symbol><symbol id="simcard" fill="none" viewBox="0 0 24 24"><path stroke="currentColor" stroke-linecap="round" stroke-linejoin="round" stroke-width="1.5" d="m7.878 3 1.514 1.48L7.91 5.996"/><path stroke="currentColor" stroke-linecap="round" stroke-linejoin="round" stroke-width="1.5" d="M9.365 4.457H7.868A3.744 3.744 0 0 0 4.125 8.2M15.955 21l-1.514-1.481 1.482-1.513"/><path stroke="currentColor" stroke-linecap="round" stroke-linejoin="round" stroke-width="1.5" d="M14.469 19.544h1.497A3.744 3.744 0 0 0 19.71 15.8M8.115 12.21c.272 0 .533.112.722.308l1.852 1.929c.179.187.279.435.279.694v4.043a1.817 1.817 0 0 1-1.818 1.817H5.64a1.817 1.817 0 0 1-1.818-1.817v-5.157c0-1.003.814-1.816 1.818-1.816h2.475ZM17.324 3c.272 0 .533.11.722.307l1.852 1.929c.179.187.279.435.279.694v4.043a1.817 1.817 0 0 1-1.818 1.817h-3.51a1.817 1.817 0 0 1-1.818-1.817V4.817c0-1.004.814-1.817 1.818-1.817h2.475Z"/></symbol><symbol id="singlechoice" fill="none" viewBox="0 0 24 24"><path stroke="currentColor" stroke-linecap="round" stroke-linejoin="round" stroke-width="1.5" d="M21 12a9 9 0 0 0-9-9 9 9 0 1 0 9 9Z"/><path stroke="currentColor" stroke-linecap="round" stroke-linejoin="round" stroke-width="1.5" d="m8.535 12 2.31 2.31 4.618-4.619"/></symbol><symbol id="slideshow" fill="none" viewBox="0 0 25 24"><path stroke="currentColor" stroke-linecap="round" stroke-linejoin="round" stroke-width="1.5" d="M9.85 20.064h5.985a3.125 3.125 0 0 0 3.125-3.124V7.063c0-1.726-1.399-3.125-3.125-3.125H9.85a3.125 3.125 0 0 0-3.125 3.125v9.877c0 1.725 1.399 3.124 3.125 3.124ZM6.725 17.218h-.551a2.345 2.345 0 0 1-2.34-2.349V9.135a2.34 2.34 0 0 1 2.34-2.35h.55"/><path stroke="currentColor" stroke-linecap="round" stroke-linejoin="round" stroke-width="1.5" d="M18.943 17.218h.551a2.345 2.345 0 0 0 2.34-2.349V9.135a2.34 2.34 0 0 0-2.34-2.35h-.55"/><path fill-rule="evenodd" stroke="currentColor" stroke-linecap="round" stroke-linejoin="round" stroke-width="1.5" d="M14.89 12.877a7.675 7.675 0 0 1-2.248 1.411c-.726.286-1.333-.071-1.423-.786a14.116 14.116 0 0 1 0-3.008c.097-.743.768-1.058 1.423-.782.84.344 1.594.81 2.249 1.411.56.507.573 1.227 0 1.754Z" clip-rule="evenodd"/></symbol><symbol id="strikethrough" fill="none" viewBox="0 0 25 25"><path stroke="currentColor" stroke-linecap="round" stroke-linejoin="round" stroke-width="1.5" d="M8.283 3.766h8.435c2.948 0 4.782 2.08 4.782 5.026v7.947c0 2.945-1.834 5.027-4.783 5.027H8.283c-2.948 0-4.783-2.082-4.783-5.027V8.792c0-2.946 1.844-5.026 4.783-5.026Z"/><path stroke="currentColor" stroke-linecap="round" stroke-linejoin="round" stroke-width="1.5" d="M9.808 15.187c0 1.338 1.206 2.422 2.694 2.422s2.694-1.084 2.694-2.422c0-1.439-1.04-1.996-2.193-2.421M8.268 12.766h8.467M10.014 10.828a1.92 1.92 0 0 1-.059-.484c0-1.337 1.057-2.422 2.545-2.422 1.145 0 2.033.641 2.383 1.545"/></symbol><symbol id="subscript" fill="none" viewBox="0 0 25 25"><path stroke="currentColor" stroke-linecap="round" stroke-linejoin="round" stroke-width="1.5" d="m4.5 16.258 8-10m-8 0 8 10M20.5 19.274h-4l3.5-4a2.016 2.016 0 1 0-3.5-2"/></symbol><symbol id="subtitle" fill="none" viewBox="0 0 25 25"><path stroke="currentColor" stroke-linecap="round" stroke-linejoin="round" stroke-width="1.5" d="M3.5 5.734V18.44m8.47-12.706V18.44M3.5 12.087h8.47M16.958 12.24a2.272 2.272 0 0 1 4.542 0c0 .667-.175 1.133-.45 1.602-.56.96-1.554 1.89-2.307 2.693L16.96 18.44h4.54"/></symbol><symbol id="sun" fill="none" viewBox="0 0 25 24"><path stroke="currentColor" stroke-linecap="round" stroke-linejoin="round" stroke-width="1.5" d="M12.055 3v1.372m0 15.256V21m9-9h-1.372M4.427 12H3.055m15.364-6.364-.97.97M6.66 17.394l-.97.97m12.728 0-.97-.97M6.66 6.606l-.97-.97"/><path fill-rule="evenodd" stroke="currentColor" stroke-linecap="round" stroke-linejoin="round" stroke-width="1.5" d="M12.055 7.805a4.195 4.195 0 1 1 0 8.39 4.195 4.195 0 0 1 0-8.39Z" clip-rule="evenodd"/></symbol><symbol id="superscript" fill="none" viewBox="0 0 25 25"><path stroke="currentColor" stroke-linecap="round" stroke-linejoin="round" stroke-width="1.5" d="m4.5 9.273 8 10m-8 0 8-10M20.5 13.274h-4l3.5-4a2.016 2.016 0 1 0-3.5-2"/></symbol><symbol id="table" fill="none" viewBox="0 0 24 24"><path stroke="currentColor" stroke-linecap="round" stroke-linejoin="round" stroke-width="1.5" d="M7.783 3h8.434C19.166 3 21 5.081 21 8.026v7.947C21 18.918 19.166 21 16.216 21H7.784C4.835 21 3 18.918 3 15.973V8.026C3 5.081 4.844 3 7.783 3ZM12 3v18M21 12H3"/></symbol><symbol id="tellhistory" fill="none" viewBox="0 0 25 25"><path fill-rule="evenodd" stroke="currentColor" stroke-linecap="round" stroke-linejoin="round" stroke-width="1.5" d="m9.834 18.828 1.422 1.421a1.476 1.476 0 0 0 2.09 0l1.422-1.421a2.157 2.157 0 0 1 1.526-.632h1.068a3.939 3.939 0 0 0 3.939-3.94V7.342a3.938 3.938 0 0 0-3.939-3.939H7.24A3.939 3.939 0 0 0 3.3 7.341v6.916a3.94 3.94 0 0 0 3.94 3.94H8.31c.572 0 1.12.226 1.525.63Z" clip-rule="evenodd"/><path stroke="currentColor" stroke-linecap="round" stroke-linejoin="round" stroke-width="1.5" d="M16.308 10.807v.07m.282-.055a.285.285 0 1 1-.569 0 .285.285 0 0 1 .57 0ZM12.302 10.807v.07m.283-.055a.285.285 0 1 1-.57 0 .285.285 0 0 1 .57 0ZM8.296 10.807v.07m.283-.055a.285.285 0 1 1-.57 0 .285.285 0 0 1 .57 0Z"/></symbol><symbol id="theoreme" fill="none" viewBox="0 0 24 24"><path fill-rule="evenodd" stroke="currentColor" stroke-linecap="round" stroke-linejoin="round" stroke-width="1.5" d="M14.882 13.72c.338-1.058-.058-2.268-1.168-2.626a1.898 1.898 0 0 0-1.715.289 1.91 1.91 0 0 0-1.711-.29c-1.11.359-1.51 1.569-1.171 2.627.527 1.676 2.882 2.968 2.882 2.968s2.337-1.273 2.883-2.968Z" clip-rule="evenodd"/><path stroke="currentColor" stroke-linecap="round" stroke-linejoin="round" stroke-width="1.5" d="M13.786 3c.557 0 1.092.227 1.478.63l3.791 3.95c.367.38.571.89.571 1.42v8.163A3.812 3.812 0 0 1 15.97 21l-7.926-.001a3.753 3.753 0 0 1-3.67-3.836V6.657A3.746 3.746 0 0 1 8.134 3h5.652Z"/><path stroke="currentColor" stroke-linecap="round" stroke-linejoin="round" stroke-width="1.5" d="M14.27 3.063v2.892a2.56 2.56 0 0 0 2.553 2.56h2.74"/></symbol><symbol id="timeline" fill="none" viewBox="0 0 25 25"><path stroke="currentColor" stroke-linecap="round" stroke-linejoin="round" stroke-width="1.5" d="M12.5 21.12v-18"/><circle cx="5.896" cy="12.157" r="2" stroke="currentColor" stroke-width="1.5" transform="rotate(-90 5.896 12.157)"/><path stroke="currentColor" stroke-linecap="round" stroke-linejoin="round" stroke-width="1.5" d="M11.027 12.157H12.5M7.896 12.157H9.1"/><circle cx="2" cy="2" r="2" stroke="currentColor" stroke-width="1.5" transform="matrix(0 -1 -1 0 21.105 8.981)"/><path stroke="currentColor" stroke-linecap="round" stroke-linejoin="round" stroke-width="1.5" d="M13.973 6.981H12.5M17.105 6.981H15.9"/><circle cx="2" cy="2" r="2" stroke="currentColor" stroke-width="1.5" transform="matrix(0 -1 -1 0 21.105 19.257)"/><path stroke="currentColor" stroke-linecap="round" stroke-linejoin="round" stroke-width="1.5" d="M13.973 17.257H12.5M17.105 17.257H15.9"/></symbol><symbol id="title" fill="none" viewBox="0 0 25 25"><path stroke="currentColor" stroke-linecap="round" stroke-linejoin="round" stroke-width="1.5" d="M20.44 18.44V9.968l-2.117 2.117M4.559 5.734V18.44m8.47-12.706V18.44m-8.47-6.353h8.47"/></symbol><symbol id="trainer" fill="none" viewBox="0 0 25 24"><path fill-rule="evenodd" stroke="currentColor" stroke-linecap="round" stroke-linejoin="round" stroke-width="1.5" d="M13.909 17.418c-.295-.922.05-1.973 1.016-2.284a1.648 1.648 0 0 1 1.492.25 1.66 1.66 0 0 1 1.49-.25c.965.31 1.313 1.362 1.018 2.284C18.466 18.877 16.417 20 16.417 20s-2.033-1.108-2.508-2.583Z" clip-rule="evenodd"/><path stroke="currentColor" stroke-linecap="round" stroke-linejoin="round" stroke-width="1.5" d="M5.273 19.573c0-2.052 1.62-4.608 6.287-4.608"/><path fill-rule="evenodd" stroke="currentColor" stroke-linecap="round" stroke-linejoin="round" stroke-width="1.5" d="M15.579 8.016a4.016 4.016 0 1 1-8.033-.001 4.016 4.016 0 0 1 8.033 0Z" clip-rule="evenodd"/></symbol><symbol id="truefalse" fill="none" viewBox="0 0 24 24"><path stroke="currentColor" stroke-linecap="round" stroke-linejoin="round" stroke-width="1.5" d="M7.782 3h8.435C19.165 3 21 5.081 21 8.026v7.948C21 18.919 19.165 21 16.216 21H7.782C4.834 21 3 18.919 3 15.974V8.026C3 5.081 4.843 3 7.782 3ZM11.738 16.527v.044"/><path stroke="currentColor" stroke-linecap="round" stroke-linejoin="round" stroke-width="1.5" d="M11.738 13.891c-.013-.962.863-1.37 1.514-1.742.793-.438 1.332-1.136 1.332-2.102a2.58 2.58 0 0 0-2.582-2.582 2.574 2.574 0 0 0-2.582 2.582"/></symbol><symbol id="underline" fill="none" viewBox="0 0 25 25"><path stroke="currentColor" stroke-linecap="round" stroke-linejoin="round" stroke-width="1.5" d="M8.283 3.766h8.435c2.948 0 4.782 2.08 4.782 5.026v7.947c0 2.945-1.834 5.027-4.783 5.027H8.283c-2.948 0-4.783-2.082-4.783-5.027V8.792c0-2.946 1.844-5.026 4.783-5.026ZM9.064 17.027h6.874"/><path stroke="currentColor" stroke-linecap="round" stroke-linejoin="round" stroke-width="1.5" d="M14.984 8.285v3.328a2.483 2.483 0 1 1-4.966 0V8.285"/></symbol><symbol id="unlink" fill="none" viewBox="0 0 25 25"><path stroke="currentColor" stroke-linecap="round" stroke-linejoin="round" stroke-width="1.5" d="m9.34 11.582-.593.593a3.079 3.079 0 0 0 0 4.347 3.083 3.083 0 0 0 4.347 0l.592-.593M15.66 13.957l.593-.593a3.08 3.08 0 0 0 0-4.347 3.083 3.083 0 0 0-4.347 0l-.592.593M13.862 11.453l-2.704 2.704"/><path stroke="currentColor" stroke-linecap="round" stroke-linejoin="round" stroke-width="1.5" d="M8.283 3.766h8.435c2.948 0 4.782 2.08 4.782 5.026v7.947c0 2.945-1.834 5.027-4.783 5.027H8.283c-2.948 0-4.783-2.082-4.783-5.027V8.792c0-2.946 1.844-5.026 4.783-5.026Z"/></symbol><symbol id="upload" fill="none" viewBox="0 0 25 24"><path stroke="currentColor" stroke-linecap="round" stroke-linejoin="round" stroke-width="1.5" d="M20.935 11.973V7.966C20.935 5.056 19.122 3 16.21 3H7.876C4.973 3 3.151 5.056 3.151 7.966v7.852c0 2.91 1.813 4.966 4.725 4.966h1.73M6.456 6.508H6.4m2.511 0h-.055m2.512 0h-.055M19.374 17.353l-2.692-2.69m0 0-2.692 2.69m2.692-2.69L16.683 21M20.936 9.414H3.152"/></symbol><symbol id="user" fill="none" viewBox="0 0 25 24"><path stroke="currentColor" stroke-miterlimit="10" stroke-width="1.5" d="M7.07 20.5c-1.519 0-2.437-.986-2.502-2.36 0-1.554.936-2.89 2.551-3.467 1.289-.46 3.009.61 5.031.596 2.02.02 3.739-1.049 5.027-.592 1.625.577 2.564 1.911 2.555 3.464-.074 1.373-.986 2.358-2.502 2.358H7.07ZM12.158 11.628a4.064 4.064 0 1 0 0-8.128 4.064 4.064 0 0 0 0 8.128Z"/></symbol><symbol id="users" fill="none" viewBox="0 0 25 24"><path stroke="currentColor" stroke-miterlimit="10" stroke-width="1.5" d="M5.872 19.545c-1.228 0-1.97-.883-2.022-2.112 0-2.502 2.444-3.365 6.128-3.394 3.69.039 6.14.902 6.128 3.394-.06 1.23-.797 2.112-2.023 2.112H5.872Z"/><path stroke="currentColor" stroke-linecap="round" stroke-miterlimit="10" stroke-width="1.5" d="M18.643 18.816h1.566c.994 0 1.592-.716 1.64-1.713.01-1.757-1.491-2.515-3.849-2.705"/><path stroke="currentColor" stroke-miterlimit="10" stroke-width="1.5" d="M9.958 10.901a3.222 3.222 0 1 0 0-6.444 3.222 3.222 0 0 0 0 6.444ZM17.985 10.76a2.099 2.099 0 1 0 0-4.198 2.099 2.099 0 0 0 0 4.198Z"/></symbol><symbol id="usersgroup" fill="none" viewBox="0 0 25 24"><path stroke="currentColor" stroke-miterlimit="10" stroke-width="1.5" d="M9.31 19.564c-.895 0-1.436-.644-1.474-1.54 0-1.826 1.782-2.456 4.467-2.477 2.69.028 4.477.658 4.467 2.476-.043.897-.58 1.54-1.474 1.54H9.31ZM12.304 13.232a2.335 2.335 0 1 0 0-4.67 2.335 2.335 0 0 0 0 4.67Z"/><path stroke="currentColor" stroke-linecap="round" stroke-linejoin="round" stroke-miterlimit="10" stroke-width="1.5" d="M6.86 10.883c-2.23.017-3.71.54-3.71 2.056.032.745.481 1.28 1.224 1.28h2.888M17.441 10.883c2.23.017 3.71.54 3.71 2.056-.032.745-.482 1.28-1.225 1.28H17.04"/><path stroke="currentColor" stroke-miterlimit="10" stroke-width="1.5" d="M6.595 8.315a1.939 1.939 0 1 0 0-3.877 1.939 1.939 0 0 0 0 3.877ZM17.706 8.315a1.939 1.939 0 1 1 0-3.877 1.939 1.939 0 0 1 0 3.877Z"/></symbol><symbol id="video" fill="none" viewBox="0 0 24 24"><path stroke="currentColor" stroke-linecap="round" stroke-linejoin="round" stroke-width="1.5" d="M7.652 3h8.696c2.66 0 4.316 1.878 4.316 4.536v8.928c0 2.658-1.655 4.536-4.317 4.536H7.652c-2.661 0-4.316-1.878-4.316-4.536V7.536C3.336 4.878 4.999 3 7.652 3Z"/><path fill-rule="evenodd" stroke="currentColor" stroke-linecap="round" stroke-linejoin="round" stroke-width="1.5" d="M14.278 15.292a8.973 8.973 0 0 1-2.63 1.65c-.85.336-1.562-.082-1.667-.92a16.381 16.381 0 0 1 0-3.518c.114-.87.898-1.239 1.666-.916.982.403 1.865.95 2.63 1.651.656.594.671 1.437 0 2.053Z" clip-rule="evenodd"/><path stroke="currentColor" stroke-linecap="round" stroke-linejoin="round" stroke-width="1.5" d="M20.552 8.207H3.447M8.149 8.202 6.762 3.077m5.663 5.125-1.449-5.198m5.734 5.198L15.26 3.004"/></symbol><symbol id="wait" fill="none" viewBox="0 0 24 24"><path stroke="currentColor" stroke-linecap="round" stroke-linejoin="round" stroke-width="1.5" d="M7.782 3h8.435C19.165 3 21 5.081 21 8.026v7.948C21 18.919 19.165 21 16.216 21H7.782C4.833 21 3 18.919 3 15.974V8.026C3 5.081 4.843 3 7.782 3Z"/><path stroke="currentColor" stroke-linecap="round" stroke-linejoin="round" stroke-width="1.5" d="M15.3 13.963 12 11.995V7.752"/></symbol><symbol id="warning" fill="none" viewBox="0 0 24 24"><path stroke="currentColor" stroke-linecap="round" stroke-linejoin="round" stroke-width="1.5" d="M13.786 3c.557 0 1.092.227 1.478.63l3.792 3.95c.366.38.57.89.57 1.42v8.163A3.812 3.812 0 0 1 15.97 21l-7.926-.001a3.753 3.753 0 0 1-3.67-3.836V6.657A3.746 3.746 0 0 1 8.134 3h5.652ZM12.002 16.06v-.01M11.996 10.031v3.152"/><path stroke="currentColor" stroke-linecap="round" stroke-linejoin="round" stroke-width="1.5" d="M14.268 3.063v2.892a2.56 2.56 0 0 0 2.553 2.56h2.74"/></symbol><symbol id="wheel" fill="none" viewBox="0 0 25 25"><path stroke="currentColor" stroke-linecap="round" stroke-linejoin="round" stroke-width="1.5" d="M21.5 12.119a9 9 0 1 0-18 0 9 9 0 0 0 18 0Z"/><path stroke="currentColor" stroke-linecap="round" stroke-linejoin="round" stroke-width="1.5" d="M12.19 3.123v8.304a1 1 0 0 0 1 1h8.304"/></symbol></defs></svg>