<?xml version="1.0" encoding="UTF-8"?><svg id="Calque_2" xmlns="http://www.w3.org/2000/svg" viewBox="0 0 135.39 136.4"><g id="Layer_1"><g><path d="M135.39,67.73c.01,9.12-1.83,18.16-5.41,26.55-3.58,8.39-8.82,15.97-15.41,22.28-.13,.13-.27,.27-.42,.4l-.14,.13-.13,.13s-.05,.04-.08,.07c-1.75,1.63-3.59,3.17-5.51,4.61-1.58,1.18-3.21,2.3-4.89,3.35-.24,.15-.48,.3-.73,.45-1.88,1.14-3.82,2.19-5.82,3.14-.51,.24-1.02,.48-1.53,.71-3,1.34-6.09,2.46-9.25,3.35-5,1.4-10.15,2.23-15.35,2.45l-.53,.02c-.84,.03-1.65,.05-2.48,.05s-1.65,0-2.48-.05l-.53-.02c-8.81-.38-17.45-2.48-25.45-6.19l-.7-.33c-2.55-1.22-5.02-2.6-7.4-4.12-1.39-.89-2.74-1.83-4.06-2.82-1.87-1.41-3.67-2.91-5.39-4.51l-.08-.07-.13-.13-.37-.35c-.06-.05-.11-.1-.16-.15l-.4-.38c-8.03-7.78-14-17.43-17.39-28.08C-.2,77.56-.9,66.23,1.15,55.25c2.06-10.99,6.8-21.3,13.81-30,7.01-8.71,16.07-15.54,26.36-19.9C51.62,.99,62.83-.74,73.96,.29c11.13,1.04,21.83,4.81,31.14,10.99,9.32,6.18,16.96,14.57,22.24,24.42,5.28,9.85,8.05,20.86,8.04,32.03Z" style="fill:#f0eeee;"/><path d="M79.81,21.26s23.47,7.5,15.49,53.98c-.36,2.04-.58,4.11-.66,6.18-.2,5.54-2.61,17.86-10.07,21.78l-9.7,5.1,4.94-87.04Z"/><path d="M93.25,46.99s4.55,45.05-7.41,53.67-15.47-.69-15.47-.69l11.86-34.9,11.02-18.08Z"/><path d="M48.81,53.27s-7.33,23.38-.72,35.2c6.61,11.82,20.83,11.5,20.83,11.5,0,0-7.42-20.52-7.5-31.96-.08-11.44-12.61-14.74-12.61-14.74Z"/><path d="M113.88,117.21s-.05,.04-.08,.07c-1.75,1.63-3.59,3.17-5.51,4.61-1.58,1.18-3.21,2.3-4.89,3.35-.24,.15-.48,.3-.73,.45-1.88,1.14-3.82,2.19-5.82,3.14-.51,.24-1.02,.48-1.53,.71-3,1.34-6.09,2.46-9.25,3.35-5,1.4-10.15,2.23-15.35,2.45l-.53,.02c-.84,.03-1.65,.05-2.48,.05s-1.65,0-2.48-.05l-.53-.02c-8.81-.38-17.45-2.48-25.45-6.19l-.7-.33c-2.55-1.22-5.02-2.6-7.4-4.12-1.39-.89-2.74-1.83-4.06-2.82-1.87-1.41-3.67-2.91-5.39-4.51l-.08-.07c2.8-3.24,6-6.1,9.53-8.52,2.57-1.77,5.27-3.32,8.1-4.64,2.07-.97,4.19-1.83,6.35-2.57,.92-.32,1.86-.63,2.83-.92l1.69-1.22,1.54-1.12,3.16-2.31,.23-.16,1.08-.78,.49-.36v-18.74l5.77,.52,14.24,1.27,1.29,.11,1.54,.14v16.26s.29,.27,.76,.71c.79,.73,2.09,1.92,3.43,3.07,.36,.31,.72,.61,1.08,.9,.59,.48,1.15,.92,1.69,1.29l.39,.27,.21,.14,.18,.11c.14,.09,.27,.16,.39,.23l.14,.08,.19,.09c.29,.12,.8,.3,1.48,.53,1.39,.47,3.5,1.19,5.98,2.23,.79,.33,1.61,.7,2.46,1.1,1.94,.9,3.82,1.91,5.63,3.03,3.6,2.16,6.83,4.88,9.58,8.06,.25,.38,.55,.74,.84,1.1Z" style="fill:#fff; stroke:#000; stroke-linecap:round; stroke-linejoin:round; stroke-width:2px;"/><path d="M57.8,78.53s9.05,10.04,16.26,9.07c7.2-.97,6.24-3,6.24-3l.35-6.59-22.84,.52Z"/><path d="M49.7,55.3s-1.6-3.37-4.8-1.66c-3.2,1.72-.39,10.37,3.2,12.02,3.59,1.65,2.95-1.07,2.95-1.07" style="fill:none; stroke:#000; stroke-linecap:round; stroke-linejoin:round; stroke-width:2px;"/><path d="M45.59,57.04s3.71-.05,4.77,3" style="fill:none; stroke:#000; stroke-linecap:round; stroke-linejoin:round; stroke-width:2px;"/><path d="M47.79,61.9s-1.45-2.58,1-3.64" style="fill:none; stroke:#000; stroke-linecap:round; stroke-linejoin:round; stroke-width:2px;"/><path d="M89.81,55.3s1.6-3.37,4.8-1.66c3.2,1.72,.39,10.37-3.2,12.02-3.59,1.65-2.95-1.07-2.95-1.07" style="fill:none; stroke:#000; stroke-linecap:round; stroke-linejoin:round; stroke-width:2px;"/><path d="M93.94,57.04s-3.71-.05-4.77,3" style="fill:none; stroke:#000; stroke-linecap:round; stroke-linejoin:round; stroke-width:2px;"/><path d="M91.72,61.9s1.45-2.58-1-3.64" style="fill:none; stroke:#000; stroke-linecap:round; stroke-linejoin:round; stroke-width:2px;"/><path d="M49.83,50.35s-1.03,18.28,4.26,23.8c5.29,5.52,7.93,7.47,12.53,8.05,4.6,.57,6.79,.69,12.65-3.22,5.87-3.91,7.93-7.59,8.74-11.61,.81-4.02,2.99-20.93,2.99-20.93l-5.52-13.92-17.13-4.83-5.98,.69-6.56,4.72-4.94,7.82-1.04,9.43Z" style="fill:#fff; stroke:#000; stroke-miterlimit:10; stroke-width:1.51px;"/><path d="M49.43,55.13v-2.88s6.49-9.37,6.84-16.73c0,0,13.68,12.3,33.32,8.28v11.32l2.53-1.97s2.75-16.82-7.94-25.45c-10.69-8.62-22.28-5.06-25.63-2.53s-16.3,10.69-9.12,29.95Z"/><path d="M78.84,54.57c.99,0,1.8-.81,1.8-1.8s-.81-1.8-1.8-1.8-1.8,.81-1.8,1.8,.81,1.8,1.8,1.8Z"/><path d="M59.6,54.57c.99,0,1.8-.81,1.8-1.8s-.81-1.8-1.8-1.8-1.8,.81-1.8,1.8,.81,1.8,1.8,1.8Z"/><path d="M67.69,57.71v3.62c-.02,.44,.1,.88,.35,1.24,.25,.36,.61,.64,1.03,.77,.42,.14,.87,.13,1.29-.01,.42-.15,.77-.43,1.01-.79" style="fill:none; stroke:#000; stroke-linecap:round; stroke-linejoin:round; stroke-width:2px;"/><path d="M76.51,66.99c-6.36,4.6-14.1,0-14.1,0" style="fill:none; stroke:#000; stroke-linecap:round; stroke-linejoin:round; stroke-width:2px;"/><path d="M73.78,47.04l1.56,1.97,10.5-.19s-3.35-1.66-4.5-1.78c-1.15-.13-7.56,0-7.56,0Z"/><path d="M65.15,47.04l-1.56,1.97-10.5-.19s3.34-1.66,4.5-1.78c1.16-.13,7.56,0,7.56,0Z"/><path d="M49.66,100.67s19.15,16.3,38.53,0H49.66Z" style="fill:#fff;"/><path d="M49.66,100.67s19.15,16.3,38.53,0" style="fill:none; stroke:#000; stroke-linecap:round; stroke-linejoin:round; stroke-width:2px;"/><path d="M102.67,125.69c-1.88,1.14-3.82,2.19-5.82,3.14-.51,.24-1.02,.48-1.53,.71-3,1.34-6.09,2.46-9.25,3.35,.27-4.12,.5-12.11-.99-18.6-.84-3.75-2.29-7-4.64-8.72l-.16-.12-.14-.09c-.08-.05-.16-.11-.24-.15-.5-.31-1.04-.54-1.61-.69-.34-.1-.7-.17-1.05-.21l-.2-.02c-.58-.05-1.19-.1-1.81-.14h-.15c-3.9-.28-8.5-.48-13.07-1.16-3.15-.43-6.24-1.2-9.21-2.29-.93-.36-1.83-.76-2.72-1.22-3.72-1.94-6.8-4.76-8.63-8.97-.62-1.43-1.07-2.92-1.35-4.45-3.4-18.05-7.51-65.9,27.58-67.11,4.85-.17,8.86,.7,12.12,2.34,8.96,4.5,12.53,14.82,13.42,25.72v.15c.16,2.02,.23,4.06,.22,6.08,0,1.29-.03,2.58-.1,3.85-.13,2.64-.36,5.23-.67,7.67-.91,7.17-2.45,13.15-3.57,15.88,1.06-4.87,1.71-9.83,1.94-14.81,.12-2.46,.11-4.93-.04-7.38,0-.2-.03-.42-.04-.6-.08-1.17-.21-2.34-.38-3.49,0-.05,0-.09-.02-.14-.11-.7-.23-1.4-.37-2.11l-.03-.13c-.17-.84-.38-1.69-.61-2.53-.51-1.83-1.21-3.6-2.11-5.28-1.52-2.99-3.92-5.45-6.88-7.04-.57-.3-1.13-.58-1.69-.84-15.65-7.36-24.27,.11-24.27,.11,0,0-1.72,5.36-3.4,12.87-.32,1.43-.64,2.95-.95,4.52-.19,.96-.37,1.95-.54,2.95-.11,.61-.21,1.23-.31,1.85-.38,2.37-.71,4.81-.95,7.25-.97,9.75-.55,19.6,3.5,25.47,1.04,1.55,2.43,2.84,4.06,3.77,1.64,.9,3.45,1.43,5.31,1.56,2.36,.2,4.53,.37,6.53,.5,1.16,.08,2.26,.15,3.32,.21l1.5,.08c.94,.05,1.84,.1,2.7,.14,3.26,.16,5.9,.28,8.15,.46,.55,.04,1.08,.09,1.57,.14,.75,.08,1.44,.17,2.08,.28l.34,.05,.32,.06c.48,.09,.93,.19,1.36,.3,.59,.16,1.16,.35,1.72,.57,2.26,.9,4.07,2.36,6.19,4.82,.2,.23,.39,.48,.58,.74,3.48,4.76,4.62,13.69,4.96,20.68Z"/><path d="M41.46,90.48s3.35,25.6,29.91,22.93c26.56-2.67,22.57,15.16,22.57,15.16,0,0,4.64-21.51-5.75-24.29-10.39-2.78-26.77-5.48-26.77-5.48l-19.96-8.32Z"/><path d="M68.21,97.97s15.73-.24,19.02-10.96c3.29-10.72,.97,17.83-3.56,18.8-4.53,.96-15.46-7.83-15.46-7.83Z"/><path d="M54.04,90.48s16.36,8.33,30.12,0c13.76-8.33-4.35,15.33-4.35,15.33l-16.05-2.11-11.99-5.03-2.11-4.79,1.46-2.18,2.92-1.22Z"/><path d="M96.92,55.13s2.53,42.72-10.45,48.72l10.45-48.72Z"/></g></g></svg>