<?xml version="1.0" encoding="UTF-8"?><svg id="Calque_2" xmlns="http://www.w3.org/2000/svg" viewBox="0 0 135.39 136.34"><g id="Layer_1"><g><path d="M135.39,67.7c0,19.19-7.99,36.52-20.82,48.83l-.03,.03c-.13,.12-.25,.24-.38,.37l-.14,.13-.03,.03c-.06,.06-.13,.12-.19,.18-1.75,1.63-3.58,3.17-5.5,4.61-1.71,1.29-3.49,2.5-5.33,3.62-1.98,1.21-4.02,2.32-6.13,3.33-.15,.07-.3,.14-.45,.21-7.86,3.69-16.54,5.91-25.69,6.3-.11,0-.23,0-.34,.01-.57,.03-1.13,.04-1.7,.05-.32,0-.65,0-.97,0-.42,0-.83,0-1.25-.01v-.04l-.03-.05-.03,.03v.02l-.05,.04h0c-.45,0-.89-.03-1.34-.04-.1,0-.21,0-.31-.01-9.33-.4-18.17-2.7-26.15-6.52-4.06-1.94-7.89-4.27-11.46-6.95-1.87-1.4-3.67-2.91-5.39-4.5-.07-.06-.13-.13-.2-.19l-.03-.03c-.12-.12-.24-.23-.37-.35-.05-.05-.11-.1-.16-.15-.12-.12-.24-.24-.37-.36,0,0-.02-.02-.03-.03C7.87,103.97,0,86.75,0,67.7,0,30.31,30.3,0,67.69,0s67.69,30.31,67.69,67.7Z" style="fill:#efeeee;"/><g><path d="M82.61,71.37c-1.55-.13-2.54,.32-2.87,1.47-.27,.93-1.13,1.52-2.09,1.44-1.18-.1-1.94,.39-2.46,1.21-.6,.95-1.92,1.15-2.8,.46-1.25-.98-2.64-1.47-4.53-.35-.85,.5-1.9,.27-2.54-.49-.39-.46-.83-.54-1.3-.35-.83,.34-1.77-.04-2.28-.78s-1-1.09-1.52-1.16c-.85-.11-1.44-.84-1.64-1.68-.1-.43-.37-.74-.85-.87-.92-.26-1.58-1.12-1.5-2.07,.11-1.32-.43-2.02-1.57-2.13-1.06-.11-1.93-.99-1.85-2.06,.03-.45-.1-.8-.42-1.04-.57-.45-.78-1.21-.66-1.93,.15-.92-.52-1.61-1.98-2.07-1.93-.91-3.15-.8-3.6,.42-.23,.62-.73,1.1-1.37,1.26-3.05,.76-4.65,1.96-3.04,4.1,.4,.53,.47,1.24,.22,1.86-1.04,2.58-1.11,4.82,.87,6.38,.87,.68,.96,1.94,.26,2.79-1.34,1.62-.55,3.07,1.69,4.42,.67,.4,1.01,1.18,.91,1.95-.3,2.39,.83,2.99,2.47,2.95,1.04-.02,1.94,.72,2.03,1.75,.17,2.02,1.23,3.46,4.75,3.32,.8-.03,1.51,.45,1.85,1.17,.88,1.88,1.96,1.86,3.13,.91,.93-.75,2.29-.52,2.92,.49,.82,1.32,1.8,1.06,2.84,.14,.7-.62,1.73-.69,2.48-.13,2.3,1.74,4.49,2.02,6.51,.19,.68-.61,1.68-.72,2.44-.21,1.22,.82,2.16,.7,2.78-.43,.49-.9,1.56-1.27,2.51-.89,1.66,.68,2.18-.3,2.38-1.72,.14-1.01,1.05-1.71,2.07-1.65,1.8,.1,2.51-.99,2.76-2.6,.15-.97,1-1.7,1.98-1.65,2.55,.13,2.77-1.48,2.01-3.82-.32-.97,.18-2.04,1.14-2.41,1.91-.74,1.82-2.06,.49-3.74-.65-.82-.51-1.98,.26-2.68,1.07-.98,.86-2.1,0-3.29-.52-.71-.52-1.71,.03-2.39,1.19-1.48,.66-3.07-1.06-4.73-.42-.4-.59-.98-.54-1.56,.08-.96-.76-1.23-2.59-.74-.08,.02-.17,.05-.24,.08-2.63,1.05-3.26,2.22-2.95,3.44,.21,.84-.25,1.69-1.02,2.09-.59,.31-.73,.72-.59,1.2,.26,.9-.02,1.89-.84,2.34-.55,.3-.89,.89-.96,1.89-.07,1.11-1,1.95-2.11,1.86Z"/><path d="M114.01,117.05l-.03,.03c-.06,.06-.13,.12-.19,.18-1.75,1.63-3.58,3.17-5.5,4.61-1.71,1.29-3.49,2.5-5.33,3.62-1.98,1.21-4.02,2.32-6.13,3.33-.15,.07-.3,.14-.45,.21-7.86,3.69-16.54,5.91-25.69,6.3-.11,0-.23,0-.34,.01h-5.36c-.1,0-.21,0-.31-.01-9.33-.4-18.17-2.7-26.15-6.52-4.06-1.94-7.89-4.27-11.46-6.95-1.87-1.4-3.67-2.91-5.39-4.5-.07-.06-.13-.13-.2-.19l-.03-.03c2.52-2.95,5.69-5.94,9.67-8.69,2.4-1.65,5.08-3.21,8.1-4.63,2.08-.98,4.32-1.89,6.73-2.7,1.66-.57,3.24-1.35,4.66-2.39l5.96-4.34v-16.71h22.84v16.26s4.91,4.67,7.53,6.39c.35,.23,.65,.4,.9,.51,.87,.38,3.76,1.21,7.46,2.76,2.45,1.04,5.27,2.38,8.1,4.13,3.37,2.08,6.76,4.72,9.58,8.06,.35,.42,.7,.84,1.03,1.26Z" style="fill:#fff; stroke:#000; stroke-linecap:round; stroke-linejoin:round; stroke-width:2px;"/><path d="M56.58,78.21s9.05,10.04,16.26,9.07c7.21-.97,6.23-3,6.23-3l.35-6.59-22.84,.52Z"/><g><path d="M48.48,54.99s-1.6-3.38-4.8-1.66c-3.2,1.73-.39,10.37,3.2,12.02s2.96-1.07,2.96-1.07" style="fill:#fff; stroke:#000; stroke-linecap:round; stroke-linejoin:round; stroke-width:2px;"/><path d="M44.37,56.73s3.71-.05,4.77,3" style="fill:#fff; stroke:#000; stroke-linecap:round; stroke-linejoin:round; stroke-width:2px;"/><path d="M46.56,61.58s-1.45-2.57,1-3.64" style="fill:#fff; stroke:#000; stroke-linecap:round; stroke-linejoin:round; stroke-width:2px;"/></g><g><path d="M88.59,54.99s1.6-3.38,4.8-1.66c3.2,1.73,.39,10.37-3.2,12.02s-2.96-1.07-2.96-1.07" style="fill:#fff; stroke:#000; stroke-linecap:round; stroke-linejoin:round; stroke-width:2px;"/><path d="M92.7,56.73s-3.71-.05-4.77,3" style="fill:#fff; stroke:#000; stroke-linecap:round; stroke-linejoin:round; stroke-width:2px;"/><path d="M90.5,61.58s1.45-2.57-1-3.64" style="fill:#fff; stroke:#000; stroke-linecap:round; stroke-linejoin:round; stroke-width:2px;"/></g><path d="M48.49,51.06s-.52,18.67,4.92,24.15c5.44,5.48,8.14,7.4,12.75,7.86s6.8,.52,12.55-3.63,7.72-7.96,8.41-12.08c.69-4.12,2.4-21.42,2.4-21.42l-5.91-14.03-17.26-4.45-5.96,.87-6.42,4.99-4.72,8.11-.77,9.64Z" style="fill:#fff; stroke:#000; stroke-miterlimit:10; stroke-width:1.53px;"/><circle cx="77.62" cy="52.45" r="1.8"/><circle cx="58.38" cy="52.45" r="1.8"/><path d="M66.47,57.4v3.62c0,1.13,.88,2.11,2.01,2.11,.54,0,1.13-.23,1.67-.91" style="fill:none; stroke:#000; stroke-linecap:round; stroke-linejoin:round; stroke-width:2px;"/><path d="M61.18,66.67s7.74,4.6,14.1,0" style="fill:none; stroke:#000; stroke-linecap:round; stroke-linejoin:round; stroke-width:2px;"/><path d="M72.56,46.73l1.56,1.97,10.5-.19s-3.35-1.66-4.5-1.78-7.56,0-7.56,0Z"/><path d="M63.93,46.73l-1.56,1.97-10.5-.19s3.35-1.66,4.5-1.78,7.56,0,7.56,0Z"/><polyline points="48.42 100.36 68.66 107.25 86.95 100.34" style="fill:none; stroke:#000; stroke-miterlimit:10; stroke-width:2px;"/><line x1="68.66" y1="107.25" x2="68.66" y2="135.34" style="fill:none; stroke:#000; stroke-miterlimit:10; stroke-width:2px;"/><path d="M75.82,63.53s1.56,2.27,1.55,4.7" style="fill:#fff; stroke:#000; stroke-linecap:round; stroke-linejoin:round;"/><path d="M60.96,63.9s-1.56,2.27-1.55,4.7" style="fill:#fff; stroke:#000; stroke-linecap:round; stroke-linejoin:round;"/><path d="M64.84,78.33s3.48-1.7,5.68,.45" style="fill:#fff; stroke:#000; stroke-linecap:round; stroke-linejoin:round; stroke-width:.83px;"/><path d="M55.87,41.87c1.55,.13,2.54-.32,2.87-1.47,.27-.93,1.13-1.52,2.09-1.44,1.18,.1,1.94-.39,2.46-1.21,.6-.95,1.92-1.15,2.8-.46,1.25,.98,2.64,1.47,4.53,.35,.85-.5,1.9-.27,2.54,.49,.39,.46,.83,.54,1.3,.35,.83-.34,1.77,.04,2.28,.78s1,1.09,1.52,1.16c.85,.11,1.44,.84,1.64,1.68,.1,.43,.37,.74,.85,.87,.92,.26,1.58,1.12,1.5,2.07-.11,1.32,.43,2.02,1.57,2.13,1.06,.11,1.93,.99,1.85,2.06-.03,.45,.1,.8,.42,1.04,.57,.45,.78,1.21,.66,1.93-.15,.92,.52,1.61,1.98,2.07,1.93,.91,3.15,.8,3.6-.42,.23-.62,.73-1.1,1.37-1.26,3.05-.76,4.65-1.96,3.04-4.1-.4-.53-.47-1.24-.22-1.86,1.04-2.58,1.11-4.82-.87-6.38-.87-.68-.96-1.94-.26-2.79,1.34-1.62,.55-3.07-1.69-4.42-.67-.4-1.01-1.18-.91-1.95,.3-2.39-.83-2.99-2.47-2.95-1.04,.02-1.94-.72-2.03-1.75-.17-2.02-1.23-3.46-4.75-3.32-.8,.03-1.51-.45-1.85-1.17-.88-1.88-1.96-1.86-3.13-.91-.93,.75-2.29,.52-2.92-.49-.82-1.32-1.8-1.06-2.84-.14-.7,.62-1.73,.69-2.48,.13-2.3-1.74-4.49-2.02-6.51-.19-.68,.61-1.68,.72-2.44,.21-1.22-.82-2.16-.7-2.78,.43-.49,.9-1.56,1.27-2.51,.89-1.66-.68-2.18,.3-2.38,1.72-.14,1.01-1.05,1.71-2.07,1.65-1.8-.1-2.51,.99-2.76,2.6-.15,.97-1,1.7-1.98,1.65-2.55-.13-2.77,1.48-2.01,3.82,.32,.97-.18,2.04-1.14,2.41-1.91,.74-1.82,2.06-.49,3.74,.65,.82,.51,1.98-.26,2.68-1.07,.98-.86,2.1,0,3.29,.52,.71,.52,1.71-.03,2.39-1.19,1.48-.66,3.07,1.06,4.73,.42,.4,.59,.98,.54,1.56-.08,.96,.76,1.23,2.59,.74,.08-.02,.17-.05,.24-.08,2.63-1.05,3.26-2.22,2.95-3.44-.21-.84,.25-1.69,1.02-2.09,.59-.31,.73-.72,.59-1.2-.26-.9,.02-1.89,.84-2.34,.55-.3,.89-.89,.96-1.89,.07-1.11,1-1.95,2.11-1.86Z"/><circle cx="73.54" cy="112.76" r="1.94"/><circle cx="73.54" cy="118.43" r="1.94"/><circle cx="73.54" cy="124.09" r="1.94"/><circle cx="73.54" cy="129.76" r="1.94"/><path d="M51.77,44.13h14.7v8c0,3.7-3,6.7-6.7,6.7h-1.29c-3.7,0-6.7-3-6.7-6.7v-8h0Z" style="fill:none; stroke:#000; stroke-linecap:round; stroke-linejoin:round; stroke-width:2px;"/><path d="M71.23,44.13h14.7v8c0,3.7-3,6.7-6.7,6.7h-1.29c-3.7,0-6.7-3-6.7-6.7v-8h0Z" style="fill:none; stroke:#000; stroke-linecap:round; stroke-linejoin:round; stroke-width:2px;"/><rect x="66.47" y="49.06" width="5.06" height="1.01"/><line x1="51.77" y1="52.22" x2="48.47" y2="55.37" style="fill:none; stroke:#000; stroke-miterlimit:10; stroke-width:2px;"/><line x1="85.54" y1="53.44" x2="88.48" y2="56" style="fill:none; stroke:#000; stroke-miterlimit:10; stroke-width:2px;"/></g></g></g></svg>