<?xml version="1.0" encoding="UTF-8"?><svg id="Calque_2" xmlns="http://www.w3.org/2000/svg" viewBox="0 0 135.39 136.39"><g id="Layer_1"><g><path d="M135.39,67.7c0,19.17-7.97,36.48-20.78,48.79-.01,.02-.03,.03-.04,.04-.14,.13-.27,.27-.41,.4l-.16,.15c-.06,.06-.13,.12-.19,.18,0,0-.01,0-.02,.02-1.75,1.62-3.57,3.16-5.48,4.59-1.6,1.2-3.26,2.34-4.96,3.39-.12,.08-.24,.15-.36,.23-1.98,1.21-4.02,2.32-6.13,3.33-.15,.07-.3,.14-.45,.21-4.82,2.26-9.95,3.97-15.32,5.05-1.37,.27-2.75,.51-4.15,.7-2.05,.28-4.13,.47-6.23,.56-.59,.03-1.19,.05-1.78,.05-.08,0-.17,0-.26,0-.32,0-.65,0-.97,0h-.03c-1,0-1.99-.02-2.98-.07-.78-.03-1.55-.08-2.32-.14-1.56-.12-3.09-.29-4.61-.51-6.79-1-13.24-3-19.22-5.86-4.06-1.94-7.89-4.27-11.46-6.95-1-.75-1.97-1.53-2.93-2.33-.83-.7-1.64-1.41-2.44-2.15,0,0-.01,0-.02-.02-.07-.06-.13-.13-.2-.19-.08-.08-.17-.16-.26-.24-.05-.04-.09-.08-.13-.13-.05-.05-.11-.1-.16-.15-.13-.13-.27-.25-.4-.38C7.87,103.97,0,86.75,0,67.7,0,30.31,30.3,0,67.69,0s67.69,30.31,67.69,67.7Z" style="fill:#efefef;"/><g><path d="M62.65,20.16c1.18-.97,3.69-2.39,7.28-1.1,.58,.21,1.22,.18,1.79-.05,1.33-.55,4.12-1.15,7.72,1.1,.67,.42,1.49,.46,2.23,.17,1.96-.78,3.86,.41,5.75,2.05,.32,.28,.7,.47,1.11,.55,2.59,.55,4.65,2.52,4.54,5.09-.04,.94,.42,1.85,1.24,2.29,2.1,1.13,3.01,3.32,2.81,6.47-.05,.73,.25,1.44,.78,1.94,2.19,2.12,2.27,4.43,.86,6.86-.44,.76-.41,1.72,.03,2.48,2.22,3.79,2.1,7.15-.16,10.09-.62,.81-.66,1.9-.16,2.79,.82,1.46,1.09,2.88,.17,4.25-.68,1.02-.49,2.37,.4,3.22,1.24,1.17,1.92,2.52,.72,4.47-.59,.96-.45,2.21,.31,3.04,1.39,1.54,2.27,3.17,1.11,5.14-.55,.94-.42,2.1,.3,2.91,1.63,1.84,1.77,4.14,.56,6.87-.44,.98-.21,2.14,.58,2.85,1.64,1.48,2.09,3.27,1.54,5.33-.22,.84-.02,1.76,.59,2.38,2.28,2.31,2.56,5.23,1.6,8.54-.31,1.09-1.31,1.84-2.45,1.83l-69.73-.69c-1.21-.01-2.23-.88-2.45-2.07-.45-2.47-.28-4.78,.97-6.83,.38-.63,.53-1.39,.29-2.08-.47-1.37-.08-2.57,1.09-3.6,.76-.67,1-1.75,.67-2.71-1.03-3.02-.33-5.26,1.18-6.66,.8-.74,1.01-1.96,.53-2.94-1.1-2.24-1.08-4.07,.41-5.33,.9-.76,1.18-2.03,.64-3.08-1.68-3.29-.92-5.77,1.22-7.8,.79-.75,1.02-1.94,.54-2.92-2.13-4.35-1.51-7.69,.36-10.58,.36-.55,.5-1.22,.38-1.87-.62-3.35-.19-6.2,2.18-8.13,.67-.55,1.02-1.41,.9-2.26-.19-1.27,.04-1.93,.46-2.31,.64-.59,.83-1.5,.66-2.36-.21-1.08,.12-2.19,1.31-3.35,.6-.58,.91-1.42,.75-2.23-.38-1.92,1.01-3.24,3.87-4.07,.85-.25,1.56-.91,1.78-1.77,.33-1.28,1.46-1.77,2.92-1.94,.91-.1,1.7-.7,2.03-1.55,.61-1.56,2.02-2.03,3.89-1.85,.68,.07,1.35-.14,1.87-.57Z"/><path d="M113.99,117.08c-.06,.06-.13,.12-.19,.18,0,0-.01,0-.02,.02-1.75,1.62-3.57,3.16-5.48,4.59-1.6,1.2-3.26,2.34-4.96,3.39-.12,.08-.24,.15-.36,.23-1.98,1.21-4.02,2.32-6.13,3.33-.15,.07-.3,.14-.45,.21-4.82,2.26-9.95,3.97-15.32,5.05-1.37,.27-2.75,.51-4.15,.7-2.05,.28-4.13,.47-6.23,.56-.59,.03-1.19,.05-1.78,.05-.08,0-.17,0-.26,0-.32,0-.65,0-.97,0h-.03c-1,0-1.99-.02-2.98-.07-.78-.03-1.55-.08-2.32-.14-1.56-.12-3.09-.29-4.61-.51-6.79-1-13.24-3-19.22-5.86-4.06-1.94-7.89-4.27-11.46-6.95-1-.75-1.97-1.53-2.93-2.33-.83-.7-1.64-1.41-2.44-2.15,0,0-.01,0-.02-.02-.07-.06-.13-.13-.2-.19,2.51-2.94,5.68-5.92,9.64-8.66,.16-.11,.33-.22,.49-.33,2.27-1.53,4.79-2.98,7.6-4.29,1.61-.76,3.33-1.48,5.14-2.14,1.29-.48,2.64-.93,4.04-1.35l8.16-5.95v-16.71h22.84v16.26s4.91,4.67,7.53,6.39c.35,.23,.65,.4,.9,.51,.61,.26,2.21,.75,4.39,1.55,.93,.35,1.96,.74,3.07,1.21,2.45,1.04,5.27,2.38,8.1,4.13,1,.62,2,1.28,2.99,2,2.34,1.71,4.6,3.71,6.58,6.06,.35,.41,.68,.82,1,1.23Z" style="fill:#fff; stroke:#000; stroke-linecap:round; stroke-linejoin:round; stroke-width:2px;"/><path d="M56.58,78.27s9.05,10.04,16.26,9.07,6.23-3,6.23-3l.35-6.59-22.84,.52Z"/><g><path d="M48.47,55.04s-1.6-3.38-4.8-1.66-.39,10.37,3.2,12.02c3.59,1.65,2.96-1.07,2.96-1.07" style="fill:#fff; stroke:#000; stroke-linecap:round; stroke-linejoin:round; stroke-width:2px;"/><path d="M44.36,56.78s3.71-.05,4.77,3" style="fill:#fff; stroke:#000; stroke-linecap:round; stroke-linejoin:round; stroke-width:2px;"/><path d="M46.56,61.63s-1.45-2.57,1-3.64" style="fill:#fff; stroke:#000; stroke-linecap:round; stroke-linejoin:round; stroke-width:2px;"/></g><g><path d="M88.59,55.04s1.6-3.38,4.8-1.66c3.2,1.73,.39,10.37-3.2,12.02-3.59,1.65-2.96-1.07-2.96-1.07" style="fill:#fff; stroke:#000; stroke-linecap:round; stroke-linejoin:round; stroke-width:2px;"/><path d="M92.7,56.78s-3.71-.05-4.77,3" style="fill:#fff; stroke:#000; stroke-linecap:round; stroke-linejoin:round; stroke-width:2px;"/><path d="M90.5,61.63s1.45-2.57-1-3.64" style="fill:#fff; stroke:#000; stroke-linecap:round; stroke-linejoin:round; stroke-width:2px;"/></g><path d="M48.61,50.09s-1.03,18.28,4.25,23.8c5.29,5.52,7.93,7.47,12.53,8.05s6.78,.69,12.65-3.22c5.86-3.91,7.93-7.59,8.74-11.61s2.99-20.92,2.99-20.92l-5.52-13.91-17.13-4.83-5.98,.69-6.55,4.71-4.94,7.82-1.03,9.43Z" style="fill:#fff; stroke:#000; stroke-miterlimit:10; stroke-width:1.51px;"/><circle cx="77.62" cy="52.5" r="1.8"/><circle cx="58.38" cy="52.5" r="1.8"/><path d="M66.47,57.45v3.62c0,1.13,.88,2.11,2.01,2.11,.54,0,1.13-.23,1.67-.91" style="fill:none; stroke:#000; stroke-linecap:round; stroke-linejoin:round; stroke-width:2px;"/><path d="M61.18,66.72s7.74,4.6,14.1,0" style="fill:none; stroke:#000; stroke-linecap:round; stroke-linejoin:round; stroke-width:2px;"/><path d="M72.56,46.78l1.56,1.97,10.5-.19s-3.35-1.66-4.5-1.78-7.56,0-7.56,0Z"/><path d="M63.92,46.78l-1.56,1.97-10.5-.19s3.35-1.66,4.5-1.78,7.56,0,7.56,0Z"/><path d="M82.06,111.52l-5.36,9.83,.23,13.41c-2.05,.28-4.13,.47-6.23,.56-.59,.03-1.19,.05-1.78,.05-.08,0-.17,0-.26,0-.32,0-.65,0-.97,0h-.03c-1,0-1.99-.02-2.98-.07-.78-.03-1.55-.08-2.32-.14l-.12-13.83-6.67-10.1-7.16-10.83s0,0,.02,.01c.75,.65,17.5,15.05,39.38,.48,0,0,.02-.01,.03-.02l-5.79,10.61Z" style="stroke:#000; stroke-miterlimit:10;"/><path d="M50.16,39.85s3.7,4.74,10.02,1.58c0,0,6.65,3.64,12.37,.24,0,0,5.85,3.76,10.83-.19,0,0,1.94,2.17,4.55,.08,0,0-1.76,7.18,.58,14,0,0,.1,2.2,1.8,7.62,0,0,3.27,7.53,5.82-3.41,2.55-10.94-1.35-12.64-1.35-12.64,0,0-1.32-17.85-8.49-21.86s-27.45-3.52-33.28,3.77c-5.83,7.29-6.95,12.39-6.95,12.39,0,0-12.92,27.32-.47,24.28,0,0,5.9-7.54,5.23-13.21s-.96-6.28-.96-6.28c0,0,2.34-1.58,.28-6.37Z"/><polyline points="44.37 101.75 44.37 101.75 50.6 111.21 57.76 122.07 57.76 134.67" style="fill:none; stroke:#000; stroke-miterlimit:10;"/><polyline points="92.25 102.45 87.12 111.56 81.08 122.32 81.08 134.07" style="fill:none; stroke:#000; stroke-miterlimit:10;"/></g></g></g></svg>