<?xml version="1.0" encoding="UTF-8"?><svg id="Calque_2" xmlns="http://www.w3.org/2000/svg" viewBox="0 0 135.39 136.39"><g id="Layer_1"><g><path d="M135.39,67.7c0,19.19-7.99,36.52-20.82,48.83l-.03,.03s-.08,.08-.13,.12c-.08,.08-.17,.16-.25,.24l-.16,.15c-.06,.06-.13,.12-.19,.18-1.75,1.63-3.58,3.17-5.5,4.61-1.71,1.29-3.49,2.5-5.33,3.62-1.98,1.21-4.02,2.32-6.13,3.33-.15,.07-.3,.14-.45,.21-7.86,3.69-16.54,5.91-25.69,6.3-.68,.03-1.36,.05-2.04,.06-.32,0-.65,0-.97,0-.42,0-.83,0-1.25-.01l-.03-.09-.03,.03-.05,.06h-.01c-.27,0-.54-.01-.82-.02-.27,0-.55-.02-.82-.03-9.33-.4-18.17-2.7-26.15-6.52-4.06-1.94-7.89-4.27-11.46-6.95-1.87-1.4-3.67-2.91-5.39-4.5-.07-.06-.13-.13-.2-.19-.13-.13-.26-.25-.39-.37-.05-.05-.11-.1-.16-.15-.08-.08-.16-.16-.24-.24-.04-.04-.08-.08-.12-.12,0,0-.02-.02-.03-.03C7.87,103.97,0,86.75,0,67.7,0,30.31,30.3,0,67.69,0s67.69,30.31,67.69,67.7Z" style="fill:#efeeee;"/><g><g><path d="M87.44,54.15s8.69-4.12,6.15,4.63c-2.54,8.75-7.57,7.23-7.57,7.23" style="fill:#fff; stroke:#000; stroke-miterlimit:10; stroke-width:2px;"/><path d="M91.54,56.51s-2.83-1.21-4.1,1.96c0,0,2.94-.92,1.73,3.92" style="fill:#fff; stroke:#000; stroke-linecap:round; stroke-linejoin:round; stroke-width:2px;"/></g><g><path d="M45.32,53.65s-8.69-4.12-6.15,4.63c2.54,8.75,7.57,7.23,7.57,7.23" style="fill:#fff; stroke:#000; stroke-miterlimit:10; stroke-width:2px;"/><path d="M41.23,56.02s2.83-1.21,4.1,1.96c0,0-2.94-.92-1.73,3.92" style="fill:#fff; stroke:#000; stroke-linecap:round; stroke-linejoin:round; stroke-width:2px;"/></g><path d="M114.41,116.68c-.08,.08-.17,.16-.25,.24l-.16,.15c-.06,.06-.13,.12-.19,.18-1.75,1.63-3.58,3.17-5.5,4.61-1.71,1.29-3.49,2.5-5.33,3.62-1.98,1.21-4.02,2.32-6.13,3.33-.15,.07-.3,.14-.45,.21-7.86,3.69-16.54,5.91-25.69,6.3-.68,.03-1.36,.05-2.04,.06-.32,0-.65,0-.97,0-.42,0-.83,0-1.25-.01l-.03-.09-.03,.03-.05,.06h-.01c-.27,0-.54-.01-.82-.02-.27,0-.55-.02-.82-.03-9.33-.4-18.17-2.7-26.15-6.52-4.06-1.94-7.89-4.27-11.46-6.95-1.87-1.4-3.67-2.91-5.39-4.5-.07-.06-.13-.13-.2-.19-.13-.13-.26-.25-.39-.37-.05-.05-.11-.1-.16-.15-.08-.08-.16-.16-.24-.24,.04-.06,.09-.12,.13-.18,2.05-2.75,4.32-5.05,6.5-6.94,.24-.21,.48-.4,.71-.6,3.84-3.19,8.4-5.36,13.23-6.59,7.49-1.92,10.71-6.42,10.71-6.42v-18.18l28.69,.2v17.98s3.66,4.77,12.2,6.58c4.41,.94,8.57,2.83,12.21,5.49,.66,.48,1.33,.99,2.02,1.54,2.34,1.89,4.77,4.2,6.96,6.94h0c.12,.15,.23,.29,.35,.44Z" style="fill:#fff; stroke:#000; stroke-linecap:round; stroke-linejoin:round; stroke-width:2px;"/><ellipse cx="66.44" cy="57.64" rx="21" ry="28.58" style="fill:#fff; stroke:#000; stroke-miterlimit:10; stroke-width:2.19px;"/><path d="M65.12,53.4v9.06s1.18,3.42,4.85,.58" style="fill:none; stroke:#000; stroke-linecap:round; stroke-linejoin:round; stroke-width:2px;"/><path d="M59.52,67.13s7.44,6.29,14.42,.4" style="fill:none; stroke:#000; stroke-linecap:round; stroke-linejoin:round; stroke-width:2px;"/><circle cx="75.17" cy="51.34" r="1.73"/><circle cx="57.17" cy="51.34" r="1.73"/><path d="M69.76,45.33l1.56,1.97,10.5-.19s-3.35-1.66-4.5-1.78-7.56,0-7.56,0Z"/><path d="M62.49,45.18l-1.27,2.21-10.5-.19s3.35-1.66,4.5-1.78,7.27-.24,7.27-.24Z"/><path d="M80.53,78.84v4.91c-1.02,6.35-7.85,11-15.08,9.61-7.11-1.37-12.93-13.78-13.11-14.17,3.7,4.7,8.73,7.03,14.09,7.03s10.35-2.47,14.09-7.38Z"/><path d="M51.98,95.68s14.09,15.51,28.69,0" style="fill:#fff; stroke:#000; stroke-miterlimit:10; stroke-width:2.31px;"/><path d="M74.67,63.46s3.24,3,3.08,8.46" style="fill:none; stroke:#000; stroke-linecap:round; stroke-linejoin:round;"/><path d="M58.65,63.48s-3.24,3-3.08,8.46" style="fill:none; stroke:#000; stroke-linecap:round; stroke-linejoin:round;"/><path d="M45.68,53.4s-2.22-8.9,1.64-15.46c3.86-6.56,6.6-1.26,3.41,3,0,0-.16,3.7-5.05,12.46Z"/><path d="M86.98,53.4s2.22-8.9-1.64-15.46c-3.86-6.56-6.6-1.26-3.41,3,0,0,.16,3.7,5.05,12.46Z"/><circle cx="70" cy="109.23" r="1.82"/><circle cx="70" cy="115.91" r="1.82"/><circle cx="70" cy="122.59" r="1.82"/><path d="M66.33,102.57v32.8c-.27,0-.54-.01-.82-.02v-32.78h.82Z"/><ellipse cx="66.09" cy="35.31" rx="25.45" ry="7.26"/><ellipse cx="66.09" cy="35.7" rx="25.45" ry="7.26"/><rect x="48.58" y="23.41" width="35.5" height="12.15" rx="5.54" ry="5.54"/></g></g></g></svg>