<?xml version="1.0" encoding="UTF-8"?><svg id="Calque_2" xmlns="http://www.w3.org/2000/svg" viewBox="0 0 135.39 136.39"><g id="Layer_1"><g><path d="M135.39,67.7c0,19.21-8,36.54-20.85,48.86h0s-.02,.02-.03,.03c-.09,.09-.18,.18-.27,.26-.03,.03-.05,.05-.08,.08-1.78,1.68-3.65,3.27-5.6,4.75-.08,.06-.16,.13-.25,.19-3.45,2.59-7.14,4.85-11.06,6.75-.13,.07-.27,.13-.4,.19-1.27,.61-2.56,1.17-3.87,1.7-3.1,1.26-6.32,2.28-9.64,3.07-.89,.21-1.78,.4-2.68,.57-2.86,.56-5.79,.93-8.78,1.11-1.38,.09-2.78,.13-4.18,.13-2.16,0-4.29-.1-6.4-.3-3.17-.3-6.28-.81-9.31-1.54-4.69-1.11-9.18-2.72-13.44-4.75-.13-.06-.27-.13-.4-.19-3.91-1.9-7.61-4.17-11.06-6.75-.08-.06-.16-.13-.25-.19-2-1.51-3.91-3.14-5.73-4.87-.05-.05-.11-.1-.16-.15l-.04-.04s-.03-.03-.05-.04c-.08-.08-.17-.16-.26-.25l-.03-.03C7.89,104,0,86.77,0,67.7,0,30.31,30.3,0,67.69,0s67.69,30.31,67.69,67.7Z" style="fill:#efeeee;"/><g><path d="M114.54,116.56h0s-.02,.02-.03,.03c-.09,.09-.18,.18-.27,.26-.03,.03-.05,.05-.08,.08-1.78,1.68-3.65,3.27-5.6,4.75-.08,.06-.16,.13-.25,.19-3.45,2.59-7.14,4.85-11.06,6.75-.13,.07-.27,.13-.4,.19-1.27,.61-2.56,1.17-3.87,1.7-3.1,1.26-6.32,2.28-9.64,3.07-.89,.21-1.78,.4-2.68,.57-2.86,.56-5.79,.93-8.78,1.11-1.38,.09-2.78,.13-4.18,.13-2.16,0-4.29-.1-6.4-.3-3.17-.3-6.28-.81-9.31-1.54-4.69-1.11-9.18-2.72-13.44-4.75-.13-.06-.27-.13-.4-.19-3.91-1.9-7.61-4.17-11.06-6.75-.08-.06-.16-.13-.25-.19-2-1.51-3.91-3.14-5.73-4.87-.05-.05-.11-.1-.16-.15l-.04-.04s-.03-.03-.05-.04c-.08-.08-.17-.16-.26-.25l-.03-.03c.09-.12,.17-.23,.26-.35,2.05-2.75,4.32-5.05,6.5-6.94,.24-.21,.48-.41,.71-.6,3.84-3.19,8.4-5.36,13.23-6.6,1.97-.51,3.65-1.19,5.05-1.92,3.91-2.05,5.66-4.5,5.66-4.5v-18.18h.43l27.9,.2h.36v17.98s1.63,2.13,5.25,4.08c1.8,.97,4.1,1.9,6.94,2.5,4.41,.94,8.57,2.83,12.21,5.49,.65,.48,1.33,1,2.01,1.55,2.34,1.89,4.77,4.2,6.96,6.94h0c.16,.2,.32,.4,.48,.61Z" style="fill:#fff; stroke:#000; stroke-linecap:round; stroke-linejoin:round; stroke-width:2px;"/><path d="M51.98,77.21s2.93,9.69,14.97,12.36c12.3,2.73,13.72-4.45,13.72-4.45v-7.71s-14.35,9.1-21.55,4.14-7.14-4.35-7.14-4.35Z"/><g><path d="M87.31,56.92s7.86-3.73,5.56,4.19c-2.3,7.91-6.85,6.53-6.85,6.53" style="fill:#fff; stroke:#000; stroke-miterlimit:10; stroke-width:1.81px;"/><path d="M91.01,59.06s-2.56-1.1-3.7,1.77c0,0,2.66-.83,1.56,3.55" style="fill:#fff; stroke:#000; stroke-linecap:round; stroke-linejoin:round; stroke-width:1.81px;"/></g><g><path d="M45.42,56.21s-7.86-3.73-5.56,4.19c2.3,7.91,6.85,6.53,6.85,6.53" style="fill:#fff; stroke:#000; stroke-miterlimit:10; stroke-width:1.81px;"/><path d="M41.72,58.35s2.56-1.1,3.7,1.77c0,0-2.66-.83-1.56,3.55" style="fill:#fff; stroke:#000; stroke-linecap:round; stroke-linejoin:round; stroke-width:1.81px;"/></g><ellipse cx="66.44" cy="56.36" rx="21" ry="28.03" style="fill:#fff; stroke:#000; stroke-miterlimit:10; stroke-width:2.17px;"/><path d="M65.12,56.27v9.06s1.18,3.42,4.85,.58" style="fill:none; stroke:#000; stroke-linecap:round; stroke-linejoin:round; stroke-width:2px;"/><circle cx="75.79" cy="55.03" r="1.73"/><circle cx="57.79" cy="55.03" r="1.73"/><path d="M72.69,51.59c1.36,.13,2.68-.27,4.04-.28,1.14,0,2.17,.42,2.95,1.25,.7,.74,1.81-.38,1.12-1.12-.96-1.02-2.26-1.62-3.66-1.71-1.5-.1-2.96,.41-4.46,.27-.43-.04-.79,.39-.79,.79,0,.46,.36,.75,.79,.79h0Z"/><path d="M61.05,50.01c-1.5,.14-2.96-.37-4.46-.27-1.39,.09-2.7,.68-3.66,1.71-.69,.74,.42,1.86,1.12,1.12,.78-.84,1.81-1.26,2.95-1.25,1.36,0,2.68,.41,4.04,.28,.43-.04,.79-.34,.79-.79,0-.4-.36-.83-.79-.79h0Z"/><path d="M61.39,70.31s5.2,6.1,11.3,0" style="fill:none; stroke:#000; stroke-linecap:round; stroke-linejoin:round; stroke-width:2px;"/><path d="M47.61,51.32c3.51-.19,5.21-1.61,4.37-4.75,3.17-.24,4.24-1.63,3.4-4.05,3.43-.06,5.48-1.68,6-5.02,2.73,.82,4.94,.73,5.65-1.94,2.05,3.2,4.45,4.05,7.02,3.72,1.21,3.19,3.03,4.72,5.62,4.16-.53,2.77,.89,4.29,3.93,4.75-1.44,1.81-.82,3.79,1.09,5.88-.13,2.32,1.23,2.36,2.75,2.29,3.32,.75,4.78-.49,4.54-3.56,3.77-.93,4.48-3.21,3.89-6.08,2.29-3.1,1.37-5.91-1.13-8.56,.44-4.47-1.3-7.29-6.09-7.79-.76-4.03-2.45-7.01-7.63-5.99,.02-6.2-4.2-7.26-9.28-7.29-4.41-2.84-8.53-3.31-12.22,0-3.89-.19-5.94,2.03-6.8,5.83-5.05,.06-8.44,1.81-9.15,6.32-2.88,.44-4.59,1.92-4.13,5.34-4.07,2.79-3.06,5.72-.61,9.92-.59,1.41,.46,3.54,1.99,4.33-.89,2.9,.71,4.21,2.76,5.24-.59,1.49,.64,1.95,2.06,2.29,2.71-1.28,3.17-3,1.98-5.04Z"/><polygon points="80.67 95.39 66.44 105.98 51.98 95.39 46.32 99.89 66.44 105.98 86.24 99.36 80.67 95.39" style="fill:#fff; stroke:#000; stroke-linecap:round; stroke-linejoin:round; stroke-width:2px;"/><path d="M67.81,106.94s1.74,8.93,0,16.22l-1.74,7.29s-4.08-10.58-1.31-23.51h3.05Z" style="fill:#fff; stroke:#000; stroke-linecap:round; stroke-linejoin:round; stroke-width:2px;"/><path d="M64.86,106.3s-4.78-1.43-4.78,9.09c0,0,4.29-.62,5.34-8.45v-.97l-.57,.32Z" style="fill:#fff; stroke:#000; stroke-linecap:round; stroke-linejoin:round; stroke-width:2px;"/><rect x="63.23" y="103.88" width="6.12" height="3.07" rx="1.4" ry="1.4"/></g></g></g></svg>