<?xml version="1.0" encoding="UTF-8"?><svg id="Calque_2" xmlns="http://www.w3.org/2000/svg" viewBox="0 0 135.39 136.34"><g id="Layer_1"><g><path d="M135.39,67.7c.01,9.08-1.81,18.08-5.37,26.44-3.55,8.36-8.75,15.92-15.3,22.22l-.17,.17c-.13,.13-.27,.27-.42,.4l-.34,.32c-1.75,1.63-3.59,3.17-5.51,4.61-1.58,1.19-3.21,2.3-4.89,3.35-2.12,1.32-4.31,2.52-6.57,3.6-.51,.24-1.02,.48-1.53,.71-7.76,3.47-16.12,5.44-24.62,5.81l-.53,.02c-.82,.03-1.64,.05-2.47,.05s-1.65,0-2.48-.05l-.53-.02c-8.8-.38-17.44-2.48-25.43-6.19l-.7-.33c-2.55-1.22-5.02-2.59-7.4-4.12-1.39-.89-2.74-1.83-4.06-2.82-1.69-1.27-3.31-2.61-4.88-4.04l-.51-.47-.58-.55c-.06-.05-.11-.1-.16-.15l-.39-.38c-8.02-7.78-13.99-17.43-17.37-28.08C-.21,77.54-.9,66.22,1.16,55.23c2.06-10.99,6.8-21.29,13.81-29.99,7.01-8.7,16.06-15.54,26.36-19.89C51.62,.99,62.83-.74,73.95,.29c11.13,1.03,21.83,4.81,31.14,10.98,9.31,6.17,16.96,14.56,22.24,24.4,5.29,9.85,8.05,20.85,8.05,32.02h0Z" style="fill:#f1efef;"/><path d="M70.77,105.58c17.28,0,31.28-20.05,31.28-44.79s-14.01-44.79-31.28-44.79-31.28,20.05-31.28,44.79,14.01,44.79,31.28,44.79Z"/><path d="M54.67,97.17l3.95-2.74v-16.45l22.07-.28" style="fill:none; stroke:#000; stroke-linecap:round; stroke-linejoin:round; stroke-width:2px;"/><path d="M49.75,54.99s-1.6-3.37-4.8-1.66c-3.2,1.72-.39,10.37,3.2,12.02,3.59,1.64,2.95-1.07,2.95-1.07" style="fill:none; stroke:#000; stroke-linecap:round; stroke-linejoin:round; stroke-width:2px;"/><path d="M45.63,56.73s3.71-.05,4.77,3" style="fill:none; stroke:#000; stroke-linecap:round; stroke-linejoin:round; stroke-width:2px;"/><path d="M47.83,61.59s-1.45-2.57,1-3.64" style="fill:none; stroke:#000; stroke-linecap:round; stroke-linejoin:round; stroke-width:2px;"/><path d="M89.84,54.99s1.6-3.37,4.8-1.66c3.21,1.72,.39,10.37-3.21,12.02s-2.95-1.07-2.95-1.07" style="fill:none; stroke:#000; stroke-linecap:round; stroke-linejoin:round; stroke-width:2px;"/><path d="M93.97,56.73s-3.71-.05-4.77,3" style="fill:none; stroke:#000; stroke-linecap:round; stroke-linejoin:round; stroke-width:2px;"/><path d="M91.77,61.59s1.45-2.57-1-3.64" style="fill:none; stroke:#000; stroke-linecap:round; stroke-linejoin:round; stroke-width:2px;"/><path d="M49.8,50.15c-.03,.31-.04,.61-.05,.92-.04,2.98-.03,18.33,4.87,23.19,5.42,5.39,8.12,7.27,12.73,7.73,4.61,.46,6.8,.52,12.56-3.54,5.76-4.06,7.73-7.79,8.43-11.83,1.04-6,2.11-12.04,2.16-18.13,.08-3.05-.22-6.1-.87-9.08-.24-.99-.81-4.29-1.9-4.67-1.86-.65-5.14-3.46-9.11-4.47l-8.43-2.14c-1.92-.49-3.92-.54-5.86-.15-1.94,.4-3.77,1.22-5.34,2.42l-1.69,1.27c-1.34,1.02-2.48,2.29-3.34,3.74l-1.87,3.14c-1.03,1.72-1.65,3.65-1.82,5.65l-.47,5.98Z" style="fill:#fff; stroke:#000; stroke-miterlimit:10; stroke-width:1.51px;"/><path d="M78.89,54.26c.99,0,1.8-.81,1.8-1.8s-.81-1.8-1.8-1.8-1.8,.81-1.8,1.8,.81,1.8,1.8,1.8Z"/><path d="M59.65,54.26c.99,0,1.8-.81,1.8-1.8s-.81-1.8-1.8-1.8-1.8,.81-1.8,1.8,.81,1.8,1.8,1.8Z"/><path d="M67.74,57.4v3.63c-.02,.44,.1,.88,.35,1.24,.25,.36,.61,.63,1.03,.77,.42,.13,.87,.13,1.29-.02,.42-.14,.77-.43,1.01-.79" style="fill:none; stroke:#000; stroke-linecap:round; stroke-linejoin:round; stroke-width:2px;"/><path d="M62.45,66.68s7.74,4.6,14.1,0" style="fill:none; stroke:#000; stroke-linecap:round; stroke-linejoin:round; stroke-width:2px;"/><path d="M114.72,116.36c-12.23,11.81-27.14,18.03-44.57,18.98h-4.95l-.53-.02c-8.8-.38-17.44-2.47-25.44-6.18l-.7-.33c-2.55-1.22-5.02-2.59-7.4-4.12-1.39-.89-2.74-1.83-4.06-2.82-1.69-1.27-3.31-2.61-4.88-4.04,1.83-2.23,3.86-4.29,6.06-6.16h0c.97-.84,1.99-1.63,3.07-2.42,1.52-1.1,3.09-2.13,4.71-3.07,1.21-.7,2.5-1.38,3.84-2.03,3.16-1.53,6.43-2.8,9.8-3.8,.22-.07,.42-.13,.65-.2l2.63-1.82,.42-.3,1.27-.88s13.39,10.56,29.55,0c.64,.65,1.34,1.25,2.07,1.8,.14,.11,.29,.22,.44,.34,.42,.33,.94,.67,1.48,1.04,.29,.19,.59,.36,.9,.51,.8,.34,3.28,1.07,6.53,2.38h.02c3.98,1.57,7.76,3.58,11.29,5.99h0c1.89,1.31,3.66,2.78,5.29,4.39,.69,.68,1.36,1.4,1.99,2.16l.49,.59Z" style="fill:#fff; stroke:#000; stroke-linecap:round; stroke-linejoin:round; stroke-width:2px;"/><path d="M58.63,77.98s.84,7.78,8.2,10,12.34-1.17,13.87-5.8v-4.48s-10.75,9.59-22.07,.28Z"/><path d="M73.82,46.73l1.56,1.97,10.5-.19s-3.34-1.66-4.5-1.78c-1.15-.12-7.56,0-7.56,0Z"/><path d="M65.2,46.73l-1.56,1.97-10.5-.19s3.34-1.66,4.5-1.78c1.16-.12,7.56,0,7.56,0Z"/><path d="M49.69,100.37s16.05,15.43,38.53,0" style="fill:none; stroke:#000; stroke-linecap:round; stroke-linejoin:round; stroke-width:2px;"/><path d="M48.83,41.15h47.22l-13.32-13.54-13.24-3.47-7.05,2.31-7.78,3.76-5.83,10.93Z"/><path d="M31.32,109.25s18.02,18.56,36.41,18.7c18.4,.14,39.22-18.7,39.22-18.7l-22.75-12.08h-30.78s-17.63,8.42-22.1,12.08Z"/><path d="M87.67,99.53s16.39-.27,24.59,14.11l-19-9.86-6.97-1.99v-2.88l1.38,.61Z"/><path d="M51.52,97.14s-16.38,.64-23.76,15.46l18.42-10.9,6.84-2.37-.16-2.88-1.34,.69Z"/><path d="M61.68,120.01s20.02,3.08,34.38-12.79" style="fill:none; stroke:#fff; stroke-miterlimit:10;"/><path d="M39.48,103.78s4.93,4.42,9.35,6.11" style="fill:none; stroke:#fff; stroke-miterlimit:10;"/></g></g></svg>