<?xml version="1.0" encoding="utf-8"?>
<!-- Generator: Adobe Illustrator 28.0.0, SVG Export Plug-In . SVG Version: 6.00 Build 0)  -->
<svg version="1.1" id="Calque_2_00000182522421005421213750000005113348675276934580_"
	 xmlns="http://www.w3.org/2000/svg" xmlns:xlink="http://www.w3.org/1999/xlink" x="0px" y="0px" viewBox="0 0 135.4 136.4"
	 style="enable-background:new 0 0 135.4 136.4;" xml:space="preserve">
<style type="text/css">
	.st0{display:none;fill:#EFEEEE;}
	.st1{fill:#FFFFFF;stroke:#000000;stroke-width:2;stroke-miterlimit:10;}
	.st2{fill:#FFFFFF;stroke:#000000;stroke-width:2;stroke-linecap:round;stroke-linejoin:round;}
	.st3{fill:#FFFFFF;stroke:#000000;stroke-width:2.19;stroke-miterlimit:10;}
	.st4{fill:none;stroke:#000000;stroke-width:2;stroke-linecap:round;stroke-linejoin:round;}
	.st5{fill:#FFFFFF;stroke:#000000;stroke-width:2.31;stroke-miterlimit:10;}
	.st6{fill:none;stroke:#000000;stroke-width:1.72;stroke-miterlimit:10;}
	.st7{fill:none;stroke:#000000;stroke-linecap:round;stroke-linejoin:round;}
</style>
<g id="Layer_1">
	<g>
		<path class="st0" d="M135.4,67.7c0,19.2-8,36.5-20.8,48.8l0,0c0,0-0.1,0.1-0.1,0.1c-0.1,0.1-0.2,0.2-0.3,0.2l-0.2,0.2
			c-0.1,0.1-0.1,0.1-0.2,0.2c-1.8,1.6-3.6,3.2-5.5,4.6c-1.7,1.3-3.5,2.5-5.3,3.6c-2,1.2-4,2.3-6.1,3.3c-0.2,0.1-0.3,0.1-0.4,0.2
			c-7.9,3.7-16.5,5.9-25.7,6.3c-0.7,0-1.4,0.1-2,0.1c-0.3,0-0.7,0-1,0c-0.4,0-0.8,0-1.2,0l0-0.1l0,0l-0.1,0.1l0,0
			c-0.6,0-1.1,0-1.6-0.1c-9.3-0.4-18.2-2.7-26.2-6.5c-4.1-1.9-7.9-4.3-11.5-6.9c-1.9-1.4-3.7-2.9-5.4-4.5c-0.1-0.1-0.1-0.1-0.2-0.2
			c-0.1-0.1-0.3-0.2-0.4-0.4c0-0.1-0.1-0.1-0.2-0.2c-0.1-0.1-0.2-0.2-0.2-0.2l-0.1-0.1c0,0,0,0,0,0C7.9,104,0,86.8,0,67.7
			C0,30.3,30.3,0,67.7,0S135.4,30.3,135.4,67.7L135.4,67.7z"/>
		<g>
			<g>
				<path class="st1" d="M87.4,54.1c0,0,8.7-4.1,6.2,4.6S86,66,86,66"/>
				<path class="st2" d="M91.5,56.5c0,0-2.8-1.2-4.1,2c0,0,2.9-0.9,1.7,3.9"/>
			</g>
			<g>
				<path class="st1" d="M45.3,53.6c0,0-8.7-4.1-6.2,4.6c2.5,8.8,7.6,7.2,7.6,7.2"/>
				<path class="st2" d="M41.2,56c0,0,2.8-1.2,4.1,2c0,0-2.9-0.9-1.7,3.9"/>
			</g>
			<path class="st2" d="M114.4,116.7c-0.1,0.1-0.2,0.2-0.3,0.2l-0.2,0.2c-0.1,0.1-0.1,0.1-0.2,0.2c-1.8,1.6-3.6,3.2-5.5,4.6
				c-1.7,1.3-3.5,2.5-5.3,3.6c-2,1.2-4,2.3-6.1,3.3c-0.2,0.1-0.3,0.1-0.4,0.2c-7.9,3.7-16.5,5.9-25.7,6.3c-0.7,0-1.4,0.1-2,0.1
				c-0.3,0-0.7,0-1,0c-0.4,0-0.8,0-1.2,0l0-0.1l0,0l-0.1,0.1l0,0c-0.6,0-1.1,0-1.6-0.1c-9.3-0.4-18.2-2.7-26.2-6.5
				c-4.1-1.9-7.9-4.3-11.5-6.9c-1.9-1.4-3.7-2.9-5.4-4.5c-0.1-0.1-0.1-0.1-0.2-0.2c-0.1-0.1-0.3-0.2-0.4-0.4c0-0.1-0.1-0.1-0.2-0.2
				c-0.1-0.1-0.2-0.2-0.2-0.2l0.1-0.2c2-2.7,4.3-5.1,6.5-6.9c0.2-0.2,0.5-0.4,0.7-0.6c3.8-3.2,8.4-5.4,13.2-6.6
				c7.5-1.9,10.7-6.4,10.7-6.4V77.5l28.7,0.2v18c0,0,3.7,4.8,12.2,6.6c4.4,0.9,8.6,2.8,12.2,5.5c0.7,0.5,1.3,1,2,1.5
				c2.3,1.9,4.8,4.2,7,6.9l0,0C114.2,116.3,114.3,116.5,114.4,116.7L114.4,116.7z"/>
			<ellipse class="st3" cx="66.4" cy="57.6" rx="21" ry="28.6"/>
			<path class="st4" d="M65.1,53.4v9.1c0,0,1.2,3.4,4.8,0.6"/>
			<path class="st4" d="M59.5,67.1c0,0,7.4,6.3,14.4,0.4"/>
			<circle cx="75.2" cy="51.3" r="1.7"/>
			<circle cx="57.2" cy="51.3" r="1.7"/>
			<path d="M69.8,45.3l1.6,2l10.5-0.2c0,0-3.3-1.7-4.5-1.8S69.8,45.3,69.8,45.3z"/>
			<path d="M62.5,45.2l-1.3,2.2l-10.5-0.2c0,0,3.3-1.7,4.5-1.8S62.5,45.2,62.5,45.2z"/>
			<path d="M80.5,78.8v4.9c-1,6.3-7.8,11-15.1,9.6C58.3,92,52.5,79.6,52.3,79.2c3.7,4.7,8.7,7,14.1,7S76.8,83.7,80.5,78.8L80.5,78.8
				z"/>
			<path class="st5" d="M52,95.7c0,0,14.1,15.5,28.7,0"/>
			<g>
				<circle class="st6" cx="56.6" cy="50.4" r="7.5"/>
				<circle class="st6" cx="75.7" cy="50.4" r="7.5"/>
				<line class="st6" x1="83.2" y1="50.4" x2="87.4" y2="52.7"/>
				<line class="st6" x1="49.1" y1="49.8" x2="45.5" y2="52.9"/>
				<line class="st6" x1="64.1" y1="50.4" x2="68.2" y2="50.4"/>
			</g>
			<path class="st7" d="M74.7,63.5c0,0,3.2,3,3.1,8.5"/>
			<path class="st7" d="M58.7,63.5c0,0-3.2,3-3.1,8.5"/>
			<path class="st2" d="M91.2,44.3c-1.1-5.8-3.2-9.8-5.9-12.1c5.7-8.1-28-14.6-36.5-6.3c-1.8,1.7-2.2,4.1-1.4,6.2
				c-2.8,2.2-5,6.2-6.1,12.2c-1.5,7.8,4.4,9.7,4.4,9.7s1.5-9.2,5.1-11.8c2.3-1.6,2.6-4,2.5-5.5c6.1,2.1,16.3,4.2,25.9-0.2
				c-0.1,1.6,0.2,4,2.5,5.7c3.6,2.6,5.1,11.8,5.1,11.8S92.7,52.1,91.2,44.3L91.2,44.3z"/>
		</g>
	</g>
</g>
</svg>
