<?xml version="1.0" encoding="UTF-8"?><svg id="Calque_2" xmlns="http://www.w3.org/2000/svg" viewBox="0 0 135.39 136.35"><g id="Layer_1"><g><path d="M135.39,67.7c0,19.2-7.99,36.52-20.83,48.84l-.02,.02s-.02,.02-.03,.02c-.09,.09-.18,.18-.27,.26-.03,.03-.05,.05-.08,.08-.54,.51-1.08,1.01-1.64,1.5-.32,.28-.64,.57-.97,.84-.97,.83-1.97,1.63-3,2.41-.08,.06-.16,.13-.25,.19-2.8,2.1-5.78,4-8.89,5.65-.72,.38-1.43,.75-2.16,1.1-.1,.05-.2,.1-.3,.15-.03,.02-.06,.03-.1,.05-1.27,.61-2.56,1.17-3.87,1.7-3.1,1.26-6.32,2.28-9.64,3.07-.2,.05-.41,.1-.61,.13-.46,.11-.92,.21-1.38,.3-.23,.05-.46,.1-.69,.14-2.86,.56-5.79,.93-8.78,1.11-.62,.04-1.23,.07-1.85,.09-.78,.03-1.55,.04-2.33,.04s-1.62-.01-2.42-.04c-1.34-.05-2.67-.14-3.99-.26-2.93-.28-5.8-.74-8.61-1.37-.24-.05-.47-.11-.7-.16-.28-.07-.55-.14-.83-.2-4.39-1.1-8.61-2.64-12.61-4.55-.13-.06-.27-.13-.4-.19-.29-.14-.59-.29-.87-.43-.37-.19-.74-.38-1.1-.57-.21-.11-.42-.22-.63-.34-.48-.26-.97-.53-1.45-.81-2.43-1.39-4.77-2.94-7.01-4.61-.08-.06-.16-.13-.25-.19-1.34-1.01-2.64-2.07-3.89-3.19-.26-.23-.52-.46-.78-.69-.11-.11-.22-.21-.33-.31-.24-.22-.48-.45-.73-.68-.05-.05-.11-.1-.16-.15l-.04-.04s-.03-.03-.05-.04c-.08-.08-.17-.16-.26-.25l-.03-.03-.02-.02C7.88,103.98,0,86.76,0,67.7,0,30.31,30.3,0,67.69,0s67.69,30.31,67.69,67.7Z" style="fill:#efeeee;"/><g><path d="M114.55,116.54l-.02,.02s-.02,.02-.03,.02c-.09,.09-.18,.18-.27,.26-.03,.03-.05,.05-.08,.08-.54,.51-1.08,1.01-1.64,1.5-.32,.28-.64,.57-.97,.84-.97,.83-1.97,1.63-3,2.41-.08,.06-.16,.13-.25,.19-2.8,2.1-5.78,4-8.89,5.65-.72,.38-1.43,.75-2.16,1.1-.1,.05-.2,.1-.3,.15-.03,.02-.06,.03-.1,.05-1.27,.61-2.56,1.17-3.87,1.7-3.1,1.26-6.32,2.28-9.64,3.07-.2,.05-.41,.1-.61,.13-.46,.11-.92,.21-1.38,.3-.23,.05-.46,.1-.69,.14-2.86,.56-5.79,.93-8.78,1.11-.62,.04-1.23,.07-1.85,.09h-4.75c-1.34-.05-2.67-.14-3.99-.26-2.93-.28-5.8-.74-8.61-1.37-.24-.05-.47-.11-.7-.16-.28-.07-.55-.14-.83-.2-4.39-1.1-8.61-2.64-12.61-4.55-.13-.06-.27-.13-.4-.19-.29-.14-.59-.29-.87-.43-.37-.19-.74-.38-1.1-.57-.21-.11-.42-.22-.63-.34-.48-.26-.97-.53-1.45-.81-2.43-1.39-4.77-2.94-7.01-4.61-.08-.06-.16-.13-.25-.19-1.34-1.01-2.64-2.07-3.89-3.19-.26-.23-.52-.46-.78-.69-.11-.11-.22-.21-.33-.31-.24-.22-.48-.45-.73-.68-.05-.05-.11-.1-.16-.15l-.04-.04s-.03-.03-.05-.04c-.08-.08-.17-.16-.26-.25l-.03-.03-.02-.02c.09-.13,.18-.25,.27-.37,.11-.15,.22-.29,.32-.43,.15-.19,.3-.39,.45-.57h0c.43-.55,.87-1.07,1.31-1.57,1.45-1.64,2.95-3.1,4.41-4.36,.24-.21,.47-.4,.71-.6,3.84-3.19,8.4-5.36,13.23-6.6,3.97-1.02,6.75-2.76,8.47-4.18,.2-.16,.38-.32,.56-.48,1.14-1.01,1.68-1.76,1.68-1.76v-18.18h.43l27.9,.2h.36v17.98h0c.07,.09,.67,.85,1.88,1.84,.2,.16,.42,.33,.65,.51,1.97,1.47,5.13,3.27,9.67,4.23,4.41,.94,8.57,2.83,12.21,5.49,.66,.48,1.33,.99,2.02,1.54,1.45,1.18,2.95,2.51,4.4,4.02,.3,.32,.6,.64,.9,.97h0c.57,.63,1.11,1.27,1.65,1.95h0c.16,.21,.33,.42,.49,.63Z" style="fill:#fff; stroke:#000; stroke-linecap:round; stroke-linejoin:round; stroke-width:2px;"/><path d="M51.98,77.17s2.93,9.69,14.97,12.36c12.3,2.73,13.72-4.45,13.72-4.45v-7.71s-14.35,9.1-21.55,4.14c-7.21-4.96-7.14-4.35-7.14-4.35Z"/><g><path d="M87.31,56.88s7.86-3.73,5.56,4.19-6.85,6.53-6.85,6.53" style="fill:#fff; stroke:#000; stroke-miterlimit:10; stroke-width:1.81px;"/><path d="M91.01,59.02s-2.56-1.1-3.7,1.77c0,0,2.66-.83,1.56,3.55" style="fill:#fff; stroke:#000; stroke-linecap:round; stroke-linejoin:round; stroke-width:1.81px;"/></g><g><path d="M45.42,56.17s-7.86-3.73-5.56,4.19c2.3,7.91,6.85,6.53,6.85,6.53" style="fill:#fff; stroke:#000; stroke-miterlimit:10; stroke-width:1.81px;"/><path d="M41.72,58.31s2.56-1.1,3.7,1.77c0,0-2.66-.83-1.56,3.55" style="fill:#fff; stroke:#000; stroke-linecap:round; stroke-linejoin:round; stroke-width:1.81px;"/></g><ellipse cx="66.44" cy="56.32" rx="21" ry="28.03" style="fill:#fff; stroke:#000; stroke-miterlimit:10; stroke-width:2.17px;"/><path d="M65.12,56.22v9.06s1.18,3.42,4.85,.58" style="fill:none; stroke:#000; stroke-linecap:round; stroke-linejoin:round; stroke-width:2px;"/><circle cx="75.79" cy="54.99" r="1.73"/><circle cx="57.79" cy="54.99" r="1.73"/><path d="M51.98,95.35s14.09,15.51,28.69,0" style="fill:#fff; stroke:#000; stroke-miterlimit:10; stroke-width:2.31px;"/><path d="M72.69,51.55c1.36,.13,2.68-.27,4.04-.28,1.14,0,2.17,.42,2.95,1.25,.7,.74,1.81-.38,1.12-1.12-.96-1.02-2.26-1.62-3.66-1.71-1.5-.1-2.96,.41-4.46,.27-.43-.04-.79,.39-.79,.79,0,.46,.36,.75,.79,.79h0Z"/><path d="M61.05,49.97c-1.5,.14-2.96-.37-4.46-.27-1.39,.09-2.7,.68-3.66,1.71-.69,.74,.42,1.86,1.12,1.12,.78-.84,1.81-1.26,2.95-1.25,1.36,0,2.68,.41,4.04,.28,.43-.04,.79-.34,.79-.79,0-.4-.36-.83-.79-.79h0Z"/><path d="M61.39,70.26s5.2,6.1,11.3,0" style="fill:none; stroke:#000; stroke-linecap:round; stroke-linejoin:round; stroke-width:2px;"/><path d="M37.41,104.7c-.32-.09-.88,.88-1.25,2.17-.07,.24-.12,.46-.16,.68-.07-.2-.16-.41-.25-.62-.54-1.23-1.23-2.11-1.54-1.98-.31,.14-.12,1.24,.43,2.47,.54,1.23,1.23,2.11,1.54,1.98,.02-.01,.04-.03,.06-.05,.33-.17,.78-1.04,1.09-2.14,.37-1.29,.4-2.41,.08-2.5Z"/><path d="M37.41,108.92c-.32-.09-.88,.88-1.25,2.17-.07,.24-.12,.46-.16,.68-.07-.2-.16-.41-.25-.62-.54-1.23-1.23-2.11-1.54-1.98-.31,.14-.12,1.24,.43,2.47,.54,1.23,1.23,2.11,1.54,1.98,.02-.01,.04-.03,.06-.05,.33-.17,.78-1.04,1.09-2.14,.37-1.29,.4-2.41,.08-2.5Z"/><path d="M37.41,112.94c-.32-.09-.88,.88-1.25,2.17-.07,.24-.12,.46-.16,.68-.07-.2-.16-.41-.25-.62-.54-1.23-1.23-2.11-1.54-1.98-.31,.14-.12,1.24,.43,2.47,.54,1.23,1.23,2.11,1.54,1.98,.02-.01,.04-.03,.06-.05,.33-.17,.78-1.04,1.09-2.14,.37-1.29,.4-2.41,.08-2.5Z"/><path d="M37.41,117.12c-.32-.09-.88,.88-1.25,2.17-.07,.24-.12,.46-.16,.68-.07-.2-.16-.41-.25-.62-.54-1.23-1.23-2.11-1.54-1.98-.31,.14-.12,1.24,.43,2.47,.54,1.23,1.23,2.11,1.54,1.98,.02-.01,.04-.03,.06-.05,.33-.17,.78-1.04,1.09-2.14,.37-1.29,.4-2.41,.08-2.5Z"/><path d="M37.41,121.3c-.32-.09-.88,.88-1.25,2.17-.07,.24-.12,.46-.16,.68-.07-.2-.16-.41-.25-.62-.54-1.23-1.23-2.11-1.54-1.98-.31,.14-.12,1.24,.43,2.47,.54,1.23,1.23,2.11,1.54,1.98,.02-.01,.04-.03,.06-.05,.33-.17,.78-1.04,1.09-2.14,.37-1.29,.4-2.41,.08-2.5Z"/><path d="M35.54,127.28c-.48-.26-.97-.53-1.45-.81-.06-.4-.03-.67,.11-.74,.27-.12,.83,.55,1.33,1.54Z"/><path d="M37.33,127.98c-.02,.07-.04,.14-.06,.2-.37-.19-.74-.38-1.1-.57,.37-1.27,.92-2.23,1.24-2.14,.32,.09,.29,1.21-.08,2.5Z"/><path d="M22.67,115.58c-.24,.83-.55,1.54-.84,1.9-.24-.22-.48-.45-.73-.68-.05-.05-.11-.1-.16-.15l-.04-.04s-.03-.03-.05-.04c-.08-.08-.17-.16-.26-.25l-.03-.03-.02-.02c.09-.13,.18-.25,.27-.37,.11-.15,.22-.29,.32-.43,.07,.16,.13,.31,.18,.46,.05-.22,.1-.45,.16-.68,.03-.12,.07-.24,.11-.35h0c.36-1.11,.85-1.91,1.14-1.82,.08,.02,.14,.11,.17,.25,.11,.42,.02,1.29-.25,2.26Z"/><path d="M22.94,118.48c-.26-.23-.52-.46-.78-.69,.22-.38,.43-.58,.59-.54,.21,.06,.27,.54,.19,1.23Z"/><path d="M111.64,115.45c.31,1.1,.76,1.97,1.09,2.14,.02,.02,.04,.04,.06,.05,.24,.11,.71-.4,1.16-1.21-.16-.22-.32-.44-.48-.65-.11-.15-.22-.29-.32-.43-.07,.16-.13,.31-.18,.46-.05-.22-.1-.45-.16-.68-.03-.12-.07-.24-.11-.35h0c-.36-1.11-.85-1.91-1.14-1.82-.08,.02-.14,.11-.17,.25-.11,.42-.02,1.29,.25,2.26Z"/><path d="M112.52,118.42c-.32,.28-.64,.57-.97,.84-.27-1.13-.28-2.06,.02-2.14,.24-.07,.62,.47,.95,1.3Z"/><path d="M99.39,104.6c-.32-.09-.88,.88-1.25,2.17-.07,.24-.12,.46-.16,.68-.07-.2-.16-.41-.25-.62-.54-1.23-1.23-2.11-1.54-1.98-.31,.14-.12,1.24,.43,2.47,.54,1.23,1.23,2.11,1.54,1.98,.02-.01,.04-.03,.06-.05,.33-.17,.78-1.04,1.09-2.14,.37-1.29,.4-2.41,.08-2.5Z"/><path d="M99.39,108.82c-.32-.09-.88,.88-1.25,2.17-.07,.24-.12,.46-.16,.68-.07-.2-.16-.41-.25-.62-.54-1.23-1.23-2.11-1.54-1.98-.31,.14-.12,1.24,.43,2.47,.54,1.23,1.23,2.11,1.54,1.98,.02-.01,.04-.03,.06-.05,.33-.17,.78-1.04,1.09-2.14,.37-1.29,.4-2.41,.08-2.5Z"/><path d="M99.39,112.84c-.32-.09-.88,.88-1.25,2.17-.07,.24-.12,.46-.16,.68-.07-.2-.16-.41-.25-.62-.54-1.23-1.23-2.11-1.54-1.98-.31,.14-.12,1.24,.43,2.47,.54,1.23,1.23,2.11,1.54,1.98,.02-.01,.04-.03,.06-.05,.33-.17,.78-1.04,1.09-2.14,.37-1.29,.4-2.41,.08-2.5Z"/><path d="M99.39,117.02c-.32-.09-.88,.88-1.25,2.17-.07,.24-.12,.46-.16,.68-.07-.2-.16-.41-.25-.62-.54-1.23-1.23-2.11-1.54-1.98-.31,.14-.12,1.24,.43,2.47,.54,1.23,1.23,2.11,1.54,1.98,.02-.01,.04-.03,.06-.05,.33-.17,.78-1.04,1.09-2.14,.37-1.29,.4-2.41,.08-2.5Z"/><path d="M99.39,121.2c-.32-.09-.88,.88-1.25,2.17-.07,.24-.12,.46-.16,.68-.07-.2-.16-.41-.25-.62-.54-1.23-1.23-2.11-1.54-1.98-.31,.14-.12,1.24,.43,2.47,.54,1.23,1.23,2.11,1.54,1.98,.02-.01,.04-.03,.06-.05,.33-.17,.78-1.04,1.09-2.14,.37-1.29,.4-2.41,.08-2.5Z"/><path d="M99.41,127.51c-.72,.38-1.43,.75-2.16,1.1-.1,.05-.2,.1-.3,.15-.11-.2-.22-.43-.32-.66-.54-1.23-.73-2.33-.43-2.47,.3-.13,1,.75,1.53,1.97,.1,.21,.18,.43,.25,.62,.04-.22,.1-.45,.16-.68,.36-1.29,.92-2.26,1.24-2.17,.3,.08,.29,1.01,.02,2.13Z"/><path d="M53.39,104.66c-.32-.09-.88,.88-1.25,2.17-.07,.24-.12,.46-.16,.68-.07-.2-.16-.41-.25-.62-.54-1.23-1.23-2.11-1.54-1.98-.31,.14-.12,1.24,.43,2.47,.54,1.23,1.23,2.11,1.54,1.98,.02-.01,.04-.03,.06-.05,.33-.17,.78-1.04,1.09-2.14,.37-1.29,.4-2.41,.08-2.5Z"/><path d="M53.39,100.51c-.32-.09-.88,.88-1.25,2.17-.07,.24-.12,.46-.16,.68-.07-.2-.16-.41-.25-.62-.54-1.23-1.23-2.11-1.54-1.98-.31,.14-.12,1.24,.43,2.47,.54,1.23,1.23,2.11,1.54,1.98,.02-.01,.04-.03,.06-.05,.33-.17,.78-1.04,1.09-2.14,.37-1.29,.4-2.41,.08-2.5Z"/><path d="M53.07,96.66c-.32-.09-.88,.88-1.25,2.17-.07,.24-.12,.46-.16,.68-.07-.2-.16-.41-.25-.62-.54-1.23-1.23-2.11-1.54-1.98-.31,.14-.12,1.24,.43,2.47,.54,1.23,1.23,2.11,1.54,1.98,.02-.01,.04-.03,.06-.05,.33-.17,.78-1.04,1.09-2.14,.37-1.29,.4-2.41,.08-2.5Z"/><path d="M53.39,108.88c-.32-.09-.88,.88-1.25,2.17-.07,.24-.12,.46-.16,.68-.07-.2-.16-.41-.25-.62-.54-1.23-1.23-2.11-1.54-1.98-.31,.14-.12,1.24,.43,2.47,.54,1.23,1.23,2.11,1.54,1.98,.02-.01,.04-.03,.06-.05,.33-.17,.78-1.04,1.09-2.14,.37-1.29,.4-2.41,.08-2.5Z"/><path d="M53.39,112.9c-.32-.09-.88,.88-1.25,2.17-.07,.24-.12,.46-.16,.68-.07-.2-.16-.41-.25-.62-.54-1.23-1.23-2.11-1.54-1.98-.31,.14-.12,1.24,.43,2.47,.54,1.23,1.23,2.11,1.54,1.98,.02-.01,.04-.03,.06-.05,.33-.17,.78-1.04,1.09-2.14,.37-1.29,.4-2.41,.08-2.5Z"/><path d="M53.39,117.08c-.32-.09-.88,.88-1.25,2.17-.07,.24-.12,.46-.16,.68-.07-.2-.16-.41-.25-.62-.54-1.23-1.23-2.11-1.54-1.98-.31,.14-.12,1.24,.43,2.47,.54,1.23,1.23,2.11,1.54,1.98,.02-.01,.04-.03,.06-.05,.33-.17,.78-1.04,1.09-2.14,.37-1.29,.4-2.41,.08-2.5Z"/><path d="M53.39,121.26c-.32-.09-.88,.88-1.25,2.17-.07,.24-.12,.46-.16,.68-.07-.2-.16-.41-.25-.62-.54-1.23-1.23-2.11-1.54-1.98-.31,.14-.12,1.24,.43,2.47,.54,1.23,1.23,2.11,1.54,1.98,.02-.01,.04-.03,.06-.05,.33-.17,.78-1.04,1.09-2.14,.37-1.29,.4-2.41,.08-2.5Z"/><path d="M53.39,125.44c-.32-.09-.88,.88-1.25,2.17-.07,.24-.12,.46-.16,.68-.07-.2-.16-.41-.25-.62-.54-1.23-1.23-2.11-1.54-1.98-.31,.14-.12,1.24,.43,2.47,.54,1.23,1.23,2.11,1.54,1.98,.02-.01,.04-.03,.06-.05,.33-.17,.78-1.04,1.09-2.14,.37-1.29,.4-2.41,.08-2.5Z"/><path d="M53.32,132.12c-.18,.65-.41,1.21-.64,1.6-.24-.05-.47-.11-.7-.16-.28-.07-.55-.14-.83-.2-.18-.29-.36-.64-.53-1.01-.54-1.23-.73-2.33-.43-2.47,.3-.14,1,.75,1.54,1.97,.1,.22,.18,.43,.25,.62,.04-.22,.1-.45,.16-.68,.37-1.29,.92-2.26,1.24-2.17,.32,.09,.29,1.21-.08,2.5Z"/><path d="M83.31,104.89c-.32-.09-.88,.88-1.25,2.17-.07,.24-.12,.46-.16,.68-.07-.2-.16-.41-.25-.62-.54-1.23-1.23-2.11-1.54-1.98-.31,.14-.12,1.24,.43,2.47,.54,1.23,1.23,2.11,1.54,1.98,.02-.01,.04-.03,.06-.05,.33-.17,.78-1.04,1.09-2.14,.37-1.29,.4-2.41,.08-2.5Z"/><path d="M83.31,100.75c-.32-.09-.88,.88-1.25,2.17-.07,.24-.12,.46-.16,.68-.07-.2-.16-.41-.25-.62-.54-1.23-1.23-2.11-1.54-1.98-.31,.14-.12,1.24,.43,2.47,.54,1.23,1.23,2.11,1.54,1.98,.02-.01,.04-.03,.06-.05,.33-.17,.78-1.04,1.09-2.14,.37-1.29,.4-2.41,.08-2.5Z"/><path d="M82.99,96.89c-.32-.09-.88,.88-1.25,2.17-.07,.24-.12,.46-.16,.68-.07-.2-.16-.41-.25-.62-.54-1.23-1.23-2.11-1.54-1.98-.31,.14-.12,1.24,.43,2.47,.54,1.23,1.23,2.11,1.54,1.98,.02-.01,.04-.03,.06-.05,.33-.17,.78-1.04,1.09-2.14,.37-1.29,.4-2.41,.08-2.5Z"/><path d="M83.31,109.12c-.32-.09-.88,.88-1.25,2.17-.07,.24-.12,.46-.16,.68-.07-.2-.16-.41-.25-.62-.54-1.23-1.23-2.11-1.54-1.98-.31,.14-.12,1.24,.43,2.47,.54,1.23,1.23,2.11,1.54,1.98,.02-.01,.04-.03,.06-.05,.33-.17,.78-1.04,1.09-2.14,.37-1.29,.4-2.41,.08-2.5Z"/><path d="M83.31,113.14c-.32-.09-.88,.88-1.25,2.17-.07,.24-.12,.46-.16,.68-.07-.2-.16-.41-.25-.62-.54-1.23-1.23-2.11-1.54-1.98-.31,.14-.12,1.24,.43,2.47,.54,1.23,1.23,2.11,1.54,1.98,.02-.01,.04-.03,.06-.05,.33-.17,.78-1.04,1.09-2.14,.37-1.29,.4-2.41,.08-2.5Z"/><path d="M83.31,117.32c-.32-.09-.88,.88-1.25,2.17-.07,.24-.12,.46-.16,.68-.07-.2-.16-.41-.25-.62-.54-1.23-1.23-2.11-1.54-1.98-.31,.14-.12,1.24,.43,2.47,.54,1.23,1.23,2.11,1.54,1.98,.02-.01,.04-.03,.06-.05,.33-.17,.78-1.04,1.09-2.14,.37-1.29,.4-2.41,.08-2.5Z"/><path d="M83.31,121.49c-.32-.09-.88,.88-1.25,2.17-.07,.24-.12,.46-.16,.68-.07-.2-.16-.41-.25-.62-.54-1.23-1.23-2.11-1.54-1.98-.31,.14-.12,1.24,.43,2.47,.54,1.23,1.23,2.11,1.54,1.98,.02-.01,.04-.03,.06-.05,.33-.17,.78-1.04,1.09-2.14,.37-1.29,.4-2.41,.08-2.5Z"/><path d="M83.31,125.67c-.32-.09-.88,.88-1.25,2.17-.07,.24-.12,.46-.16,.68-.07-.2-.16-.41-.25-.62-.54-1.23-1.23-2.11-1.54-1.98-.31,.14-.12,1.24,.43,2.47,.54,1.23,1.23,2.11,1.54,1.98,.02-.01,.04-.03,.06-.05,.33-.17,.78-1.04,1.09-2.14,.37-1.29,.4-2.41,.08-2.5Z"/><path d="M83.23,132.35c-.15,.52-.33,.99-.51,1.35-.46,.11-.92,.21-1.38,.3-.26-.36-.55-.86-.81-1.43-.54-1.22-.73-2.33-.43-2.47,.31-.13,1,.75,1.54,1.98,.09,.22,.18,.42,.25,.62,.04-.22,.1-.45,.16-.68,.37-1.29,.92-2.26,1.25-2.17,.32,.09,.29,1.21-.08,2.5Z"/><path d="M68.6,104.89c-.32-.09-.88,.88-1.25,2.17-.07,.24-.12,.46-.16,.68-.07-.2-.16-.41-.25-.62-.54-1.23-1.23-2.11-1.54-1.98-.31,.14-.12,1.24,.43,2.47,.54,1.23,1.23,2.11,1.54,1.98,.02-.01,.04-.03,.06-.05,.33-.17,.78-1.04,1.09-2.14,.37-1.29,.4-2.41,.08-2.5Z"/><path d="M68.77,102.11c-.05,.34-.13,.73-.24,1.14-.31,1.1-.76,1.97-1.09,2.14-.02,.03-.04,.04-.06,.05-.31,.13-1-.75-1.54-1.98-.2-.46-.36-.9-.45-1.28l1.15,.05h.05c.13,.23,.25,.48,.37,.74,.09,.21,.18,.42,.25,.62,.05-.22,.1-.45,.16-.69,.07-.24,.14-.48,.23-.69l1.19-.11Z"/><path d="M68.6,109.12c-.32-.09-.88,.88-1.25,2.17-.07,.24-.12,.46-.16,.68-.07-.2-.16-.41-.25-.62-.54-1.23-1.23-2.11-1.54-1.98-.31,.14-.12,1.24,.43,2.47,.54,1.23,1.23,2.11,1.54,1.98,.02-.01,.04-.03,.06-.05,.33-.17,.78-1.04,1.09-2.14,.37-1.29,.4-2.41,.08-2.5Z"/><path d="M68.6,113.14c-.32-.09-.88,.88-1.25,2.17-.07,.24-.12,.46-.16,.68-.07-.2-.16-.41-.25-.62-.54-1.23-1.23-2.11-1.54-1.98-.31,.14-.12,1.24,.43,2.47,.54,1.23,1.23,2.11,1.54,1.98,.02-.01,.04-.03,.06-.05,.33-.17,.78-1.04,1.09-2.14,.37-1.29,.4-2.41,.08-2.5Z"/><path d="M68.6,117.32c-.32-.09-.88,.88-1.25,2.17-.07,.24-.12,.46-.16,.68-.07-.2-.16-.41-.25-.62-.54-1.23-1.23-2.11-1.54-1.98-.31,.14-.12,1.24,.43,2.47,.54,1.23,1.23,2.11,1.54,1.98,.02-.01,.04-.03,.06-.05,.33-.17,.78-1.04,1.09-2.14,.37-1.29,.4-2.41,.08-2.5Z"/><path d="M68.6,121.49c-.32-.09-.88,.88-1.25,2.17-.07,.24-.12,.46-.16,.68-.07-.2-.16-.41-.25-.62-.54-1.23-1.23-2.11-1.54-1.98-.31,.14-.12,1.24,.43,2.47,.54,1.23,1.23,2.11,1.54,1.98,.02-.01,.04-.03,.06-.05,.33-.17,.78-1.04,1.09-2.14,.37-1.29,.4-2.41,.08-2.5Z"/><path d="M68.6,125.67c-.32-.09-.88,.88-1.25,2.17-.07,.24-.12,.46-.16,.68-.07-.2-.16-.41-.25-.62-.54-1.23-1.23-2.11-1.54-1.98-.31,.14-.12,1.24,.43,2.47,.54,1.23,1.23,2.11,1.54,1.98,.02-.01,.04-.03,.06-.05,.33-.17,.78-1.04,1.09-2.14,.37-1.29,.4-2.41,.08-2.5Z"/><path d="M68.6,129.85c-.32-.09-.88,.88-1.25,2.17-.07,.24-.12,.46-.16,.68-.07-.2-.16-.41-.25-.62-.54-1.23-1.23-2.11-1.54-1.98-.31,.14-.12,1.24,.43,2.47,.54,1.23,1.23,2.11,1.54,1.98,.02-.01,.04-.03,.06-.05,.33-.17,.78-1.04,1.09-2.14,.37-1.29,.4-2.41,.08-2.5Z"/><path d="M45.47,56.72s-4.74-11.19-1.02-20.79c3.72-9.6,10.13-12.47,11.61-8.57,1.48,3.89,4.19,12.43-10.59,29.37Z"/><path d="M50.15,34.22s27.41,10.53,35.88,2.75c8.47-7.77,1.42-12.95,1.42-12.95,0,0-1.37,2.01-4.12,1.65-2.75-.36-28.45-9.57-33.17,1.51v7.04Z"/><path d="M82.02,38.43s-3.9,8.26,5.42,19.37c0,0,5.8-15.24-.64-23.14-6.44-7.89-4.78,3.77-4.78,3.77Z"/></g></g></g></svg>