<?xml version="1.0" encoding="UTF-8"?><svg id="Calque_2" xmlns="http://www.w3.org/2000/svg" viewBox="0 0 135.39 136.32"><g id="Layer_1"><g><path d="M135.39,67.7c.01,9.12-1.83,18.16-5.41,26.55-3.58,8.39-8.82,15.97-15.41,22.28-.13,.13-.27,.27-.42,.4l-.14,.13-.21,.19c-1.75,1.63-3.59,3.18-5.51,4.61-1.07,.81-2.17,1.58-3.29,2.32-.53,.35-1.07,.7-1.61,1.03-2.12,1.32-4.31,2.52-6.57,3.6-.51,.24-1.02,.48-1.53,.71-7.76,3.47-16.11,5.44-24.61,5.81h-.53c-.84,.03-1.65,.05-2.48,.05s-1.65,0-2.48-.05h-.53c-8.81-.38-17.45-2.48-25.45-6.19l-.7-.33c-2.55-1.22-5.02-2.6-7.4-4.12l-1.15-.75c-.99-.67-1.96-1.35-2.91-2.07-1.87-1.41-3.67-2.91-5.39-4.51l-.21-.2-.37-.35c-.06-.05-.11-.1-.16-.15l-.4-.38c-8.02-7.78-13.99-17.43-17.37-28.08C-.21,77.54-.9,66.22,1.16,55.23c2.06-10.98,6.8-21.29,13.81-29.99,7.01-8.7,16.06-15.54,26.36-19.89C51.62,.99,62.83-.74,73.95,.29c11.13,1.03,21.83,4.81,31.14,10.98,9.31,6.17,16.96,14.56,22.24,24.41,5.28,9.85,8.05,20.85,8.05,32.02h0Z" style="fill:#f1efef;"/><path d="M68.24,41.03c11.72,0,21.23-7.4,21.23-16.52s-9.5-16.52-21.23-16.52-21.23,7.4-21.23,16.52,9.5,16.52,21.23,16.52Z"/><path d="M92.74,47.69s-4.48,40.8,3.29,61.21c7.77,20.4-25.02,7.53-25.02,7.53l.08-50.54,6.53-21.6,9.57-1.94,5.55,5.35Z"/><path d="M114.02,117.06l-.21,.19c-1.75,1.63-3.59,3.18-5.51,4.61-1.07,.81-2.17,1.58-3.29,2.32-.53,.35-1.07,.7-1.61,1.03-2.12,1.32-4.31,2.52-6.57,3.6-.51,.24-1.02,.48-1.53,.71-7.76,3.47-16.11,5.44-24.61,5.81h-6.01c-8.81-.38-17.45-2.48-25.45-6.19l-.7-.33c-2.55-1.22-5.02-2.6-7.4-4.12l-1.15-.75c-.99-.67-1.96-1.35-2.91-2.07-1.87-1.41-3.67-2.91-5.39-4.51l-.21-.2c2.52-2.95,5.38-5.59,8.51-7.86,.38-.28,.76-.55,1.15-.82,2.57-1.77,5.27-3.32,8.1-4.64,2.97-1.38,6.04-2.54,9.18-3.46l8.16-5.95v-16.72h22.84v16.26s4.91,4.67,7.53,6.39c.29,.19,.59,.37,.9,.51,.79,.34,3.22,1.05,6.42,2.33l1.04,.42c2.8,1.17,5.51,2.55,8.1,4.13,.54,.33,1.07,.67,1.61,1.04,2.97,1.96,5.65,4.32,7.97,7.02,.36,.42,.7,.84,1.03,1.26Z" style="fill:#fff; stroke:#000; stroke-linecap:round; stroke-linejoin:round; stroke-width:2px;"/><path d="M56.59,78.22s9.05,10.04,16.26,9.07c7.21-.97,6.23-2.99,6.23-2.99l.35-6.59-22.84,.52Z"/><path d="M48.48,54.99s-1.6-3.37-4.8-1.66c-3.2,1.72-.39,10.37,3.2,12.02,3.59,1.65,2.95-1.07,2.95-1.07" style="fill:#fff;"/><path d="M48.48,54.99s-1.6-3.37-4.8-1.66c-3.2,1.72-.39,10.37,3.2,12.02,3.59,1.65,2.95-1.07,2.95-1.07" style="fill:none; stroke:#000; stroke-linecap:round; stroke-linejoin:round; stroke-width:2px;"/><path d="M44.37,56.73s3.7-.05,4.77,3l-4.77-3Z" style="fill:#fff;"/><path d="M44.37,56.73s3.7-.05,4.77,3" style="fill:none; stroke:#000; stroke-linecap:round; stroke-linejoin:round; stroke-width:2px;"/><path d="M46.57,61.58s-1.45-2.57,1-3.64l-1,3.64Z" style="fill:#fff;"/><path d="M46.57,61.58s-1.45-2.57,1-3.64" style="fill:none; stroke:#000; stroke-linecap:round; stroke-linejoin:round; stroke-width:2px;"/><path d="M88.59,54.99s1.6-3.37,4.8-1.66c3.2,1.72,.39,10.37-3.2,12.02-3.59,1.65-2.95-1.07-2.95-1.07" style="fill:#fff;"/><path d="M88.59,54.99s1.6-3.37,4.8-1.66c3.2,1.72,.39,10.37-3.2,12.02-3.59,1.65-2.95-1.07-2.95-1.07" style="fill:none; stroke:#000; stroke-linecap:round; stroke-linejoin:round; stroke-width:2px;"/><path d="M92.7,56.73s-3.71-.05-4.77,3l4.77-3Z" style="fill:#fff;"/><path d="M92.7,56.73s-3.71-.05-4.77,3" style="fill:none; stroke:#000; stroke-linecap:round; stroke-linejoin:round; stroke-width:2px;"/><path d="M90.51,61.58s1.44-2.57-1-3.64l1,3.64Z" style="fill:#fff;"/><path d="M90.51,61.58s1.44-2.57-1-3.64" style="fill:none; stroke:#000; stroke-linecap:round; stroke-linejoin:round; stroke-width:2px;"/><path d="M48.61,50.05s-1.03,18.28,4.26,23.8c5.29,5.52,7.93,7.47,12.53,8.05,4.6,.57,6.79,.69,12.65-3.22,5.87-3.91,7.93-7.59,8.74-11.61,.81-4.02,2.99-20.92,2.99-20.92l-5.52-13.92-17.13-4.81-5.99,.67-6.55,4.71-4.94,7.81-1.02,9.43Z" style="fill:#fff; stroke:#000; stroke-miterlimit:10; stroke-width:1.51px;"/><path d="M77.62,54.26c.99,0,1.8-.81,1.8-1.8s-.81-1.8-1.8-1.8-1.8,.81-1.8,1.8,.81,1.8,1.8,1.8Z"/><path d="M58.39,54.26c.99,0,1.8-.81,1.8-1.8s-.81-1.8-1.8-1.8-1.8,.81-1.8,1.8,.81,1.8,1.8,1.8Z"/><path d="M66.47,57.41v3.62c-.02,.44,.1,.88,.35,1.24,.25,.36,.61,.64,1.03,.77,.42,.14,.87,.13,1.29-.01,.42-.15,.77-.43,1.01-.79" style="fill:none; stroke:#000; stroke-linecap:round; stroke-linejoin:round; stroke-width:2px;"/><path d="M61.19,66.68s7.74,4.6,14.1,0" style="fill:none; stroke:#000; stroke-linecap:round; stroke-linejoin:round; stroke-width:2px;"/><path d="M72.56,46.74l1.56,1.97,10.5-.19s-3.35-1.66-4.5-1.78c-1.15-.13-7.56,0-7.56,0Z"/><path d="M63.93,46.74l-1.56,1.97-10.52-.21s3.35-1.66,4.5-1.78,7.57,.02,7.57,.02Z"/><path d="M48.53,132.63l-.1-32.26,.03,.03c5.85,4.72,13.19,7.19,20.7,6.96,.62,0,1.27-.06,1.88-.13,5.06-.49,10.73-2.31,16.81-6.33h.03v31.48" style="fill:none; stroke:#000; stroke-linecap:round; stroke-linejoin:round; stroke-width:2px;"/><path d="M93.36,38.04c-.64-10.96-16.45-23.47-30.69-19.21-4.42,.73-18.6,4.67-20.39,25.14-2.11,24.29,7.59,45.12,7.59,45.12l7.8-37.44c.51-2.49,1.71-4.79,3.47-6.63,1.75-1.84,3.99-3.15,6.45-3.78l.1-.03c6.33-1.58,9.73-4.37,11.54-7.17,8.94,3.27,9.45,20.24,9.45,20.24l1.08-.73s4.33-2.96,3.6-15.53Z"/><path d="M67.51,35.64c14.71,0,26.64-2.38,26.64-5.32s-11.93-5.32-26.64-5.32-26.64,2.38-26.64,5.32,11.93,5.32,26.64,5.32Z"/><path d="M47.33,27.42s26.45-2.53,41.81,0" style="fill:none; stroke:#fff; stroke-miterlimit:10;"/><path d="M69.15,135.35v-28" style="fill:none; stroke:#000; stroke-miterlimit:10; stroke-width:2px;"/><path d="M105.02,124.18v-15.4" style="fill:none; stroke:#000; stroke-miterlimit:10; stroke-width:2px;"/><path d="M30,123.93v-14.64h0" style="fill:none; stroke:#000; stroke-miterlimit:10; stroke-width:2px;"/></g></g></svg>