<?xml version="1.0" encoding="UTF-8"?><svg id="Calque_2" xmlns="http://www.w3.org/2000/svg" viewBox="0 0 135.39 136.39"><g id="Layer_1"><g><path d="M135.39,67.7c0,19.19-7.99,36.52-20.82,48.83l-.03,.03c-.13,.12-.25,.24-.38,.37l-.16,.15c-.06,.06-.13,.12-.19,.18-1.75,1.63-3.58,3.17-5.5,4.61-1.71,1.29-3.49,2.5-5.33,3.62-.82,.5-1.65,.98-2.49,1.45-1.19,.66-2.41,1.29-3.64,1.88-.15,.07-.3,.14-.45,.21-2.06,.97-4.18,1.83-6.36,2.59-6.09,2.13-12.58,3.42-19.34,3.71-.68,.03-1.36,.05-2.04,.06-.32,0-.65,0-.97,0-1.01,0-2.01-.02-3.01-.07-8.3-.36-16.2-2.22-23.46-5.31-.91-.38-1.8-.79-2.69-1.21-2.69-1.29-5.28-2.74-7.76-4.36-1.27-.82-2.5-1.68-3.7-2.59-1.87-1.4-3.67-2.91-5.39-4.5-.07-.06-.13-.13-.2-.19-.13-.13-.26-.25-.39-.37-.05-.05-.11-.1-.16-.15-.12-.12-.25-.24-.37-.36l-.03-.03C7.87,103.97,0,86.75,0,67.7,0,30.31,30.3,0,67.69,0s67.69,30.31,67.69,67.7Z" style="fill:#efeeee;"/><g><path d="M114.54,116.56c-.13,.12-.25,.24-.38,.37l-.16,.15c-.06,.06-.13,.12-.19,.18-1.75,1.63-3.58,3.17-5.5,4.61-1.71,1.29-3.49,2.5-5.33,3.62-.82,.5-1.65,.98-2.49,1.45-1.19,.66-2.41,1.29-3.64,1.88-.15,.07-.3,.14-.45,.21-2.06,.97-4.18,1.83-6.36,2.59-6.09,2.13-12.58,3.42-19.34,3.71-.68,.03-1.36,.05-2.04,.06-.32,0-.65,0-.97,0-1.01,0-2.01-.02-3.01-.07-8.3-.36-16.2-2.22-23.46-5.31-.91-.38-1.8-.79-2.69-1.21-2.69-1.29-5.28-2.74-7.76-4.36-1.27-.82-2.5-1.68-3.7-2.59-1.87-1.4-3.67-2.91-5.39-4.5-.07-.06-.13-.13-.2-.19-.13-.13-.26-.25-.39-.37-.05-.05-.11-.1-.16-.15-.12-.12-.25-.24-.37-.36,.08-.12,.17-.23,.25-.35,2.05-2.75,4.32-5.05,6.5-6.94,.24-.21,.47-.41,.71-.6,3.84-3.19,8.4-5.36,13.23-6.6,2.51-.64,4.53-1.57,6.12-2.53,.05-.03,.1-.06,.15-.09,.74-.45,1.38-.91,1.92-1.34,1.72-1.35,2.51-2.46,2.51-2.46v-18.18h.44l28.24,.2h0v17.97h0c.07,.09,.98,1.23,2.85,2.58,.39,.29,.83,.57,1.31,.87,0,0,.02,.02,.03,.02,1.94,1.18,4.58,2.39,8.01,3.12,4.41,.94,8.56,2.83,12.21,5.49,.66,.48,1.33,1,2.01,1.55,2.34,1.89,4.78,4.2,6.96,6.94h0c.16,.2,.32,.4,.48,.61Z" style="fill:#fff; stroke:#000; stroke-linecap:round; stroke-linejoin:round; stroke-width:2px;"/><path d="M93.33,47.71s1.21,11-1.36,17.55c-2.58,6.55-5.38,10.63-4.33,13.02l1.05,2.39s-3.67-.63-2.28-6.2c0,0-4.19,3.66-2.22,8.45,0,0-3.14-1.27-2.91-5.91,.23-4.65,4.46-15.35,4.46-15.35l.67-8.46,6.93-5.5Z"/><g><path d="M87.44,53.86s8.69-4.12,6.15,4.63-7.57,7.23-7.57,7.23" style="fill:#fff; stroke:#000; stroke-miterlimit:10; stroke-width:2px;"/><path d="M91.54,56.22s-2.83-1.21-4.1,1.96c0,0,2.94-.92,1.73,3.92" style="fill:#fff; stroke:#000; stroke-miterlimit:10; stroke-width:2px;"/></g><path d="M38.77,40.88s-1.4,12.65,1.57,20.18,6.19,12.23,4.98,14.98l-1.21,2.75s4.22-.73,2.63-7.13c0,0,4.82,4.21,2.55,9.72,0,0,3.61-1.46,3.34-6.8s-5.12-17.65-5.12-17.65l-.77-9.73-7.97-6.32Z"/><g><path d="M45.32,53.36s-8.69-4.12-6.15,4.63c2.54,8.75,7.57,7.23,7.57,7.23" style="fill:#fff; stroke:#000; stroke-miterlimit:10; stroke-width:2px;"/><path d="M41.23,55.73s2.83-1.21,4.1,1.96c0,0-2.94-.92-1.73,3.92" style="fill:#fff; stroke:#000; stroke-linecap:round; stroke-linejoin:round; stroke-width:2px;"/></g><ellipse cx="66.44" cy="54.15" rx="21" ry="31.79" style="fill:#fff; stroke:#000; stroke-miterlimit:10; stroke-width:2.31px;"/><path d="M65.12,53.11v9.06s1.18,3.42,4.85,.58" style="fill:none; stroke:#000; stroke-linecap:round; stroke-linejoin:round; stroke-width:2px;"/><path d="M59.52,66.84s7.44,6.29,14.42,.4" style="fill:none; stroke:#000; stroke-linecap:round; stroke-linejoin:round; stroke-width:2px;"/><circle cx="75.79" cy="51.87" r="1.73"/><circle cx="57.79" cy="51.87" r="1.73"/><path d="M69.64,45.04l1.56,1.97,10.5-.19s-3.35-1.66-4.5-1.78-7.56,0-7.56,0Z"/><path d="M62.95,44.98l-1.27,2.21-10.5-.19s3.35-1.66,4.5-1.78c1.15-.13,7.27-.24,7.27-.24Z"/><path d="M80.82,77.22v4.91c-1.02,6.35-7.85,11-15.08,9.61-7.11-1.37-12.93-13.78-13.11-14.17,3.7,4.7,8.6,7.56,13.95,7.56s10.49-3,14.23-7.91Z"/><path d="M51.98,95.39s14.09,15.51,28.69,0" style="fill:#fff; stroke:#000; stroke-miterlimit:10; stroke-width:2.31px;"/><path d="M47.39,99.28s7.78,9.59,19.34,9.65c11.68,.06,18.1-10.09,18.1-10.09" style="fill:none; stroke:#000; stroke-linecap:round; stroke-linejoin:round; stroke-width:2px;"/><path d="M114.54,116.56c-.13,.12-.25,.24-.38,.37l-.16,.15c-.06,.06-.13,.12-.19,.18-1.75,1.63-3.58,3.17-5.5,4.61-1.71,1.29-3.49,2.5-5.33,3.62-.82,.5-1.65,.98-2.49,1.45-1.19,.66-2.41,1.29-3.64,1.88-.15,.07-.3,.14-.45,.21-2.06,.97-4.18,1.83-6.36,2.59-6.09,2.13-12.58,3.42-19.34,3.71-.68,.03-1.36,.05-2.04,.06-.32,0-.65,0-.97,0-1.01,0-2.01-.02-3.01-.07-8.3-.36-16.2-2.22-23.46-5.31-.91-.38-1.8-.79-2.69-1.21-2.69-1.29-5.28-2.74-7.76-4.36-1.27-.82-2.5-1.68-3.7-2.59-1.87-1.4-3.67-2.91-5.39-4.5-.07-.06-.13-.13-.2-.19-.13-.13-.26-.25-.39-.37-.05-.05-.11-.1-.16-.15-.12-.12-.25-.24-.37-.36,.08-.12,.17-.23,.25-.35,2.05-2.75,4.32-5.05,6.5-6.94,.24-.21,.47-.41,.71-.6,3.84-3.19,8.4-5.36,13.23-6.6,2.51-.64,4.53-1.57,6.12-2.53,.05-.03,.1-.06,.15-.09,.56,.73,1.3,1.6,2.22,2.51,3,2.98,7.95,6.45,15.21,7.23,2.05,.22,4.01,.05,5.85-.41,0,0,.02,0,.02,0,6.12-1.51,10.96-6.08,13.79-9.4,.07-.09,.15-.17,.22-.26,1.94,1.18,4.58,2.39,8.01,3.12,4.41,.94,8.56,2.83,12.21,5.49,.66,.48,1.33,1,2.01,1.55,2.34,1.89,4.78,4.2,6.96,6.94h0c.16,.2,.32,.4,.48,.61Z"/><path d="M62.95,33.24s.23,6.07-3.43,5.71c0,0,1.56-.97,1.07-4.13s-5.54,2.79-4.53,7.29c0,0-3.12-.24-2.51-4.43,0,0-6.92,1.33-3.77,15.21,0,0,2.31,6.47-1.58,8.17,0,0,1.94-3.98,0-6.91-1.94-2.93-5.48-1.04-5.48-1.04,0,0-3.44-.6-4.02-7.02-.58-6.41,1.48-11.03,1.48-11.03l.49,2.43s1.58-10.44,7.41-13.72c5.83-3.28,7.98-4.13,7.98-4.13l-1.05,1.82s13.77-6.56,20.67-3.16c6.9,3.4,8.6,9.72,8.6,9.72l-2.57-1.58c1.67,.78,7.08,13.58,8.89,13.24l-3.15-.49s7.94,12.39,0,15.55c0,0-2.68,.87-2.6,4.12,0,0-1.64-3.8,.32-6.99,1.97-3.19-1.21-10.57-1.21-10.57,0,0-1.46,1.62-.81,3.32,0,0-3.04-1.54-1.44-6.4s-8.76-7.04-9.41-3.24,1.77,3.24,1.77,3.24c0,0-3.59,2.11-4.1-.57-.5-2.67,0-4.7,0-4.7,0,0-1.9,3.57-5.18,4.45,0,0,2.2-2.02,1.66-3.97s-3.49-.2-3.49-.2Z"/><path d="M80.67,22.01s10.4,8.68,11.86,17.18l1.46,8.5-2.45-4.21s4.58,6.77-1.91,9.62l-4.87-19.18-7.24-10.53,3.15-1.4Z"/><rect x="47.39" y="110.61" width="10.44" height="10.44" style="fill:#fff;"/><path d="M41.23,123.13v6.89c-.91-.38-1.8-.79-2.69-1.21-2.69-1.29-5.28-2.74-7.76-4.36v-1.32h10.45Z" style="fill:#fff;"/><rect x="74.39" y="110.61" width="10.44" height="10.44" style="fill:#fff;"/><path d="M100.49,123.13v3.8c-1.19,.66-2.41,1.29-3.64,1.88-.15,.07-.3,.14-.45,.21-2.06,.97-4.18,1.83-6.36,2.59v-8.48h10.45Z" style="fill:#fff;"/><rect x="60.89" y="123.13" width="10.44" height="10.44" style="fill:#fff;"/></g></g></g></svg>