<?xml version="1.0" encoding="UTF-8"?><svg id="Calque_2" xmlns="http://www.w3.org/2000/svg" viewBox="0 0 135.39 136.39"><g id="Layer_1"><g><path d="M135.39,67.7c0,19.19-7.99,36.52-20.82,48.83-.03,.03-.06,.06-.09,.08-.11,.11-.22,.21-.32,.31l-.16,.15c-.06,.06-.13,.12-.19,.18-1.75,1.63-3.58,3.17-5.5,4.61-1.71,1.29-3.49,2.5-5.33,3.62-1.98,1.21-4.02,2.32-6.13,3.33-.15,.07-.3,.14-.45,.21-7.86,3.69-16.54,5.91-25.69,6.3-.68,.03-1.36,.05-2.04,.06-.32,0-.65,0-.97,0-1.01,0-2.01-.02-3.01-.07-9.33-.4-18.17-2.7-26.15-6.52-4.06-1.94-7.89-4.27-11.46-6.95-1.87-1.4-3.67-2.91-5.39-4.5-.07-.06-.13-.13-.2-.19-.13-.13-.26-.25-.39-.37-.05-.05-.11-.1-.16-.15l-.31-.3-.09-.09C7.87,103.97,0,86.75,0,67.7,0,30.31,30.3,0,67.69,0s67.69,30.31,67.69,67.7Z" style="fill:#efefef;"/><g><path d="M96.39,129.02c-7.86,3.69-16.54,5.91-25.69,6.3-.68,.03-1.36,.05-2.04,.06-.32,0-.65,0-.97,0-1.01,0-2.01-.02-3.01-.07-9.33-.4-18.17-2.7-26.15-6.52-4.06-1.94-7.89-4.27-11.46-6.95-1.87-1.4-3.67-2.91-5.39-4.5-.07-.06-.13-.13-.2-.19-.13-.13-.26-.25-.39-.37-.05-.05-.11-.1-.16-.15l-.31-.3c.07-.09,.13-.18,.2-.27,1.02-1.37,2.1-2.64,3.2-3.8,1.1-1.16,2.21-2.2,3.29-3.15,.24-.21,.48-.4,.71-.6,2.04-1.69,4.27-3.1,6.65-4.22h0c2.1-1,4.31-1.79,6.58-2.37,2.94-.75,5.23-1.91,6.92-3.03,.65-.43,1.21-.86,1.69-1.25,1.44-1.2,2.11-2.14,2.11-2.14v-18.18h.12l3.82,.03,8.67,.06,3.96,.03,7.7,.05,4.4,.03h0v17.97h0s.02,.03,.03,.05c.07,.08,.25,.3,.55,.6,.05,.05,.1,.11,.16,.16,.16,.16,.36,.35,.58,.55,.3,.27,.65,.56,1.06,.87h0c.37,.28,.78,.57,1.23,.87,.15,.1,.31,.2,.47,.3,.76,.47,1.63,.94,2.61,1.4,.17,.08,.35,.16,.53,.23,.62,.27,1.29,.52,2,.75,.23,.08,.46,.15,.7,.22,.19,.06,.39,.12,.59,.17l.19,.05c.21,.05,.42,.11,.64,.16,.28,.07,.57,.13,.86,.19,1.49,.32,2.95,.74,4.36,1.27,2.79,1.03,5.43,2.46,7.84,4.22,.66,.48,1.33,.99,2.02,1.54,.48,.39,.97,.8,1.46,1.23,1.88,1.63,3.77,3.53,5.5,5.71h0c.14,.17,.27,.35,.41,.52-.11,.11-.22,.21-.32,.31l-.16,.15c-.06,.06-.13,.12-.19,.18-1.75,1.63-3.58,3.17-5.5,4.61-1.71,1.29-3.49,2.5-5.33,3.62-1.98,1.21-4.02,2.32-6.13,3.33-.15,.07-.3,.14-.45,.21Z" style="fill:#fff; stroke:#000; stroke-linecap:round; stroke-linejoin:round; stroke-width:2px;"/><g><path d="M87.44,54s8.69-4.12,6.15,4.63c-2.54,8.75-7.57,7.23-7.57,7.23" style="fill:#fff; stroke:#000; stroke-miterlimit:10; stroke-width:2px;"/><path d="M91.54,56.36s-2.83-1.21-4.1,1.96c0,0,2.94-.92,1.73,3.92" style="fill:#fff; stroke:#000; stroke-linecap:round; stroke-linejoin:round; stroke-width:2px;"/></g><g><path d="M45.32,53.51s-8.69-4.12-6.15,4.63c2.54,8.75,7.57,7.23,7.57,7.23" style="fill:#fff; stroke:#000; stroke-miterlimit:10; stroke-width:2px;"/><path d="M41.23,55.87s2.83-1.21,4.1,1.96c0,0-2.94-.92-1.73,3.92" style="fill:#fff; stroke:#000; stroke-linecap:round; stroke-linejoin:round; stroke-width:2px;"/></g><ellipse cx="66.45" cy="54.29" rx="21" ry="31.79" style="fill:#fff; stroke:#000; stroke-miterlimit:10; stroke-width:2.31px;"/><path d="M65.12,53.25v9.06s1.18,3.42,4.85,.58" style="fill:none; stroke:#000; stroke-linecap:round; stroke-linejoin:round; stroke-width:2px;"/><path d="M59.52,69.28s7.44,6.29,14.42,.4" style="fill:none; stroke:#000; stroke-linecap:round; stroke-linejoin:round; stroke-width:2px;"/><circle cx="75.79" cy="52.01" r="1.73"/><circle cx="57.79" cy="52.01" r="1.73"/><path d="M69.65,45.18l1.56,1.97,10.5-.19s-3.35-1.66-4.5-1.78-7.56,0-7.56,0Z"/><path d="M62.96,45.12l-1.27,2.21-10.5-.19s3.35-1.66,4.5-1.78,7.27-.24,7.27-.24Z"/><path d="M80.83,77.36v4.91c-1.02,6.35-7.85,11-15.08,9.61-7.11-1.37-12.93-13.78-13.11-14.17,3.7,4.7,8.6,7.56,13.95,7.56s10.49-3,14.23-7.91Z"/><path d="M52.72,72.2s1.98-7.27,10.73-7.48,13.56,.03,17.31,7.48c0,0-5.24-4.33-11.64-4.51-6.4-.19-11.73,.3-16.39,4.51Z"/><path d="M45.17,58.03h0c1.42,1.64,2.53,3.53,3.29,5.57,2.21,5.97,8.05,19.05,16.96,19.43,9.65,.41,15.2-11.22,17.63-18.31,.88-2.56,2.14-4.97,3.76-7.13l.41-.54s1.27,10.44-6.55,20.52c-7.82,10.08-14.28,9.37-19.72,7.53s-11.28-11.18-11.28-11.18c0,0-4.66-10.4-4.5-15.87Z"/><rect x="64.6" y="75.24" width="3.97" height="9.45" rx="1.81" ry="1.81"/><path d="M51.99,95.53s4.57,4.65,10.96,6.25c2.21,.55,4.64,.74,7.18,.24,3.42-.66,7.02-2.57,10.54-6.49l4.08,3.4-18.02,8.97-18.55-8.98,3.8-3.39Z" style="stroke:#000; stroke-miterlimit:10; stroke-width:2px;"/><path d="M108.56,110.37l-42.11,19.23-42.41-17.31c1.1-1.16,2.21-2.2,3.29-3.15,.24-.21,.48-.4,.71-.6,2.04-1.69,4.27-3.1,6.65-4.22h0l31.54,14.27,31-15.21c2.79,1.03,5.43,2.46,7.84,4.22,.66,.48,1.33,.99,2.02,1.54,.48,.39,.97,.8,1.46,1.23Z" style="stroke:#000; stroke-miterlimit:10; stroke-width:2px;"/></g></g></g></svg>