<?xml version="1.0" encoding="UTF-8"?><svg id="Calque_2" xmlns="http://www.w3.org/2000/svg" viewBox="0 0 135.39 135.72"><g id="Layer_1"><g><path d="M135.39,67.69c.01,9.12-1.83,18.16-5.41,26.55-3.58,8.39-8.82,15.97-15.41,22.28l-.28,.27-.13,.13-.35,.32c-1.75,1.63-3.58,3.17-5.49,4.61-1.58,1.18-3.21,2.3-4.89,3.35-2.13,1.32-4.33,2.52-6.59,3.59-.51,.24-1.02,.48-1.53,.71-5.78,2.59-11.9,4.35-18.18,5.22-2.12,.3-4.26,.49-6.44,.59-1,.05-2,.07-3.01,.07-1.01,0-2.01-.03-3.01-.07-2.17-.1-4.31-.29-6.43-.59-6.58-.91-13-2.8-19.02-5.6l-.7-.33-.58-.28c-.58-.28-1.15-.57-1.72-.87-1.75-.91-3.45-1.9-5.1-2.95-1.39-.89-2.74-1.83-4.06-2.82-1.87-1.41-3.67-2.91-5.39-4.51l-.5-.47-.08-.08c-.06-.05-.11-.1-.16-.15l-.4-.38c-8.02-7.78-13.99-17.43-17.37-28.08C-.21,77.54-.9,66.22,1.16,55.24c2.06-10.98,6.8-21.29,13.81-29.99,7.01-8.7,16.06-15.54,26.35-19.89C51.61,1,62.82-.74,73.95,.29c11.13,1.03,21.83,4.8,31.14,10.98,9.32,6.17,16.96,14.56,22.24,24.4,5.29,9.84,8.05,20.85,8.06,32.02h0Z" style="fill:#f1efef;"/><path d="M81.2,20.69c-14-6.83-30.31,.71-36.55,16.87-2.02,5.23-3.37,11.81-3.37,19.98v35.93h55.16V54.52s2.33-25.29-15.23-33.84Z"/><path d="M114.29,116.79l-.13,.13-.35,.32c-1.75,1.63-3.58,3.17-5.49,4.61-1.58,1.18-3.21,2.3-4.89,3.35-2.13,1.32-4.33,2.52-6.59,3.59-.51,.24-1.02,.48-1.53,.71-5.78,2.59-11.9,4.35-18.18,5.22h-18.88c-6.58-.91-13-2.8-19.02-5.6l-.7-.33-.58-.28c-.58-.28-1.15-.57-1.72-.87-1.75-.91-3.45-1.9-5.1-2.95-1.39-.89-2.74-1.83-4.06-2.82-1.87-1.41-3.67-2.91-5.39-4.51l-.5-.47c1.34-1.59,2.77-3.1,4.3-4.51h0c1.78-1.64,3.67-3.15,5.66-4.52,2.57-1.77,5.27-3.32,8.1-4.64,2.24-1.05,4.53-1.97,6.87-2.75,.75-.25,1.52-.5,2.31-.73l8.16-5.94v-16.71h22.84v16.26l.13,.13c.81,.75,5.03,4.71,7.4,6.26,.23,.15,.47,.29,.72,.42l.19,.09c.33,.14,.97,.35,1.83,.65,.66,.23,1.46,.5,2.36,.84,.58,.21,1.2,.44,1.85,.7,.45,.18,.92,.37,1.4,.57,2.23,.93,4.41,2,6.51,3.19h.03c.51,.3,1.04,.6,1.56,.92,.95,.59,1.9,1.22,2.84,1.9,.94,.68,1.96,1.47,2.91,2.29,1.37,1.18,2.65,2.47,3.82,3.86,.47,.55,.91,1.09,1.32,1.62Z" style="fill:#fff; stroke:#000; stroke-linecap:round; stroke-linejoin:round; stroke-width:2px;"/><path d="M57.81,77.6s9.05,10.04,16.26,9.07c7.21-.97,6.23-2.99,6.23-2.99l.35-6.59-22.84,.52Z"/><path d="M49.7,54.37s-1.6-3.37-4.8-1.66c-3.2,1.72-.39,10.37,3.2,12.02,3.59,1.64,2.95-1.07,2.95-1.07" style="fill:none; stroke:#000; stroke-linecap:round; stroke-linejoin:round; stroke-width:2px;"/><path d="M45.59,56.11s3.71-.05,4.77,3" style="fill:none; stroke:#000; stroke-linecap:round; stroke-linejoin:round; stroke-width:2px;"/><path d="M47.79,60.97s-1.45-2.57,1-3.64" style="fill:none; stroke:#000; stroke-linecap:round; stroke-linejoin:round; stroke-width:2px;"/><path d="M89.82,54.37s1.6-3.37,4.8-1.66c3.2,1.72,.39,10.37-3.2,12.02-3.59,1.64-2.95-1.07-2.95-1.07" style="fill:none; stroke:#000; stroke-linecap:round; stroke-linejoin:round; stroke-width:2px;"/><path d="M93.92,56.11s-3.7-.05-4.77,3" style="fill:none; stroke:#000; stroke-linecap:round; stroke-linejoin:round; stroke-width:2px;"/><path d="M91.73,60.97s1.45-2.57-1-3.64" style="fill:none; stroke:#000; stroke-linecap:round; stroke-linejoin:round; stroke-width:2px;"/><path d="M49.84,49.43s-1.03,18.28,4.25,23.8c5.28,5.52,7.93,7.47,12.53,8.05,4.6,.58,6.78,.69,12.65-3.22,5.87-3.91,7.93-7.59,8.74-11.61,.81-4.02,2.99-20.92,2.99-20.92l-5.52-13.92-17.13-4.82-5.99,.69-6.54,4.71-4.94,7.82-1.03,9.43Z" style="fill:#fff; stroke:#000; stroke-miterlimit:10; stroke-width:1.51px;"/><path d="M49.43,54.2v-2.87s6.5-9.37,6.84-16.73c0,0,13.68,12.3,33.34,8.28v11.32l2.53-1.97s2.75-16.82-7.94-25.44c-10.69-8.62-22.28-5.06-25.63-2.53-3.34,2.53-16.32,10.69-9.14,29.95Z"/><path d="M78.84,53.64c.99,0,1.8-.81,1.8-1.8s-.81-1.8-1.8-1.8-1.8,.81-1.8,1.8,.81,1.8,1.8,1.8Z"/><path d="M59.61,53.64c.99,0,1.8-.81,1.8-1.8s-.81-1.8-1.8-1.8-1.8,.81-1.8,1.8,.81,1.8,1.8,1.8Z"/><path d="M67.69,56.78v3.63c-.02,.44,.1,.87,.35,1.24,.25,.36,.61,.63,1.03,.77,.42,.14,.87,.13,1.29-.01,.42-.15,.77-.42,1.01-.79" style="fill:none; stroke:#000; stroke-linecap:round; stroke-linejoin:round; stroke-width:2px;"/><path d="M62.4,66.05s7.74,4.6,14.1,0" style="fill:none; stroke:#000; stroke-linecap:round; stroke-linejoin:round; stroke-width:2px;"/><path d="M73.78,46.14l1.56,1.97,10.5-.19s-3.34-1.68-4.51-1.78-7.55,0-7.55,0Z"/><path d="M65.15,46.14l-1.56,1.97-10.5-.19s3.34-1.66,4.5-1.78c1.16-.12,7.55,0,7.55,0Z"/><path d="M37.96,128.51c-.58-.28-1.15-.57-1.72-.87,.34,0,.67,.08,.97,.23,.3,.15,.56,.37,.75,.64h0Z" style="fill:#fff;"/><path d="M31.37,108.55s32.89,26.17,37.53,26.17,37.92-26.17,37.92-26.17l-16.81-7.97s-17.32,16.35-22.23,16.03c-4.91-.33-21.43-16.03-21.43-16.03,0,0-14.34-6.75-21.59,13.7l6.61-5.73Z"/><path d="M90.01,100.58s15.6-4.36,22.24,12.48l-22.24-12.48Z"/><path d="M49.64,99.75s19.15,16.29,38.53,0H49.64Z" style="fill:#fff;"/><path d="M49.64,99.75s19.15,16.29,38.53,0" style="fill:none; stroke:#000; stroke-linecap:round; stroke-linejoin:round; stroke-width:2px;"/></g></g></svg>