<?xml version="1.0" encoding="UTF-8"?><svg id="Calque_2" xmlns="http://www.w3.org/2000/svg" viewBox="0 0 135.39 136.33"><g id="Layer_1"><g><path d="M135.39,67.69c.01,9.12-1.83,18.16-5.41,26.55-3.58,8.39-8.82,15.97-15.41,22.28-.13,.13-.27,.27-.42,.4l-.14,.13-.21,.19c-1.75,1.64-3.59,3.18-5.5,4.63-1.56,1.17-3.17,2.27-4.83,3.31l-.06,.04c-1.95,1.21-3.97,2.33-6.03,3.34l-.53,.26c-.51,.24-1.02,.48-1.53,.71-7.76,3.47-16.11,5.44-24.61,5.81h-.42c-.84,.03-1.7,.05-2.58,.05s-1.74-.02-2.58-.05h-.42c-8.81-.38-17.45-2.48-25.45-6.19l-.7-.33c-2.55-1.22-5.02-2.6-7.4-4.12-1.39-.89-2.74-1.83-4.06-2.82-1.87-1.41-3.67-2.91-5.39-4.51l-.22-.2-.37-.35c-.06-.05-.11-.1-.16-.15l-.4-.38c-8.02-7.78-13.99-17.43-17.38-28.08C-.2,77.55-.9,66.23,1.15,55.24c2.06-10.98,6.8-21.29,13.81-30,7.01-8.71,16.06-15.54,26.35-19.9C51.61,1,62.82-.74,73.94,.29c11.13,1.03,21.83,4.8,31.14,10.98,9.32,6.17,16.96,14.56,22.25,24.4,5.29,9.85,8.05,20.85,8.05,32.02h0Z" style="fill:#f1efef;"/><path d="M67.72,102.73c17.28,0,31.28-20.05,31.28-44.79s-14.01-44.79-31.28-44.79-31.28,20.05-31.28,44.79,14.01,44.79,31.28,44.79Z"/><path d="M114.01,117.05l-.21,.19c-1.75,1.64-3.59,3.18-5.51,4.63-1.56,1.17-3.17,2.27-4.83,3.31l-.06,.04c-1.95,1.21-3.97,2.33-6.03,3.34l-.53,.26c-.51,.24-1.02,.48-1.53,.71-7.76,3.47-16.11,5.44-24.61,5.81h-6.01c-8.81-.38-17.45-2.48-25.45-6.19l-.7-.33c-2.55-1.22-5.02-2.6-7.4-4.12-1.39-.89-2.74-1.83-4.06-2.82-1.87-1.41-3.67-2.91-5.39-4.51l-.22-.2c2.83-3.3,6.08-6.22,9.67-8.68,.6-.41,1.21-.82,1.85-1.22,2.01-1.26,4.1-2.4,6.25-3.4,2.97-1.39,6.04-2.56,9.18-3.49l4.28-3.12,1-.73,2.88-2.11v-16.72h22.84v16.26s1.06,1.01,2.46,2.26c.32,.29,.67,.6,1.02,.9l.05,.05,.03,.02c1.26,1.13,2.59,2.19,3.97,3.16,.29,.19,.59,.37,.9,.51,.87,.38,3.76,1.21,7.46,2.76,2.39,1,4.71,2.15,6.95,3.44,.38,.22,.76,.45,1.14,.69,3.6,2.16,6.83,4.88,9.58,8.06,.35,.42,.7,.84,1.03,1.26Z" style="fill:#fff; stroke:#000; stroke-linecap:round; stroke-linejoin:round; stroke-width:2px;"/><path d="M56.6,78.21s9.05,10.04,16.26,9.07c7.2-.97,6.24-2.99,6.24-2.99l.35-6.59-22.84,.52Z"/><path d="M48.48,54.98s-1.6-3.37-4.8-1.66c-3.2,1.72-.39,10.37,3.2,12.02,3.59,1.65,2.95-1.07,2.95-1.07l-1.35-9.29Z"/><path d="M44.37,56.72s3.71-.05,4.77,3l-4.77-3Z"/><path d="M46.57,61.57s-1.45-2.57,1-3.64l-1,3.64Z"/><path d="M88.59,54.98s1.6-3.37,4.8-1.66c3.21,1.72,.39,10.37-3.21,12.02-3.6,1.65-2.95-1.07-2.95-1.07l1.35-9.29Z"/><path d="M92.7,56.72s-3.71-.05-4.77,3l4.77-3Z"/><path d="M90.5,61.57s1.45-2.57-1-3.64l1,3.64Z"/><path d="M48.42,50.65c0,.3-.03,.61,0,.92,.03,2.98,.42,18.32,5.43,23.05,5.56,5.25,8.3,7.07,12.92,7.41,4.62,.35,6.81,.35,12.47-3.85,5.66-4.2,7.54-7.97,8.15-12.03,.45-3.02,.67-6.08,.94-9.12,.26-2.87,.44-5.74,.5-8.62,.03-1.44,.02-2.88-.03-4.32-.04-1.34,.08-2.74-.24-4.06-.25-1.05-.76-2.03-1.08-3.07l-.95-3.12c-1.69-3.73-5.74-2.9-9.74-3.8l-8.47-1.94c-1.93-.44-3.93-.44-5.86,0-1.93,.44-3.73,1.31-5.28,2.54l-1.64,1.31c-1.32,1.05-2.42,2.35-3.25,3.82l-1.8,3.18c-.99,1.74-1.56,3.69-1.69,5.68l-.37,6.01Z" style="fill:#fff; stroke:#000; stroke-miterlimit:10; stroke-width:1.51px;"/><path d="M77.62,54.25c.99,0,1.8-.81,1.8-1.8s-.81-1.8-1.8-1.8-1.8,.81-1.8,1.8,.81,1.8,1.8,1.8Z"/><path d="M58.38,54.25c.99,0,1.8-.81,1.8-1.8s-.81-1.8-1.8-1.8-1.8,.81-1.8,1.8,.81,1.8,1.8,1.8Z"/><path d="M66.47,57.39v3.63c-.02,.44,.1,.88,.35,1.24,.25,.36,.61,.63,1.03,.77,.42,.14,.87,.13,1.29-.01,.42-.15,.77-.43,1.01-.79" style="fill:none; stroke:#000; stroke-linecap:round; stroke-linejoin:round; stroke-width:2px;"/><path d="M61.18,66.67s7.74,4.6,14.1,0" style="fill:none; stroke:#000; stroke-linecap:round; stroke-linejoin:round; stroke-width:2px;"/><path d="M72.56,46.72l1.56,1.97,10.5-.19s-3.34-1.66-4.5-1.78c-1.16-.13-7.56,0-7.56,0Z"/><path d="M63.93,46.72l-1.56,1.97-10.5-.2s3.34-1.66,4.5-1.78c1.16-.13,7.56,.01,7.56,.01Z"/><path d="M48.42,100.36l4.98-3.2s13.39,10.56,29.55,0l4,3.18s-17.7,15.03-38.53,.02Z"/><path d="M103.47,125.16l-.06,.04c-1.95,1.21-3.97,2.33-6.03,3.34h-7.25c-.46-.02-.89-.22-1.2-.55-.32-.33-.49-.77-.49-1.23s.18-.9,.49-1.23c.32-.33,.75-.53,1.2-.55h12.57c.27,0,.54,.06,.78,.18Z"/><path d="M66.61,104.19v29.82" style="fill:none; stroke:#000; stroke-miterlimit:10;"/><path d="M70.78,112.62c.9,0,1.63-.73,1.63-1.63s-.73-1.63-1.63-1.63-1.63,.73-1.63,1.63,.73,1.63,1.63,1.63Z"/><path d="M70.78,120.51c.9,0,1.63-.73,1.63-1.63s-.73-1.63-1.63-1.63-1.63,.73-1.63,1.63,.73,1.63,1.63,1.63Z"/><path d="M70.78,128.4c.9,0,1.63-.73,1.63-1.63s-.73-1.63-1.63-1.63-1.63,.73-1.63,1.63,.73,1.63,1.63,1.63Z"/><path d="M58.42,58.27c4.21,0,7.62-3.41,7.62-7.62s-3.41-7.62-7.62-7.62-7.62,3.41-7.62,7.62,3.41,7.62,7.62,7.62Z" style="fill:none; stroke:#000; stroke-miterlimit:10; stroke-width:2px;"/><path d="M77.66,58.27c4.21,0,7.62-3.41,7.62-7.62s-3.41-7.62-7.62-7.62-7.62,3.41-7.62,7.62,3.41,7.62,7.62,7.62Z" style="fill:none; stroke:#000; stroke-miterlimit:10; stroke-width:2px;"/><path d="M66.04,50.65h4.01" style="fill:none; stroke:#000; stroke-miterlimit:10; stroke-width:2px;"/><path d="M85.26,50.65l3.36,4.28" style="fill:none; stroke:#000; stroke-miterlimit:10; stroke-width:2px;"/><path d="M50.81,50.65l-2.24,4.28" style="fill:none; stroke:#000; stroke-miterlimit:10; stroke-width:2px;"/><path d="M44.11,41.02h47.22l-9.11-14.08-17.45-2.92-7.05,2.31-7.78,3.76-5.83,10.93Z"/><path d="M55.51,77.69s16.03,12.12,27.83-1.64c11.81-13.76-2.35,22.45-2.35,22.45h-23.7l-8.15-4.52-.55-13.87,6.92-2.4Z"/><path d="M49.08,92.54s-12.86,4.16-16.09,14.71c-2.05,6.67,9.15,10.58,13.6,12.08,9.81,3.33,20.27,4.29,30.53,2.8,5.26-.78,10.4-2.26,15.28-4.39,4.36-1.91,9.55-4.22,9.87-9.67,.44-7.36-9.1-12.89-16.52-15.06-3.08-.86-6.27-1.27-9.47-1.21l-27.2,.74Z"/></g></g></svg>