<?xml version="1.0" encoding="UTF-8"?><svg id="Calque_2" xmlns="http://www.w3.org/2000/svg" viewBox="0 0 135.39 136.35"><g id="Layer_1"><g><path d="M135.39,67.7c0,19.2-7.99,36.52-20.83,48.84l-.02,.02h0s-.02,.02-.03,.03c-.09,.09-.18,.18-.27,.26-.03,.03-.05,.05-.08,.08-1.78,1.68-3.65,3.27-5.6,4.75-.08,.06-.16,.13-.25,.19-3.45,2.59-7.14,4.85-11.06,6.75-.13,.07-.27,.13-.4,.19-1.27,.61-2.56,1.17-3.87,1.7-3.1,1.26-6.32,2.28-9.64,3.07-.89,.21-1.78,.4-2.68,.57-2.86,.56-5.79,.93-8.78,1.11-.62,.04-1.23,.07-1.85,.09-.78,.03-1.55,.04-2.33,.04s-1.61-.01-2.42-.04c-1.34-.05-2.67-.13-3.99-.26-3.17-.3-6.28-.81-9.31-1.54-4.69-1.11-9.18-2.72-13.44-4.75-.13-.06-.27-.13-.4-.19-3.91-1.9-7.61-4.17-11.06-6.75-.08-.06-.16-.13-.25-.19-2-1.51-3.91-3.14-5.73-4.87-.05-.05-.11-.1-.16-.15l-.04-.04s-.03-.03-.05-.04c-.08-.08-.17-.16-.26-.25l-.03-.03-.02-.02C7.88,103.98,0,86.76,0,67.7,0,30.31,30.3,0,67.69,0s67.69,30.31,67.69,67.7Z" style="fill:#efeeee;"/><g><path d="M114.55,116.54l-.02,.02h0s-.02,.02-.03,.03c-.09,.09-.18,.18-.27,.26-.03,.03-.05,.05-.08,.08-1.78,1.68-3.65,3.27-5.6,4.75-.08,.06-.16,.13-.25,.19-3.45,2.59-7.14,4.85-11.06,6.75-.13,.07-.27,.13-.4,.19-1.27,.61-2.56,1.17-3.87,1.7-3.1,1.26-6.32,2.28-9.64,3.07-.89,.21-1.78,.4-2.68,.57-2.86,.56-5.79,.93-8.78,1.11-.62,.04-1.23,.07-1.85,.09h-4.75c-1.34-.05-2.67-.13-3.99-.26-3.17-.3-6.28-.81-9.31-1.54-4.69-1.11-9.18-2.72-13.44-4.75-.13-.06-.27-.13-.4-.19-3.91-1.9-7.61-4.17-11.06-6.75-.08-.06-.16-.13-.25-.19-2-1.51-3.91-3.14-5.73-4.87-.05-.05-.11-.1-.16-.15l-.04-.04s-.03-.03-.05-.04c-.08-.08-.17-.16-.26-.25l-.03-.03-.02-.02c.09-.13,.18-.25,.27-.37,2.05-2.74,4.32-5.05,6.5-6.94,.24-.2,.47-.4,.71-.6,3.84-3.19,8.4-5.36,13.23-6.6,7.49-1.92,10.71-6.42,10.71-6.42v-18.18h.43l27.89,.2h.37v17.98s3.66,4.77,12.2,6.58c4.41,.94,8.57,2.83,12.21,5.49,.66,.48,1.33,1,2.02,1.54,2.34,1.89,4.77,4.2,6.96,6.94h0c.16,.21,.33,.42,.49,.63Z" style="fill:#fff; stroke:#000; stroke-linecap:round; stroke-linejoin:round; stroke-width:2px;"/><path d="M51.98,77.18s2.93,9.69,14.97,12.36c12.3,2.73,13.72-4.45,13.72-4.45v-7.71s-14.35,9.1-21.55,4.14-7.14-4.35-7.14-4.35Z"/><g><path d="M87.3,56.88s7.86-3.73,5.56,4.19-6.85,6.53-6.85,6.53" style="fill:#fff; stroke:#000; stroke-miterlimit:10; stroke-width:1.81px;"/><path d="M91.01,59.02s-2.56-1.1-3.7,1.77c0,0,2.66-.83,1.56,3.55" style="fill:#fff; stroke:#000; stroke-linecap:round; stroke-linejoin:round; stroke-width:1.81px;"/></g><g><path d="M45.42,56.17s-7.86-3.73-5.56,4.19c2.3,7.91,6.85,6.53,6.85,6.53" style="fill:#fff; stroke:#000; stroke-miterlimit:10; stroke-width:1.81px;"/><path d="M41.72,58.31s2.56-1.1,3.7,1.77c0,0-2.66-.83-1.56,3.55" style="fill:#fff; stroke:#000; stroke-linecap:round; stroke-linejoin:round; stroke-width:1.81px;"/></g><ellipse cx="66.44" cy="56.32" rx="21" ry="28.03" style="fill:#fff; stroke:#000; stroke-miterlimit:10; stroke-width:2.17px;"/><path d="M65.12,56.23v9.06s1.18,3.42,4.85,.58" style="fill:none; stroke:#000; stroke-linecap:round; stroke-linejoin:round; stroke-width:2px;"/><circle cx="75.79" cy="54.99" r="1.73"/><circle cx="57.79" cy="54.99" r="1.73"/><path d="M80.67,95.35c-14.6,15.51-28.69,0-28.69,0l14.09,15.51,14.6-15.51Z" style="fill:#fff; stroke:#000; stroke-miterlimit:10; stroke-width:2.31px;"/><path d="M72.68,51.55c1.36,.13,2.68-.27,4.04-.28,1.14,0,2.17,.42,2.95,1.25,.7,.74,1.81-.38,1.12-1.12-.96-1.02-2.26-1.62-3.66-1.71-1.5-.1-2.96,.41-4.46,.27-.43-.04-.79,.39-.79,.79,0,.46,.36,.75,.79,.79h0Z"/><path d="M61.05,49.97c-1.5,.14-2.96-.37-4.46-.27-1.39,.09-2.7,.68-3.66,1.71-.69,.74,.42,1.86,1.12,1.12,.78-.84,1.81-1.26,2.95-1.25,1.36,0,2.68,.41,4.04,.28,.43-.04,.79-.34,.79-.79,0-.4-.36-.83-.79-.79h0Z"/><path d="M61.39,70.27s5.2,6.1,11.3,0" style="fill:none; stroke:#000; stroke-linecap:round; stroke-linejoin:round; stroke-width:2px;"/><line x1="20.83" y1="115.91" x2="114.05" y2="115.91" style="fill:none; stroke:#000; stroke-linecap:round; stroke-linejoin:round; stroke-width:2px;"/><path d="M70.76,41.68s1.05,2.9,3.81,3.43l2.75,.53s-2.02-.97-2.02-2.75v-1.78s3.16-.24,4.45,4.53l1.3,4.78s1.69-5.35-.37-9.31c0,0,3.93,5.18,3.61,13.28l1.21-3.64,1.81,8.78s5.06-8.68,1.85-15.18c-3.21-6.5-2.2-9.72-2.2-9.72,0,0-2.51,2.64-3.81,2.09s-14.9-2.09-14.9-2.09c0,0-23.21,4.62-24.68,11.74-1.47,7.13,2.01,13.15,2.01,13.15,0,0-.16-5.3,1.62-7.32s1.7-5.51,1.7-5.51l.73,3.56s1.3-5.34,5.67-7.45,15.47-1.13,15.47-1.13Z"/><path d="M74.06,40.92s2.78-.01,4.23,6.16c0,0,2.03-6.53-1.84-9.23s-2.4,3.07-2.4,3.07Z"/><g><path d="M41.02,16.59h43.84v4.25c0,11.03-8.96,19.99-19.99,19.99h-3.86c-11.03,0-19.99-8.96-19.99-19.99v-4.25h0Z" transform="translate(127.19 54.37) rotate(177.24)"/><path d="M41.57,40.65s-6.66,2.64-8.59,8.28c-1.93,5.64,52.38-10.39,52.38-10.39l-43.79,2.11Z"/></g><line x1="66.08" y1="110.87" x2="66.08" y2="135.35" style="fill:none; stroke:#000; stroke-miterlimit:10; stroke-width:2.31px;"/></g></g></g></svg>