<?xml version="1.0" encoding="UTF-8"?><svg id="Calque_2" xmlns="http://www.w3.org/2000/svg" viewBox="0 0 135.39 136.39"><g id="Layer_1"><g><path d="M135.39,67.7c0,19.19-7.99,36.52-20.82,48.83-.13,.13-.27,.27-.41,.4-.07,.07-.14,.13-.21,.19-1.79,1.68-3.67,3.27-5.64,4.74-1.58,1.19-3.21,2.3-4.89,3.35-1.26,.78-2.54,1.53-3.85,2.23-.89,.48-1.8,.93-2.71,1.37-.51,.24-1.02,.48-1.53,.71-7.57,3.39-15.87,5.43-24.61,5.81-1,.05-2,.07-3.01,.07s-2.01-.02-3.01-.07c-9.06-.39-17.66-2.57-25.45-6.19l-.7-.33c-1.26-.6-2.49-1.24-3.71-1.91-1.26-.7-2.49-1.44-3.69-2.21-1.39-.89-2.74-1.83-4.06-2.82-1.93-1.45-3.77-2.99-5.53-4.64-.15-.13-.3-.27-.44-.41-.05-.05-.11-.1-.16-.15-.13-.13-.27-.25-.4-.38C7.87,103.97,0,86.75,0,67.7,0,30.31,30.3,0,67.69,0s67.69,30.31,67.69,67.7Z" style="fill:#efeeee;"/><g><g><ellipse cx="50.45" cy="70.62" rx="1.42" ry="5.41" transform="translate(-35.96 62.51) rotate(-49.09)"/><ellipse cx="51.23" cy="70.23" rx="5.41" ry="1.42" transform="translate(-35.39 62.96) rotate(-49.09)"/><ellipse cx="51.09" cy="77.29" rx="1.42" ry="5.41" transform="translate(-40.78 65.28) rotate(-49.09)"/><ellipse cx="51.86" cy="76.89" rx="5.41" ry="1.42" transform="translate(-40.21 65.74) rotate(-49.09)"/><ellipse cx="51.4" cy="84.21" rx="1.42" ry="5.41" transform="translate(-45.9 67.91) rotate(-49.09)"/><ellipse cx="52.18" cy="83.81" rx="5.41" ry="1.42" transform="translate(-45.33 68.36) rotate(-49.09)"/><ellipse cx="52.04" cy="90.87" rx="1.42" ry="5.41" transform="translate(-50.72 70.69) rotate(-49.09)"/><ellipse cx="52.82" cy="90.48" rx="5.41" ry="1.42" transform="translate(-50.15 71.14) rotate(-49.09)"/><ellipse cx="51.4" cy="90.55" rx="1.42" ry="5.41" transform="translate(-50.69 70.1) rotate(-49.09)"/><ellipse cx="52.18" cy="90.15" rx="5.41" ry="1.42" transform="translate(-50.12 70.55) rotate(-49.09)"/><ellipse cx="52.04" cy="97.21" rx="1.42" ry="5.41" transform="translate(-55.51 72.88) rotate(-49.09)"/><ellipse cx="52.82" cy="96.82" rx="5.41" ry="1.42" transform="translate(-54.94 73.33) rotate(-49.09)"/></g><g><ellipse cx="83.3" cy="72.24" rx="1.42" ry="5.41" transform="translate(-25.85 87.89) rotate(-49.09)"/><ellipse cx="84.08" cy="71.84" rx="5.41" ry="1.42" transform="translate(-25.28 88.34) rotate(-49.09)"/><ellipse cx="83.93" cy="78.9" rx="1.42" ry="5.41" transform="translate(-30.66 90.67) rotate(-49.09)"/><ellipse cx="84.71" cy="78.51" rx="5.41" ry="1.42" transform="translate(-30.1 91.12) rotate(-49.09)"/><ellipse cx="84.25" cy="85.82" rx="1.42" ry="5.41" transform="translate(-35.78 93.29) rotate(-49.09)"/><ellipse cx="85.03" cy="85.43" rx="5.41" ry="1.42" transform="translate(-35.22 93.74) rotate(-49.09)"/><ellipse cx="84.88" cy="92.49" rx="1.42" ry="5.41" transform="translate(-40.6 96.07) rotate(-49.09)"/><ellipse cx="85.66" cy="92.09" rx="5.41" ry="1.42" transform="translate(-40.03 96.52) rotate(-49.09)"/><ellipse cx="84.25" cy="92.17" rx="1.42" ry="5.41" transform="translate(-40.58 95.48) rotate(-49.09)"/><ellipse cx="85.03" cy="91.77" rx="5.41" ry="1.42" transform="translate(-40.01 95.93) rotate(-49.09)"/><ellipse cx="84.88" cy="98.83" rx="1.42" ry="5.41" transform="translate(-45.4 98.26) rotate(-49.09)"/><ellipse cx="85.66" cy="98.44" rx="5.41" ry="1.42" transform="translate(-44.83 98.71) rotate(-49.09)"/></g><path d="M68.66,22.09s-20.68-5.95-28.29,15.43c-7.61,21.38,11.02,34.32,11.02,34.32l17.27-49.75Z"/><path d="M68.66,22.09s20.68-5.95,28.29,15.43-11.02,34.32-11.02,34.32l-17.27-49.75Z"/><path d="M113.94,117.12c-1.79,1.68-3.67,3.27-5.64,4.74-1.58,1.19-3.21,2.3-4.89,3.35-1.26,.78-2.54,1.53-3.85,2.23-.89,.48-1.8,.93-2.71,1.37-.51,.24-1.02,.48-1.53,.71-7.57,3.39-15.87,5.43-24.61,5.81-1,.05-2,.07-3.01,.07s-2.01-.02-3.01-.07c-9.06-.39-17.66-2.57-25.45-6.19l-.7-.33c-1.26-.6-2.49-1.24-3.71-1.91-1.26-.7-2.49-1.44-3.69-2.21-1.39-.89-2.74-1.83-4.06-2.82-1.93-1.45-3.77-2.99-5.53-4.64,2.5-2.93,5.65-5.88,9.59-8.6,2.4-1.65,5.08-3.21,8.1-4.63,2.77-1.3,5.82-2.48,9.18-3.48l.78-.57,.22-.16,1.27-.92,.58-.42,1.78-1.29,.57-.41,2.17-1.58,.35-.26,.44-.32v-16.71h22.84v16.26s.53,.51,1.34,1.24c.27,.25,.59,.54,.92,.83,.05,.04,.09,.08,.14,.12,.15,.14,.31,.28,.47,.43,.24,.22,.49,.43,.75,.65,.32,.28,.64,.56,.97,.83,.2,.17,.4,.33,.59,.49,.56,.46,1.1,.89,1.6,1.26,.23,.17,.46,.33,.66,.46,.02,.02,.04,.03,.06,.04l.03,.02c.35,.23,.65,.4,.9,.51,.11,.05,.25,.1,.42,.16,.18,.07,.39,.14,.63,.22,1.36,.46,3.66,1.22,6.41,2.37,2.45,1.04,5.27,2.38,8.1,4.13,3.37,2.08,6.76,4.72,9.58,8.06,.33,.39,.65,.78,.96,1.17Z" style="fill:#fff; stroke:#000; stroke-linecap:round; stroke-linejoin:round; stroke-width:2px;"/><path d="M56.58,78.37s9.05,10.04,16.26,9.07,6.23-3,6.23-3l.35-6.59-22.84,.52Z"/><g><path d="M48.48,55.14s-1.6-3.38-4.8-1.66c-3.2,1.73-.39,10.37,3.2,12.02,3.59,1.65,2.96-1.07,2.96-1.07" style="fill:#fff; stroke:#000; stroke-linecap:round; stroke-linejoin:round; stroke-width:2px;"/><path d="M44.37,56.88s3.71-.05,4.77,3" style="fill:#fff; stroke:#000; stroke-linecap:round; stroke-linejoin:round; stroke-width:2px;"/><path d="M46.57,61.74s-1.45-2.57,1-3.64" style="fill:#fff; stroke:#000; stroke-linecap:round; stroke-linejoin:round; stroke-width:2px;"/></g><g><path d="M88.59,55.14s1.6-3.38,4.8-1.66,.39,10.37-3.2,12.02c-3.59,1.65-2.96-1.07-2.96-1.07" style="fill:#fff; stroke:#000; stroke-linecap:round; stroke-linejoin:round; stroke-width:2px;"/><path d="M92.7,56.88s-3.71-.05-4.77,3" style="fill:#fff; stroke:#000; stroke-linecap:round; stroke-linejoin:round; stroke-width:2px;"/><path d="M90.5,61.74s1.45-2.57-1-3.64" style="fill:#fff; stroke:#000; stroke-linecap:round; stroke-linejoin:round; stroke-width:2px;"/></g><path d="M48.61,50.2s-1.03,18.28,4.25,23.8c5.29,5.52,7.93,7.47,12.53,8.05s6.78,.69,12.65-3.22,7.93-7.59,8.74-11.61c.8-4.02,2.99-20.92,2.99-20.92l-5.52-13.91-17.13-4.83-5.98,.69-6.55,4.71-4.94,7.82-1.03,9.43Z" style="fill:#fff; stroke:#000; stroke-miterlimit:10; stroke-width:1.51px;"/><path d="M48.21,54.97v-2.87s6.5-9.37,6.84-16.73c0,0,13.68,12.3,33.34,8.28v11.32l2.54-1.97s2.75-16.82-7.94-25.44c-10.69-8.62-22.28-5.06-25.63-2.53s-16.33,10.69-9.15,29.95Z"/><circle cx="77.62" cy="52.61" r="1.8"/><circle cx="58.38" cy="52.61" r="1.8"/><path d="M66.47,57.55v3.62c0,1.13,.88,2.11,2.01,2.11,.54,0,1.13-.23,1.67-.91" style="fill:none; stroke:#000; stroke-linecap:round; stroke-linejoin:round; stroke-width:2px;"/><path d="M61.18,66.83s7.74,4.6,14.1,0" style="fill:none; stroke:#000; stroke-linecap:round; stroke-linejoin:round; stroke-width:2px;"/><path d="M72.56,46.88l1.56,1.97,10.5-.19s-3.35-1.66-4.5-1.78-7.56,0-7.56,0Z"/><path d="M63.93,46.88l-1.56,1.97-10.5-.19s3.35-1.66,4.5-1.78,7.56,0,7.56,0Z"/><path d="M48.42,100.52l4.98-3.2s13.39,10.57,29.55,0l4,3.18s-17.69,15.04-38.53,.02Z"/><path d="M39.24,104v25.14l-.7-.33c-1.26-.6-2.49-1.24-3.71-1.91-1.26-.7-2.49-1.44-3.69-2.21v-16.06c2.4-1.65,5.08-3.21,8.1-4.63Z"/><path d="M103.41,107.89v17.32c-1.26,.78-2.54,1.53-3.85,2.23-.89,.48-1.8,.93-2.71,1.37-.51,.24-1.02,.48-1.53,.71v-25.75c2.45,1.04,5.27,2.38,8.1,4.13Z"/><g><ellipse cx="84.09" cy="86.27" rx="1.42" ry="5.41" transform="translate(-36.17 93.33) rotate(-49.09)"/><ellipse cx="84.87" cy="85.87" rx="5.41" ry="1.42" transform="translate(-35.61 93.78) rotate(-49.09)"/><ellipse cx="84.72" cy="92.93" rx="1.42" ry="5.41" transform="translate(-40.99 96.11) rotate(-49.09)"/><ellipse cx="85.5" cy="92.54" rx="5.41" ry="1.42" transform="translate(-40.42 96.56) rotate(-49.09)"/><ellipse cx="85.04" cy="99.85" rx="1.42" ry="5.41" transform="translate(-46.11 98.73) rotate(-49.09)"/><ellipse cx="85.82" cy="99.46" rx="5.41" ry="1.42" transform="translate(-45.54 99.19) rotate(-49.09)"/><ellipse cx="85.68" cy="106.52" rx="1.42" ry="5.41" transform="translate(-50.93 101.51) rotate(-49.09)"/><ellipse cx="86.45" cy="106.12" rx="5.41" ry="1.42" transform="translate(-50.36 101.96) rotate(-49.09)"/><ellipse cx="85.04" cy="106.19" rx="1.42" ry="5.41" transform="translate(-50.91 100.92) rotate(-49.09)"/><ellipse cx="85.82" cy="105.8" rx="5.41" ry="1.42" transform="translate(-50.34 101.37) rotate(-49.09)"/><ellipse cx="85.68" cy="112.86" rx="1.42" ry="5.41" transform="translate(-55.72 103.7) rotate(-49.09)"/><ellipse cx="86.45" cy="112.46" rx="5.41" ry="1.42" transform="translate(-55.16 104.15) rotate(-49.09)"/></g><g><ellipse cx="50.93" cy="84.42" rx="1.42" ry="5.41" transform="translate(-46.22 67.63) rotate(-49.09)"/><ellipse cx="51.71" cy="84.02" rx="5.41" ry="1.42" transform="translate(-45.65 68.08) rotate(-49.09)"/><ellipse cx="51.56" cy="91.08" rx="1.42" ry="5.41" transform="translate(-51.04 70.41) rotate(-49.09)"/><ellipse cx="52.34" cy="90.69" rx="5.41" ry="1.42" transform="translate(-50.47 70.86) rotate(-49.09)"/><ellipse cx="51.88" cy="98" rx="1.42" ry="5.41" transform="translate(-56.16 73.03) rotate(-49.09)"/><ellipse cx="52.66" cy="97.61" rx="5.41" ry="1.42" transform="translate(-55.59 73.48) rotate(-49.09)"/><ellipse cx="52.51" cy="104.67" rx="1.42" ry="5.41" transform="translate(-60.98 75.81) rotate(-49.09)"/><ellipse cx="53.29" cy="104.27" rx="5.41" ry="1.42" transform="translate(-60.41 76.26) rotate(-49.09)"/><ellipse cx="51.88" cy="104.34" rx="1.42" ry="5.41" transform="translate(-60.95 75.22) rotate(-49.09)"/><ellipse cx="52.66" cy="103.95" rx="5.41" ry="1.42" transform="translate(-60.39 75.67) rotate(-49.09)"/><ellipse cx="52.51" cy="111.01" rx="1.42" ry="5.41" transform="translate(-65.77 78) rotate(-49.09)"/><ellipse cx="53.29" cy="110.61" rx="5.41" ry="1.42" transform="translate(-65.2 78.45) rotate(-49.09)"/></g><circle cx="50.93" cy="74.04" r="1.5"/><circle cx="51.38" cy="80.84" r="1.5"/><circle cx="51.4" cy="87.64" r="1.5"/><circle cx="51.4" cy="94.43" r="1.5"/><circle cx="83.93" cy="75.62" r="1.5"/><circle cx="84.25" cy="82.42" r="1.5"/><circle cx="86.35" cy="109.51" r="1.5"/><circle cx="52.43" cy="108.01" r="1.5"/><circle cx="84.71" cy="89.22" r="1.5"/><circle cx="85.43" cy="96.02" r="1.5"/><circle cx="85.43" cy="103.25" r="1.5"/><rect x="48.53" y="111.77" width="8.72" height="3.56" rx="1.62" ry="1.62"/><rect x="81.74" y="113.64" width="8.72" height="3.56" rx="1.62" ry="1.62"/><path d="M50.93,115.33s-1.04,3.24,.48,6.88,1.89,5.18,1.89,5.18v-3.08s1.23,2.35,.63,4.53c0,0,3.45-7.04,.7-13.52l-3.22-1.08-.48,1.08Z"/><path d="M88.02,115.52s1.04,3.24-.48,6.88c-1.52,3.64-1.89,5.18-1.89,5.18v-3.08s-1.23,2.35-.63,4.53c0,0-3.45-7.04-.7-13.52l3.22-1.08,.48,1.08Z"/><path d="M99.55,127.44c-.89,.48-1.8,.93-2.71,1.37-.51,.24-1.02,.48-1.53,.71-7.57,3.39-15.87,5.43-24.61,5.81-1,.05-2,.07-3.01,.07s-2.01-.02-3.01-.07c-9.06-.39-17.66-2.57-25.45-6.19l-.7-.33c-1.26-.6-2.49-1.24-3.71-1.91l.35-1.6s1.41,.87,4.05,2c5.04,2.15,14.57,5.26,27.37,5.12,8.3-.09,17.98-1.55,28.71-5.53,1.33-.49,2.68-1.02,4.05-1.59l.19,2.15Z"/><line x1="66.61" y1="104.34" x2="66.61" y2="134.16" style="fill:none; stroke:#000; stroke-miterlimit:10;"/><circle cx="70.78" cy="111.14" r="1.63"/><circle cx="70.78" cy="119.03" r="1.63"/><circle cx="70.78" cy="126.92" r="1.63"/></g></g></g></svg>