<?xml version="1.0" encoding="UTF-8"?><svg id="Calque_2" xmlns="http://www.w3.org/2000/svg" viewBox="0 0 135.39 136.39"><g id="Layer_1"><g><path d="M66.41,135.29l.03,.09c.42,0,.83,.01,1.25,.01,.32,0,.65,0,.97,0,.68,0,1.36-.03,2.04-.06,9.16-.4,17.84-2.62,25.69-6.3,.15-.07,.3-.14,.45-.21,2.11-1.01,4.15-2.12,6.13-3.33,1.83-1.12,3.61-2.33,5.33-3.62,1.91-1.44,3.75-2.98,5.5-4.61,.06-.05,.13-.11,.19-.18l.16-.15c.13-.12,.26-.24,.38-.37l.03-.03c12.83-12.31,20.82-29.64,20.82-48.83C135.39,30.31,105.08,0,67.69,0S0,30.31,0,67.7c0,19.06,7.87,36.28,20.55,48.57,0,0,.02,.02,.03,.03,.12,.12,.24,.24,.37,.36,.05,.05,.11,.11,.16,.15,.13,.12,.26,.24,.39,.37,.06,.06,.13,.12,.2,.19,1.72,1.59,3.51,3.1,5.39,4.5,3.56,2.67,7.4,5.01,11.46,6.95,7.98,3.81,16.81,6.11,26.15,6.52,.55,.03,1.1,.04,1.64,.05h0l.05-.06,.03-.03Z" style="fill:#efefef;"/><g><g><path d="M87.44,53.86s8.69-4.12,6.15,4.63c-2.54,8.75-7.57,7.23-7.57,7.23" style="fill:#fff; stroke:#000; stroke-miterlimit:10; stroke-width:2px;"/><path d="M91.54,56.23s-2.83-1.21-4.1,1.96c0,0,2.94-.92,1.73,3.92" style="fill:#fff; stroke:#000; stroke-linecap:round; stroke-linejoin:round; stroke-width:2px;"/></g><g><path d="M45.32,53.37s-8.69-4.12-6.15,4.63c2.54,8.75,7.57,7.23,7.57,7.23" style="fill:#fff; stroke:#000; stroke-miterlimit:10; stroke-width:2px;"/><path d="M41.23,55.73s2.83-1.21,4.1,1.96c0,0-2.94-.92-1.73,3.92" style="fill:#fff; stroke:#000; stroke-linecap:round; stroke-linejoin:round; stroke-width:2px;"/></g><path d="M66.39,135.32l-.05,.06h.1l-.03-.09m.03,.1h1.25c.32,0,.65,0,.97,0,.68,0,1.36-.03,2.04-.06,9.16-.4,17.84-2.62,25.69-6.3,.15-.07,.3-.14,.45-.21,2.11-1.01,4.15-2.12,6.13-3.33,1.83-1.12,3.61-2.33,5.33-3.62,1.91-1.44,3.75-2.98,5.5-4.61,.06-.05,.13-.11,.19-.18l.16-.15c.13-.12,.26-.24,.38-.37-.16-.2-.32-.41-.48-.61h0c-2.18-2.74-4.62-5.05-6.96-6.94-.68-.55-1.35-1.06-2.01-1.54-3.64-2.66-7.8-4.55-12.21-5.49-.56-.12-1.09-.25-1.6-.39-2.56-.7-4.62-1.66-6.22-2.61-3.01-1.8-4.38-3.58-4.38-3.58v-17.98l-28.68-.2h-.01v18.18s-1.27,1.78-4.08,3.58c-1.57,1.01-3.63,2.02-6.21,2.73-.13,.04-.27,.08-.41,.11-4.84,1.24-9.4,3.4-13.23,6.6-.24,.19-.47,.39-.71,.6-2.18,1.89-4.46,4.2-6.5,6.94-.08,.11-.17,.23-.25,.35,.12,.12,.24,.24,.37,.36,.05,.05,.11,.11,.16,.15,.13,.12,.26,.24,.39,.37,.06,.06,.13,.12,.2,.19,1.72,1.59,3.51,3.1,5.39,4.5,3.56,2.67,7.4,5.01,11.46,6.95,7.98,3.81,16.81,6.11,26.15,6.52,.55,.03,1.1,.04,1.64,.05" style="fill:none; stroke:#000; stroke-linecap:round; stroke-linejoin:round; stroke-width:2px;"/><circle cx="56.4" cy="23.11" r="15.78"/><ellipse cx="66.44" cy="54.15" rx="21" ry="31.79" style="fill:#fff; stroke:#000; stroke-miterlimit:10; stroke-width:2.31px;"/><path d="M65.12,53.11v9.06s1.18,3.42,4.85,.58" style="fill:none; stroke:#000; stroke-linecap:round; stroke-linejoin:round; stroke-width:2px;"/><path d="M59.52,66.84s7.44,6.29,14.42,.4" style="fill:none; stroke:#000; stroke-linecap:round; stroke-linejoin:round; stroke-width:2px;"/><circle cx="75.79" cy="51.87" r="1.73"/><circle cx="57.79" cy="51.87" r="1.73"/><path d="M69.65,45.04l1.56,1.97,10.5-.19s-3.35-1.66-4.5-1.78-7.56,0-7.56,0Z"/><path d="M62.22,44.99l-1.27,2.21-10.5-.19s3.35-1.66,4.5-1.78,7.27-.24,7.27-.24Z"/><path d="M80.82,77.22v4.91c-1.02,6.35-7.85,11-15.08,9.61-7.11-1.37-12.93-13.78-13.11-14.17,3.7,4.7,8.6,7.56,13.95,7.56s10.49-3,14.23-7.91Z"/><path d="M47.9,98.97l4.46,2.3c9,4.64,19.7,4.57,28.66-.16l4.03-2.13" style="fill:none; stroke:#000; stroke-linecap:round; stroke-linejoin:round; stroke-width:2px;"/><path d="M56.34,36.04l21.18,3.72-5.55-5.83s10.54-3.35,12.15,14.74l1.61,18.09s11.69-24.89,1.72-39.95-41.12-8.42-44.17,6.96c-3.05,15.38,2.17,20.38,2.17,20.38,0,0,3.19-21.02,10.89-18.11Z"/><ellipse cx="57.87" cy="26.58" rx="23.29" ry="8.2" transform="translate(-5.79 24.78) rotate(-23.05)"/><polyline points="66.36 135.29 50.06 115.84 59.41 112.59 59.52 112.55 59.37 112.46 41.69 101.7 36.91 98.79 51.98 88.51 56.46 103.01 59.37 112.46 59.41 112.59 66.39 135.2 66.41 135.29" style="stroke:#000; stroke-miterlimit:10;"/><line x1="66.44" y1="135.39" x2="66.43" y2="135.38" style="fill:none; stroke:#000; stroke-miterlimit:10;"/><line x1="66.44" y1="135.38" x2="66.41" y2="135.29" style="fill:none; stroke:#000; stroke-miterlimit:10;"/><line x1="66.39" y1="135.32" x2="66.34" y2="135.38" style="fill:none; stroke:#000; stroke-miterlimit:10;"/><polyline points="66.36 135.29 66.39 135.2 73.36 112.59 82.71 115.84 66.41 135.29" style="stroke:#000; stroke-miterlimit:10;"/><polygon points="73.4 112.46 73.36 112.59 73.25 112.55 73.4 112.46" style="stroke:#000; stroke-miterlimit:10;"/><polygon points="91.27 101.59 73.4 112.46 76.28 103.13 80.67 88.88 80.79 88.51 95.86 98.79 91.27 101.59" style="stroke:#000; stroke-miterlimit:10;"/></g></g></g></svg>