<?xml version="1.0" encoding="UTF-8"?><svg id="Calque_2" xmlns="http://www.w3.org/2000/svg" viewBox="0 0 135.39 136.39"><g id="Layer_1"><g><path d="M135.39,67.7c0,19.19-7.99,36.52-20.82,48.83,0,0-.02,.02-.03,.03-.13,.13-.25,.25-.38,.37l-.16,.15c-.06,.06-.13,.12-.19,.18-1.75,1.63-3.58,3.17-5.5,4.61-1.71,1.29-3.49,2.5-5.33,3.62-1.98,1.21-4.02,2.32-6.13,3.33-.15,.07-.3,.14-.45,.21-4.79,2.25-9.88,3.95-15.21,5.03l-.36,.07s-.1,.02-.15,.03c-3.25,.63-6.58,1.03-9.98,1.18-.68,.03-1.36,.05-2.04,.06-.32,0-.65,0-.97,0-1.01,0-2.01-.02-3.01-.07-4.35-.19-8.6-.79-12.7-1.77-.22-.05-.43-.1-.65-.16-4.46-1.1-8.74-2.65-12.8-4.59-4.06-1.94-7.89-4.27-11.46-6.95-1.87-1.4-3.67-2.91-5.39-4.5-.07-.06-.13-.13-.2-.19-.13-.13-.26-.25-.39-.37-.05-.05-.11-.1-.16-.15-.12-.12-.24-.24-.37-.35l-.03-.03C7.87,103.97,0,86.75,0,67.7,0,31.9,27.78,2.59,62.96,.16c.02,0,.03,0,.05,0,1.55-.11,3.11-.16,4.68-.16,37.38,0,67.69,30.31,67.69,67.7Z" style="fill:#efeeee;"/><g><g><path d="M86.02,65.72s5.03,1.53,7.57-7.23-6.15-4.63-6.15-4.63" style="fill:#fff; stroke:#000; stroke-miterlimit:10; stroke-width:2px;"/><path d="M91.54,56.23s-2.83-1.21-4.1,1.96c0,0,2.94-.92,1.73,3.92" style="fill:#fff; stroke:#000; stroke-linecap:round; stroke-linejoin:round; stroke-width:2px;"/></g><g><path d="M45.33,53.37s-8.69-4.12-6.15,4.63c2.54,8.75,7.57,7.23,7.57,7.23" style="fill:#fff; stroke:#000; stroke-miterlimit:10; stroke-width:2px;"/><path d="M41.23,55.74s2.83-1.21,4.1,1.96c0,0-2.94-.92-1.73,3.92" style="fill:#fff; stroke:#000; stroke-linecap:round; stroke-linejoin:round; stroke-width:2px;"/></g><path d="M114.54,116.55c-.13,.13-.25,.25-.38,.37l-.16,.15c-.06,.06-.13,.12-.19,.18-1.75,1.63-3.58,3.17-5.5,4.61-1.71,1.29-3.49,2.5-5.33,3.62-1.98,1.21-4.02,2.32-6.13,3.33-.15,.07-.3,.14-.45,.21-4.79,2.25-9.88,3.95-15.21,5.03l-.36,.07s-.1,.02-.15,.03c-3.25,.63-6.58,1.03-9.98,1.18-.68,.03-1.36,.05-2.04,.06-.32,0-.65,0-.97,0-1.01,0-2.01-.02-3.01-.07-4.35-.19-8.6-.79-12.7-1.77-.22-.05-.43-.1-.65-.16-4.46-1.1-8.74-2.65-12.8-4.59-4.06-1.94-7.89-4.27-11.46-6.95-1.87-1.4-3.67-2.91-5.39-4.5-.07-.06-.13-.13-.2-.19-.13-.13-.26-.25-.39-.37-.05-.05-.11-.1-.16-.15-.12-.12-.24-.24-.37-.35,.08-.12,.17-.24,.26-.35,2.05-2.74,4.32-5.05,6.5-6.94,.24-.2,.47-.4,.71-.6,3.84-3.19,8.4-5.36,13.23-6.6,3.91-1,6.65-2.7,8.39-4.1,1.59-1.29,2.32-2.32,2.32-2.32v-18.18h.43l3.84,.03,8.49,.06,3.97,.03,7.53,.05,3.72,.03h.71v17.98s.05,.06,.15,.18c.29,.34,1.02,1.13,2.25,2.06,1.95,1.49,5.15,3.36,9.8,4.34,4.41,.93,8.57,2.83,12.21,5.49,.66,.48,1.33,1,2.02,1.54,2.34,1.89,4.77,4.2,6.96,6.94h0c.16,.2,.32,.4,.47,.6Z" style="fill:#fff; stroke:#000; stroke-linecap:round; stroke-linejoin:round; stroke-width:2px;"/><ellipse cx="66.45" cy="54.15" rx="21" ry="31.79" style="fill:#fff; stroke:#000; stroke-miterlimit:10; stroke-width:2.31px;"/><path d="M65.12,53.11v9.06s1.18,3.42,4.85,.58" style="fill:none; stroke:#000; stroke-linecap:round; stroke-linejoin:round; stroke-width:2px;"/><path d="M60.44,70.43s6.3,3.95,12.02-.04" style="fill:none; stroke:#000; stroke-linecap:round; stroke-linejoin:round; stroke-width:2.26px;"/><circle cx="75.79" cy="51.87" r="1.73"/><circle cx="57.79" cy="51.87" r="1.73"/><path d="M69.65,45.04l1.56,1.97,10.5-.19s-3.35-1.66-4.5-1.78-7.56,0-7.56,0Z"/><path d="M62.96,44.99l-1.27,2.21-10.5-.19s3.35-1.66,4.5-1.78,7.27-.24,7.27-.24Z"/><path d="M78.79,39.35c-.16-5.92-5.71-10.21-11.49-8.93-3.86,.85-8.45,2.14-10.23,3.71-3.3,2.91-3.54,8.1-3.54,8.1l.81-6.88s-2.75,4.06-2.75,9.64c0,0-1.29-2.35-.4-6.4,0,0-5.04,8.01-5.7,13.64l-.49,1s-5.07-2.98-2.72-15.85c2.35-12.87,17.33-26.4,29.8-20.08,12.47,6.32,17.56,19.5,17.42,27.7-.14,8.19-2.05,9.47-2.05,9.47,0,0-.88-11.66-5.74-14.82,0,0-1.05,3.17-.48,5.35,0,0-1.94-4.38-1.38-9.15,0,0-1.13,1.78-1.05,3.64,0,0,0-.05,0-.13Z"/><circle cx="73.31" cy="14.25" r="11.03"/><path d="M51.99,133.56v-38.16s11.82,14.41,28.69,0v38.75" style="fill:none; stroke:#000; stroke-linecap:round; stroke-linejoin:round; stroke-width:2px;"/><path d="M51.99,95.4v38.16c-.22-.05-.43-.1-.65-.16l-10.81-26.59,9.14-9.1,2.32-2.32Z"/><polygon points="81.19 134.05 91.78 106.31 83.07 97.63 80.83 95.4 80.83 95.57 80.83 134.12 81.19 134.05"/><rect x="64.33" y="18.66" width="14.57" height="1.7" rx=".78" ry=".78" transform="translate(12.25 -25.04) rotate(21.64)" style="fill:#fff;"/><path d="M84.18,16.09s-2.03,4.57,.81,10c0,0-4.62-4.29-3.64-9.15s2.84-.85,2.84-.85Z"/><path d="M82.74,13.3s-.42,4.98,4.03,9.18c0,0-5.77-2.54-6.44-7.45-.67-4.91,2.4-1.73,2.4-1.73Z"/><path d="M63.72,10.06s2.03-4.57-.81-10c0,0,4.62,4.29,3.64,9.15-.97,4.86-2.84,.85-2.84,.85Z"/><path d="M65.16,12.85s.42-4.98-4.03-9.18c0,0,5.77,2.54,6.44,7.45s-2.4,1.73-2.4,1.73Z"/><path d="M45.33,57.7h0c1.42,1.64,2.53,3.53,3.29,5.57,2.21,5.97,8.05,19.05,16.96,19.43,9.65,.41,15.2-11.22,17.63-18.31,.88-2.56,2.14-4.97,3.76-7.13l.41-.54s1.27,10.44-6.55,20.52c-7.82,10.08-14.28,9.37-19.72,7.53-5.44-1.84-11.28-11.18-11.28-11.18,0,0-4.66-10.4-4.5-15.87Z"/><path d="M52.64,72.81s1.98-7.27,10.73-7.48c8.74-.21,13.56,.03,17.31,7.48,0,0-5.24-4.33-11.64-4.51-6.4-.19-11.73,.3-16.39,4.51Z"/><rect x="64.75" y="74.91" width="3.97" height="9.45" rx="1.81" ry="1.81"/><path d="M80.68,77.42v9.64c-2.51,1.91-5.74,3.3-9.86,3.48-14.57,.65-18.83-12.39-18.83-12.39,14.09,12.45,23.82,4.39,27.98-.74h.71Z"/><circle cx="46.04" cy="107.58" r="1.88" style="fill:#fff;"/><circle cx="86.85" cy="107.58" r="1.88" style="fill:#fff;"/></g></g></g></svg>