<?xml version="1.0" encoding="UTF-8"?><svg id="Calque_2" xmlns="http://www.w3.org/2000/svg" viewBox="0 0 135.39 136.39"><g id="Layer_1"><g><path d="M135.39,67.7c0,19.21-8,36.54-20.85,48.86h0c-.13,.13-.25,.24-.38,.37-1.86,1.75-3.81,3.4-5.85,4.94-3.56,2.67-7.4,5.01-11.46,6.95-8.83,4.22-18.71,6.58-29.15,6.58s-20.32-2.36-29.15-6.58c-4.06-1.94-7.89-4.27-11.46-6.95-2.09-1.57-4.08-3.26-5.98-5.06-.05-.05-.11-.1-.16-.15-.12-.12-.24-.23-.37-.35h0C7.89,104,0,86.77,0,67.7,0,30.31,30.3,0,67.69,0s67.69,30.31,67.69,67.7Z" style="fill:#efeeee;"/><g><g><path d="M87.44,53.86s8.69-4.12,6.15,4.63c-2.54,8.75-7.57,7.23-7.57,7.23" style="fill:#fff; stroke:#000; stroke-miterlimit:10; stroke-width:2px;"/><path d="M91.54,56.23s-2.83-1.21-4.1,1.96c0,0,2.94-.92,1.73,3.92" style="fill:#fff; stroke:#000; stroke-linecap:round; stroke-linejoin:round; stroke-width:2px;"/></g><g><path d="M45.32,53.37s-8.69-4.12-6.15,4.63c2.54,8.75,7.57,7.23,7.57,7.23" style="fill:#fff; stroke:#000; stroke-miterlimit:10; stroke-width:2px;"/><path d="M41.23,55.73s2.83-1.21,4.1,1.96c0,0-2.94-.92-1.73,3.92" style="fill:#fff; stroke:#000; stroke-linecap:round; stroke-linejoin:round; stroke-width:2px;"/></g><path d="M114.54,116.56h0c-.13,.13-.25,.24-.38,.37-1.86,1.75-3.81,3.4-5.85,4.94-3.56,2.67-7.4,5.01-11.46,6.95-8.83,4.22-18.71,6.58-29.15,6.58s-20.32-2.36-29.15-6.58c-4.06-1.94-7.89-4.27-11.46-6.95-2.09-1.57-4.08-3.26-5.98-5.06-.05-.05-.11-.1-.16-.15-.12-.12-.24-.23-.37-.35h0c.08-.12,.17-.24,.25-.35,2.05-2.75,4.32-5.05,6.5-6.94,.24-.21,.47-.41,.71-.6,3.84-3.19,8.4-5.36,13.23-6.6,2.5-.64,4.53-1.57,6.12-2.53,.05-.03,.11-.06,.16-.09,.74-.45,1.38-.91,1.92-1.34,1.72-1.35,2.51-2.46,2.51-2.46v-18.18h.01l28.68,.2v17.97h0c.07,.09,.97,1.23,2.85,2.58,.39,.29,.83,.57,1.31,.87l.03,.02c1.94,1.18,4.58,2.39,8.01,3.12,4.41,.94,8.56,2.83,12.21,5.49,.66,.48,1.33,1,2.01,1.55,2.34,1.89,4.78,4.2,6.96,6.94h0c.16,.2,.32,.4,.48,.61Z" style="fill:#fff; stroke:#000; stroke-linecap:round; stroke-linejoin:round; stroke-width:2px;"/><ellipse cx="66.44" cy="54.15" rx="21" ry="31.79" style="fill:#fff; stroke:#000; stroke-miterlimit:10; stroke-width:2.31px;"/><path d="M65.12,53.11v9.06s1.18,3.42,4.85,.58" style="fill:none; stroke:#000; stroke-linecap:round; stroke-linejoin:round; stroke-width:2px;"/><path d="M59.52,66.84s7.44,6.29,14.42,.4" style="fill:none; stroke:#000; stroke-linecap:round; stroke-linejoin:round; stroke-width:2px;"/><circle cx="75.79" cy="51.87" r="1.73"/><circle cx="57.79" cy="51.87" r="1.73"/><path d="M69.64,45.04l1.56,1.97,10.5-.19s-3.35-1.66-4.5-1.78-7.56,0-7.56,0Z"/><path d="M62.95,44.99l-1.27,2.21-10.5-.19s3.35-1.66,4.5-1.78,7.27-.24,7.27-.24Z"/><path d="M80.82,77.22v4.91c-1.02,6.35-7.85,11-15.08,9.61-7.11-1.37-12.93-13.78-13.11-14.17,3.7,4.7,8.6,7.56,13.95,7.56s10.49-3,14.23-7.91Z"/><path d="M51.98,95.39s14.09,15.51,28.69,0" style="fill:#fff; stroke:#000; stroke-miterlimit:10; stroke-width:2.31px;"/><path d="M47.39,99.29s7.78,9.59,19.34,9.65c11.68,.06,18.1-10.09,18.1-10.09" style="fill:none; stroke:#000; stroke-linecap:round; stroke-linejoin:round; stroke-width:2px;"/><path d="M114.54,116.56h0c-.13,.13-.25,.24-.38,.37-1.86,1.75-3.81,3.4-5.85,4.94-3.56,2.67-7.4,5.01-11.46,6.95-8.83,4.22-18.71,6.58-29.15,6.58s-20.32-2.36-29.15-6.58c-4.06-1.94-7.89-4.27-11.46-6.95-2.09-1.57-4.08-3.26-5.98-5.06-.05-.05-.11-.1-.16-.15-.12-.12-.24-.23-.37-.35h0c.08-.12,.17-.24,.25-.35,2.05-2.75,4.32-5.05,6.5-6.94,.24-.21,.47-.41,.71-.6,3.84-3.19,8.4-5.36,13.23-6.6,2.5-.64,4.53-1.57,6.12-2.53,.05-.03,.11-.06,.16-.09,.58,.75,1.34,1.64,2.29,2.59,3.01,2.96,7.94,6.39,15.14,7.16,1.99,.21,3.9,.05,5.69-.38,.03,0,.05,0,.08-.02,6.18-1.48,11.06-6.09,13.91-9.44,0,0,0,0,0-.01,.07-.08,.13-.16,.2-.23,1.94,1.18,4.58,2.39,8.01,3.12,4.41,.94,8.56,2.83,12.21,5.49,.66,.48,1.33,1,2.01,1.55,2.34,1.89,4.78,4.2,6.96,6.94h0c.16,.2,.32,.4,.48,.61Z" style="fill:#fff; stroke:#000; stroke-linecap:round; stroke-linejoin:round; stroke-width:2px;"/><path d="M52.64,41.08s-5.48,7.16-5.16,14.91c0,0-1.3-14.1,1.46-19.61,0,0-3.93,12.57-3.62,19.12,0,0-10.47-17.5-1.08-30.62,9.39-13.12,25.4-14.09,25.4-14.09,0,0-2.77,1.13-4.53,3.4,0,0,10.32-3.72,16.58,.65l3.19,2.91-4.07-.97s16.38,16.13,7.06,38.17c0,0-2.55-12.59-7.06-15.34,0,0,2.77,4.52,1.8,10.52,0,0-.49-7.45-5.11-11.25s-18.75-7.2-24.88,2.19Z"/><rect x="45.33" y="31.44" width="42" height="8.74" rx="3.99" ry="3.99" style="fill:#fcfdff; stroke:#000; stroke-miterlimit:10;"/><path d="M56.06,28.29s-7.51,2.88-8.61,14.39c0,0-2.72-.8-2.72-6.87s7.91-10.28,7.91-10.28l3.42,2.75Z"/><path d="M79.39,25.54s11.79,4.7,10.1,12.47l-3.25,5.51s-1.67-11.01-10.56-15.71c-8.83-4.66,3.71-2.27,3.71-2.27Z"/><line x1="46.74" y1="40.19" x2="85.79" y2="40.19" style="fill:none; stroke:#000; stroke-miterlimit:10; stroke-width:2px;"/><line x1="50.39" y1="33.65" x2="85.79" y2="33.65" style="fill:none; stroke:#000; stroke-miterlimit:10; stroke-width:2px;"/><line x1="48.09" y1="36.39" x2="87.33" y2="36.39" style="fill:none; stroke:#000; stroke-miterlimit:10; stroke-width:2px;"/></g></g></g></svg>