<?xml version="1.0" encoding="UTF-8"?><svg id="Calque_2" xmlns="http://www.w3.org/2000/svg" viewBox="0 0 135.39 136.39"><g id="Layer_1"><g><path d="M135.39,67.7c0,19.17-7.97,36.48-20.78,48.79-.01,.02-.03,.03-.04,.04-.13,.13-.27,.27-.41,.4l-.16,.15c-.06,.06-.13,.12-.19,.18-1.75,1.63-3.58,3.17-5.5,4.61-1.6,1.2-3.26,2.34-4.96,3.39-.12,.08-.24,.15-.36,.23-1.98,1.21-4.02,2.32-6.13,3.33-.15,.07-.3,.14-.45,.21-7.86,3.69-16.54,5.91-25.69,6.3-.68,.03-1.36,.05-2.04,.06-.32,0-.65,0-.97,0-1.01,0-2.01-.02-3.01-.07-9.33-.4-18.17-2.7-26.15-6.52-4.06-1.94-7.89-4.27-11.46-6.95-1-.75-1.97-1.53-2.93-2.33-.84-.7-1.66-1.43-2.46-2.17-.07-.06-.13-.13-.2-.19-.08-.08-.17-.16-.26-.24-.05-.04-.09-.08-.13-.13-.05-.05-.11-.1-.16-.15-.13-.13-.27-.25-.4-.38C7.87,103.97,0,86.75,0,67.7,0,30.31,30.3,0,67.69,0s67.69,30.31,67.69,67.7Z" style="fill:#efeeee;"/><g><path d="M114.61,116.49s-.03,.03-.04,.04c-.13,.13-.27,.27-.41,.4l-.16,.15c-.06,.06-.13,.12-.19,.18-1.75,1.63-3.58,3.17-5.5,4.61-1.6,1.2-3.26,2.34-4.96,3.39-.98-.41-1.82-.75-2.51-1.02h0c-1.49-.59-2.3-.89-2.3-.89l-6.17-1.05-56.26-9.62s-7.14,4.71-11.93,6.87c-.84-.7-1.66-1.43-2.46-2.17-.07-.06-.13-.13-.2-.19-.08-.08-.17-.16-.26-.24,2.34-4.29,5.37-9.35,8.29-13.59,1.65-2.4,2.67-2.85,4.07-5.17,1.63-2.71-.84-7.24-1.61-9.91-2.96-10.35,13.38-15.5,10.28-26-2.06-6.96-1.34-26.11,9.59-36.32,10.94-10.21,30.62-3.96,30.62-3.96,0,0,14.81,5.77,14.09,25.75-.73,19.97-7.24,14.87,.03,23.86,7.26,8.99,8.24,10.23,7.26,15.8-.97,5.57-4.98,6.06,.32,11.4,3.09,3.11,7.89,10.89,10.43,17.68Z"/><path d="M113.99,117.08c-.06,.06-.13,.12-.19,.18-1.75,1.63-3.58,3.17-5.5,4.61-1.6,1.2-3.26,2.34-4.96,3.39-.12,.08-.24,.15-.36,.23-1.98,1.21-4.02,2.32-6.13,3.33-.15,.07-.3,.14-.45,.21-7.86,3.69-16.54,5.91-25.69,6.3-.68,.03-1.36,.05-2.04,.06-.32,0-.65,0-.97,0-1.01,0-2.01-.02-3.01-.07-9.33-.4-18.17-2.7-26.15-6.52-4.06-1.94-7.89-4.27-11.46-6.95-1-.75-1.97-1.53-2.93-2.33-.84-.7-1.66-1.43-2.46-2.17-.07-.06-.13-.13-.2-.19,2.51-2.94,5.68-5.92,9.64-8.66,2.4-1.65,5.08-3.21,8.1-4.63,2.77-1.3,5.82-2.48,9.18-3.48l8.16-5.95v-16.71h22.84v16.26s1.64,1.56,3.53,3.21l.08,.06c1.36,1.18,2.83,2.4,3.92,3.11h0c.35,.23,.65,.4,.9,.51,.87,.38,3.76,1.21,7.46,2.76,2.45,1.04,5.27,2.38,8.1,4.13,3.37,2.08,6.76,4.72,9.58,8.06,.35,.41,.68,.82,1,1.23Z" style="fill:#fff; stroke:#000; stroke-linecap:round; stroke-linejoin:round; stroke-width:2px;"/><path d="M56.58,78.27s9.05,10.04,16.26,9.07c7.21-.97,6.23-3,6.23-3l.35-6.59-22.84,.52Z"/><g><path d="M48.48,55.04s-1.6-3.38-4.8-1.66c-3.2,1.73-.39,10.37,3.2,12.02s2.96-1.07,2.96-1.07" style="fill:#fff; stroke:#000; stroke-linecap:round; stroke-linejoin:round; stroke-width:2px;"/><path d="M44.37,56.78s3.71-.05,4.77,3" style="fill:#fff; stroke:#000; stroke-linecap:round; stroke-linejoin:round; stroke-width:2px;"/><path d="M46.57,61.64s-1.45-2.57,1-3.64" style="fill:#fff; stroke:#000; stroke-linecap:round; stroke-linejoin:round; stroke-width:2px;"/></g><g><path d="M88.59,55.04s1.6-3.38,4.8-1.66,.39,10.37-3.2,12.02-2.96-1.07-2.96-1.07" style="fill:#fff; stroke:#000; stroke-linecap:round; stroke-linejoin:round; stroke-width:2px;"/><path d="M92.7,56.78s-3.71-.05-4.77,3" style="fill:#fff; stroke:#000; stroke-linecap:round; stroke-linejoin:round; stroke-width:2px;"/><path d="M90.5,61.64s1.45-2.57-1-3.64" style="fill:#fff; stroke:#000; stroke-linecap:round; stroke-linejoin:round; stroke-width:2px;"/></g><path d="M48.61,50.09s-1.03,18.28,4.25,23.8c5.29,5.52,7.93,7.47,12.53,8.05,4.6,.57,6.78,.69,12.65-3.22,5.86-3.91,7.93-7.59,8.74-11.61,.8-4.02,2.99-20.92,2.99-20.92l-5.52-13.91-17.13-4.83-5.98,.69-6.55,4.71-4.94,7.82-1.03,9.43Z" style="fill:#fff; stroke:#000; stroke-miterlimit:10; stroke-width:1.51px;"/><path d="M48.21,54.87v-2.87s6.5-9.37,6.84-16.73c0,0,13.68,12.3,33.34,8.28v11.32l2.54-1.97s2.75-16.82-7.94-25.44c-10.69-8.62-22.28-5.06-25.63-2.53-3.34,2.53-16.33,10.69-9.15,29.95Z"/><circle cx="77.62" cy="52.51" r="1.8"/><circle cx="58.38" cy="52.51" r="1.8"/><path d="M66.47,57.45v3.62c0,1.13,.88,2.11,2.01,2.11,.54,0,1.13-.23,1.67-.91" style="fill:none; stroke:#000; stroke-linecap:round; stroke-linejoin:round; stroke-width:2px;"/><path d="M61.18,66.72s7.74,4.6,14.1,0" style="fill:none; stroke:#000; stroke-linecap:round; stroke-linejoin:round; stroke-width:2px;"/><path d="M72.56,46.78l1.56,1.97,10.5-.19s-3.35-1.66-4.5-1.78-7.56,0-7.56,0Z"/><path d="M63.93,46.78l-1.56,1.97-10.5-.19s3.35-1.66,4.5-1.78,7.56,0,7.56,0Z"/><path d="M48.42,100.41l4.98-3.2s13.39,10.57,29.55,0l4,3.18s-17.69,15.04-38.53,.02Z"/><rect x="83.13" y="122.29" width="17.81" height="2.75" rx="1.26" ry="1.26" style="fill:none; stroke:#000; stroke-miterlimit:10; stroke-width:3px;"/></g></g></g></svg>