<?xml version="1.0" encoding="UTF-8"?><svg id="Calque_2" xmlns="http://www.w3.org/2000/svg" viewBox="0 0 135.39 136.39"><g id="Layer_1"><g><path d="M135.39,67.7c0,19.17-7.97,36.48-20.78,48.79-.01,.02-.03,.03-.04,.04-.13,.13-.27,.27-.41,.4l-.16,.15c-.06,.06-.13,.12-.19,.18,0,0-.01,0-.02,.02-1.75,1.62-3.57,3.16-5.48,4.59-1.6,1.2-3.26,2.34-4.96,3.39-.12,.08-.24,.15-.36,.23-1.98,1.21-4.02,2.32-6.13,3.33-.15,.07-.3,.14-.45,.21-7.86,3.69-16.54,5.91-25.69,6.3-.59,.03-1.18,.05-1.78,.05-.08,0-.17,0-.26,0-.32,0-.65,0-.97,0h-.03c-1,0-1.99-.02-2.98-.07-9.33-.4-18.17-2.7-26.15-6.52-4.06-1.94-7.89-4.27-11.46-6.95-1-.75-1.97-1.53-2.93-2.33-.83-.7-1.64-1.41-2.44-2.15,0,0-.01,0-.02-.02-.07-.06-.13-.13-.2-.19-.08-.08-.17-.16-.26-.24-.05-.04-.09-.08-.13-.13-.05-.05-.11-.1-.16-.15-.13-.13-.27-.25-.4-.38C7.87,103.97,0,86.75,0,67.7,0,30.31,30.3,0,67.69,0s67.69,30.31,67.69,67.7Z" style="fill:#efefef;"/><g><path d="M71.24,19.92s-3.3-5.97-10.32-6.19c-5.78-.18-15.05,4.38-18.64,11.97-7.96,16.81-4.31,88.96-4.31,88.96l25.96-6.21,7.31-88.53Z"/><line x1="88.58" y1="55.86" x2="85.22" y2="51.58" style="fill:none; stroke:#000; stroke-miterlimit:10;"/><path d="M113.78,117.27c-1.75,1.62-3.57,3.16-5.48,4.59-1.6,1.2-3.26,2.34-4.96,3.39-.12,.08-.24,.15-.36,.23-1.98,1.21-4.02,2.32-6.13,3.33-.15,.07-.3,.14-.45,.21-7.86,3.69-16.54,5.91-25.69,6.3-.59,.03-1.18,.05-1.78,.05-.08,0-.17,0-.26,0-.32,0-.65,0-.97,0h-.03c-1,0-1.99-.02-2.98-.07-9.33-.4-18.17-2.7-26.15-6.52-4.06-1.94-7.89-4.27-11.46-6.95-1-.75-1.97-1.53-2.93-2.33-.83-.7-1.64-1.41-2.44-2.15,2.48-2.86,5.57-5.75,9.42-8.4,1.95-1.35,4.09-2.63,6.44-3.82,.54-.28,1.09-.55,1.65-.81,.67-.31,1.35-.62,2.05-.92h.02c1.94-.84,4.01-1.6,6.22-2.29h.04c.28-.1,.57-.19,.85-.27l8.16-5.95v-16.71h22.84v16.26s4.91,4.67,7.53,6.39c.35,.23,.65,.4,.9,.51,.17,.07,.42,.16,.73,.27,.29,.1,.64,.22,1.03,.35l.11,.04c1.17,.4,2.76,.95,4.6,1.69l.05,.02c.16,.06,.33,.13,.5,.2,.14,.06,.29,.12,.43,.18,2.45,1.04,5.27,2.38,8.1,4.13,3.37,2.08,6.76,4.72,9.58,8.06,.27,.32,.54,.65,.8,.97Z" style="fill:#fff; stroke:#000; stroke-linecap:round; stroke-linejoin:round; stroke-width:2px;"/><path d="M56.58,78.72s9.05,10.04,16.26,9.07,6.23-3,6.23-3l.35-6.59-22.84,.52Z"/><g><path d="M48.48,55.49s-1.6-3.38-4.8-1.66-.39,10.37,3.2,12.02c3.59,1.65,2.96-1.07,2.96-1.07" style="fill:#fff; stroke:#000; stroke-linecap:round; stroke-linejoin:round; stroke-width:2px;"/><path d="M44.37,57.23s3.71-.05,4.77,3" style="fill:#fff; stroke:#000; stroke-linecap:round; stroke-linejoin:round; stroke-width:2px;"/><path d="M46.56,62.09s-1.45-2.57,1-3.64" style="fill:#fff; stroke:#000; stroke-linecap:round; stroke-linejoin:round; stroke-width:2px;"/></g><g><path d="M88.59,55.49s1.6-3.38,4.8-1.66,.39,10.37-3.2,12.02c-3.59,1.65-2.96-1.07-2.96-1.07" style="fill:#fff; stroke:#000; stroke-linecap:round; stroke-linejoin:round; stroke-width:2px;"/><path d="M92.7,57.23s-3.71-.05-4.77,3" style="fill:#fff; stroke:#000; stroke-linecap:round; stroke-linejoin:round; stroke-width:2px;"/><path d="M90.5,62.09s1.45-2.57-1-3.64" style="fill:#fff; stroke:#000; stroke-linecap:round; stroke-linejoin:round; stroke-width:2px;"/></g><path d="M48.61,50.55s-1.03,18.28,4.25,23.8c5.29,5.52,7.93,7.47,12.53,8.05,4.6,.57,6.78,.69,12.65-3.22,5.86-3.91,7.93-7.59,8.74-11.61s2.99-20.92,2.99-20.92l-5.52-13.91-17.13-4.83-5.98,.69-6.55,4.71-4.94,7.82-1.03,9.43Z" style="fill:#fff; stroke:#000; stroke-miterlimit:10; stroke-width:1.51px;"/><circle cx="77.62" cy="52.96" r="1.8"/><circle cx="58.38" cy="52.96" r="1.8"/><path d="M66.47,57.9v3.62c0,1.13,.88,2.11,2.01,2.11,.54,0,1.13-.23,1.67-.91" style="fill:none; stroke:#000; stroke-linecap:round; stroke-linejoin:round; stroke-width:2px;"/><path d="M61.18,67.18s7.74,4.6,14.1,0" style="fill:none; stroke:#000; stroke-linecap:round; stroke-linejoin:round; stroke-width:2px;"/><path d="M72.56,47.23l1.56,1.97,10.5-.19s-3.35-1.66-4.5-1.78-7.56,0-7.56,0Z"/><path d="M63.93,47.23l-1.56,1.97-10.5-.19s3.35-1.66,4.5-1.78,7.56,0,7.56,0Z"/><path d="M87.85,101.36s-.02,.01-.03,.02c-21.89,14.57-38.64,.17-39.38-.48l-.03-.03" style="fill:none; stroke:#000; stroke-miterlimit:10; stroke-width:2px;"/><circle cx="58.38" cy="51.58" r="7.61" style="fill:none; stroke:#000; stroke-miterlimit:10;"/><circle cx="77.62" cy="51.16" r="7.61" style="fill:none; stroke:#000; stroke-miterlimit:10;"/><line x1="66" y1="51.58" x2="70" y2="51.58" style="fill:none; stroke:#000; stroke-miterlimit:10;"/><line x1="50.77" y1="51.58" x2="48.53" y2="55.86" style="fill:none; stroke:#000; stroke-miterlimit:10;"/><polygon points="68.92 134.16 68.39 134.58 67.66 134 48.42 118.87 52.86 115.79 39.26 115.79 41.29 103.43 47.57 101.13 68.24 133.11 68.92 134.16"/><polygon points="83.31 116.27 87.75 119.35 68.92 134.16 68.39 134.58 67.66 134 68.24 133.11 88.6 101.61 94.87 103.91 96.91 116.27 83.31 116.27"/><path d="M68.92,133.54v1.83c-.08,0-.17,0-.26,0-.32,0-.65,0-.97,0h-.03v-1.85h1.25Z"/><path d="M53.02,39.96h12.39l2.3-5.59-1.25,5.59h11.15l.97-4.49v4.49h6.03s3.63,16.03,1.2,24.65c0,0,1.65-12.72,1.37-18.95-.27-6.22,1.42,13.09-.83,23.55,0,0,5.49-16.75,3.14-32.05-2.35-15.3-28.35-20.65-38.73-6.07-10.38,14.57-.54,38.12-.54,38.12,0,0-1.94-16.82-1.09-23.46l1.21,16.33s-1.11-14.96,.42-21.76l2.25-.36Z"/><rect x="56.58" y="19.92" width="21.04" height="4.22" rx="1.92" ry="1.92"/></g></g></g></svg>