<?xml version="1.0" encoding="UTF-8"?><svg id="Calque_2" xmlns="http://www.w3.org/2000/svg" viewBox="0 0 135.39 136.39"><g id="Layer_1"><g><path d="M135.39,67.7c0,19.19-7.99,36.52-20.82,48.83-.11,.11-.23,.22-.34,.33-.03,.02-.05,.05-.07,.07l-.16,.15c-.06,.06-.13,.12-.19,.18-1.75,1.63-3.58,3.17-5.5,4.61-1.71,1.29-3.49,2.5-5.33,3.62-1.98,1.21-4.02,2.32-6.13,3.33-.15,.07-.3,.14-.45,.21-7.86,3.69-16.54,5.91-25.69,6.3h-.36c-.56,.04-1.12,.05-1.68,.06-.32,0-.65,0-.97,0-1.01,0-2.01-.02-3.01-.07-.48-.02-.97-.05-1.45-.08-8.8-.57-17.13-2.82-24.7-6.44-4.06-1.94-7.89-4.27-11.46-6.95-1.87-1.4-3.67-2.91-5.39-4.5-.07-.06-.13-.13-.2-.19-.13-.13-.26-.25-.39-.37-.05-.05-.11-.1-.16-.15-.02-.02-.05-.04-.07-.06-.11-.11-.22-.21-.33-.32C7.87,103.97,0,86.75,0,67.7,0,30.31,30.3,0,67.69,0s67.69,30.31,67.69,67.7Z" style="fill:#efefef;"/><g><path d="M114.22,116.86s-.05,.05-.07,.07l-.16,.15c-.06,.06-.13,.12-.19,.18-1.75,1.63-3.58,3.17-5.5,4.61-1.71,1.29-3.49,2.5-5.33,3.62-1.98,1.21-4.02,2.32-6.13,3.33-.15,.07-.3,.14-.45,.21-7.86,3.69-16.54,5.91-25.69,6.3h-.36c-.56,.04-1.12,.05-1.68,.06-.32,0-.65,0-.97,0-1.01,0-2.01-.02-3.01-.07-.48-.02-.97-.05-1.45-.08-8.8-.57-17.13-2.82-24.7-6.44-4.06-1.94-7.89-4.27-11.46-6.95-1.87-1.4-3.67-2.91-5.39-4.5-.07-.06-.13-.13-.2-.19-.13-.13-.26-.25-.39-.37-.05-.05-.11-.1-.16-.15-.02-.02-.05-.04-.07-.06,2.03-2.72,4.29-5,6.45-6.88,.24-.2,.48-.4,.71-.6,3.84-3.19,8.4-5.36,13.23-6.6,1.52-.39,2.87-.89,4.05-1.43,.97-.45,1.83-.93,2.58-1.41,2.81-1.8,4.08-3.58,4.08-3.58v-18.18h.02l28.67,.2v17.98s1.37,1.78,4.37,3.58c1.92,1.15,4.5,2.3,7.83,3.01,4.41,.93,8.56,2.83,12.21,5.49,.66,.48,1.33,1,2.01,1.54,2.34,1.89,4.78,4.2,6.96,6.94h0c.05,.07,.11,.13,.16,.21Z" style="fill:#fff; stroke:#000; stroke-linecap:round; stroke-linejoin:round; stroke-width:2px;"/><g><path d="M87.44,54.56s8.69-4.12,6.15,4.63c-2.54,8.75-7.57,7.23-7.57,7.23" style="fill:#fff; stroke:#000; stroke-miterlimit:10; stroke-width:2px;"/><path d="M91.54,56.93s-2.83-1.21-4.1,1.96c0,0,2.94-.92,1.73,3.92" style="fill:#fff; stroke:#000; stroke-linecap:round; stroke-linejoin:round; stroke-width:2px;"/></g><g><path d="M45.32,54.07s-8.69-4.12-6.15,4.63c2.54,8.75,7.57,7.23,7.57,7.23" style="fill:#fff; stroke:#000; stroke-miterlimit:10; stroke-width:2px;"/><path d="M41.23,56.43s2.83-1.21,4.1,1.96c0,0-2.94-.92-1.73,3.92" style="fill:#fff; stroke:#000; stroke-linecap:round; stroke-linejoin:round; stroke-width:2px;"/></g><ellipse cx="66.44" cy="54.85" rx="21" ry="31.79" style="fill:#fff; stroke:#000; stroke-miterlimit:10; stroke-width:2.31px;"/><path d="M65.12,53.81v9.06s1.18,3.42,4.85,.58" style="fill:none; stroke:#000; stroke-linecap:round; stroke-linejoin:round; stroke-width:2px;"/><path d="M59.52,67.54s7.44,6.29,14.42,.4" style="fill:none; stroke:#000; stroke-linecap:round; stroke-linejoin:round; stroke-width:2px;"/><circle cx="75.79" cy="52.57" r="1.73"/><circle cx="56.82" cy="52.57" r="1.73"/><path d="M69.65,45.74l1.56,1.97,10.5-.19s-3.35-1.66-4.5-1.78-7.56,0-7.56,0Z"/><path d="M62.22,45.69l-1.27,2.21-10.5-.19s3.35-1.66,4.5-1.78,7.27-.24,7.27-.24Z"/><path d="M80.82,77.92v4.91c-1.02,6.35-7.85,11-15.08,9.61-7.11-1.37-12.93-13.78-13.11-14.17,3.7,4.7,8.6,7.56,13.95,7.56s10.49-3,14.23-7.91Z"/><path d="M64.17,31.91s-1.15,3.56-8.1,7.13c0,0,2.36-2.55,2.84-4.49,0,0-4.13,2.43-4.62,6.07,0,0-2.08-1.34-1.65-3.16,0,0-.18,5.26-4.31,9.25-4.13,3.99-2.86,6.4-2.86,6.4l.22,6.66s-1.78-9.96-2.97-14.07c-2.93-10.11,1.32-21.47,10.61-26.74,7.42-4.21,15.74-3.5,23.56-.88,2.95,.99,5.88,2.26,8.17,4.37,4.11,3.79,5.14,10.3,4.97,15.42-.55,17-2.6,20.49-2.6,20.49,0,0,.2-8.87-1.42-9.84s-7.86-5.59-8.5-10.44l-.64-5.1s-1.93,3.04-1.09,4.62,0,.61,0,.61c0,0-4.74-1.58-4.86-4.86,0,0-1.09,2.67,.36,4.01,0,0-6.6,.69-7.13-5.42Z"/><line x1="63.24" y1="135.24" x2="45.33" y2="101.08" style="fill:none; stroke:#000; stroke-miterlimit:10; stroke-width:2px;"/><line x1="87.44" y1="101.08" x2="70.34" y2="135.34" style="fill:none; stroke:#000; stroke-miterlimit:10; stroke-width:2px;"/><path d="M47.9,99.67s17.14,12.3,37.14,0" style="fill:none; stroke:#000; stroke-miterlimit:10; stroke-width:2px;"/><circle cx="76.59" cy="132.44" r="2.11"/></g></g></g></svg>