<?xml version="1.0" encoding="UTF-8"?><svg id="Calque_2" xmlns="http://www.w3.org/2000/svg" viewBox="0 0 135.39 136.39"><g id="Layer_1"><g><path d="M135.39,67.7c0,19.19-7.99,36.52-20.82,48.83-.13,.13-.27,.27-.41,.4l-.16,.15c-.06,.06-.13,.12-.19,.18-1.75,1.63-3.58,3.17-5.5,4.61-1.71,1.29-3.49,2.5-5.33,3.62-1.98,1.21-4.02,2.32-6.13,3.33-.15,.07-.3,.14-.45,.21-7.86,3.69-16.54,5.91-25.69,6.3-.68,.03-1.36,.05-2.04,.06-.32,0-.65,0-.97,0-1.01,0-2.01-.02-3.01-.07-9.33-.4-18.17-2.7-26.15-6.52-4.06-1.94-7.89-4.27-11.46-6.95-1.87-1.4-3.67-2.91-5.39-4.5-.07-.06-.13-.13-.2-.19-.13-.13-.26-.25-.39-.37-.05-.05-.11-.1-.16-.15-.13-.13-.27-.25-.4-.38C7.87,103.97,0,86.75,0,67.7,0,30.31,30.3,0,67.69,0s67.69,30.31,67.69,67.7Z" style="fill:#efefef;"/><g><g><path d="M87.44,54.72s8.69-4.12,6.15,4.63c-2.54,8.75-7.57,7.23-7.57,7.23" style="fill:#fff; stroke:#000; stroke-miterlimit:10; stroke-width:2px;"/><path d="M91.54,57.08s-2.83-1.21-4.1,1.96c0,0,2.94-.92,1.73,3.92" style="fill:#fff; stroke:#000; stroke-linecap:round; stroke-linejoin:round; stroke-width:2px;"/></g><g><path d="M45.32,54.22s-8.69-4.12-6.15,4.63c2.54,8.75,7.57,7.23,7.57,7.23" style="fill:#fff; stroke:#000; stroke-miterlimit:10; stroke-width:2px;"/><path d="M41.23,56.59s2.83-1.21,4.1,1.96c0,0-2.94-.92-1.73,3.92" style="fill:#fff; stroke:#000; stroke-linecap:round; stroke-linejoin:round; stroke-width:2px;"/></g><path d="M114.15,116.92l-.16,.15c-.06,.06-.13,.12-.19,.18-1.75,1.63-3.58,3.17-5.5,4.61-1.71,1.29-3.49,2.5-5.33,3.62-1.98,1.21-4.02,2.32-6.13,3.33-.15,.07-.3,.14-.45,.21-7.86,3.69-16.54,5.91-25.69,6.3-.68,.03-1.36,.05-2.04,.06-.32,0-.65,0-.97,0-1.01,0-2.01-.02-3.01-.07-9.33-.4-18.17-2.7-26.15-6.52-4.06-1.94-7.89-4.27-11.46-6.95-1.87-1.4-3.67-2.91-5.39-4.5-.07-.06-.13-.13-.2-.19-.13-.13-.26-.25-.39-.37-.05-.05-.11-.1-.16-.15,2.02-2.68,4.25-4.93,6.38-6.79,.24-.21,.47-.4,.71-.6,3.84-3.19,8.4-5.36,13.23-6.59,2.78-.71,4.97-1.78,6.63-2.84,2.81-1.8,4.08-3.58,4.08-3.58v-18.18h0l28.67,.2h0v17.98s1.37,1.78,4.37,3.58c1.92,1.15,4.5,2.3,7.82,3,4.41,.94,8.57,2.83,12.21,5.49,.66,.48,1.33,.99,2.02,1.54,2.34,1.89,4.77,4.2,6.96,6.94h0s.06,.08,.09,.12Z" style="fill:#fff; stroke:#000; stroke-linecap:round; stroke-linejoin:round; stroke-width:2px;"/><ellipse cx="66.44" cy="55" rx="21" ry="31.79" style="fill:#fff; stroke:#000; stroke-miterlimit:10; stroke-width:2.31px;"/><path d="M65.12,53.97v9.06s1.18,3.42,4.85,.58" style="fill:none; stroke:#000; stroke-linecap:round; stroke-linejoin:round; stroke-width:2px;"/><path d="M59.52,67.69s7.44,6.29,14.42,.4" style="fill:none; stroke:#000; stroke-linecap:round; stroke-linejoin:round; stroke-width:2px;"/><circle cx="75.44" cy="51.05" r="1.73"/><circle cx="57.44" cy="51.05" r="1.73"/><path d="M69.64,45.9l1.56,1.97,10.5-.19s-3.35-1.66-4.5-1.78-7.56,0-7.56,0Z"/><path d="M62.22,45.84l-1.27,2.21-10.5-.19s3.35-1.66,4.5-1.78,7.27-.24,7.27-.24Z"/><path d="M80.82,78.08v4.91c-1.02,6.35-7.85,11-15.08,9.61-7.11-1.37-12.93-13.78-13.11-14.17,3.7,4.7,8.6,7.56,13.95,7.56s10.49-3,14.23-7.91Z"/><polyline points="51.98 96.25 66.73 103.4 80.67 96.25" style="fill:none; stroke:#000; stroke-linecap:round; stroke-linejoin:round; stroke-width:2px;"/><polyline points="47.9 99.83 66.73 109.52 85.05 99.83" style="fill:none; stroke:#000; stroke-linecap:round; stroke-linejoin:round; stroke-width:2px;"/><g><path d="M83.42,46.79v7.58c0,1.17-.95,2.13-2.12,2.13h-1.03c1.17,0,2.12-.95,2.12-2.13v-7.58c0-1.17-.95-2.12-2.12-2.12h1.03c1.17,0,2.12,.95,2.12,2.12Z"/><path d="M49.68,46.74v7.58c0,1.17,.95,2.13,2.12,2.13h1.03c-1.17,0-2.12-.95-2.12-2.13v-7.58c0-1.17,.95-2.12,2.12-2.12h-1.03c-1.17,0-2.12,.95-2.12,2.12Z"/><rect x="50.25" y="44.62" width="14.2" height="11.82" rx="5.03" ry="5.03" style="fill:none; stroke:#000; stroke-miterlimit:10; stroke-width:2px;"/><rect x="68.65" y="44.62" width="14.2" height="11.82" rx="5.03" ry="5.03" style="fill:none; stroke:#000; stroke-miterlimit:10; stroke-width:2px;"/><rect x="64.46" y="49.23" width="4.19" height="1.82" style="fill:none; stroke:#000; stroke-miterlimit:10; stroke-width:2px;"/><line x1="82.85" y1="50.31" x2="87.49" y2="54.32" style="fill:none; stroke:#000; stroke-miterlimit:10; stroke-width:2px;"/><line x1="50.25" y1="50.31" x2="45.4" y2="54.32" style="fill:none; stroke:#000; stroke-miterlimit:10; stroke-width:2px;"/></g><g><path d="M45.83,39.94s-1.07-21.86,17.56-24.45c18.62-2.59,25.5,11.87,24.57,24.45H45.83Z"/><path d="M87.96,39.94s8.46,2.11,10.08,6.8c1.62,4.7-52.21-6.8-52.21-6.8h42.13Z"/></g><path d="M54.09,38.2s-2.16,5.42-4.4,5.99-4.24,8.59-4.24,8.59c0,0-.79-7.7,0-11.83s.95-5.02,.95-5.02l3.29-.81,2.3,1.78,2.11,1.3Z"/><path d="M78.79,38.92s2.16,5.42,4.4,5.99,4.24,8.59,4.24,8.59c0,0,.79-7.7,0-11.83s-.95-5.02-.95-5.02l-3.29-.81-2.3,1.78-2.11,1.3Z"/><line x1="45.83" y1="39.94" x2="87.96" y2="39.94" style="fill:none; stroke:#fff; stroke-miterlimit:10;"/><circle cx="66.73" cy="114.81" r="1.94"/><circle cx="66.73" cy="124.5" r="1.94"/></g></g></g></svg>