<?xml version="1.0" encoding="UTF-8"?><svg id="Calque_2" xmlns="http://www.w3.org/2000/svg" viewBox="0 0 135.39 136.34"><g id="Layer_1"><g><path d="M135.39,67.7c0,19.2-7.99,36.52-20.83,48.84l-.02,.02s-.02,.02-.03,.02c-.09,.09-.18,.18-.27,.26-.03,.03-.05,.05-.08,.08-1.78,1.68-3.65,3.27-5.6,4.75-.08,.06-.16,.13-.25,.19-3.45,2.59-7.14,4.85-11.06,6.75-.13,.07-.27,.13-.4,.19-1.27,.61-2.56,1.17-3.87,1.7-3.1,1.26-6.32,2.28-9.64,3.07-.89,.21-1.78,.4-2.68,.57-2.61,.51-5.28,.86-7.99,1.06-.26,.02-.53,.04-.79,.05-.58,.04-1.16,.06-1.75,.08-.03,0-.07,0-.1,0-.78,.03-1.55,.04-2.33,.04s-1.62-.01-2.42-.04c-.03,0-.07,0-.1,0-1.31-.05-2.6-.14-3.88-.25-.25-.03-.5-.05-.75-.08-2.91-.31-5.78-.79-8.56-1.46-4.69-1.11-9.18-2.72-13.44-4.75-.14-.06-.27-.13-.4-.19-3.91-1.9-7.61-4.17-11.06-6.75-.08-.06-.16-.13-.25-.19-2-1.51-3.91-3.14-5.73-4.87-.05-.05-.11-.1-.16-.15l-.04-.04s-.03-.03-.05-.04c-.08-.08-.17-.16-.26-.25l-.03-.03-.02-.02C7.88,103.98,0,86.76,0,67.7,0,30.31,30.3,0,67.69,0s67.69,30.31,67.69,67.7Z" style="fill:#efefef;"/><g><path d="M114.55,116.54l-.02,.02s-.02,.02-.03,.02c-.09,.09-.18,.18-.27,.26-.03,.03-.05,.05-.08,.08-1.78,1.68-3.65,3.27-5.6,4.75-.08,.06-.16,.13-.25,.19-3.45,2.59-7.14,4.85-11.06,6.75-.13,.07-.27,.13-.4,.19-1.27,.61-2.56,1.17-3.87,1.7-3.1,1.26-6.32,2.28-9.64,3.07-.89,.21-1.78,.4-2.68,.57-2.61,.51-5.28,.86-7.99,1.06-.26,.02-.53,.04-.79,.05-.58,.04-1.16,.06-1.75,.08h-4.95c-1.31-.05-2.6-.14-3.88-.25-.25-.03-.5-.05-.75-.08-2.91-.31-5.78-.79-8.56-1.46-4.69-1.11-9.18-2.72-13.44-4.75-.14-.06-.27-.13-.4-.19-3.91-1.9-7.61-4.17-11.06-6.75-.08-.06-.16-.13-.25-.19-2-1.51-3.91-3.14-5.73-4.87-.05-.05-.11-.1-.16-.15l-.04-.04s-.03-.03-.05-.04c-.08-.08-.17-.16-.26-.25l-.03-.03-.02-.02c.09-.13,.18-.25,.27-.37,2.05-2.75,4.32-5.05,6.5-6.94,.24-.21,.47-.41,.71-.6,3.84-3.19,8.4-5.36,13.23-6.6,.43-.11,.85-.23,1.25-.35,1.82-.57,3.36-1.29,4.63-2.03,.08-.04,.15-.08,.22-.13,.12-.07,.23-.14,.34-.21,.18-.11,.36-.23,.53-.35,.19-.12,.38-.25,.55-.38,.32-.22,.61-.45,.87-.66,1.58-1.28,2.32-2.31,2.32-2.31v-18.18h.43l27.89,.19h.37v17.98s.96,1.25,3.04,2.72h0s.05,.03,.07,.05c.38,.26,.79,.53,1.24,.8h.02c.07,.05,.13,.09,.2,.12,1.19,.7,2.63,1.39,4.33,1.98,1,.35,2.1,.66,3.29,.92,4.41,.94,8.57,2.83,12.21,5.49,.66,.48,1.33,1,2.02,1.55,2.34,1.89,4.77,4.2,6.96,6.94h0c.16,.21,.33,.42,.49,.63Z" style="fill:#fff; stroke:#000; stroke-linecap:round; stroke-linejoin:round; stroke-width:2px;"/><path d="M51.98,77.17s2.93,9.69,14.97,12.36c12.3,2.73,13.72-4.45,13.72-4.45v-7.71s-14.35,9.1-21.55,4.14c-7.21-4.96-7.14-4.35-7.14-4.35Z"/><g><path d="M87.3,56.88s7.86-3.73,5.56,4.19c-2.3,7.91-6.85,6.53-6.85,6.53" style="fill:#fff; stroke:#000; stroke-miterlimit:10; stroke-width:1.81px;"/><path d="M91.01,59.02s-2.56-1.1-3.7,1.77c0,0,2.66-.83,1.56,3.55" style="fill:#fff; stroke:#000; stroke-linecap:round; stroke-linejoin:round; stroke-width:1.81px;"/></g><g><path d="M45.42,56.17s-7.86-3.73-5.56,4.19,6.85,6.53,6.85,6.53" style="fill:#fff; stroke:#000; stroke-miterlimit:10; stroke-width:1.81px;"/><path d="M41.72,58.31s2.56-1.1,3.7,1.77c0,0-2.66-.83-1.56,3.55" style="fill:#fff; stroke:#000; stroke-linecap:round; stroke-linejoin:round; stroke-width:1.81px;"/></g><ellipse cx="66.44" cy="56.32" rx="21" ry="28.03" style="fill:#fff; stroke:#000; stroke-miterlimit:10; stroke-width:2.17px;"/><path d="M65.12,56.22v9.06s1.18,3.42,4.85,.58" style="fill:none; stroke:#000; stroke-linecap:round; stroke-linejoin:round; stroke-width:2px;"/><circle cx="75.79" cy="54.99" r="1.73"/><circle cx="56.58" cy="55.04" r="1.73"/><path d="M51.98,95.35s14.09,15.51,28.69,0" style="fill:#fff; stroke:#000; stroke-miterlimit:10; stroke-width:2.31px;"/><path d="M72.68,51.55c1.36,.13,2.68-.27,4.04-.28,1.14,0,2.17,.42,2.95,1.25,.7,.74,1.81-.38,1.12-1.12-.96-1.02-2.26-1.62-3.66-1.71-1.5-.1-2.96,.41-4.46,.27-.43-.04-.79,.39-.79,.79,0,.46,.36,.75,.79,.79h0Z"/><path d="M59.84,50.02c-1.5,.14-2.96-.37-4.46-.27-1.39,.09-2.7,.68-3.66,1.71-.69,.74,.42,1.86,1.12,1.12,.78-.84,1.81-1.26,2.95-1.25,1.36,0,2.68,.41,4.04,.28,.43-.04,.79-.34,.79-.79,0-.4-.36-.83-.79-.79h0Z"/><path d="M61.39,70.26s5.2,6.1,11.3,0" style="fill:none; stroke:#000; stroke-linecap:round; stroke-linejoin:round; stroke-width:2px;"/><path d="M45.42,55.29s-3.78,1.85-2.35-14.91c1.43-16.76,14.21-20.53,14.21-20.53l-1.22,1.94s18.48-7.13,27.96,3.89l-4.7-.97s16.89,11.99,9.51,31.6l-1.78,.4s-2.54-17.43-14.36-18.24l-9.72,4.7,3.36-3.89s-15.94-6.86-20.91,16Z"/><g><ellipse cx="51.96" cy="107" rx="4.95" ry="8.93"/><ellipse cx="45.97" cy="107.82" rx="4.95" ry="8.93" style="fill:#fff; stroke:#000; stroke-miterlimit:10; stroke-width:2px;"/><polygon points="45.66 98.53 52.27 98.09 51.96 101.89 47.28 99.46 45.66 98.53"/><polygon points="46.19 117.11 53.08 115.69 52.27 113.26 49.63 114.36 46.19 117.11"/></g><g><ellipse cx="80.24" cy="106.77" rx="4.95" ry="8.93"/><ellipse cx="86.23" cy="107.59" rx="4.95" ry="8.93" style="fill:#fff; stroke:#000; stroke-miterlimit:10; stroke-width:2px;"/><polygon points="86.53 98.3 79.93 97.86 80.24 101.66 84.92 99.23 86.53 98.3"/><polygon points="86.01 116.88 79.12 115.46 79.93 113.03 82.56 114.13 86.01 116.88"/></g><path d="M45.97,98.51s.34-5.78,5.98-7.73l.32,5.42s-1.71,.52-1.07,3.78l-5.23-1.41v-.07Z"/><path d="M86.38,98.39s-.18-5.66-5.82-7.61l-.32,5.42s1.71,.52,1.07,3.78l4.59-1.33,.48-.28Z"/><polygon points="77.52 37.3 71.89 43.25 71.89 34.75 77.52 37.3"/><path d="M72.68,135.34h-7.51c-1.31-.05-2.6-.14-3.88-.25-.25-.03-.5-.05-.75-.08l2.83-33.13,5.37,.23h.03l3.89,33.09c-.26,.02-.53,.04-.79,.05-.58,.04-1.16,.06-1.75,.08h2.56Z"/><path d="M45.66,117.11s5.08-.09,7.41-1.42l-7.41,1.42Z"/><path d="M79.12,115.46s5.86,1.75,7.26,1.42l-7.26-1.42Z"/><path d="M53.31,98.41s-4.45-2-8.46,.48l8.46-.48Z"/><path d="M80.24,98.08s4.75-.24,6.69,.43" style="fill:none; stroke:#000; stroke-miterlimit:10;"/></g></g></g></svg>