<svg xmlns="http://www.w3.org/2000/svg" width="0" height="0"><defs><symbol id="imageadd" fill="none" viewBox="0 0 24 24"><path stroke="currentColor" stroke-linecap="round" stroke-linejoin="round" stroke-width="1.5" d="m3.004 15.572 3.949-2.866a3.858 3.858 0 0 1 4.816.224l7.694 6.903"/><path stroke="currentColor" stroke-linecap="round" stroke-linejoin="round" stroke-width="1.5" d="M21 15.474c-.839-.77-2.145-1.999-3.92-1.043a27.786 27.786 0 0 0-2.174 1.316"/><path stroke="currentColor" stroke-linecap="round" stroke-linejoin="round" stroke-width="1.5" d="M21 10.954v5.022c0 2.945-1.843 5.022-4.788 5.022H7.778C4.833 20.998 3 18.92 3 15.976V8.03c0-2.944 1.843-5.021 4.778-5.021h4.2M18.37 3.078v4.875M20.808 5.514h-4.875"/></symbol><symbol id="imageservice" fill="none" viewBox="0 0 24 24"><path stroke="currentColor" stroke-linecap="round" stroke-linejoin="round" stroke-width="1.5" d="m20.996 15.572-3.95-2.866a3.859 3.859 0 0 0-4.816.224l-7.694 6.903"/><path stroke="currentColor" stroke-linecap="round" stroke-linejoin="round" stroke-width="1.5" d="M3 15.474c.839-.77 2.145-1.999 3.92-1.043a27.795 27.795 0 0 1 2.174 1.316"/><path stroke="currentColor" stroke-linecap="round" stroke-linejoin="round" stroke-width="1.5" d="M3 12.903v3.072c0 2.945 1.843 5.022 4.788 5.022h8.434c2.944 0 4.778-2.077 4.778-5.021V8.027c0-2.944-1.843-5.02-4.778-5.02h-3.324"/><path fill-rule="evenodd" stroke="currentColor" stroke-linecap="round" stroke-linejoin="round" stroke-width="1.5" d="M6.063 3.008a3.063 3.063 0 1 1 0 6.125 3.063 3.063 0 0 1 0-6.125Z" clip-rule="evenodd"/><path stroke="currentColor" stroke-linecap="round" stroke-linejoin="round" stroke-width="1.5" d="M8.147 8.313 9.69 9.85"/></symbol><symbol id="imageupload" fill="none" viewBox="0 0 24 24"><path stroke="currentColor" stroke-linecap="round" stroke-linejoin="round" stroke-width="1.5" d="M17.526 3v6.092M15.117 5.418 17.525 3l2.408 2.418M3.006 15.58l3.949-2.867a3.858 3.858 0 0 1 4.816.225l7.694 6.903"/><path stroke="currentColor" stroke-linecap="round" stroke-linejoin="round" stroke-width="1.5" d="M21 15.482c-.839-.77-2.145-1.999-3.92-1.043a27.786 27.786 0 0 0-2.174 1.316"/><path stroke="currentColor" stroke-linecap="round" stroke-linejoin="round" stroke-width="1.5" d="M21 10.958v5.022c0 2.945-1.843 5.022-4.787 5.022H7.778C4.833 21.002 3 18.925 3 15.98V8.033c0-2.945 1.843-5.021 4.778-5.021h3.56"/></symbol><symbol id="archive" fill="none" viewBox="0 0 24 24"><path stroke="currentColor" stroke-linecap="round" stroke-linejoin="round" stroke-width="1.5" d="M13.473 3a2.05 2.05 0 0 1 1.48.63l3.791 3.95c.366.381.571.89.571 1.42v8.28a3.72 3.72 0 0 1-3.72 3.72h-7.19a3.72 3.72 0 0 1-3.72-3.722V6.721A3.72 3.72 0 0 1 8.405 3h5.068ZM10.437 14.42l3.129-3.129m-.001 3.13-3.13-3.13"/></symbol><symbol id="back" fill="none" viewBox="0 0 24 25"><path stroke="currentColor" stroke-linecap="round" stroke-linejoin="round" stroke-width="1.5" d="M8.841 12.9H4V8.059"/><path stroke="currentColor" stroke-linecap="round" stroke-linejoin="round" stroke-width="1.5" d="M4.023 12.9A8.375 8.375 0 0 1 11.62 8.06a8.383 8.383 0 0 1 8.38 8.38"/></symbol><symbol id="blockdown" fill="none" viewBox="0 0 24 25"><path stroke="currentColor" stroke-linecap="round" stroke-linejoin="round" stroke-width="1.5" d="M16.508 8.598h.908A3.585 3.585 0 0 1 21 12.182v4.753a3.576 3.576 0 0 1-3.576 3.575H6.585A3.585 3.585 0 0 1 3 16.925v-4.753a3.575 3.575 0 0 1 3.575-3.574h.916M12.002 15.707V3.992m0 11.715 2.836-2.848m-2.836 2.848L9.163 12.86"/></symbol><symbol id="blockduplicate" fill="none" viewBox="0 0 24 24"><path stroke="currentColor" stroke-linecap="round" stroke-linejoin="round" stroke-width="1.5" d="M11.546 3.002h6.033c2.108 0 3.422 1.489 3.422 3.596v5.685c0 2.106-1.314 3.595-3.423 3.595h-6.032c-2.11 0-3.421-1.489-3.421-3.595V6.598c0-2.107 1.318-3.596 3.42-3.596Z"/><path stroke="currentColor" stroke-linecap="round" stroke-linejoin="round" stroke-width="1.5" d="M15.876 15.877v1.53c0 2.105-1.305 3.59-3.419 3.59H6.429C4.313 20.997 3 19.512 3 17.407V11.72c0-2.106 1.323-3.6 3.429-3.6h1.69"/></symbol><symbol id="blockup" viewBox="0 0 24 24"><g id="Iconly/Light/Upload" fill="none" fill-rule="evenodd" stroke="currentColor" stroke-linecap="round" stroke-linejoin="round" stroke-width="1.5"><g id="Upload" stroke="currentColor" stroke-width="1.5" transform="rotate(-90 12 10)"><path id="Stroke-1" d="M13.016 5.39v-.933A3.685 3.685 0 0 0 9.331.772H4.456A3.685 3.685 0 0 0 .772 4.455v11.13a3.685 3.685 0 0 0 3.684 3.685h4.885a3.675 3.675 0 0 0 3.675-3.674v-.942"/><path id="Stroke-3" d="M19.809 10.021H7.769"/><path id="Stroke-5" d="m16.881 7.106 2.928 2.915-2.928 2.916"/></g></g></symbol><symbol id="cards" fill="none" viewBox="0 0 25 24"><path stroke="currentColor" stroke-linecap="round" stroke-linejoin="round" stroke-width="1.5" d="m13.335 3.053 4.452.666c2.38.356 3.608 2.258 3.252 4.635l-.96 6.413c-.355 2.377-2.086 3.836-4.467 3.48l-4.45-.667c-2.38-.356-3.61-2.256-3.254-4.634l.96-6.414c.355-2.377 2.094-3.833 4.467-3.48ZM12.838 8.852l4.495.644m-5.01 2.951 2.696.387"/><path stroke="currentColor" stroke-linecap="round" stroke-linejoin="round" stroke-width="1.5" d="m9.018 5.875-2.86.945c-2.289.753-3.188 2.833-2.425 5.121L5.758 18.1c.754 2.28 2.706 3.423 4.985 2.67l4.287-1.408c.718-.226 1.316-.608 1.752-1.09"/></symbol><symbol id="chart" fill="none" viewBox="0 0 25 25"><path stroke="currentColor" stroke-linecap="round" stroke-width="1.5" d="M6.237 5.958a1.557 1.557 0 1 1 3.115 0 1.557 1.557 0 0 1-3.115 0Z"/><path stroke="currentColor" stroke-linecap="round" stroke-linejoin="round" stroke-width="1.5" d="M12.005 16.704a4.016 4.016 0 1 0-8.032 0 4.016 4.016 0 0 0 8.032 0Z"/><path stroke="currentColor" stroke-linecap="round" stroke-linejoin="round" stroke-width="1.5" d="M7.85 12.69v3.705c0 .247.2.447.447.447h3.705M13.481 3.236v7.157c0 .476.386.861.862.861H21.5"/><path stroke="currentColor" stroke-linecap="round" stroke-linejoin="round" stroke-width="1.5" d="m15.72 8.02 2.029-2.506 1.534 1.896 2.05-2.478"/><path stroke="currentColor" stroke-linecap="round" stroke-width="1.5" d="M15.235 21.002v-1.92M18.368 21.002v-6.236M21.5 21.002v-3.667M3.5 7.703v.009M5.922 9.745v.01"/></symbol><symbol id="check" fill="none" viewBox="0 0 24 24"><path stroke="currentColor" stroke-linecap="round" stroke-linejoin="round" stroke-width="1.5" d="m19 7.188-9.625 9.625L5 12.438"/></symbol><symbol id="checkbadge" fill="none" viewBox="0 0 24 24"><path stroke="currentColor" stroke-linecap="round" stroke-linejoin="round" stroke-width="1.5" d="M4.99 7.19a2.2 2.2 0 0 1 2.2-2.2h1c.58 0 1.137-.23 1.55-.639l.698-.7a2.2 2.2 0 0 1 3.112-.01v.001l.01.008.7.7c.41.41.968.64 1.549.64h1.002a2.2 2.2 0 0 1 2.2 2.199v1c0 .581.23 1.138.64 1.55l.7.7a2.2 2.2 0 0 1 .01 3.111l-.71.71c-.41.412-.639.969-.639 1.549v1.003a2.2 2.2 0 0 1-2.2 2.196h-1.005c-.58 0-1.138.23-1.55.64l-.7.7a2.198 2.198 0 0 1-3.109.013l-.003-.002-.708-.708a2.2 2.2 0 0 0-1.55-.64H7.19a2.199 2.199 0 0 1-2.199-2.199v-1.005c0-.58-.23-1.137-.64-1.549l-.699-.7a2.198 2.198 0 0 1-.015-3.108l.004-.004.708-.709c.41-.411.64-.969.64-1.55V7.19"/><path stroke="currentColor" stroke-linecap="round" stroke-linejoin="round" stroke-width="1.5" d="m9.004 12.122 1.977 1.98 4.073-4.075"/></symbol><symbol id="close" fill="none" viewBox="0 0 24 24"><path stroke="currentColor" stroke-linecap="round" stroke-linejoin="round" stroke-width="1.5" d="m6 6 12 12M18 6 6 18"/></symbol><symbol id="delete" fill="none" viewBox="0 0 25 25"><path stroke="currentColor" stroke-linecap="round" stroke-linejoin="round" stroke-width="1.5" d="m19.667 10.313-.612 8.376a3.317 3.317 0 0 1-3.308 3.076H9.754a3.318 3.318 0 0 1-3.308-3.077l-.612-8.375M21.015 7.168H4.485M16.521 7.167l-.503-2.476a1.248 1.248 0 0 0-1.205-.925h-4.121a1.249 1.249 0 0 0-1.211.925l-.499 2.476M10.852 12.547v4.508m3.38-4.508v4.508"/></symbol><symbol id="drag" fill="none" viewBox="0 0 25 25"><path stroke="currentColor" stroke-linecap="round" stroke-linejoin="round" stroke-width="1.5" d="M12.47 18.801h-.063m.05.26a.26.26 0 1 1 0-.522.26.26 0 0 1 0 .522ZM12.47 12.778h-.063m.05.26a.26.26 0 1 1 0-.523.26.26 0 0 1 0 .522ZM12.47 6.758h-.063m.05.26a.26.26 0 1 1 0-.522.26.26 0 0 1 0 .522ZM18.509 18.801h-.064m.05.26a.26.26 0 1 1 0-.522.26.26 0 0 1 0 .522ZM18.509 12.778h-.064m.05.26a.26.26 0 1 1 0-.523.26.26 0 0 1 0 .522ZM18.509 6.758h-.064m.05.26a.26.26 0 1 1 0-.522.26.26 0 0 1 0 .522ZM6.518 18.801h-.064m.05.26a.26.26 0 1 1 0-.522.26.26 0 0 1 0 .522ZM6.518 12.778h-.064m.05.26a.26.26 0 1 1 0-.523.26.26 0 0 1 0 .522ZM6.518 6.758h-.064m.05.26a.26.26 0 1 1 0-.522.26.26 0 0 1 0 .522Z"/></symbol><symbol id="duplicate" fill="none" viewBox="0 0 25 24"><path stroke="currentColor" stroke-linecap="round" stroke-linejoin="round" stroke-width="1.5" d="m13.335 3.053 4.452.666c2.38.356 3.608 2.258 3.252 4.635l-.96 6.413c-.355 2.377-2.086 3.836-4.467 3.48l-4.45-.667c-2.38-.356-3.61-2.256-3.254-4.634l.96-6.414c.355-2.377 2.094-3.833 4.467-3.48Z"/><path stroke="currentColor" stroke-linecap="round" stroke-linejoin="round" stroke-width="1.5" d="m9.018 5.875-2.86.945c-2.289.753-3.188 2.833-2.425 5.121L5.758 18.1c.754 2.28 2.706 3.423 4.985 2.67l4.287-1.408c.717-.226 1.316-.608 1.752-1.09"/></symbol><symbol id="edit" fill="none" viewBox="0 0 24 24"><path stroke="currentColor" stroke-linecap="round" stroke-linejoin="round" stroke-width="1.5" d="m11.426 6.975 5.496 4.038M8.134 19.923l1.667-.485a4.109 4.109 0 0 0 2.212-1.581l6.389-8.86a2.35 2.35 0 0 0-.516-3.283L16.153 4.45a2.352 2.352 0 0 0-3.284.516L6.41 13.924a4.113 4.113 0 0 0-.746 2.398l.016 1.776a1.919 1.919 0 0 0 2.454 1.825Z"/></symbol><symbol id="help" fill="none" viewBox="0 0 24 24"><path stroke="currentColor" stroke-linecap="round" stroke-linejoin="round" stroke-width="1.5" d="M12 21a9 9 0 1 0 0-18 9 9 0 0 0 0 18Z"/><path fill-rule="evenodd" stroke="currentColor" stroke-linecap="round" stroke-linejoin="round" stroke-width="1.5" d="M16.034 12a4.035 4.035 0 1 1-8.07-.002 4.035 4.035 0 0 1 8.07.002Z" clip-rule="evenodd"/><path stroke="currentColor" stroke-linecap="round" stroke-linejoin="round" stroke-width="1.5" d="m5.794 18.207 3.104-3.104m9.31 3.104-3.104-3.104M8.897 8.896 5.793 5.794m9.31 3.102 3.104-3.102"/></symbol><symbol id="home" fill="none" viewBox="0 0 24 24"><path stroke="currentColor" stroke-linecap="round" stroke-linejoin="round" stroke-width="1.5" d="m14.5 3.895 5.052 4.135a3.949 3.949 0 0 1 1.378 3.797l-1.143 5.964a3.948 3.948 0 0 1-3.877 3.205H8.09a3.948 3.948 0 0 1-3.878-3.205l-1.141-5.964A3.948 3.948 0 0 1 4.447 8.03L9.5 3.895a3.947 3.947 0 0 1 5 0Z"/><path stroke="currentColor" stroke-linecap="round" stroke-linejoin="round" stroke-width="1.5" d="M9.396 20.997v-3.345a2.605 2.605 0 0 1 5.21 0v3.345"/></symbol><symbol id="imageedit" fill="none" viewBox="0 0 24 24"><path stroke="currentColor" stroke-linecap="round" stroke-linejoin="round" stroke-width="1.5" d="m3.006 15.572 3.949-2.866a3.858 3.858 0 0 1 4.816.224l7.693 6.903"/><path stroke="currentColor" stroke-linecap="round" stroke-linejoin="round" stroke-width="1.5" d="M20.999 15.474c-.839-.77-2.145-1.999-3.92-1.043a27.81 27.81 0 0 0-2.174 1.316"/><path stroke="currentColor" stroke-linecap="round" stroke-linejoin="round" stroke-width="1.5" d="M20.999 10.953v5.023c0 2.944-1.843 5.021-4.787 5.021H7.778C4.833 20.997 3 18.92 3 15.976V8.029c0-2.945 1.843-5.021 4.778-5.021h5.509"/><path stroke="currentColor" stroke-linecap="round" stroke-linejoin="round" stroke-width="1.5" d="M18.464 3.427a1.1 1.1 0 0 1 1.554-.058l.687.637a1.1 1.1 0 0 1 .058 1.555l-3.439 3.706a2 2 0 0 1-1.26.63l-.71.073a.8.8 0 0 1-.882-.818l.02-.714a2 2 0 0 1 .533-1.304l3.439-3.707Z"/></symbol><symbol id="imagelib" fill="none" viewBox="0 0 24 24"><path stroke="currentColor" stroke-linecap="round" stroke-linejoin="round" stroke-width="1.5" d="m14.08 8.402 6.108 10.58M9.92 8.4H21M7.842 12l5.197-9M9.922 15.601 3.813 5.023M14.08 15.6H3M16.159 12l-5.197 9"/><path fill-rule="evenodd" stroke="currentColor" stroke-linecap="round" stroke-linejoin="round" stroke-width="1.5" d="M16.217 3H7.782C4.842 3 3 5.081 3 8.026v7.947C3 18.92 4.834 21 7.782 21h8.434C19.165 21 21 18.919 21 15.973V8.026C21 5.081 19.165 3 16.217 3Z" clip-rule="evenodd"/></symbol><symbol id="learner" fill="none" viewBox="0 0 25 24"><path stroke="currentColor" stroke-linecap="round" stroke-linejoin="round" stroke-width="1.5" d="m15.038 16.723.92.921 1.897-1.897m-4.684-1.32c0-.566.458-1.024 1.023-1.025h.466c.27 0 .53-.107.722-.297l.325-.326a1.024 1.024 0 0 1 1.448-.005v.001l.004.004.327.325c.191.19.45.298.721.298h.467c.565 0 1.024.458 1.024 1.024v.465c0 .27.107.53.297.722l.326.326c.401.399.404 1.047.005 1.449l-.004.003-.326.327c-.191.192-.297.45-.297.72v.468c-.001.565-.46 1.023-1.025 1.022h-.468c-.27 0-.53.107-.721.298l-.327.326a1.024 1.024 0 0 1-1.447.006l-.001-.002-.004-.003-.326-.326a1.022 1.022 0 0 0-.72-.297h-.466a1.024 1.024 0 0 1-1.023-1.024v-.469c0-.27-.108-.528-.298-.72l-.325-.327a1.023 1.023 0 0 1-.008-1.446l.002-.002.005-.004.325-.326c.19-.191.298-.45.298-.722v-.464ZM3.678 19.028c0-2.093 1.652-4.7 6.41-4.7"/><path fill-rule="evenodd" stroke="currentColor" stroke-linecap="round" stroke-linejoin="round" stroke-width="1.5" d="M14.184 7.243a4.096 4.096 0 1 1-8.191 0 4.096 4.096 0 0 1 8.191 0Z" clip-rule="evenodd"/></symbol><symbol id="logout" fill="none" viewBox="0 0 24 25"><path stroke="currentColor" stroke-linecap="round" stroke-linejoin="round" stroke-width="1.5" d="M14.586 4.25H7.898A3.898 3.898 0 0 0 4 8.148v8.203a3.898 3.898 0 0 0 3.898 3.898h6.688M16.138 8.664 20 12.25m0 0-3.862 3.586M20 12.25h-9.379"/></symbol><symbol id="magicglow" fill="none" viewBox="0 0 24 25"><path fill-rule="evenodd" stroke="currentColor" stroke-linecap="round" stroke-linejoin="round" stroke-width="1.5" d="m8.617 7.753 2.976 1.107a.953.953 0 0 0 .88-.114l2.637-1.835a.94.94 0 0 1 1.486.817l-.174 3.184a.936.936 0 0 0 .37.799l2.525 1.91a.956.956 0 0 1-.337 1.676l-3.082.861a.972.972 0 0 0-.652.608l-1.072 3.018a.957.957 0 0 1-1.215.59.95.95 0 0 1-.48-.371l-1.73-2.653a.938.938 0 0 0-.774-.423l-3.19-.045a.942.942 0 0 1-.71-1.54l2.012-2.503a.96.96 0 0 0 .175-.87L7.365 8.92a.963.963 0 0 1 1.252-1.167Z" clip-rule="evenodd"/><path stroke="currentColor" stroke-linecap="round" stroke-linejoin="round" stroke-width="1.5" d="m19.686 9.872.901-.295m-8.999-5.661v1.361-1.361ZM4.635 12.23h-1.22 1.22Zm4.686 7.965-.316.965.316-.965ZM18.297 19.53l2.227 2.386"/></symbol><symbol id="moon" fill="none" viewBox="0 0 25 24"><path fill-rule="evenodd" stroke="currentColor" stroke-linecap="round" stroke-linejoin="round" stroke-width="1.5" d="M21.026 14.276c.046-.024.1.018.086.068-1.099 3.843-4.64 6.656-8.82 6.656-5.073 0-9.178-4.115-9.178-9.177a9.169 9.169 0 0 1 6.647-8.82c.05-.015.092.04.068.085a8.289 8.289 0 0 0 1.467 9.73 8.272 8.272 0 0 0 9.73 1.458Z" clip-rule="evenodd"/></symbol><symbol id="more" viewBox="0 0 24 24"><g id="Iconly/Light/More-Circle" fill="none" fill-rule="evenodd" stroke="currentColor" stroke-linecap="round" stroke-linejoin="round" stroke-width="1.5"><g id="More-Circle" stroke="currentColor" stroke-width="1.5" transform="translate(2 2)"><path id="Stroke-1" d="M10 .75a9.25 9.25 0 1 1 0 18.5 9.25 9.25 0 0 1 0-18.5Z"/><path id="Stroke-11" d="M13.939 10.013h.009"/><path id="Stroke-13" d="M9.93 10.013h.009"/><path id="Stroke-15" d="M5.921 10.013h.009"/></g></g></symbol><symbol id="movev" fill="none" viewBox="0 0 24 24"><path stroke="currentColor" stroke-linecap="round" stroke-linejoin="round" stroke-miterlimit="10" stroke-width="1.5" d="m5.717 11.006 1.216-1.217m-1.216 1.217L4.5 9.789m1.217 1.217V4m0 0 1.216 1.217M5.717 4 4.5 5.217"/><path stroke="currentColor" stroke-linecap="round" stroke-linejoin="round" stroke-width="1.5" d="M19.138 11.645c.905 2.441.015 5.671-1.57 7.256-1.816 1.817-5.673 2.119-8.076.971-1.535-.733-3.144-1.88-4.107-2.614a1.766 1.766 0 0 1-.638-1.798 1.853 1.853 0 0 1 2.736-1.203l1.164.673a.608.608 0 0 0 .913-.527V5.037a1.588 1.588 0 0 1 3.176-.024l.063 4.108c2.223.213 5.44.098 6.34 2.524Z"/></symbol><symbol id="preview" viewBox="0 0 24 24"><g id="Iconly/Light/Show" fill="none" fill-rule="evenodd" stroke="currentColor" stroke-linecap="round" stroke-linejoin="round" stroke-width="1.5"><g id="Show" stroke="currentColor" stroke-width="1.5" transform="translate(2 4)"><path id="Stroke-1" d="M13.162 8.053a3.162 3.162 0 1 1-6.324-.001 3.162 3.162 0 0 1 6.324.001Z"/><path id="Stroke-3" d="M9.998 15.355c3.808 0 7.291-2.738 9.252-7.302C17.289 3.489 13.806.75 9.998.75h.004C6.194.75 2.711 3.489.75 8.053c1.961 4.564 5.444 7.302 9.252 7.302h-.004Z"/></g></g></symbol><symbol id="profil" fill="none" viewBox="0 0 25 24"><path stroke="currentColor" stroke-linecap="round" stroke-linejoin="round" stroke-width="1.5" d="M21.15 8.596c0-2.53-1.569-4.315-4.098-4.315H7.256c-2.52 0-4.106 1.786-4.106 4.315v6.819c0 2.521 1.578 4.306 4.106 4.306h9.788c2.537 0 4.106-1.785 4.106-4.306V8.596Z"/><path stroke="currentColor" stroke-linecap="round" stroke-linejoin="round" stroke-width="1.5" d="M6.36 16.017c0-.972.766-2.181 2.976-2.181s2.976 1.2 2.976 2.173"/><path fill-rule="evenodd" stroke="currentColor" stroke-linecap="round" stroke-linejoin="round" stroke-width="1.5" d="M11.237 9.882a1.901 1.901 0 1 1-3.803 0 1.901 1.901 0 0 1 3.803 0Z" clip-rule="evenodd"/><path stroke="currentColor" stroke-linecap="round" stroke-linejoin="round" stroke-width="1.5" d="m14.271 10.348 3.473.047m-2.17 3.655h2.17"/></symbol><symbol id="resize" fill="none" viewBox="0 0 24 25"><path stroke="currentColor" stroke-linecap="round" stroke-linejoin="round" stroke-width="1.5" d="m5.002 5.25 4.003 4.003M5.002 5.25l.008 3.677M5.002 5.25l3.677.008M5 19.248l4.003-4.002m-.325 3.995L5 19.248l.008-3.677M18.999 19.248l-4.003-4.002M19 19.248l-.008-3.677m.008 3.677-3.677-.009M19 5.25l-4.002 4.002m.324-3.994L19 5.25l-.008 3.677"/></symbol><symbol id="resizemax" fill="none" viewBox="0 0 24 25"><path stroke="currentColor" stroke-linecap="round" stroke-linejoin="round" stroke-width="1.5" d="m8.677 19.243-2.673.006a1 1 0 0 1-1.002-1.003l.006-2.672M5.498 18.75l3.504-3.504M5.01 8.929l-.006-2.673a1 1 0 0 1 1.002-1.002l2.673.006M18.991 15.574l.006 2.673a1 1 0 0 1-1.002 1.002l-2.673-.006M15.321 5.26l2.674-.006a1 1 0 0 1 1.002 1.002l-.007 2.672M18.5 5.75l-3.504 3.504"/></symbol><symbol id="resizemin" fill="none" viewBox="0 0 24 25"><path stroke="currentColor" stroke-linecap="round" stroke-linejoin="round" stroke-width="1.5" d="m5.325 15.252 2.673-.006a1 1 0 0 1 1.003 1.002l-.007 2.673M18.673 9.243 16 9.25a1 1 0 0 1-1.002-1.002l.006-2.673M5.01 8.925l-.006-2.673A1 1 0 0 1 6.006 5.25l2.673.006M18.991 15.57l.006 2.673a1 1 0 0 1-1.002 1.002l-2.673-.006M15.44 8.81 19 5.25M8.499 15.748 5 19.248"/></symbol><symbol id="scrollist" fill="none" viewBox="0 0 25 25"><path stroke="currentColor" stroke-linecap="round" stroke-linejoin="round" stroke-width="1.5" d="m4.5 8.987 2.835-2.835m0 0 2.835 2.835M7.335 6.152v13.23M4.5 16.549l2.835 2.835m0 0 2.835-2.835M14.018 12.861H20.5m-6.483 5.709H20.5M14.018 6.96H20.5"/></symbol><symbol id="search" viewBox="0 0 24 24"><g id="Iconly/Light/Search" fill="none" fill-rule="evenodd" stroke="currentColor" stroke-linecap="round" stroke-linejoin="round" stroke-width="1.5"><g id="Search" stroke="currentColor" stroke-width="1.5" transform="translate(2 2)"><circle id="Ellipse_739" cx="9.767" cy="9.767" r="8.989"/><path id="Line_181" d="M16.018 16.485 19.542 20"/></g></g></symbol><symbol id="setting" viewBox="0 0 24 24"><g id="Iconly/Light/Setting" fill="none" fill-rule="evenodd" stroke="currentColor" stroke-linecap="round" stroke-linejoin="round" stroke-width="1.5"><g id="Setting" stroke="currentColor" stroke-width="1.5" transform="translate(2.5 1.5)"><path id="Path_33946" d="m18.307 6.124-.623-1.08a1.913 1.913 0 0 0-2.608-.705h0a1.904 1.904 0 0 1-2.61-.678 1.83 1.83 0 0 1-.255-.915h0A1.913 1.913 0 0 0 10.297.778H9.043A1.904 1.904 0 0 0 7.14 2.691h0a1.913 1.913 0 0 1-1.913 1.886 1.83 1.83 0 0 1-.916-.257h0a1.913 1.913 0 0 0-2.608.705l-.669 1.099a1.913 1.913 0 0 0 .696 2.608h0a1.913 1.913 0 0 1 0 3.314h0a1.904 1.904 0 0 0-.696 2.6h0l.632 1.089a1.913 1.913 0 0 0 2.609.741h0a1.895 1.895 0 0 1 2.6.696c.164.277.252.593.255.915h0c0 1.057.857 1.913 1.913 1.913h1.254c1.053 0 1.908-.85 1.914-1.904h0a1.904 1.904 0 0 1 1.913-1.913c.321.009.636.097.915.256h0a1.913 1.913 0 0 0 2.609-.695h0l.659-1.099a1.904 1.904 0 0 0-.696-2.608h0a1.904 1.904 0 0 1-.696-2.61c.166-.289.406-.529.696-.695h0a1.913 1.913 0 0 0 .696-2.6h0v-.008Z"/><circle id="Ellipse_737" cx="9.675" cy="10.389" r="2.636"/></g></g></symbol><symbol id="share" fill="none" viewBox="0 0 25 24"><path fill-rule="evenodd" stroke="currentColor" stroke-linecap="round" stroke-linejoin="round" stroke-width="1.5" d="M18.38 3a2.7 2.7 0 1 1 .001 5.399 2.7 2.7 0 0 1 0-5.399ZM7.58 9.3a2.7 2.7 0 1 1 .002 5.399 2.7 2.7 0 0 1-.001-5.4ZM18.38 15.6A2.7 2.7 0 1 1 18.381 21a2.7 2.7 0 0 1 0-5.399Z" clip-rule="evenodd"/><path stroke="currentColor" stroke-linecap="round" stroke-linejoin="round" stroke-width="1.5" d="m9.911 13.358 6.147 3.583m-.01-9.882L9.91 10.64"/></symbol><symbol id="simcard" fill="none" viewBox="0 0 24 24"><path stroke="currentColor" stroke-linecap="round" stroke-linejoin="round" stroke-width="1.5" d="m7.878 3 1.514 1.48L7.91 5.996"/><path stroke="currentColor" stroke-linecap="round" stroke-linejoin="round" stroke-width="1.5" d="M9.365 4.457H7.868A3.744 3.744 0 0 0 4.125 8.2M15.955 21l-1.514-1.481 1.482-1.513"/><path stroke="currentColor" stroke-linecap="round" stroke-linejoin="round" stroke-width="1.5" d="M14.469 19.544h1.497A3.744 3.744 0 0 0 19.71 15.8M8.115 12.21c.272 0 .533.112.722.308l1.852 1.929c.179.187.279.435.279.694v4.043a1.817 1.817 0 0 1-1.818 1.817H5.64a1.817 1.817 0 0 1-1.818-1.817v-5.157c0-1.003.814-1.816 1.818-1.816h2.475ZM17.324 3c.272 0 .533.11.722.307l1.852 1.929c.179.187.279.435.279.694v4.043a1.817 1.817 0 0 1-1.818 1.817h-3.51a1.817 1.817 0 0 1-1.818-1.817V4.817c0-1.004.814-1.817 1.818-1.817h2.475Z"/></symbol><symbol id="sun" fill="none" viewBox="0 0 25 24"><path stroke="currentColor" stroke-linecap="round" stroke-linejoin="round" stroke-width="1.5" d="M12.055 3v1.372m0 15.256V21m9-9h-1.372M4.427 12H3.055m15.364-6.364-.97.97M6.66 17.394l-.97.97m12.728 0-.97-.97M6.66 6.606l-.97-.97"/><path fill-rule="evenodd" stroke="currentColor" stroke-linecap="round" stroke-linejoin="round" stroke-width="1.5" d="M12.055 7.805a4.195 4.195 0 1 1 0 8.39 4.195 4.195 0 0 1 0-8.39Z" clip-rule="evenodd"/></symbol><symbol id="trainer" fill="none" viewBox="0 0 25 24"><path fill-rule="evenodd" stroke="currentColor" stroke-linecap="round" stroke-linejoin="round" stroke-width="1.5" d="M13.909 17.418c-.295-.922.05-1.973 1.016-2.284a1.648 1.648 0 0 1 1.492.25 1.66 1.66 0 0 1 1.49-.25c.965.31 1.313 1.362 1.018 2.284C18.466 18.877 16.417 20 16.417 20s-2.033-1.108-2.508-2.583Z" clip-rule="evenodd"/><path stroke="currentColor" stroke-linecap="round" stroke-linejoin="round" stroke-width="1.5" d="M5.273 19.573c0-2.052 1.62-4.608 6.287-4.608"/><path fill-rule="evenodd" stroke="currentColor" stroke-linecap="round" stroke-linejoin="round" stroke-width="1.5" d="M15.579 8.016a4.016 4.016 0 1 1-8.033-.001 4.016 4.016 0 0 1 8.033 0Z" clip-rule="evenodd"/></symbol><symbol id="user" fill="none" viewBox="0 0 25 24"><path stroke="currentColor" stroke-miterlimit="10" stroke-width="1.5" d="M7.07 20.5c-1.519 0-2.437-.986-2.502-2.36 0-1.554.936-2.89 2.551-3.467 1.289-.46 3.009.61 5.031.596 2.02.02 3.739-1.049 5.027-.592 1.625.577 2.564 1.911 2.555 3.464-.074 1.373-.986 2.358-2.502 2.358H7.07ZM12.158 11.628a4.064 4.064 0 1 0 0-8.128 4.064 4.064 0 0 0 0 8.128Z"/></symbol><symbol id="users" fill="none" viewBox="0 0 25 24"><path stroke="currentColor" stroke-miterlimit="10" stroke-width="1.5" d="M5.872 19.545c-1.228 0-1.97-.883-2.022-2.112 0-2.502 2.444-3.365 6.128-3.394 3.69.039 6.14.902 6.128 3.394-.06 1.23-.797 2.112-2.023 2.112H5.872Z"/><path stroke="currentColor" stroke-linecap="round" stroke-miterlimit="10" stroke-width="1.5" d="M18.643 18.816h1.566c.994 0 1.592-.716 1.64-1.713.01-1.757-1.491-2.515-3.849-2.705"/><path stroke="currentColor" stroke-miterlimit="10" stroke-width="1.5" d="M9.958 10.901a3.222 3.222 0 1 0 0-6.444 3.222 3.222 0 0 0 0 6.444ZM17.985 10.76a2.099 2.099 0 1 0 0-4.198 2.099 2.099 0 0 0 0 4.198Z"/></symbol><symbol id="usersgroup" fill="none" viewBox="0 0 25 24"><path stroke="currentColor" stroke-miterlimit="10" stroke-width="1.5" d="M9.31 19.564c-.895 0-1.436-.644-1.474-1.54 0-1.826 1.782-2.456 4.467-2.477 2.69.028 4.477.658 4.467 2.476-.043.897-.58 1.54-1.474 1.54H9.31ZM12.304 13.232a2.335 2.335 0 1 0 0-4.67 2.335 2.335 0 0 0 0 4.67Z"/><path stroke="currentColor" stroke-linecap="round" stroke-linejoin="round" stroke-miterlimit="10" stroke-width="1.5" d="M6.86 10.883c-2.23.017-3.71.54-3.71 2.056.032.745.481 1.28 1.224 1.28h2.888M17.441 10.883c2.23.017 3.71.54 3.71 2.056-.032.745-.482 1.28-1.225 1.28H17.04"/><path stroke="currentColor" stroke-miterlimit="10" stroke-width="1.5" d="M6.595 8.315a1.939 1.939 0 1 0 0-3.877 1.939 1.939 0 0 0 0 3.877ZM17.706 8.315a1.939 1.939 0 1 1 0-3.877 1.939 1.939 0 0 1 0 3.877Z"/></symbol></defs></svg>