<?xml version="1.0" encoding="utf-8"?>
<!-- Generator: Adobe Illustrator 26.3.1, SVG Export Plug-In . SVG Version: 6.00 Build 0)  -->
<svg version="1.1" id="Calque_1" xmlns="http://www.w3.org/2000/svg" xmlns:xlink="http://www.w3.org/1999/xlink" x="0px" y="0px"
	 viewBox="0 0 152 48" style="enable-background:new 0 0 152 48;" xml:space="preserve">
<g>
	<rect x="-28" y="-19" style="display:none;fill:#C2CDFF;" width="207" height="83"/>
	<g id="edukeasy_4_" transform="translate(0 91.226)" style="display:none;">
		<g id="Groupe_60" style="display:inline;">
			<path id="Tracé_97" style="fill:#FFFFFF;" d="M63.5-65.6c-0.3,0.2-0.6,0.3-0.9,0.3h-7.1c0.1,0.8,0.6,1.5,1.2,2
				c0.6,0.5,1.3,0.7,2.1,0.7c0.5,0,0.9,0,1.4-0.2c0.3-0.1,0.5-0.2,0.8-0.3c0.2-0.1,0.3-0.2,0.4-0.2c0.2-0.1,0.5-0.2,0.7-0.2
				c0.3,0,0.6,0.1,0.8,0.3c0.2,0.2,0.3,0.5,0.3,0.8c0,0.4-0.2,0.8-0.6,1.1c-0.5,0.4-1,0.7-1.6,0.8c-1.7,0.6-3.6,0.4-5.2-0.4
				c-0.9-0.5-1.6-1.2-2.1-2.1c-0.5-0.9-0.7-1.9-0.7-3c0-1.1,0.2-2.3,0.8-3.3c0.5-0.9,1.2-1.6,2-2.1c0.8-0.5,1.8-0.7,2.7-0.7
				c1,0,1.9,0.3,2.7,0.8c0.8,0.5,1.5,1.2,2,2.1c0.5,0.9,0.8,1.8,0.8,2.8C63.9-66.1,63.7-65.8,63.5-65.6z M55.5-67.4h5.6v-0.2
				c-0.1-0.6-0.4-1.2-0.9-1.6c-0.5-0.4-1.2-0.7-1.8-0.6C56.7-69.7,55.8-69,55.5-67.4L55.5-67.4z"/>
			<path id="Tracé_98" style="fill:#FFFFFF;" d="M75.6-75.9c0.2,0.3,0.4,0.6,0.4,0.9v13.3c0,0.3-0.1,0.7-0.4,0.9
				c-0.2,0.3-0.6,0.4-0.9,0.4c-0.3,0-0.7-0.1-0.9-0.4c-0.2-0.2-0.4-0.6-0.4-0.9c-0.9,0.9-2.1,1.5-3.4,1.5c-1,0-1.9-0.3-2.7-0.8
				c-0.8-0.5-1.5-1.3-1.9-2.1c-0.5-1-0.7-2-0.7-3.1c0-1.1,0.2-2.1,0.7-3.1c0.4-0.9,1.1-1.6,1.9-2.1c0.8-0.5,1.7-0.8,2.6-0.8
				c0.7,0,1.3,0.1,1.9,0.4c0.6,0.2,1.1,0.6,1.5,1V-75c0-0.3,0.1-0.7,0.4-0.9c0.2-0.3,0.6-0.4,0.9-0.4C75.1-76.3,75.4-76.2,75.6-75.9
				z M72.6-63.5c0.6-0.7,0.9-1.6,0.9-2.6c0-0.9-0.3-1.9-0.9-2.6c-1.1-1.3-3-1.4-4.3-0.3c-0.1,0.1-0.2,0.2-0.3,0.3
				c-1.2,1.5-1.2,3.6,0,5.2c0.6,0.7,1.4,1.1,2.3,1C71.2-62.5,72.1-62.9,72.6-63.5L72.6-63.5z"/>
			<path id="Tracé_99" style="fill:#FFFFFF;" d="M88-71.5c0.2,0.3,0.4,0.6,0.4,0.9v5.5c0,1.6-0.4,2.8-1.3,3.6s-2.1,1.3-3.7,1.3
				c-1.6,0-2.8-0.4-3.6-1.3c-0.8-0.9-1.3-2.1-1.3-3.6v-5.5c0-0.3,0.1-0.7,0.4-0.9c0.5-0.5,1.3-0.5,1.9,0c0.2,0.3,0.4,0.6,0.4,0.9
				v5.5c-0.1,0.7,0.2,1.4,0.6,2c0.5,0.5,1.1,0.7,1.7,0.6c0.7,0.1,1.3-0.2,1.8-0.6c0.4-0.6,0.6-1.3,0.6-2v-5.5c0-0.3,0.1-0.7,0.4-0.9
				C86.7-72,87.5-72,88-71.5L88-71.5z"/>
			<path id="Tracé_100" style="fill:#FFFFFF;" d="M100.5-61.7c0,0.3-0.2,0.7-0.4,0.9c-0.2,0.2-0.6,0.4-0.9,0.4
				c-0.4,0-0.7-0.2-0.9-0.4l-3.9-4.1l-1.1,1v2.3c0,0.3-0.1,0.7-0.4,0.9c-0.5,0.5-1.3,0.5-1.9,0c-0.2-0.3-0.4-0.6-0.4-0.9V-75
				c0-0.3,0.1-0.7,0.4-0.9c0.5-0.5,1.3-0.5,1.9,0c0.2,0.3,0.4,0.6,0.4,0.9v8l4.6-4.5c0.2-0.3,0.6-0.4,0.9-0.4c0.3,0,0.6,0.2,0.9,0.4
				c0.2,0.2,0.4,0.5,0.4,0.8c0,0.4-0.2,0.7-0.5,1l-3.3,3l3.8,4.1C100.4-62.4,100.5-62,100.5-61.7z"/>
			<path id="Tracé_101" style="fill:#FFFFFF;" d="M111.6-65.6c-0.3,0.2-0.6,0.3-0.9,0.3h-7.1c0.1,0.8,0.6,1.5,1.2,2
				c0.6,0.5,1.3,0.7,2.1,0.7c0.5,0,0.9,0,1.4-0.2c0.3-0.1,0.5-0.2,0.8-0.3c0.2-0.1,0.3-0.2,0.4-0.2c0.2-0.1,0.5-0.2,0.7-0.2
				c0.3,0,0.6,0.1,0.8,0.3c0.2,0.2,0.3,0.5,0.3,0.8c0,0.4-0.2,0.8-0.6,1.1c-0.5,0.4-1,0.7-1.6,0.8c-1.7,0.6-3.6,0.4-5.2-0.4
				c-0.9-0.5-1.6-1.2-2.1-2.1c-0.5-0.9-0.7-1.9-0.7-3c0-1.1,0.2-2.3,0.8-3.3c0.5-0.9,1.2-1.6,2-2.1c0.8-0.5,1.8-0.7,2.7-0.7
				c1,0,1.9,0.3,2.7,0.8c0.8,0.5,1.5,1.2,2,2.1c0.5,0.9,0.8,1.8,0.8,2.8C112-66.1,111.9-65.8,111.6-65.6z M103.6-67.4h5.6v-0.2
				c-0.1-0.6-0.4-1.2-0.9-1.6c-0.5-0.4-1.2-0.7-1.8-0.6C104.9-69.7,103.9-69,103.6-67.4L103.6-67.4z"/>
			<path id="Tracé_102" style="fill:#FFFFFF;" d="M123.9-71.7c0.2,0.3,0.4,0.6,0.4,0.9v9.1c0,0.3-0.1,0.7-0.4,0.9
				c-0.2,0.3-0.6,0.4-0.9,0.4c-0.3,0-0.7-0.1-0.9-0.4c-0.2-0.2-0.4-0.6-0.4-0.9c-0.9,0.9-2.1,1.5-3.4,1.5c-1,0-1.9-0.3-2.7-0.8
				c-0.8-0.5-1.5-1.3-1.9-2.1c-0.5-1-0.7-2-0.7-3.1c0-1.1,0.2-2.1,0.7-3.1c0.4-0.9,1.1-1.6,1.9-2.1c0.8-0.5,1.7-0.8,2.6-0.8
				c0.7,0,1.3,0.1,1.9,0.4c0.6,0.2,1.1,0.6,1.5,1v0c0-0.3,0.1-0.7,0.4-0.9c0.2-0.3,0.6-0.4,0.9-0.4C123.3-72.1,123.6-72,123.9-71.7z
				 M120.9-63.5c0.6-0.7,0.9-1.6,0.9-2.6c0-0.9-0.3-1.9-0.9-2.6c-1.1-1.3-3-1.4-4.3-0.3c-0.1,0.1-0.2,0.2-0.3,0.3
				c-1.2,1.5-1.2,3.6,0,5.2c0.6,0.7,1.4,1.1,2.3,1C119.5-62.5,120.3-62.9,120.9-63.5L120.9-63.5z"/>
			<path id="Tracé_103" style="fill:#FFFFFF;" d="M125.5-62.8c0-0.6,0.6-1.1,1.2-1.1c0.3,0,0.6,0.2,0.9,0.4c0.4,0.4,0.8,0.7,1.3,1
				c0.5,0.2,1.1,0.3,1.7,0.3c1.1,0,1.7-0.5,1.7-1.3c0-0.4-0.2-0.8-0.6-0.9c-0.6-0.3-1.2-0.5-1.8-0.6c-0.7-0.2-1.4-0.4-2-0.7
				c-0.5-0.2-1-0.6-1.4-1c-0.4-0.5-0.6-1.2-0.6-1.9c0-0.7,0.2-1.3,0.6-1.8c0.4-0.5,0.9-0.9,1.6-1.2c0.6-0.3,1.3-0.4,2-0.4
				c0.8,0,1.5,0.1,2.2,0.4c0.7,0.2,1.3,0.7,1.7,1.2c0.2,0.2,0.3,0.5,0.3,0.8c0,0.3-0.1,0.6-0.4,0.8c-0.2,0.2-0.4,0.2-0.7,0.2
				c-0.3,0-0.6-0.1-0.8-0.3c-0.3-0.3-0.6-0.6-1-0.8c-0.4-0.2-0.9-0.3-1.4-0.3c-1.1,0-1.6,0.4-1.6,1.2c0,0.3,0.1,0.6,0.3,0.8
				c0.2,0.2,0.5,0.4,0.8,0.5c0.3,0.1,0.7,0.2,1.3,0.4c0.7,0.2,1.3,0.4,1.9,0.7c0.5,0.2,1,0.6,1.3,1.1c0.4,0.5,0.6,1.2,0.5,1.9
				c0,0.7-0.2,1.3-0.6,1.8c-0.4,0.5-1,0.9-1.6,1.2c-0.6,0.3-1.3,0.4-2,0.4c-0.9,0-1.8-0.2-2.7-0.5c-0.8-0.3-1.5-0.8-2-1.5
				C125.6-62.3,125.5-62.6,125.5-62.8z"/>
			<path id="Tracé_104" style="fill:#FFFFFF;" d="M145.6-71.5c0.2,0.3,0.4,0.6,0.4,0.9v9.2c0,1.9-0.5,3.2-1.5,4.1
				c-1,0.9-2.4,1.3-4,1.3c-0.5,0-1,0-1.5-0.1c-0.4-0.1-0.8-0.2-1.2-0.3c-0.7-0.3-1.1-0.7-1.1-1.3c0-0.1,0-0.2,0.1-0.3
				c0.1-0.3,0.2-0.5,0.4-0.7c0.2-0.2,0.4-0.2,0.7-0.2c0.1,0,0.3,0,0.4,0.1c0.1,0,0.3,0.1,0.5,0.2c0.3,0.1,0.5,0.2,0.8,0.2
				c0.3,0.1,0.6,0.1,0.9,0.1c1,0,1.8-0.2,2.3-0.7c0.5-0.4,0.7-1.2,0.7-2.3v-0.2c-0.7,0.9-1.9,1.4-3.5,1.4c-0.7,0-1.4-0.2-2-0.5
				c-0.6-0.4-1-0.9-1.3-1.5c-0.3-0.7-0.5-1.4-0.5-2.1v-6.3c0-0.3,0.1-0.7,0.4-0.9c0.5-0.5,1.3-0.5,1.9,0c0.2,0.3,0.4,0.6,0.4,0.9
				v5.5c0,0.9,0.2,1.6,0.6,2c0.5,0.4,1.1,0.6,1.7,0.6c0.6,0,1.3-0.2,1.7-0.7c0.4-0.5,0.7-1.2,0.6-1.9v-5.5c0-0.3,0.1-0.7,0.4-0.9
				C144.3-72,145.1-72,145.6-71.5L145.6-71.5z"/>
		</g>
	</g>
	<g id="Groupe_68" transform="translate(-738.497 -477.754)">
		<g id="Groupe_68-2" transform="translate(804.496 477.754)">
			<path id="Tracé_87" style="fill:#39E8FF;" d="M-58.2,20.8"/>
			<path id="Tracé_11" style="opacity:0.284;fill-rule:evenodd;clip-rule:evenodd;fill:#FFFFFF;enable-background:new    ;" d="
				M-39.5,14.5l-14.9-5.1c-6.3,8.3-4.7,20.1,3.5,26.4s20.1,4.7,26.4-3.5c5.2-6.8,5.1-16.1,0-22.9L-39.5,14.5z"/>
			<path id="Tracé_11-2" style="opacity:0.284;fill-rule:evenodd;clip-rule:evenodd;fill:#FFFFFF;enable-background:new    ;" d="
				M-39.5,14.5c0,8.4,0.1,16.7,0.1,25.1c3.9,0,7.7-1.3,10.9-3.5c1.5-1.1,2.9-2.5,4.1-3.9c5.2-6.8,5.1-16.1,0-22.9L-39.5,14.5z"/>
		</g>
		<g id="Groupe_69" transform="translate(829.645 501.954)">
			<path id="Tracé_105" style="fill:#FFFFFF;" d="M-64.5,5.4c-4.5,0-8.2-3.6-8.2-8.1v-0.1c0-1,0.8-1.7,1.7-1.7h0
				c1,0,1.7,0.8,1.7,1.8v0.1c0,2.6,2.2,4.7,4.8,4.6c2.6,0,4.7-2.1,4.6-4.7c0-1,0.8-1.8,1.7-1.8c0,0,0,0,0,0h0c1,0,1.7,0.8,1.7,1.7
				C-56.3,1.6-60,5.3-64.5,5.4C-64.5,5.4-64.5,5.4-64.5,5.4L-64.5,5.4z"/>
		</g>
	</g>
	<g id="icone_app">
		<path id="Rectangle_5" style="display:none;fill:#39E8FF;" d="M13-4.3h25.2c7.2,0,13,5.8,13,13v25.2c0,7.2-5.8,13-13,13H13
			c-7.2,0-13-5.8-13-13V8.7C0,1.5,5.8-4.3,13-4.3z"/>
		<g>
			<g>
				<path id="Tracé_87_5_" style="display:none;fill:#39E8FF;" d="M25.6,1.4c11,0,19.8,8.9,19.8,19.8s-8.9,19.8-19.8,19.8
					S5.8,32.2,5.8,21.3l0,0C5.8,10.3,14.7,1.4,25.6,1.4z"/>
				<path id="Tracé_11_10_" style="fill-rule:evenodd;clip-rule:evenodd;fill:#AC2BE8;" d="M25.5,14.6L9.9,9.3
					c-6.6,8.7-5,21.2,3.7,27.8c8.7,6.6,21.2,5,27.8-3.7c5.4-7.1,5.4-17,0-24.1L25.5,14.6z"/>
				<path id="Tracé_11_9_" style="fill-rule:evenodd;clip-rule:evenodd;fill:#6818D1;" d="M25.5,14.6c0,8.8,0.1,17.7,0.1,26.5
					c2.1,0,6.9-0.4,11.5-3.7c0,0,2.5-1.8,4.3-4.1c5.4-7.1,5.4-17,0-24.1L25.5,14.6z"/>
			</g>
			<g>
				<path style="fill:#FFFFFF;" d="M25.6,30.5c-2.3,0-4.4-0.9-6.1-2.5c-1.6-1.6-2.6-3.8-2.6-6.1l0-0.1c0-1,0.8-1.8,1.8-1.8
					c0,0,0,0,0,0c1,0,1.8,0.8,1.8,1.9v0.1c0,1.3,0.5,2.6,1.5,3.5c0.9,0.9,2.2,1.4,3.5,1.4c1.3,0,2.6-0.5,3.5-1.5
					c0.9-0.9,1.4-2.2,1.4-3.5c0-1,0.8-1.8,1.8-1.9c0,0,0,0,0,0c1,0,1.8,0.8,1.8,1.8c0,2.3-0.9,4.5-2.5,6.1
					C30.2,29.6,28,30.5,25.6,30.5C25.7,30.5,25.6,30.5,25.6,30.5z"/>
			</g>
		</g>
	</g>
	<g id="edukeasy_00000070798179654730904950000005330152132845752470_" transform="translate(0 91.226)">
		<g id="Groupe_60_00000039123408655490006500000003058232019819977629_">
			<path id="Tracé_97_00000117658750066565938290000001799888301766520742_" style="fill:#AC2BE8;" d="M63.5-65.6
				c-0.3,0.2-0.6,0.3-0.9,0.3h-7.1c0.1,0.8,0.6,1.5,1.2,2c0.6,0.5,1.3,0.7,2.1,0.7c0.5,0,0.9,0,1.4-0.2c0.3-0.1,0.5-0.2,0.8-0.3
				c0.2-0.1,0.3-0.2,0.4-0.2c0.2-0.1,0.5-0.2,0.7-0.2c0.3,0,0.6,0.1,0.8,0.3c0.2,0.2,0.3,0.5,0.3,0.8c0,0.4-0.2,0.8-0.6,1.1
				c-0.5,0.4-1,0.7-1.6,0.8c-1.7,0.6-3.6,0.4-5.2-0.4c-0.9-0.5-1.6-1.2-2.1-2.1c-0.5-0.9-0.7-1.9-0.7-3c0-1.1,0.2-2.3,0.8-3.3
				c0.5-0.9,1.2-1.6,2-2.1c0.8-0.5,1.8-0.7,2.7-0.7c1,0,1.9,0.3,2.7,0.8c0.8,0.5,1.5,1.2,2,2.1c0.5,0.9,0.8,1.8,0.8,2.8
				C63.9-66.1,63.7-65.8,63.5-65.6z M55.5-67.4h5.6v-0.2c-0.1-0.6-0.4-1.2-0.9-1.6c-0.5-0.4-1.2-0.7-1.8-0.6
				C56.7-69.7,55.8-69,55.5-67.4L55.5-67.4z"/>
			<path id="Tracé_98_00000082353199304091426000000016775735506003315359_" style="fill:#AC2BE8;" d="M75.6-75.9
				c0.2,0.3,0.4,0.6,0.4,0.9v13.3c0,0.3-0.1,0.7-0.4,0.9c-0.2,0.3-0.6,0.4-0.9,0.4c-0.3,0-0.7-0.1-0.9-0.4c-0.2-0.2-0.4-0.6-0.4-0.9
				c-0.9,0.9-2.1,1.5-3.4,1.5c-1,0-1.9-0.3-2.7-0.8c-0.8-0.5-1.5-1.3-1.9-2.1c-0.5-1-0.7-2-0.7-3.1c0-1.1,0.2-2.1,0.7-3.1
				c0.4-0.9,1.1-1.6,1.9-2.1c0.8-0.5,1.7-0.8,2.6-0.8c0.7,0,1.3,0.1,1.9,0.4c0.6,0.2,1.1,0.6,1.5,1V-75c0-0.3,0.1-0.7,0.4-0.9
				c0.2-0.3,0.6-0.4,0.9-0.4C75.1-76.3,75.4-76.2,75.6-75.9z M72.6-63.5c0.6-0.7,0.9-1.6,0.9-2.6c0-0.9-0.3-1.9-0.9-2.6
				c-1.1-1.3-3-1.4-4.3-0.3c-0.1,0.1-0.2,0.2-0.3,0.3c-1.2,1.5-1.2,3.6,0,5.2c0.6,0.7,1.4,1.1,2.3,1C71.2-62.5,72.1-62.9,72.6-63.5
				L72.6-63.5z"/>
			<path id="Tracé_99_00000021086145131752685340000008085318960131932573_" style="fill:#AC2BE8;" d="M88-71.5
				c0.2,0.3,0.4,0.6,0.4,0.9v5.5c0,1.6-0.4,2.8-1.3,3.6s-2.1,1.3-3.7,1.3c-1.6,0-2.8-0.4-3.6-1.3c-0.8-0.9-1.3-2.1-1.3-3.6v-5.5
				c0-0.3,0.1-0.7,0.4-0.9c0.5-0.5,1.3-0.5,1.9,0c0.2,0.3,0.4,0.6,0.4,0.9v5.5c-0.1,0.7,0.2,1.4,0.6,2c0.5,0.5,1.1,0.7,1.7,0.6
				c0.7,0.1,1.3-0.2,1.8-0.6c0.4-0.6,0.6-1.3,0.6-2v-5.5c0-0.3,0.1-0.7,0.4-0.9C86.7-72,87.5-72,88-71.5L88-71.5z"/>
			<path id="Tracé_100_00000057847841302181333320000004951791591675672463_" style="fill:#AC2BE8;" d="M100.5-61.7
				c0,0.3-0.2,0.7-0.4,0.9c-0.2,0.2-0.6,0.4-0.9,0.4c-0.4,0-0.7-0.2-0.9-0.4l-3.9-4.1l-1.1,1v2.3c0,0.3-0.1,0.7-0.4,0.9
				c-0.5,0.5-1.3,0.5-1.9,0c-0.2-0.3-0.4-0.6-0.4-0.9V-75c0-0.3,0.1-0.7,0.4-0.9c0.5-0.5,1.3-0.5,1.9,0c0.2,0.3,0.4,0.6,0.4,0.9v8
				l4.6-4.5c0.2-0.3,0.6-0.4,0.9-0.4c0.3,0,0.6,0.2,0.9,0.4c0.2,0.2,0.4,0.5,0.4,0.8c0,0.4-0.2,0.7-0.5,1l-3.3,3l3.8,4.1
				C100.4-62.4,100.5-62,100.5-61.7z"/>
			<path id="Tracé_101_00000127021465001163314500000007853393986025361825_" style="fill:#AC2BE8;" d="M111.6-65.6
				c-0.3,0.2-0.6,0.3-0.9,0.3h-7.1c0.1,0.8,0.6,1.5,1.2,2c0.6,0.5,1.3,0.7,2.1,0.7c0.5,0,0.9,0,1.4-0.2c0.3-0.1,0.5-0.2,0.8-0.3
				c0.2-0.1,0.3-0.2,0.4-0.2c0.2-0.1,0.5-0.2,0.7-0.2c0.3,0,0.6,0.1,0.8,0.3c0.2,0.2,0.3,0.5,0.3,0.8c0,0.4-0.2,0.8-0.6,1.1
				c-0.5,0.4-1,0.7-1.6,0.8c-1.7,0.6-3.6,0.4-5.2-0.4c-0.9-0.5-1.6-1.2-2.1-2.1c-0.5-0.9-0.7-1.9-0.7-3c0-1.1,0.2-2.3,0.8-3.3
				c0.5-0.9,1.2-1.6,2-2.1c0.8-0.5,1.8-0.7,2.7-0.7c1,0,1.9,0.3,2.7,0.8c0.8,0.5,1.5,1.2,2,2.1c0.5,0.9,0.8,1.8,0.8,2.8
				C112-66.1,111.9-65.8,111.6-65.6z M103.6-67.4h5.6v-0.2c-0.1-0.6-0.4-1.2-0.9-1.6c-0.5-0.4-1.2-0.7-1.8-0.6
				C104.9-69.7,103.9-69,103.6-67.4L103.6-67.4z"/>
			<path id="Tracé_102_00000017500043714259726360000009532265886004868234_" style="fill:#AC2BE8;" d="M123.9-71.7
				c0.2,0.3,0.4,0.6,0.4,0.9v9.1c0,0.3-0.1,0.7-0.4,0.9c-0.2,0.3-0.6,0.4-0.9,0.4c-0.3,0-0.7-0.1-0.9-0.4c-0.2-0.2-0.4-0.6-0.4-0.9
				c-0.9,0.9-2.1,1.5-3.4,1.5c-1,0-1.9-0.3-2.7-0.8c-0.8-0.5-1.5-1.3-1.9-2.1c-0.5-1-0.7-2-0.7-3.1c0-1.1,0.2-2.1,0.7-3.1
				c0.4-0.9,1.1-1.6,1.9-2.1c0.8-0.5,1.7-0.8,2.6-0.8c0.7,0,1.3,0.1,1.9,0.4c0.6,0.2,1.1,0.6,1.5,1v0c0-0.3,0.1-0.7,0.4-0.9
				c0.2-0.3,0.6-0.4,0.9-0.4C123.3-72.1,123.6-72,123.9-71.7z M120.9-63.5c0.6-0.7,0.9-1.6,0.9-2.6c0-0.9-0.3-1.9-0.9-2.6
				c-1.1-1.3-3-1.4-4.3-0.3c-0.1,0.1-0.2,0.2-0.3,0.3c-1.2,1.5-1.2,3.6,0,5.2c0.6,0.7,1.4,1.1,2.3,1
				C119.5-62.5,120.3-62.9,120.9-63.5L120.9-63.5z"/>
			<path id="Tracé_103_00000163762388649038343850000009075735868112098211_" style="fill:#AC2BE8;" d="M125.5-62.8
				c0-0.6,0.6-1.1,1.2-1.1c0.3,0,0.6,0.2,0.9,0.4c0.4,0.4,0.8,0.7,1.3,1c0.5,0.2,1.1,0.3,1.7,0.3c1.1,0,1.7-0.5,1.7-1.3
				c0-0.4-0.2-0.8-0.6-0.9c-0.6-0.3-1.2-0.5-1.8-0.6c-0.7-0.2-1.4-0.4-2-0.7c-0.5-0.2-1-0.6-1.4-1c-0.4-0.5-0.6-1.2-0.6-1.9
				c0-0.7,0.2-1.3,0.6-1.8c0.4-0.5,0.9-0.9,1.6-1.2c0.6-0.3,1.3-0.4,2-0.4c0.8,0,1.5,0.1,2.2,0.4c0.7,0.2,1.3,0.7,1.7,1.2
				c0.2,0.2,0.3,0.5,0.3,0.8c0,0.3-0.1,0.6-0.4,0.8c-0.2,0.2-0.4,0.2-0.7,0.2c-0.3,0-0.6-0.1-0.8-0.3c-0.3-0.3-0.6-0.6-1-0.8
				c-0.4-0.2-0.9-0.3-1.4-0.3c-1.1,0-1.6,0.4-1.6,1.2c0,0.3,0.1,0.6,0.3,0.8c0.2,0.2,0.5,0.4,0.8,0.5c0.3,0.1,0.7,0.2,1.3,0.4
				c0.7,0.2,1.3,0.4,1.9,0.7c0.5,0.2,1,0.6,1.3,1.1c0.4,0.5,0.6,1.2,0.5,1.9c0,0.7-0.2,1.3-0.6,1.8c-0.4,0.5-1,0.9-1.6,1.2
				c-0.6,0.3-1.3,0.4-2,0.4c-0.9,0-1.8-0.2-2.7-0.5c-0.8-0.3-1.5-0.8-2-1.5C125.6-62.3,125.5-62.6,125.5-62.8z"/>
			<path id="Tracé_104_00000032606457794004155700000014598074716140976558_" style="fill:#AC2BE8;" d="M145.6-71.5
				c0.2,0.3,0.4,0.6,0.4,0.9v9.2c0,1.9-0.5,3.2-1.5,4.1c-1,0.9-2.4,1.3-4,1.3c-0.5,0-1,0-1.5-0.1c-0.4-0.1-0.8-0.2-1.2-0.3
				c-0.7-0.3-1.1-0.7-1.1-1.3c0-0.1,0-0.2,0.1-0.3c0.1-0.3,0.2-0.5,0.4-0.7c0.2-0.2,0.4-0.2,0.7-0.2c0.1,0,0.3,0,0.4,0.1
				c0.1,0,0.3,0.1,0.5,0.2c0.3,0.1,0.5,0.2,0.8,0.2c0.3,0.1,0.6,0.1,0.9,0.1c1,0,1.8-0.2,2.3-0.7c0.5-0.4,0.7-1.2,0.7-2.3v-0.2
				c-0.7,0.9-1.9,1.4-3.5,1.4c-0.7,0-1.4-0.2-2-0.5c-0.6-0.4-1-0.9-1.3-1.5c-0.3-0.7-0.5-1.4-0.5-2.1v-6.3c0-0.3,0.1-0.7,0.4-0.9
				c0.5-0.5,1.3-0.5,1.9,0c0.2,0.3,0.4,0.6,0.4,0.9v5.5c0,0.9,0.2,1.6,0.6,2c0.5,0.4,1.1,0.6,1.7,0.6c0.6,0,1.3-0.2,1.7-0.7
				c0.4-0.5,0.7-1.2,0.6-1.9v-5.5c0-0.3,0.1-0.7,0.4-0.9C144.3-72,145.1-72,145.6-71.5L145.6-71.5z"/>
		</g>
	</g>
</g>
</svg>
