<svg xmlns="http://www.w3.org/2000/svg" width="0" height="0"><defs><symbol id="edit" fill="none" viewBox="0 0 24 24"><path stroke="currentColor" stroke-linecap="round" stroke-linejoin="round" stroke-width="1.5" d="m11.426 6.975 5.496 4.038M8.134 19.923l1.667-.485a4.109 4.109 0 0 0 2.212-1.581l6.389-8.86a2.35 2.35 0 0 0-.516-3.283L16.153 4.45a2.352 2.352 0 0 0-3.284.516L6.41 13.924a4.113 4.113 0 0 0-.746 2.398l.016 1.776a1.919 1.919 0 0 0 2.454 1.825Z"/></symbol><symbol id="more" viewBox="0 0 24 24"><g id="Iconly/Light/More-Circle" fill="none" fill-rule="evenodd" stroke="currentColor" stroke-linecap="round" stroke-linejoin="round" stroke-width="1.5"><g id="More-Circle" stroke="currentColor" stroke-width="1.5" transform="translate(2 2)"><path id="Stroke-1" d="M10 .75a9.25 9.25 0 1 1 0 18.5 9.25 9.25 0 0 1 0-18.5Z"/><path id="Stroke-11" d="M13.939 10.013h.009"/><path id="Stroke-13" d="M9.93 10.013h.009"/><path id="Stroke-15" d="M5.921 10.013h.009"/></g></g></symbol><symbol id="preview" viewBox="0 0 24 24"><g id="Iconly/Light/Show" fill="none" fill-rule="evenodd" stroke="currentColor" stroke-linecap="round" stroke-linejoin="round" stroke-width="1.5"><g id="Show" stroke="currentColor" stroke-width="1.5" transform="translate(2 4)"><path id="Stroke-1" d="M13.162 8.053a3.162 3.162 0 1 1-6.324-.001 3.162 3.162 0 0 1 6.324.001Z"/><path id="Stroke-3" d="M9.998 15.355c3.808 0 7.291-2.738 9.252-7.302C17.289 3.489 13.806.75 9.998.75h.004C6.194.75 2.711 3.489.75 8.053c1.961 4.564 5.444 7.302 9.252 7.302h-.004Z"/></g></g></symbol><symbol id="search" viewBox="0 0 24 24"><g id="Iconly/Light/Search" fill="none" fill-rule="evenodd" stroke="currentColor" stroke-linecap="round" stroke-linejoin="round" stroke-width="1.5"><g id="Search" stroke="currentColor" stroke-width="1.5" transform="translate(2 2)"><circle id="Ellipse_739" cx="9.767" cy="9.767" r="8.989"/><path id="Line_181" d="M16.018 16.485 19.542 20"/></g></g></symbol><symbol id="share" fill="none" viewBox="0 0 25 24"><path fill-rule="evenodd" stroke="currentColor" stroke-linecap="round" stroke-linejoin="round" stroke-width="1.5" d="M18.38 3a2.7 2.7 0 1 1 .001 5.399 2.7 2.7 0 0 1 0-5.399ZM7.58 9.3a2.7 2.7 0 1 1 .002 5.399 2.7 2.7 0 0 1-.001-5.4ZM18.38 15.6A2.7 2.7 0 1 1 18.381 21a2.7 2.7 0 0 1 0-5.399Z" clip-rule="evenodd"/><path stroke="currentColor" stroke-linecap="round" stroke-linejoin="round" stroke-width="1.5" d="m9.911 13.358 6.147 3.583m-.01-9.882L9.91 10.64"/></symbol><symbol id="user" fill="none" viewBox="0 0 25 24"><path stroke="currentColor" stroke-miterlimit="10" stroke-width="1.5" d="M7.07 20.5c-1.519 0-2.437-.986-2.502-2.36 0-1.554.936-2.89 2.551-3.467 1.289-.46 3.009.61 5.031.596 2.02.02 3.739-1.049 5.027-.592 1.625.577 2.564 1.911 2.555 3.464-.074 1.373-.986 2.358-2.502 2.358H7.07ZM12.158 11.628a4.064 4.064 0 1 0 0-8.128 4.064 4.064 0 0 0 0 8.128Z"/></symbol></defs></svg>